<svg data-v-423bf9ae="" xmlns="http://www.w3.org/2000/svg" viewBox="0 0 818.1456753993012 195" class="iconAboveSlogan"><!----><!----><!----><g data-v-423bf9ae="" id="373be94d-35e1-4cfe-a7ad-fa8c7fa31fc6" fill="white" transform="matrix(4.415010987956055,0,0,4.415010987956055,0.7505425944366948,84.50110323099801)"><path d="M12.56 5.28L12.56 5.28Q13.22 5.28 13.64 5.24L13.64 5.24L13.64 5.52L13.64 5.52Q13.29 5.66 12.96 6.05L12.96 6.05L12.96 6.05Q12.63 6.45 12.40 7.18L12.40 7.18L9.94 15.18L9.94 15.18Q9.79 15.16 9.45 15.16L9.45 15.16L9.45 15.16Q9.11 15.16 8.96 15.18L8.96 15.18L6.90 8.93L4.83 15.18L4.83 15.18Q4.68 15.16 4.34 15.16L4.34 15.16L4.34 15.16Q4.00 15.16 3.85 15.18L3.85 15.18L0.71 6.41L0.71 6.41Q0.55 5.95 0.31 5.74L0.31 5.74L0.31 5.74Q0.07 5.53-0.17 5.52L-0.17 5.52L-0.17 5.24L-0.17 5.24Q0.67 5.28 1.92 5.28L1.92 5.28L1.92 5.28Q3.09 5.28 3.64 5.24L3.64 5.24L3.64 5.52L3.64 5.52Q3.15 5.59 3.15 6.06L3.15 6.06L3.15 6.06Q3.15 6.29 3.28 6.69L3.28 6.69L5.32 12.61L6.73 8.44L6.02 6.27L6.02 6.27Q5.88 5.87 5.69 5.71L5.69 5.71L5.69 5.71Q5.50 5.54 5.25 5.52L5.25 5.52L5.25 5.24L5.25 5.24Q6.03 5.28 7.25 5.28L7.25 5.28L7.25 5.28Q8.62 5.28 9.27 5.24L9.27 5.24L9.27 5.52L9.27 5.52Q8.76 5.53 8.54 5.63L8.54 5.63L8.54 5.63Q8.32 5.74 8.32 6.03L8.32 6.03L8.32 6.03Q8.32 6.29 8.46 6.69L8.46 6.69L10.37 12.54L11.70 8.32L11.70 8.32Q12.03 7.27 12.03 6.69L12.03 6.69L12.03 6.69Q12.03 6.09 11.72 5.82L11.72 5.82L11.72 5.82Q11.42 5.54 10.82 5.52L10.82 5.52L10.82 5.24L10.82 5.24Q11.77 5.28 12.56 5.28L12.56 5.28ZM15.74 15.25L15.74 15.25Q14.84 15.25 14.40 14.78L14.40 14.78L14.40 14.78Q13.96 14.32 13.96 13.57L13.96 13.57L13.96 13.57Q13.96 12.94 14.29 12.52L14.29 12.52L14.29 12.52Q14.62 12.11 15.08 11.89L15.08 11.89L15.08 11.89Q15.55 11.66 16.28 11.41L16.28 11.41L16.28 11.41Q17.05 11.14 17.41 10.93L17.41 10.93L17.41 10.93Q17.77 10.71 17.77 10.33L17.77 10.33L17.77 9.24L17.77 9.24Q17.77 8.65 17.49 8.32L17.49 8.32L17.49 8.32Q17.22 7.99 16.65 7.99L16.65 7.99L16.65 7.99Q15.97 7.99 15.62 8.33L15.62 8.33L15.62 8.33Q16.02 8.47 16.23 8.75L16.23 8.75L16.23 8.75Q16.45 9.03 16.45 9.41L16.45 9.41L16.45 9.41Q16.45 9.88 16.13 10.16L16.13 10.16L16.13 10.16Q15.81 10.44 15.34 10.44L15.34 10.44L15.34 10.44Q14.85 10.44 14.59 10.14L14.59 10.14L14.59 10.14Q14.32 9.83 14.32 9.37L14.32 9.37L14.32 9.37Q14.32 8.97 14.51 8.70L14.51 8.70L14.51 8.70Q14.70 8.43 15.09 8.19L15.09 8.19L15.09 8.19Q15.47 7.97 16.02 7.84L16.02 7.84L16.02 7.84Q16.58 7.71 17.23 7.71L17.23 7.71L17.23 7.71Q17.92 7.71 18.42 7.85L18.42 7.85L18.42 7.85Q18.93 7.99 19.26 8.33L19.26 8.33L19.26 8.33Q19.57 8.64 19.68 9.09L19.68 9.09L19.68 9.09Q19.78 9.53 19.78 10.30L19.78 10.30L19.78 14.11L19.78 14.11Q19.78 14.45 19.84 14.59L19.84 14.59L19.84 14.59Q19.91 14.73 20.09 14.73L20.09 14.73L20.09 14.73Q20.30 14.73 20.59 14.49L20.59 14.49L20.73 14.73L20.73 14.73Q20.10 15.25 19.19 15.25L19.19 15.25L19.19 15.25Q18.42 15.25 18.12 14.94L18.12 14.94L18.12 14.94Q17.81 14.63 17.79 14.11L17.79 14.11L17.79 14.11Q17.09 15.25 15.74 15.25L15.74 15.25ZM16.81 14.35L16.81 14.35Q17.36 14.35 17.77 13.78L17.77 13.78L17.77 10.91L17.77 10.91Q17.60 11.19 17.05 11.52L17.05 11.52L17.05 11.52Q16.51 11.87 16.23 12.22L16.23 12.22L16.23 12.22Q15.95 12.57 15.95 13.23L15.95 13.23L15.95 13.23Q15.95 13.80 16.18 14.08L16.18 14.08L16.18 14.08Q16.42 14.35 16.81 14.35L16.81 14.35ZM26.91 7.95L26.91 7.95Q27.61 7.95 27.99 7.91L27.99 7.91L27.99 8.19L27.99 8.19Q27.69 8.27 27.46 8.55L27.46 8.55L27.46 8.55Q27.23 8.82 27.02 9.39L27.02 9.39L24.51 16.44L24.51 16.44Q24.23 17.16 23.90 17.43L23.90 17.43L23.90 17.43Q23.49 17.78 22.68 17.78L22.68 17.78L22.68 17.78Q22.09 17.78 21.62 17.49L21.62 17.49L21.62 17.49Q21.15 17.21 21.15 16.66L21.15 16.66L21.15 16.66Q21.15 16.23 21.46 15.97L21.46 15.97L21.46 15.97Q21.77 15.71 22.27 15.71L22.27 15.71L22.27 15.71Q22.75 15.71 23.04 15.94L23.04 15.94L23.04 15.94Q23.32 16.17 23.32 16.59L23.32 16.59L23.32 16.59Q23.32 16.88 23.14 17.13L23.14 17.13L23.14 17.13Q22.96 17.37 22.62 17.50L22.62 17.50L22.62 17.50Q22.72 17.51 22.95 17.51L22.95 17.51L22.95 17.51Q23.81 17.51 24.22 16.41L24.22 16.41L24.44 15.74L21.48 8.99L21.48 8.99Q21.25 8.51 21.04 8.36L21.04 8.36L21.04 8.36Q20.83 8.20 20.61 8.20L20.61 8.20L20.61 7.91L20.61 7.91Q21.53 7.99 22.53 7.99L22.53 7.99L22.53 7.99Q23.35 7.99 24.47 7.91L24.47 7.91L24.47 8.20L24.47 8.20Q24.02 8.20 23.81 8.27L23.81 8.27L23.81 8.27Q23.59 8.33 23.59 8.60L23.59 8.60L23.59 8.60Q23.59 8.75 23.69 8.99L23.69 8.99L25.40 13.12L26.36 10.43L26.36 10.43Q26.59 9.77 26.59 9.31L26.59 9.31L26.59 9.31Q26.59 8.29 25.55 8.19L25.55 8.19L25.55 7.91L25.55 7.91Q26.21 7.95 26.91 7.95L26.91 7.95ZM33.61 7.71L33.61 7.71Q34.68 7.71 35.15 8.26L35.15 8.26L35.15 8.26Q35.39 8.53 35.49 8.95L35.49 8.95L35.49 8.95Q35.59 9.37 35.59 10.08L35.59 10.08L35.59 13.85L35.59 13.85Q35.59 14.42 35.79 14.64L35.79 14.64L35.79 14.64Q35.99 14.85 36.48 14.85L36.48 14.85L36.48 15.15L36.48 15.15Q35.08 15.09 34.64 15.09L34.64 15.09L34.64 15.09Q34.22 15.09 32.82 15.15L32.82 15.15L32.82 14.85L32.82 14.85Q33.24 14.85 33.40 14.64L33.40 14.64L33.40 14.64Q33.57 14.42 33.57 13.85L33.57 13.85L33.57 9.49L33.57 9.49Q33.57 8.92 33.38 8.62L33.38 8.62L33.38 8.62Q33.19 8.33 32.70 8.33L32.70 8.33L32.70 8.33Q32.13 8.33 31.72 8.80L31.72 8.80L31.72 8.80Q31.32 9.27 31.32 9.95L31.32 9.95L31.32 13.85L31.32 13.85Q31.32 14.42 31.49 14.64L31.49 14.64L31.49 14.64Q31.65 14.85 32.07 14.85L32.07 14.85L32.07 15.15L32.07 15.15Q30.79 15.09 30.34 15.09L30.34 15.09L30.34 15.09Q29.92 15.09 28.41 15.15L28.41 15.15L28.41 14.85L28.41 14.85Q28.91 14.85 29.11 14.64L29.11 14.64L29.11 14.64Q29.30 14.42 29.30 13.85L29.30 13.85L29.30 9.44L29.30 9.44Q29.30 8.79 29.11 8.50L29.11 8.50L29.11 8.50Q28.91 8.20 28.41 8.20L28.41 8.20L28.41 7.91L28.41 7.91Q28.85 7.95 29.27 7.95L29.27 7.95L29.27 7.95Q30.52 7.95 31.32 7.76L31.32 7.76L31.32 9.02L31.32 9.02Q31.95 7.71 33.61 7.71L33.61 7.71ZM41.12 14.20L41.12 14.20Q42.27 14.20 42.97 13.08L42.97 13.08L43.22 13.16L43.22 13.16Q42.94 14.07 42.22 14.71L42.22 14.71L42.22 14.71Q41.50 15.34 40.42 15.34L40.42 15.34L40.42 15.34Q38.93 15.34 38.06 14.40L38.06 14.40L38.06 14.40Q37.18 13.45 37.18 11.61L37.18 11.61L37.18 11.61Q37.18 9.72 38.12 8.71L38.12 8.71L38.12 8.71Q39.06 7.71 40.61 7.71L40.61 7.71L40.61 7.71Q43.25 7.71 43.25 10.82L43.25 10.82L39.31 10.82L39.31 10.82Q39.30 11.03 39.30 11.48L39.30 11.48L39.30 11.48Q39.30 12.40 39.56 13.02L39.56 13.02L39.56 13.02Q39.82 13.64 40.23 13.92L40.23 13.92L40.23 13.92Q40.64 14.20 41.12 14.20L41.12 14.20ZM40.53 8.01L40.53 8.01Q40.03 8.01 39.70 8.63L39.70 8.63L39.70 8.63Q39.37 9.25 39.28 10.56L39.28 10.56L41.48 10.56L41.48 10.56Q41.51 9.45 41.27 8.73L41.27 8.73L41.27 8.73Q41.02 8.01 40.53 8.01L40.53 8.01ZM57.72 5.52L57.72 5.52Q57.25 5.54 57.04 5.63L57.04 5.63L57.04 5.63Q56.83 5.71 56.75 5.95L56.75 5.95L56.75 5.95Q56.67 6.19 56.67 6.72L56.67 6.72L56.67 13.66L56.67 13.66Q56.67 14.20 56.75 14.43L56.75 14.43L56.75 14.43Q56.83 14.67 57.04 14.76L57.04 14.76L57.04 14.76Q57.25 14.84 57.72 14.87L57.72 14.87L57.72 15.15L57.72 15.15Q57.04 15.11 55.59 15.11L55.59 15.11L55.59 15.11Q54.18 15.11 53.40 15.15L53.40 15.15L53.40 14.87L53.40 14.87Q53.86 14.84 54.07 14.76L54.07 14.76L54.07 14.76Q54.29 14.67 54.37 14.43L54.37 14.43L54.37 14.43Q54.45 14.20 54.45 13.66L54.45 13.66L54.45 10.30L50.74 10.30L50.74 13.66L50.74 13.66Q50.74 14.20 50.81 14.43L50.81 14.43L50.81 14.43Q50.89 14.67 51.10 14.76L51.10 14.76L51.10 14.76Q51.31 14.84 51.79 14.87L51.79 14.87L51.79 15.15L51.79 15.15Q51.03 15.11 49.67 15.11L49.67 15.11L49.67 15.11Q48.17 15.11 47.46 15.15L47.46 15.15L47.46 14.87L47.46 14.87Q47.92 14.84 48.14 14.76L48.14 14.76L48.14 14.76Q48.36 14.67 48.43 14.43L48.43 14.43L48.43 14.43Q48.51 14.20 48.51 13.66L48.51 13.66L48.51 6.72L48.51 6.72Q48.51 6.19 48.43 5.95L48.43 5.95L48.43 5.95Q48.36 5.71 48.14 5.63L48.14 5.63L48.14 5.63Q47.92 5.54 47.46 5.52L47.46 5.52L47.46 5.24L47.46 5.24Q48.17 5.28 49.67 5.28L49.67 5.28L49.67 5.28Q51.03 5.28 51.79 5.24L51.79 5.24L51.79 5.52L51.79 5.52Q51.31 5.54 51.10 5.63L51.10 5.63L51.10 5.63Q50.89 5.71 50.81 5.95L50.81 5.95L50.81 5.95Q50.74 6.19 50.74 6.72L50.74 6.72L50.74 10.02L54.45 10.02L54.45 6.72L54.45 6.72Q54.45 6.19 54.37 5.95L54.37 5.95L54.37 5.95Q54.29 5.71 54.07 5.63L54.07 5.63L54.07 5.63Q53.86 5.54 53.40 5.52L53.40 5.52L53.40 5.24L53.40 5.24Q54.18 5.28 55.59 5.28L55.59 5.28L55.59 5.28Q57.04 5.28 57.72 5.24L57.72 5.24L57.72 5.52ZM62.13 7.71L62.13 7.71Q63.74 7.71 64.65 8.63L64.65 8.63L64.65 8.63Q65.56 9.55 65.56 11.54L65.56 11.54L65.56 11.54Q65.56 13.52 64.65 14.43L64.65 14.43L64.65 14.43Q63.74 15.34 62.13 15.34L62.13 15.34L62.13 15.34Q60.54 15.34 59.62 14.43L59.62 14.43L59.62 14.43Q58.70 13.52 58.70 11.54L58.70 11.54L58.70 11.54Q58.70 9.55 59.62 8.63L59.62 8.63L59.62 8.63Q60.54 7.71 62.13 7.71L62.13 7.71ZM62.13 7.99L62.13 7.99Q61.53 7.99 61.17 8.87L61.17 8.87L61.17 8.87Q60.82 9.74 60.82 11.54L60.82 11.54L60.82 11.54Q60.82 13.33 61.17 14.20L61.17 14.20L61.17 14.20Q61.53 15.06 62.13 15.06L62.13 15.06L62.13 15.06Q62.75 15.06 63.10 14.20L63.10 14.20L63.10 14.20Q63.45 13.34 63.45 11.54L63.45 11.54L63.45 11.54Q63.45 9.73 63.09 8.86L63.09 8.86L63.09 8.86Q62.73 7.99 62.13 7.99L62.13 7.99ZM69.27 5.61L69.27 7.91L70.92 7.91L70.92 8.19L69.27 8.19L69.27 13.85L69.27 13.85Q69.27 14.27 69.42 14.44L69.42 14.44L69.42 14.44Q69.57 14.62 69.89 14.62L69.89 14.62L69.89 14.62Q70.49 14.62 70.84 13.78L70.84 13.78L71.08 13.90L71.08 13.90Q70.55 15.34 69.16 15.34L69.16 15.34L69.16 15.34Q68.24 15.34 67.76 14.87L67.76 14.87L67.76 14.87Q67.47 14.57 67.36 14.13L67.36 14.13L67.36 14.13Q67.26 13.69 67.26 12.92L67.26 12.92L67.26 8.19L66.08 8.19L66.08 7.91L67.26 7.91L67.26 6.06L67.26 6.06Q68.42 6.06 69.27 5.61L69.27 5.61ZM75.47 14.20L75.47 14.20Q76.62 14.20 77.32 13.08L77.32 13.08L77.57 13.16L77.57 13.16Q77.29 14.07 76.57 14.71L76.57 14.71L76.57 14.71Q75.85 15.34 74.77 15.34L74.77 15.34L74.77 15.34Q73.29 15.34 72.41 14.40L72.41 14.40L72.41 14.40Q71.54 13.45 71.54 11.61L71.54 11.61L71.54 11.61Q71.54 9.72 72.48 8.71L72.48 8.71L72.48 8.71Q73.42 7.71 74.97 7.71L74.97 7.71L74.97 7.71Q77.60 7.71 77.60 10.82L77.60 10.82L73.67 10.82L73.67 10.82Q73.65 11.03 73.65 11.48L73.65 11.48L73.65 11.48Q73.65 12.40 73.91 13.02L73.91 13.02L73.91 13.02Q74.17 13.64 74.58 13.92L74.58 13.92L74.58 13.92Q75.00 14.20 75.47 14.20L75.47 14.20ZM74.89 8.01L74.89 8.01Q74.38 8.01 74.05 8.63L74.05 8.63L74.05 8.63Q73.72 9.25 73.64 10.56L73.64 10.56L75.84 10.56L75.84 10.56Q75.87 9.45 75.62 8.73L75.62 8.73L75.62 8.73Q75.38 8.01 74.89 8.01L74.89 8.01ZM81.27 4.19L81.27 13.85L81.27 13.85Q81.27 14.42 81.47 14.64L81.47 14.64L81.47 14.64Q81.66 14.85 82.17 14.85L82.17 14.85L82.17 15.15L82.17 15.15Q80.71 15.09 80.29 15.09L80.29 15.09L80.29 15.09Q79.81 15.09 78.36 15.15L78.36 15.15L78.36 14.85L78.36 14.85Q78.85 14.85 79.05 14.64L79.05 14.64L79.05 14.64Q79.25 14.42 79.25 13.85L79.25 13.85L79.25 5.87L79.25 5.87Q79.25 5.22 79.05 4.93L79.05 4.93L79.05 4.93Q78.85 4.63 78.36 4.63L78.36 4.63L78.36 4.34L78.36 4.34Q78.81 4.38 79.23 4.38L79.23 4.38L79.23 4.38Q80.44 4.38 81.27 4.19L81.27 4.19ZM85.54 7.71L85.54 7.71Q86.07 7.71 86.52 7.85L86.52 7.85L86.52 7.85Q86.97 7.98 87.21 8.15L87.21 8.15L87.21 8.15Q87.35 8.25 87.46 8.25L87.46 8.25L87.46 8.25Q87.58 8.25 87.67 8.11L87.67 8.11L87.67 8.11Q87.77 7.98 87.79 7.73L87.79 7.73L88.09 7.73L88.09 7.73Q88.03 8.44 88.03 10.19L88.03 10.19L87.74 10.19L87.74 10.19Q87.61 9.27 87.18 8.64L87.18 8.64L87.18 8.64Q86.76 8.02 85.95 8.02L85.95 8.02L85.95 8.02Q85.53 8.02 85.25 8.26L85.25 8.26L85.25 8.26Q84.98 8.50 84.98 8.92L84.98 8.92L84.98 8.92Q84.98 9.39 85.30 9.74L85.30 9.74L85.30 9.74Q85.62 10.08 86.31 10.57L86.31 10.57L86.72 10.86L86.72 10.86Q87.57 11.51 87.98 12.01L87.98 12.01L87.98 12.01Q88.38 12.52 88.38 13.27L88.38 13.27L88.38 13.27Q88.38 13.89 88.02 14.36L88.02 14.36L88.02 14.36Q87.67 14.84 87.07 15.09L87.07 15.09L87.07 15.09Q86.46 15.34 85.74 15.34L85.74 15.34L85.74 15.34Q84.97 15.34 84.42 15.05L84.42 15.05L84.42 15.05Q83.97 14.83 83.78 14.76L83.78 14.76L83.78 14.76Q83.64 14.71 83.53 14.85L83.53 14.85L83.53 14.85Q83.43 14.98 83.37 15.25L83.37 15.25L83.08 15.25L83.08 15.25Q83.13 14.45 83.13 12.45L83.13 12.45L83.43 12.45L83.43 12.45Q83.71 15.02 85.32 15.02L85.32 15.02L85.32 15.02Q85.72 15.02 86.01 14.78L86.01 14.78L86.01 14.78Q86.30 14.53 86.30 14.03L86.30 14.03L86.30 14.03Q86.30 13.64 86.12 13.33L86.12 13.33L86.12 13.33Q85.95 13.02 85.68 12.78L85.68 12.78L85.68 12.78Q85.41 12.54 84.88 12.12L84.88 12.12L84.88 12.12Q84.25 11.62 83.92 11.31L83.92 11.31L83.92 11.31Q83.59 11.00 83.36 10.58L83.36 10.58L83.36 10.58Q83.13 10.16 83.13 9.65L83.13 9.65L83.13 9.65Q83.13 8.75 83.83 8.23L83.83 8.23L83.83 8.23Q84.53 7.71 85.54 7.71L85.54 7.71ZM104.51 7.01L104.51 7.01Q104.51 8.05 103.79 8.63L103.79 8.63L103.79 8.63Q103.07 9.21 101.67 9.51L101.67 9.51L101.42 9.59L101.42 9.59Q102.05 9.87 102.38 10.49L102.38 10.49L102.38 10.49Q102.72 11.10 102.72 11.91L102.72 11.91L102.72 11.91Q102.72 12.89 102.12 13.67L102.12 13.67L102.12 13.67Q101.51 14.45 100.41 14.90L100.41 14.90L100.41 14.90Q99.32 15.34 97.89 15.34L97.89 15.34L97.89 15.34Q96.35 15.34 95.18 14.92L95.18 14.92L95.18 14.92Q94.01 14.50 93.37 13.71L93.37 13.71L93.37 13.71Q92.74 12.92 92.74 11.86L92.74 11.86L92.74 11.86Q92.74 10.91 93.24 10.25L93.24 10.25L93.24 10.25Q93.74 9.60 94.38 9.27L94.38 9.27L94.38 9.27Q95.02 8.93 95.58 8.79L95.58 8.79L95.58 8.79Q94.00 8.16 94.00 7.03L94.00 7.03L94.00 7.03Q94.00 6.17 94.82 5.69L94.82 5.69L94.82 5.69Q95.65 5.21 96.78 5.21L96.78 5.21L96.78 5.21Q97.30 5.21 97.64 5.28L97.64 5.28L97.64 5.28Q97.97 5.35 98.24 5.50L98.24 5.50L98.24 5.50Q98.62 5.68 98.85 5.96L98.85 5.96L98.85 5.96Q99.09 6.24 99.09 6.64L99.09 6.64L99.09 6.64Q99.09 7.04 98.78 7.30L98.78 7.30L98.78 7.30Q98.46 7.56 98.01 7.56L98.01 7.56L98.01 7.56Q97.57 7.56 97.28 7.34L97.28 7.34L97.28 7.34Q96.99 7.11 96.99 6.69L96.99 6.69L96.99 6.69Q96.99 6.34 97.24 6.05L97.24 6.05L97.24 6.05Q97.50 5.77 97.89 5.70L97.89 5.70L97.89 5.70Q97.76 5.59 97.51 5.52L97.51 5.52L97.51 5.52Q97.26 5.45 96.96 5.45L96.96 5.45L96.96 5.45Q96.19 5.45 95.70 5.92L95.70 5.92L95.70 5.92Q95.21 6.40 95.21 7.28L95.21 7.28L95.21 7.28Q95.21 8.09 95.76 8.71L95.76 8.71L95.76 8.71Q96.28 8.60 96.54 8.60L96.54 8.60L96.54 8.60Q96.80 8.60 96.93 8.70L96.93 8.70L96.93 8.70Q97.06 8.81 97.06 8.97L97.06 8.97L97.06 8.97Q97.06 9.11 96.95 9.19L96.95 9.19L96.95 9.19Q96.84 9.27 96.67 9.27L96.67 9.27L96.67 9.27Q96.46 9.27 96.26 9.17L96.26 9.17L96.26 9.17Q96.07 9.07 95.77 8.90L95.77 8.90L95.77 8.90Q95.06 9.27 94.67 9.81L94.67 9.81L94.67 9.81Q94.29 10.35 94.29 11.17L94.29 11.17L94.29 11.17Q94.29 12.53 95.37 13.21L95.37 13.21L95.37 13.21Q96.46 13.89 98.38 13.89L98.38 13.89L98.38 13.89Q99.34 13.89 100.23 13.60L100.23 13.60L100.23 13.60Q101.12 13.31 101.67 12.76L101.67 12.76L101.67 12.76Q102.23 12.21 102.23 11.45L102.23 11.45L102.23 11.45Q102.23 10.16 101.16 9.67L101.16 9.67L100.27 9.93L100.27 9.93Q99.48 10.15 99.48 10.15L99.48 10.15L99.48 10.15Q98.31 10.42 97.76 10.71L97.76 10.71L97.76 10.71Q97.22 11.00 97.22 11.51L97.22 11.51L97.22 11.51Q97.22 12.01 97.68 12.33L97.68 12.33L97.68 12.33Q98.15 12.64 98.73 12.64L98.73 12.64L98.73 12.64Q98.88 12.64 99.06 12.60L99.06 12.60L99.06 12.60Q99.23 12.56 99.29 12.50L99.29 12.50L99.29 12.50Q98.95 12.39 98.77 12.15L98.77 12.15L98.77 12.15Q98.59 11.91 98.59 11.58L98.59 11.58L98.59 11.58Q98.59 11.14 98.90 10.90L98.90 10.90L98.90 10.90Q99.22 10.65 99.71 10.65L99.71 10.65L99.71 10.65Q100.21 10.65 100.50 10.91L100.50 10.91L100.50 10.91Q100.79 11.17 100.79 11.61L100.79 11.61L100.79 11.61Q100.79 12.24 100.23 12.56L100.23 12.56L100.23 12.56Q99.67 12.88 98.80 12.88L98.80 12.88L98.80 12.88Q97.90 12.88 97.31 12.42L97.31 12.42L97.31 12.42Q96.71 11.96 96.71 11.09L96.71 11.09L96.71 11.09Q96.71 10.04 97.51 9.42L97.51 9.42L97.51 9.42Q98.31 8.81 99.85 8.51L99.85 8.51L100.45 8.36L100.45 8.36Q101.36 8.15 101.93 7.95L101.93 7.95L101.93 7.95Q103.01 7.69 103.53 7.37L103.53 7.37L103.53 7.37Q104.05 7.06 104.05 6.57L104.05 6.57L104.05 6.57Q104.05 6.02 103.56 5.66L103.56 5.66L103.56 5.66Q103.08 5.29 102.47 5.29L102.47 5.29L102.47 5.29Q102.20 5.29 102.06 5.36L102.06 5.36L102.06 5.36Q102.38 5.49 102.56 5.73L102.56 5.73L102.56 5.73Q102.75 5.98 102.75 6.24L102.75 6.24L102.75 6.24Q102.75 6.66 102.43 6.90L102.43 6.90L102.43 6.90Q102.12 7.14 101.63 7.14L101.63 7.14L101.63 7.14Q101.14 7.14 100.83 6.89L100.83 6.89L100.83 6.89Q100.53 6.65 100.53 6.22L100.53 6.22L100.53 6.22Q100.53 5.67 101.01 5.35L101.01 5.35L101.01 5.35Q101.49 5.04 102.28 5.04L102.28 5.04L102.28 5.04Q103.29 5.04 103.90 5.56L103.90 5.56L103.90 5.56Q104.51 6.09 104.51 7.01L104.51 7.01ZM117.77 14.36L117.96 14.53L117.96 14.53Q117.59 14.97 117.15 15.15L117.15 15.15L117.15 15.15Q116.72 15.34 116.10 15.34L116.10 15.34L116.10 15.34Q115.29 15.34 114.82 15.00L114.82 15.00L114.82 15.00Q114.35 14.66 114.21 13.83L114.21 13.83L113.96 12.43L113.96 12.43Q113.78 11.41 113.52 10.93L113.52 10.93L113.52 10.93Q113.26 10.44 112.66 10.44L112.66 10.44L111.75 10.44L111.75 13.66L111.75 13.66Q111.75 14.20 111.82 14.43L111.82 14.43L111.82 14.43Q111.90 14.67 112.11 14.76L112.11 14.76L112.11 14.76Q112.32 14.84 112.80 14.87L112.80 14.87L112.80 15.15L112.80 15.15Q112.04 15.11 110.68 15.11L110.68 15.11L110.68 15.11Q109.19 15.11 108.47 15.15L108.47 15.15L108.47 14.87L108.47 14.87Q108.93 14.84 109.15 14.76L109.15 14.76L109.15 14.76Q109.37 14.67 109.44 14.43L109.44 14.43L109.44 14.43Q109.52 14.20 109.52 13.66L109.52 13.66L109.52 6.72L109.52 6.72Q109.52 6.19 109.44 5.95L109.44 5.95L109.44 5.95Q109.37 5.71 109.15 5.63L109.15 5.63L109.15 5.63Q108.93 5.54 108.47 5.52L108.47 5.52L108.47 5.24L108.47 5.24Q109.19 5.28 110.60 5.28L110.60 5.28L112.15 5.26L112.15 5.26Q112.43 5.25 112.80 5.25L112.80 5.25L112.80 5.25Q114.73 5.25 115.70 5.88L115.70 5.88L115.70 5.88Q116.68 6.51 116.68 7.69L116.68 7.69L116.68 7.69Q116.68 8.68 115.95 9.44L115.95 9.44L115.95 9.44Q115.22 10.19 113.54 10.39L113.54 10.39L113.54 10.39Q114.80 10.50 115.42 10.93L115.42 10.93L115.42 10.93Q116.03 11.37 116.21 12.24L116.21 12.24L116.54 13.68L116.54 13.68Q116.65 14.24 116.79 14.46L116.79 14.46L116.79 14.46Q116.94 14.69 117.21 14.69L117.21 14.69L117.21 14.69Q117.38 14.67 117.49 14.60L117.49 14.60L117.49 14.60Q117.61 14.53 117.77 14.36L117.77 14.36ZM112.62 5.52L112.62 5.52Q112.24 5.52 112.06 5.61L112.06 5.61L112.06 5.61Q111.89 5.71 111.82 5.96L111.82 5.96L111.82 5.96Q111.75 6.22 111.75 6.72L111.75 6.72L111.75 10.16L112.35 10.16L112.35 10.16Q113.50 10.16 113.92 9.55L113.92 9.55L113.92 9.55Q114.35 8.95 114.35 7.84L114.35 7.84L114.35 7.84Q114.35 6.69 113.95 6.10L113.95 6.10L113.95 6.10Q113.54 5.52 112.62 5.52L112.62 5.52ZM122.14 14.20L122.14 14.20Q123.28 14.20 123.98 13.08L123.98 13.08L124.24 13.16L124.24 13.16Q123.96 14.07 123.23 14.71L123.23 14.71L123.23 14.71Q122.51 15.34 121.44 15.34L121.44 15.34L121.44 15.34Q119.95 15.34 119.08 14.40L119.08 14.40L119.08 14.40Q118.20 13.45 118.20 11.61L118.20 11.61L118.20 11.61Q118.20 9.72 119.14 8.71L119.14 8.71L119.14 8.71Q120.08 7.71 121.63 7.71L121.63 7.71L121.63 7.71Q124.26 7.71 124.26 10.82L124.26 10.82L120.33 10.82L120.33 10.82Q120.32 11.03 120.32 11.48L120.32 11.48L120.32 11.48Q120.32 12.40 120.58 13.02L120.58 13.02L120.58 13.02Q120.83 13.64 121.25 13.92L121.25 13.92L121.25 13.92Q121.66 14.20 122.14 14.20L122.14 14.20ZM121.55 8.01L121.55 8.01Q121.04 8.01 120.72 8.63L120.72 8.63L120.72 8.63Q120.39 9.25 120.30 10.56L120.30 10.56L122.50 10.56L122.50 10.56Q122.53 9.45 122.28 8.73L122.28 8.73L122.28 8.73Q122.04 8.01 121.55 8.01L121.55 8.01ZM127.85 7.71L127.85 7.71Q128.38 7.71 128.83 7.85L128.83 7.85L128.83 7.85Q129.28 7.98 129.51 8.15L129.51 8.15L129.51 8.15Q129.65 8.25 129.77 8.25L129.77 8.25L129.77 8.25Q129.89 8.25 129.98 8.11L129.98 8.11L129.98 8.11Q130.07 7.98 130.10 7.73L130.10 7.73L130.40 7.73L130.40 7.73Q130.34 8.44 130.34 10.19L130.34 10.19L130.05 10.19L130.05 10.19Q129.92 9.27 129.49 8.64L129.49 8.64L129.49 8.64Q129.07 8.02 128.25 8.02L128.25 8.02L128.25 8.02Q127.83 8.02 127.56 8.26L127.56 8.26L127.56 8.26Q127.29 8.50 127.29 8.92L127.29 8.92L127.29 8.92Q127.29 9.39 127.61 9.74L127.61 9.74L127.61 9.74Q127.93 10.08 128.62 10.57L128.62 10.57L129.02 10.86L129.02 10.86Q129.88 11.51 130.28 12.01L130.28 12.01L130.28 12.01Q130.69 12.52 130.69 13.27L130.69 13.27L130.69 13.27Q130.69 13.89 130.33 14.36L130.33 14.36L130.33 14.36Q129.98 14.84 129.37 15.09L129.37 15.09L129.37 15.09Q128.77 15.34 128.04 15.34L128.04 15.34L128.04 15.34Q127.27 15.34 126.73 15.05L126.73 15.05L126.73 15.05Q126.28 14.83 126.08 14.76L126.08 14.76L126.08 14.76Q125.94 14.71 125.84 14.85L125.84 14.85L125.84 14.85Q125.73 14.98 125.68 15.25L125.68 15.25L125.38 15.25L125.38 15.25Q125.44 14.45 125.44 12.45L125.44 12.45L125.73 12.45L125.73 12.45Q126.01 15.02 127.62 15.02L127.62 15.02L127.62 15.02Q128.03 15.02 128.32 14.78L128.32 14.78L128.32 14.78Q128.60 14.53 128.60 14.03L128.60 14.03L128.60 14.03Q128.60 13.64 128.43 13.33L128.43 13.33L128.43 13.33Q128.25 13.02 127.99 12.78L127.99 12.78L127.99 12.78Q127.72 12.54 127.19 12.12L127.19 12.12L127.19 12.12Q126.56 11.62 126.23 11.31L126.23 11.31L126.23 11.31Q125.90 11.00 125.67 10.58L125.67 10.58L125.67 10.58Q125.44 10.16 125.44 9.65L125.44 9.65L125.44 9.65Q125.44 8.75 126.14 8.23L126.14 8.23L126.14 8.23Q126.84 7.71 127.85 7.71L127.85 7.71ZM134.39 5.61L134.39 7.91L136.04 7.91L136.04 8.19L134.39 8.19L134.39 13.85L134.39 13.85Q134.39 14.27 134.53 14.44L134.53 14.44L134.53 14.44Q134.68 14.62 135.00 14.62L135.00 14.62L135.00 14.62Q135.60 14.62 135.95 13.78L135.95 13.78L136.19 13.90L136.19 13.90Q135.66 15.34 134.27 15.34L134.27 15.34L134.27 15.34Q133.35 15.34 132.87 14.87L132.87 14.87L132.87 14.87Q132.58 14.57 132.47 14.13L132.47 14.13L132.47 14.13Q132.37 13.69 132.37 12.92L132.37 12.92L132.37 8.19L131.19 8.19L131.19 7.91L132.37 7.91L132.37 6.06L132.37 6.06Q133.53 6.06 134.39 5.61L134.39 5.61ZM138.32 15.25L138.32 15.25Q137.42 15.25 136.98 14.78L136.98 14.78L136.98 14.78Q136.54 14.32 136.54 13.57L136.54 13.57L136.54 13.57Q136.54 12.94 136.87 12.52L136.87 12.52L136.87 12.52Q137.20 12.11 137.67 11.89L137.67 11.89L137.67 11.89Q138.14 11.66 138.87 11.41L138.87 11.41L138.87 11.41Q139.64 11.14 139.99 10.93L139.99 10.93L139.99 10.93Q140.35 10.71 140.35 10.33L140.35 10.33L140.35 9.24L140.35 9.24Q140.35 8.65 140.08 8.32L140.08 8.32L140.08 8.32Q139.80 7.99 139.23 7.99L139.23 7.99L139.23 7.99Q138.56 7.99 138.21 8.33L138.21 8.33L138.21 8.33Q138.60 8.47 138.82 8.75L138.82 8.75L138.82 8.75Q139.03 9.03 139.03 9.41L139.03 9.41L139.03 9.41Q139.03 9.88 138.71 10.16L138.71 10.16L138.71 10.16Q138.39 10.44 137.93 10.44L137.93 10.44L137.93 10.44Q137.44 10.44 137.17 10.14L137.17 10.14L137.17 10.14Q136.91 9.83 136.91 9.37L136.91 9.37L136.91 9.37Q136.91 8.97 137.09 8.70L137.09 8.70L137.09 8.70Q137.28 8.43 137.68 8.19L137.68 8.19L137.68 8.19Q138.05 7.97 138.61 7.84L138.61 7.84L138.61 7.84Q139.16 7.71 139.82 7.71L139.82 7.71L139.82 7.71Q140.50 7.71 141.01 7.85L141.01 7.85L141.01 7.85Q141.51 7.99 141.85 8.33L141.85 8.33L141.85 8.33Q142.16 8.64 142.26 9.09L142.26 9.09L142.26 9.09Q142.37 9.53 142.37 10.30L142.37 10.30L142.37 14.11L142.37 14.11Q142.37 14.45 142.43 14.59L142.43 14.59L142.43 14.59Q142.49 14.73 142.67 14.73L142.67 14.73L142.67 14.73Q142.88 14.73 143.18 14.49L143.18 14.49L143.32 14.73L143.32 14.73Q142.69 15.25 141.78 15.25L141.78 15.25L141.78 15.25Q141.01 15.25 140.70 14.94L140.70 14.94L140.70 14.94Q140.39 14.63 140.38 14.11L140.38 14.11L140.38 14.11Q139.68 15.25 138.32 15.25L138.32 15.25ZM139.40 14.35L139.40 14.35Q139.94 14.35 140.35 13.78L140.35 13.78L140.35 10.91L140.35 10.91Q140.18 11.19 139.64 11.52L139.64 11.52L139.64 11.52Q139.09 11.87 138.81 12.22L138.81 12.22L138.81 12.22Q138.53 12.57 138.53 13.23L138.53 13.23L138.53 13.23Q138.53 13.80 138.77 14.08L138.77 14.08L138.77 14.08Q139.01 14.35 139.40 14.35L139.40 14.35ZM150.70 7.76L150.70 13.62L150.70 13.62Q150.70 14.27 150.90 14.56L150.90 14.56L150.90 14.56Q151.10 14.85 151.59 14.85L151.59 14.85L151.59 15.15L151.59 15.15Q151.16 15.11 150.72 15.11L150.72 15.11L150.72 15.11Q149.51 15.11 148.68 15.30L148.68 15.30L148.68 14.04L148.68 14.04Q148.04 15.34 146.43 15.34L146.43 15.34L146.43 15.34Q145.38 15.34 144.90 14.80L144.90 14.80L144.90 14.80Q144.68 14.53 144.57 14.11L144.57 14.11L144.57 14.11Q144.47 13.68 144.47 12.98L144.47 12.98L144.47 9.44L144.47 9.44Q144.47 8.79 144.26 8.50L144.26 8.50L144.26 8.50Q144.06 8.20 143.57 8.20L143.57 8.20L143.57 7.91L143.57 7.91Q144.00 7.95 144.44 7.95L144.44 7.95L144.44 7.95Q145.66 7.95 146.48 7.76L146.48 7.76L146.48 13.55L146.48 13.55Q146.48 14.14 146.66 14.43L146.66 14.43L146.66 14.43Q146.83 14.73 147.32 14.73L147.32 14.73L147.32 14.73Q147.88 14.73 148.28 14.26L148.28 14.26L148.28 14.26Q148.68 13.79 148.68 13.10L148.68 13.10L148.68 9.44L148.68 9.44Q148.68 8.79 148.48 8.50L148.48 8.50L148.48 8.50Q148.27 8.20 147.78 8.20L147.78 8.20L147.78 7.91L147.78 7.91Q148.23 7.95 148.65 7.95L148.65 7.95L148.65 7.95Q149.87 7.95 150.70 7.76L150.70 7.76ZM157.02 7.71L157.02 7.71Q157.65 7.71 157.98 8.09L157.98 8.09L157.98 8.09Q158.30 8.47 158.30 9.00L158.30 9.00L158.30 9.00Q158.30 9.52 158.00 9.85L158.00 9.85L158.00 9.85Q157.70 10.18 157.21 10.18L157.21 10.18L157.21 10.18Q156.73 10.18 156.45 9.93L156.45 9.93L156.45 9.93Q156.17 9.69 156.17 9.28L156.17 9.28L156.17 9.28Q156.17 8.61 156.79 8.19L156.79 8.19L156.79 8.19Q156.73 8.18 156.62 8.18L156.62 8.18L156.62 8.18Q156.48 8.18 156.39 8.20L156.39 8.20L156.39 8.20Q155.86 8.29 155.49 8.85L155.49 8.85L155.49 8.85Q155.12 9.41 155.12 10.00L155.12 10.00L155.12 13.71L155.12 13.71Q155.12 14.35 155.44 14.60L155.44 14.60L155.44 14.60Q155.75 14.85 156.44 14.85L156.44 14.85L156.44 15.15L156.44 15.15Q156.24 15.15 156.11 15.13L156.11 15.13L156.11 15.13Q154.69 15.09 154.21 15.09L154.21 15.09L154.21 15.09Q153.83 15.09 152.49 15.13L152.49 15.13L152.49 15.13Q152.38 15.15 152.21 15.15L152.21 15.15L152.21 14.85L152.21 14.85Q152.71 14.85 152.91 14.64L152.91 14.64L152.91 14.64Q153.10 14.42 153.10 13.85L153.10 13.85L153.10 9.44L153.10 9.44Q153.10 8.79 152.91 8.50L152.91 8.50L152.91 8.50Q152.71 8.20 152.21 8.20L152.21 8.20L152.21 7.91L152.21 7.91Q152.66 7.95 153.08 7.95L153.08 7.95L153.08 7.95Q154.32 7.95 155.12 7.76L155.12 7.76L155.12 9.06L155.12 9.06Q155.39 8.46 155.89 8.09L155.89 8.09L155.89 8.09Q156.39 7.71 157.02 7.71L157.02 7.71ZM160.59 15.25L160.59 15.25Q159.70 15.25 159.26 14.78L159.26 14.78L159.26 14.78Q158.82 14.32 158.82 13.57L158.82 13.57L158.82 13.57Q158.82 12.94 159.15 12.52L159.15 12.52L159.15 12.52Q159.47 12.11 159.94 11.89L159.94 11.89L159.94 11.89Q160.41 11.66 161.14 11.41L161.14 11.41L161.14 11.41Q161.91 11.14 162.27 10.93L162.27 10.93L162.27 10.93Q162.62 10.71 162.62 10.33L162.62 10.33L162.62 9.24L162.62 9.24Q162.62 8.65 162.35 8.32L162.35 8.32L162.35 8.32Q162.08 7.99 161.50 7.99L161.50 7.99L161.50 7.99Q160.83 7.99 160.48 8.33L160.48 8.33L160.48 8.33Q160.87 8.47 161.09 8.75L161.09 8.75L161.09 8.75Q161.31 9.03 161.31 9.41L161.31 9.41L161.31 9.41Q161.31 9.88 160.99 10.16L160.99 10.16L160.99 10.16Q160.66 10.44 160.20 10.44L160.20 10.44L160.20 10.44Q159.71 10.44 159.45 10.14L159.45 10.14L159.45 10.14Q159.18 9.83 159.18 9.37L159.18 9.37L159.18 9.37Q159.18 8.97 159.37 8.70L159.37 8.70L159.37 8.70Q159.56 8.43 159.95 8.19L159.95 8.19L159.95 8.19Q160.33 7.97 160.88 7.84L160.88 7.84L160.88 7.84Q161.43 7.71 162.09 7.71L162.09 7.71L162.09 7.71Q162.78 7.71 163.28 7.85L163.28 7.85L163.28 7.85Q163.79 7.99 164.12 8.33L164.12 8.33L164.12 8.33Q164.43 8.64 164.54 9.09L164.54 9.09L164.54 9.09Q164.64 9.53 164.64 10.30L164.64 10.30L164.64 14.11L164.64 14.11Q164.64 14.45 164.70 14.59L164.70 14.59L164.70 14.59Q164.77 14.73 164.95 14.73L164.95 14.73L164.95 14.73Q165.16 14.73 165.45 14.49L165.45 14.49L165.59 14.73L165.59 14.73Q164.96 15.25 164.05 15.25L164.05 15.25L164.05 15.25Q163.28 15.25 162.97 14.94L162.97 14.94L162.97 14.94Q162.67 14.63 162.65 14.11L162.65 14.11L162.65 14.11Q161.95 15.25 160.59 15.25L160.59 15.25ZM161.67 14.35L161.67 14.35Q162.22 14.35 162.62 13.78L162.62 13.78L162.62 10.91L162.62 10.91Q162.46 11.19 161.91 11.52L161.91 11.52L161.91 11.52Q161.36 11.87 161.08 12.22L161.08 12.22L161.08 12.22Q160.80 12.57 160.80 13.23L160.80 13.23L160.80 13.23Q160.80 13.80 161.04 14.08L161.04 14.08L161.04 14.08Q161.28 14.35 161.67 14.35L161.67 14.35ZM171.21 7.71L171.21 7.71Q172.27 7.71 172.75 8.26L172.75 8.26L172.75 8.26Q172.98 8.53 173.08 8.95L173.08 8.95L173.08 8.95Q173.18 9.37 173.18 10.08L173.18 10.08L173.18 13.85L173.18 13.85Q173.18 14.42 173.38 14.64L173.38 14.64L173.38 14.64Q173.59 14.85 174.08 14.85L174.08 14.85L174.08 15.15L174.08 15.15Q172.68 15.09 172.23 15.09L172.23 15.09L172.23 15.09Q171.81 15.09 170.41 15.15L170.41 15.15L170.41 14.85L170.41 14.85Q170.83 14.85 171.00 14.64L171.00 14.64L171.00 14.64Q171.16 14.42 171.16 13.85L171.16 13.85L171.16 9.49L171.16 9.49Q171.16 8.92 170.98 8.62L170.98 8.62L170.98 8.62Q170.79 8.33 170.30 8.33L170.30 8.33L170.30 8.33Q169.72 8.33 169.32 8.80L169.32 8.80L169.32 8.80Q168.91 9.27 168.91 9.95L168.91 9.95L168.91 13.85L168.91 13.85Q168.91 14.42 169.08 14.64L169.08 14.64L169.08 14.64Q169.25 14.85 169.67 14.85L169.67 14.85L169.67 15.15L169.67 15.15Q168.38 15.09 167.93 15.09L167.93 15.09L167.93 15.09Q167.51 15.09 166.00 15.15L166.00 15.15L166.00 14.85L166.00 14.85Q166.50 14.85 166.70 14.64L166.70 14.64L166.70 14.64Q166.89 14.42 166.89 13.85L166.89 13.85L166.89 9.44L166.89 9.44Q166.89 8.79 166.70 8.50L166.70 8.50L166.70 8.50Q166.50 8.20 166.00 8.20L166.00 8.20L166.00 7.91L166.00 7.91Q166.45 7.95 166.87 7.95L166.87 7.95L166.87 7.95Q168.11 7.95 168.91 7.76L168.91 7.76L168.91 9.02L168.91 9.02Q169.54 7.71 171.21 7.71L171.21 7.71ZM177.44 5.61L177.44 7.91L179.09 7.91L179.09 8.19L177.44 8.19L177.44 13.85L177.44 13.85Q177.44 14.27 177.58 14.44L177.58 14.44L177.58 14.44Q177.73 14.62 178.05 14.62L178.05 14.62L178.05 14.62Q178.65 14.62 179.00 13.78L179.00 13.78L179.24 13.90L179.24 13.90Q178.71 15.34 177.32 15.34L177.32 15.34L177.32 15.34Q176.40 15.34 175.92 14.87L175.92 14.87L175.92 14.87Q175.63 14.57 175.53 14.13L175.53 14.13L175.53 14.13Q175.42 13.69 175.42 12.92L175.42 12.92L175.42 8.19L174.24 8.19L174.24 7.91L175.42 7.91L175.42 6.06L175.42 6.06Q176.58 6.06 177.44 5.61L177.44 5.61ZM182.29 7.71L182.29 7.71Q182.83 7.71 183.27 7.85L183.27 7.85L183.27 7.85Q183.72 7.98 183.96 8.15L183.96 8.15L183.96 8.15Q184.10 8.25 184.21 8.25L184.21 8.25L184.21 8.25Q184.34 8.25 184.43 8.11L184.43 8.11L184.43 8.11Q184.52 7.98 184.55 7.73L184.55 7.73L184.84 7.73L184.84 7.73Q184.79 8.44 184.79 10.19L184.79 10.19L184.49 10.19L184.49 10.19Q184.37 9.27 183.94 8.64L183.94 8.64L183.94 8.64Q183.51 8.02 182.70 8.02L182.70 8.02L182.70 8.02Q182.28 8.02 182.01 8.26L182.01 8.26L182.01 8.26Q181.73 8.50 181.73 8.92L181.73 8.92L181.73 8.92Q181.73 9.39 182.06 9.74L182.06 9.74L182.06 9.74Q182.38 10.08 183.06 10.57L183.06 10.57L183.47 10.86L183.47 10.86Q184.32 11.51 184.73 12.01L184.73 12.01L184.73 12.01Q185.14 12.52 185.14 13.27L185.14 13.27L185.14 13.27Q185.14 13.89 184.78 14.36L184.78 14.36L184.78 14.36Q184.42 14.84 183.82 15.09L183.82 15.09L183.82 15.09Q183.22 15.34 182.49 15.34L182.49 15.34L182.49 15.34Q181.72 15.34 181.17 15.05L181.17 15.05L181.17 15.05Q180.73 14.83 180.53 14.76L180.53 14.76L180.53 14.76Q180.39 14.71 180.29 14.85L180.29 14.85L180.29 14.85Q180.18 14.98 180.12 15.25L180.12 15.25L179.83 15.25L179.83 15.25Q179.89 14.45 179.89 12.45L179.89 12.45L180.18 12.45L180.18 12.45Q180.46 15.02 182.07 15.02L182.07 15.02L182.07 15.02Q182.48 15.02 182.76 14.78L182.76 14.78L182.76 14.78Q183.05 14.53 183.05 14.03L183.05 14.03L183.05 14.03Q183.05 13.64 182.88 13.33L182.88 13.33L182.88 13.33Q182.70 13.02 182.43 12.78L182.43 12.78L182.43 12.78Q182.17 12.54 181.64 12.12L181.64 12.12L181.64 12.12Q181.01 11.62 180.68 11.31L180.68 11.31L180.68 11.31Q180.35 11.00 180.12 10.58L180.12 10.58L180.12 10.58Q179.89 10.16 179.89 9.65L179.89 9.65L179.89 9.65Q179.89 8.75 180.59 8.23L180.59 8.23L180.59 8.23Q181.29 7.71 182.29 7.71L182.29 7.71Z"></path></g><!----><g data-v-423bf9ae="" id="321b4ac8-1bc0-433a-aede-df4742f7f3df" transform="matrix(2.8125,0,0,2.8125,365,0)" stroke="none" fill="white"><path d="M29.625 1l-3.099 3.172H4.054v23.657h22.472L29.625 31H1V1h28.625M32 0H0v32h32l-5.054-5.172H5.054V5.172h21.893L32 0z"></path><path d="M21.038 10.962v10.076H10.962V10.962h10.076m1-1H9.962v12.076h12.076V9.962z"></path></g><!----><g data-v-423bf9ae="" id="8a92903f-8707-4b1a-98cb-a4eab8cad5c4" fill="white" transform="matrix(1.9059739451333142,0,0,1.9059739451333142,102.94169901954473,193.03314269258678)"><path d="M0.28 13.33L0.28 13.33L0.28 13.33Q0.28 13.13 0.49 13.06L0.49 13.06L0.49 13.06Q0.94 12.89 1.27 12.31L1.27 12.31L1.27 12.31Q1.61 11.73 2.94 8.83L2.94 8.83L2.94 8.83Q4.31 5.87 5.36 3.63L5.36 3.63L5.36 3.63Q5.46 3.42 5.54 3.36L5.54 3.36L5.54 3.36Q5.61 3.30 5.78 3.30L5.78 3.30L5.78 3.30Q5.91 3.30 5.95 3.36L5.95 3.36L5.95 3.36Q5.99 3.42 6.13 3.82L6.13 3.82L6.13 3.82Q6.22 4.06 6.28 4.23L6.28 4.23L6.28 4.23Q6.34 4.40 6.48 4.77L6.48 4.77L6.48 4.77Q6.62 5.15 6.79 5.56L6.79 5.56L6.79 5.56Q7.24 6.66 8.34 9.22L8.34 9.22L8.34 9.22Q9.44 11.77 9.53 11.98L9.53 11.98L9.53 11.98Q9.77 12.46 10.07 12.71L10.07 12.71L10.07 12.71Q10.36 12.95 10.58 12.97L10.58 12.97L10.58 12.97Q10.79 12.99 10.94 13.04L10.94 13.04L10.94 13.04Q11.09 13.09 11.09 13.26L11.09 13.26L11.09 13.26Q11.09 13.47 10.71 13.47L10.71 13.47L10.71 13.47Q10.56 13.47 10.11 13.43L10.11 13.43L10.11 13.43Q9.66 13.38 9.45 13.38L9.45 13.38L9.45 13.38Q9.18 13.38 8.76 13.41L8.76 13.41L8.76 13.41Q8.34 13.44 8.15 13.44L8.15 13.44L8.15 13.44Q7.71 13.44 7.59 13.40L7.59 13.40L7.59 13.40Q7.48 13.37 7.48 13.24L7.48 13.24L7.48 13.24Q7.48 13.15 7.59 13.08L7.59 13.08L7.59 13.08Q7.70 13.02 7.83 13.00L7.83 13.00L7.83 13.00Q7.95 12.98 8.06 12.87L8.06 12.87L8.06 12.87Q8.18 12.77 8.18 12.59L8.18 12.59L8.18 12.59Q8.18 12.28 7.83 11.33L7.83 11.33L7.83 11.33Q7.48 10.37 7.24 9.93L7.24 9.93L7.24 9.93Q7.11 9.69 6.66 9.69L6.66 9.69L6.66 9.69Q6.59 9.69 6.05 9.70L6.05 9.70L6.05 9.70Q5.50 9.72 4.97 9.72L4.97 9.72L4.23 9.72L4.23 9.72Q3.60 9.72 3.44 9.79L3.44 9.79L3.44 9.79Q3.28 9.86 3.15 10.12L3.15 10.12L3.15 10.12Q3.07 10.30 2.87 10.70L2.87 10.70L2.87 10.70Q2.67 11.10 2.60 11.26L2.60 11.26L2.60 11.26Q2.53 11.41 2.43 11.65L2.43 11.65L2.43 11.65Q2.32 11.90 2.29 12.05L2.29 12.05L2.29 12.05Q2.25 12.19 2.25 12.31L2.25 12.31L2.25 12.31Q2.25 12.63 2.42 12.80L2.42 12.80L2.42 12.80Q2.58 12.96 2.77 12.98L2.77 12.98L2.77 12.98Q2.97 13.01 3.13 13.06L3.13 13.06L3.13 13.06Q3.29 13.12 3.29 13.26L3.29 13.26L3.29 13.26Q3.29 13.36 3.25 13.40L3.25 13.40L3.25 13.40Q3.21 13.45 3.05 13.45L3.05 13.45L3.05 13.45Q2.97 13.45 2.57 13.45L2.57 13.45L2.57 13.45Q2.17 13.44 1.89 13.44L1.89 13.44L1.89 13.44Q1.58 13.44 1.20 13.47L1.20 13.47L1.20 13.47Q0.81 13.50 0.69 13.50L0.69 13.50L0.69 13.50Q0.28 13.50 0.28 13.33ZM3.79 8.71L3.79 8.71L3.79 8.71Q3.79 8.89 3.92 8.93L3.92 8.93L3.92 8.93Q4.05 8.97 4.51 8.97L4.51 8.97L4.94 8.97L6.27 8.96L6.27 8.96Q6.82 8.96 6.82 8.74L6.82 8.74L6.82 8.74Q6.82 8.55 6.13 7.01L6.13 7.01L6.13 7.01Q5.45 5.46 5.26 5.46L5.26 5.46L5.26 5.46Q5.14 5.46 4.47 7.01L4.47 7.01L4.47 7.01Q3.79 8.55 3.79 8.71ZM28.63 3.71L28.63 3.71L28.63 3.71Q28.63 3.50 28.88 3.50L28.88 3.50L28.88 3.50Q28.97 3.50 29.27 3.53L29.27 3.53L29.27 3.53Q29.57 3.56 29.62 3.56L29.62 3.56L29.62 3.56Q29.83 3.56 30.20 3.54L30.20 3.54L30.20 3.54Q30.56 3.53 30.67 3.53L30.67 3.53L30.67 3.53Q30.94 3.53 31.01 3.72L31.01 3.72L31.01 3.72Q31.18 4.09 31.61 5.03L31.61 5.03L31.61 5.03Q32.05 5.98 32.30 6.54L32.30 6.54L32.30 6.54Q32.56 7.10 32.97 7.97L32.97 7.97L32.97 7.97Q33.38 8.83 33.63 9.37L33.63 9.37L33.63 9.37Q33.88 9.91 34.15 10.46L34.15 10.46L34.15 10.46Q34.43 11.00 34.57 11.26L34.57 11.26L34.57 11.26Q34.72 11.52 34.76 11.52L34.76 11.52L34.76 11.52Q34.80 11.52 34.85 11.47L34.85 11.47L34.85 11.47Q34.90 11.42 34.95 11.34L34.95 11.34L34.95 11.34Q35 11.26 35.04 11.17L35.04 11.17L35.04 11.17Q35.07 11.09 35.13 10.96L35.13 10.96L35.13 10.96Q35.20 10.82 35.22 10.75L35.22 10.75L37.03 7.03L37.03 7.03Q37.34 6.40 37.58 5.89L37.58 5.89L37.58 5.89Q37.81 5.39 37.95 5.08L37.95 5.08L37.95 5.08Q38.09 4.77 38.19 4.55L38.19 4.55L38.19 4.55Q38.29 4.33 38.34 4.21L38.34 4.21L38.34 4.21Q38.39 4.10 38.41 4.04L38.41 4.04L38.41 4.04Q38.43 3.98 38.44 3.94L38.44 3.94L38.44 3.94Q38.46 3.91 38.47 3.88L38.47 3.88L38.47 3.88Q38.49 3.85 38.52 3.75L38.52 3.75L38.52 3.75Q38.56 3.65 38.59 3.62L38.59 3.62L38.59 3.62Q38.63 3.58 38.73 3.54L38.73 3.54L38.73 3.54Q38.84 3.50 39.00 3.50L39.00 3.50L39.00 3.50Q39.27 3.50 39.50 3.51L39.50 3.51L39.50 3.51Q39.73 3.53 40.21 3.53L40.21 3.53L40.21 3.53Q40.45 3.53 40.45 3.71L40.45 3.71L40.45 3.71Q40.45 3.85 40.36 3.91L40.36 3.91L40.36 3.91Q40.26 3.98 39.98 4.02L39.98 4.02L39.98 4.02Q39.63 4.06 39.49 4.37L39.49 4.37L39.49 4.37Q39.35 4.68 39.35 5.54L39.35 5.54L39.35 5.54Q39.35 7.43 39.44 8.97L39.44 8.97L39.44 8.97Q39.52 10.50 39.52 10.89L39.52 10.89L39.52 10.89Q39.52 12.29 39.75 12.68L39.75 12.68L39.75 12.68Q39.97 13.06 40.68 13.06L40.68 13.06L40.68 13.06Q40.78 13.06 40.86 13.13L40.86 13.13L40.86 13.13Q40.94 13.20 40.94 13.26L40.94 13.26L40.94 13.26Q40.94 13.34 40.92 13.38L40.92 13.38L40.92 13.38Q40.91 13.43 40.87 13.45L40.87 13.45L40.87 13.45Q40.82 13.48 40.78 13.48L40.78 13.48L40.78 13.48Q40.74 13.48 40.63 13.48L40.63 13.48L40.63 13.48Q40.21 13.48 39.80 13.45L39.80 13.45L39.80 13.45Q39.40 13.43 39.20 13.43L39.20 13.43L39.20 13.43Q38.81 13.43 38.39 13.46L38.39 13.46L38.39 13.46Q37.97 13.50 37.74 13.50L37.74 13.50L37.74 13.50Q37.49 13.50 37.49 13.30L37.49 13.30L37.49 13.30Q37.49 13.17 37.60 13.12L37.60 13.12L37.60 13.12Q37.72 13.06 37.86 13.05L37.86 13.05L37.86 13.05Q38.01 13.03 38.17 12.87L38.17 12.87L38.17 12.87Q38.33 12.71 38.40 12.39L38.40 12.39L38.40 12.39Q38.46 12.11 38.46 11.49L38.46 11.49L38.46 11.49Q38.46 11.05 38.44 10.42L38.44 10.42L38.44 10.42Q38.42 9.79 38.39 9.19L38.39 9.19L38.39 9.19Q38.36 8.60 38.33 8.07L38.33 8.07L38.33 8.07Q38.30 7.55 38.29 7.21L38.29 7.21L38.26 6.87L38.26 6.87Q38.26 6.27 38.14 6.27L38.14 6.27L38.14 6.27Q38.12 6.27 38.09 6.29L38.09 6.29L38.09 6.29Q38.07 6.30 38.05 6.33L38.05 6.33L38.05 6.33Q38.02 6.36 38.00 6.38L38.00 6.38L38.00 6.38Q37.97 6.41 37.94 6.47L37.94 6.47L37.94 6.47Q37.91 6.54 37.88 6.58L37.88 6.58L37.88 6.58Q37.86 6.62 37.81 6.70L37.81 6.70L37.81 6.70Q37.77 6.78 37.74 6.83L37.74 6.83L37.74 6.83Q37.72 6.89 37.67 6.99L37.67 6.99L37.67 6.99Q37.62 7.08 37.59 7.15L37.59 7.15L35.64 11.09L35.64 11.09Q35.31 11.77 34.93 12.56L34.93 12.56L34.93 12.56Q34.68 13.09 34.62 13.18L34.62 13.18L34.62 13.18Q34.57 13.27 34.48 13.27L34.48 13.27L34.48 13.27Q34.36 13.27 34.27 13.15L34.27 13.15L34.27 13.15Q34.19 13.03 34.02 12.63L34.02 12.63L34.02 12.63Q33.85 12.22 33.73 11.96L33.73 11.96L33.73 11.96Q31.16 6.75 31.09 6.65L31.09 6.65L31.09 6.65Q31.05 6.59 31.01 6.59L31.01 6.59L31.01 6.59Q30.90 6.59 30.90 7.15L30.90 7.15L30.90 7.15Q30.88 8.25 30.83 9.31L30.83 9.31L30.83 9.31Q30.77 10.37 30.77 10.85L30.77 10.85L30.77 11.48L30.77 11.48Q30.77 11.84 30.79 12.04L30.79 12.04L30.79 12.04Q30.81 12.24 30.91 12.49L30.91 12.49L30.91 12.49Q31.00 12.75 31.23 12.89L31.23 12.89L31.23 12.89Q31.47 13.03 31.85 13.08L31.85 13.08L31.85 13.08Q31.92 13.08 31.98 13.13L31.98 13.13L31.98 13.13Q32.05 13.17 32.05 13.23L32.05 13.23L32.05 13.23Q32.05 13.38 32.00 13.43L32.00 13.43L32.00 13.43Q31.96 13.48 31.84 13.48L31.84 13.48L31.84 13.48Q31.56 13.48 31.00 13.45L31.00 13.45L31.00 13.45Q30.44 13.43 30.38 13.43L30.38 13.43L30.38 13.43Q30.35 13.43 29.97 13.45L29.97 13.45L29.97 13.45Q29.60 13.47 29.23 13.47L29.23 13.47L29.23 13.47Q29.12 13.47 29.07 13.45L29.07 13.45L29.07 13.45Q29.02 13.44 28.98 13.39L28.98 13.39L28.98 13.39Q28.94 13.34 28.94 13.24L28.94 13.24L28.94 13.24Q28.94 13.13 29.06 13.09L29.06 13.09L29.06 13.09Q29.19 13.05 29.35 13.04L29.35 13.04L29.35 13.04Q29.51 13.03 29.71 12.82L29.71 12.82L29.71 12.82Q29.90 12.60 30.00 12.18L30.00 12.18L30.00 12.18Q30.07 11.87 30.17 9.74L30.17 9.74L30.17 9.74Q30.27 7.62 30.27 6.59L30.27 6.59L30.27 6.59Q30.27 5.19 30.00 4.66L30.00 4.66L30.00 4.66Q29.72 4.13 28.81 3.92L28.81 3.92L28.81 3.92Q28.63 3.88 28.63 3.71ZM48.50 13.33L48.50 13.33L48.50 13.33Q48.50 13.13 48.71 13.06L48.71 13.06L48.71 13.06Q49.15 12.89 49.49 12.31L49.49 12.31L49.49 12.31Q49.83 11.73 51.16 8.83L51.16 8.83L51.16 8.83Q52.53 5.87 53.58 3.63L53.58 3.63L53.58 3.63Q53.68 3.42 53.75 3.36L53.75 3.36L53.75 3.36Q53.83 3.30 54.00 3.30L54.00 3.30L54.00 3.30Q54.12 3.30 54.17 3.36L54.17 3.36L54.17 3.36Q54.21 3.42 54.35 3.82L54.35 3.82L54.35 3.82Q54.43 4.06 54.50 4.23L54.50 4.23L54.50 4.23Q54.56 4.40 54.70 4.77L54.70 4.77L54.70 4.77Q54.84 5.15 55.01 5.56L55.01 5.56L55.01 5.56Q55.45 6.66 56.55 9.22L56.55 9.22L56.55 9.22Q57.65 11.77 57.75 11.98L57.75 11.98L57.75 11.98Q57.99 12.46 58.28 12.71L58.28 12.71L58.28 12.71Q58.58 12.95 58.79 12.97L58.79 12.97L58.79 12.97Q59.01 12.99 59.16 13.04L59.16 13.04L59.16 13.04Q59.30 13.09 59.30 13.26L59.30 13.26L59.30 13.26Q59.30 13.47 58.93 13.47L58.93 13.47L58.93 13.47Q58.77 13.47 58.32 13.43L58.32 13.43L58.32 13.43Q57.88 13.38 57.67 13.38L57.67 13.38L57.67 13.38Q57.40 13.38 56.98 13.41L56.98 13.41L56.98 13.41Q56.56 13.44 56.36 13.44L56.36 13.44L56.36 13.44Q55.93 13.44 55.81 13.40L55.81 13.40L55.81 13.40Q55.69 13.37 55.69 13.24L55.69 13.24L55.69 13.24Q55.69 13.15 55.80 13.08L55.80 13.08L55.80 13.08Q55.92 13.02 56.04 13.00L56.04 13.00L56.04 13.00Q56.17 12.98 56.28 12.87L56.28 12.87L56.28 12.87Q56.39 12.77 56.39 12.59L56.39 12.59L56.39 12.59Q56.39 12.28 56.04 11.33L56.04 11.33L56.04 11.33Q55.69 10.37 55.45 9.93L55.45 9.93L55.45 9.93Q55.33 9.69 54.88 9.69L54.88 9.69L54.88 9.69Q54.81 9.69 54.26 9.70L54.26 9.70L54.26 9.70Q53.72 9.72 53.19 9.72L53.19 9.72L52.44 9.72L52.44 9.72Q51.81 9.72 51.65 9.79L51.65 9.79L51.65 9.79Q51.49 9.86 51.37 10.12L51.37 10.12L51.37 10.12Q51.28 10.30 51.09 10.70L51.09 10.70L51.09 10.70Q50.89 11.10 50.82 11.26L50.82 11.26L50.82 11.26Q50.75 11.41 50.65 11.65L50.65 11.65L50.65 11.65Q50.54 11.90 50.51 12.05L50.51 12.05L50.51 12.05Q50.47 12.19 50.47 12.31L50.47 12.31L50.47 12.31Q50.47 12.63 50.63 12.80L50.63 12.80L50.63 12.80Q50.79 12.96 50.99 12.98L50.99 12.98L50.99 12.98Q51.18 13.01 51.34 13.06L51.34 13.06L51.34 13.06Q51.51 13.12 51.51 13.26L51.51 13.26L51.51 13.26Q51.51 13.36 51.46 13.40L51.46 13.40L51.46 13.40Q51.42 13.45 51.27 13.45L51.27 13.45L51.27 13.45Q51.18 13.45 50.79 13.45L50.79 13.45L50.79 13.45Q50.39 13.44 50.11 13.44L50.11 13.44L50.11 13.44Q49.80 13.44 49.41 13.47L49.41 13.47L49.41 13.47Q49.03 13.50 48.90 13.50L48.90 13.50L48.90 13.50Q48.50 13.50 48.50 13.33ZM52.01 8.71L52.01 8.71L52.01 8.71Q52.01 8.89 52.14 8.93L52.14 8.93L52.14 8.93Q52.26 8.97 52.72 8.97L52.72 8.97L53.16 8.97L54.49 8.96L54.49 8.96Q55.03 8.96 55.03 8.74L55.03 8.74L55.03 8.74Q55.03 8.55 54.35 7.01L54.35 7.01L54.35 7.01Q53.66 5.46 53.48 5.46L53.48 5.46L53.48 5.46Q53.35 5.46 52.68 7.01L52.68 7.01L52.68 7.01Q52.01 8.55 52.01 8.71ZM66.86 3.70L66.86 3.70L66.86 3.70Q66.86 3.47 67.27 3.47L67.27 3.47L69.59 3.47L69.59 3.47Q69.92 3.47 70.34 3.45L70.34 3.45L70.34 3.45Q70.76 3.43 70.99 3.43L70.99 3.43L70.99 3.43Q72.25 3.43 73.15 4.07L73.15 4.07L73.15 4.07Q74.05 4.70 74.05 5.78L74.05 5.78L74.05 5.78Q74.05 6.50 73.77 7.03L73.77 7.03L73.77 7.03Q73.50 7.57 73.17 7.81L73.17 7.81L73.17 7.81Q72.84 8.05 72.57 8.22L72.57 8.22L72.57 8.22Q72.30 8.40 72.30 8.46L72.30 8.46L72.30 8.46Q72.30 8.62 73.47 10.27L73.47 10.27L73.47 10.27Q74.65 11.91 75.08 12.38L75.08 12.38L75.08 12.38Q75.61 13.03 76.37 13.03L76.37 13.03L76.37 13.03Q76.57 13.03 76.57 13.20L76.57 13.20L76.57 13.20Q76.57 13.41 76.40 13.48L76.40 13.48L76.40 13.48Q76.23 13.55 75.53 13.55L75.53 13.55L75.53 13.55Q74.87 13.55 74.33 13.23L74.33 13.23L74.33 13.23Q73.63 12.82 71.96 10.09L71.96 10.09L71.96 10.09Q71.86 9.94 71.82 9.87L71.82 9.87L71.82 9.87Q71.15 8.78 70.78 8.78L70.78 8.78L70.49 8.78L69.64 8.78L69.64 8.78Q69.47 8.78 69.43 8.92L69.43 8.92L69.43 8.92Q69.40 9.06 69.40 9.77L69.40 9.77L69.40 9.77Q69.40 10.44 69.40 10.88L69.40 10.88L69.40 10.88Q69.40 11.31 69.41 11.43L69.41 11.43L69.41 11.43Q69.41 11.55 69.41 11.63L69.41 11.63L69.41 11.63Q69.41 11.70 69.41 11.75L69.41 11.75L69.41 11.75Q69.41 12.32 69.68 12.63L69.68 12.63L69.68 12.63Q69.94 12.95 70.27 13.00L70.27 13.00L70.27 13.00Q70.60 13.05 70.87 13.11L70.87 13.11L70.87 13.11Q71.13 13.17 71.13 13.31L71.13 13.31L71.13 13.31Q71.13 13.54 70.88 13.54L70.88 13.54L70.88 13.54Q70.87 13.54 69.92 13.49L69.92 13.49L69.92 13.49Q68.96 13.44 68.88 13.44L68.88 13.44L68.88 13.44Q68.47 13.44 67.91 13.47L67.91 13.47L67.91 13.47Q67.35 13.50 67.34 13.50L67.34 13.50L67.34 13.50Q67.05 13.50 67.05 13.27L67.05 13.27L67.05 13.27Q67.05 13.12 67.23 13.05L67.23 13.05L67.23 13.05Q67.41 12.99 67.63 12.96L67.63 12.96L67.63 12.96Q67.86 12.94 68.04 12.66L68.04 12.66L68.04 12.66Q68.22 12.38 68.22 11.86L68.22 11.86L68.22 11.86Q68.22 11.49 68.23 9.90L68.23 9.90L68.23 9.90Q68.24 8.30 68.24 7.45L68.24 7.45L68.24 7.45Q68.24 6.58 68.23 5.86L68.23 5.86L68.23 5.86Q68.22 5.14 68.22 5.08L68.22 5.08L68.22 5.08Q68.22 4.56 68.01 4.29L68.01 4.29L68.01 4.29Q67.80 4.02 67.54 3.98L67.54 3.98L67.54 3.98Q67.28 3.95 67.07 3.89L67.07 3.89L67.07 3.89Q66.86 3.84 66.86 3.70ZM69.40 5.54L69.40 5.94L69.40 5.94Q69.40 7.38 69.41 7.72L69.41 7.72L69.41 7.72Q69.43 8.06 69.51 8.12L69.51 8.12L69.51 8.12Q69.72 8.25 70.11 8.25L70.11 8.25L70.25 8.25L70.66 8.25L70.66 8.25Q71.85 8.25 72.36 7.70L72.36 7.70L72.36 7.70Q72.87 7.15 72.87 6.30L72.87 6.30L72.87 6.30Q72.87 5.43 72.19 4.72L72.19 4.72L72.19 4.72Q71.51 4.00 70.14 4.00L70.14 4.00L70.14 4.00Q69.62 4.00 69.51 4.28L69.51 4.28L69.51 4.28Q69.40 4.55 69.40 5.54L69.40 5.54ZM83.92 3.71L83.92 3.71L83.92 3.71Q83.92 3.53 84.31 3.53L84.31 3.53L84.31 3.53Q84.45 3.53 84.95 3.54L84.95 3.54L84.95 3.54Q85.46 3.56 85.89 3.56L85.89 3.56L85.89 3.56Q86.14 3.56 86.35 3.54L86.35 3.54L86.35 3.54Q86.56 3.53 87.09 3.53L87.09 3.53L87.09 3.53Q87.33 3.53 87.33 3.71L87.33 3.71L87.33 3.71Q87.33 3.77 87.26 3.81L87.26 3.81L87.26 3.81Q87.19 3.85 87.06 3.91L87.06 3.91L87.06 3.91Q86.93 3.96 86.84 4.00L86.84 4.00L86.84 4.00Q86.41 4.26 86.41 5.71L86.41 5.71L86.41 5.71Q86.41 6.47 86.39 7.17L86.39 7.17L86.39 7.17Q86.37 7.87 86.37 7.90L86.37 7.90L86.37 7.90Q86.37 8.19 86.49 8.19L86.49 8.19L86.49 8.19Q86.59 8.19 87.61 7.36L87.61 7.36L87.61 7.36Q88.63 6.52 89.64 5.55L89.64 5.55L89.64 5.55Q90.65 4.58 90.65 4.27L90.65 4.27L90.65 4.27Q90.65 4.19 90.61 4.12L90.61 4.12L90.61 4.12Q90.57 4.06 90.47 4.02L90.47 4.02L90.47 4.02Q90.37 3.98 90.30 3.96L90.30 3.96L90.30 3.96Q90.23 3.93 90.10 3.91L90.10 3.91L90.10 3.91Q89.98 3.89 89.95 3.88L89.95 3.88L89.95 3.88Q89.80 3.85 89.80 3.68L89.80 3.68L89.80 3.68Q89.80 3.53 90.02 3.53L90.02 3.53L90.02 3.53Q90.05 3.53 90.17 3.54L90.17 3.54L90.17 3.54Q90.29 3.54 90.37 3.54L90.37 3.54L90.37 3.54Q90.40 3.54 90.70 3.56L90.70 3.56L90.70 3.56Q91 3.57 91.21 3.57L91.21 3.57L92.95 3.53L92.95 3.53Q93.23 3.53 93.23 3.71L93.23 3.71L93.23 3.71Q93.23 3.81 93.14 3.86L93.14 3.86L93.14 3.86Q93.06 3.91 92.82 3.98L92.82 3.98L92.82 3.98Q92.58 4.05 92.41 4.12L92.41 4.12L92.41 4.12Q92.34 4.14 91.73 4.54L91.73 4.54L91.73 4.54Q91.60 4.62 90.15 5.84L90.15 5.84L90.15 5.84Q89.10 6.73 87.71 7.90L87.71 7.90L87.56 8.09L87.56 8.09Q87.56 8.16 87.71 8.32L87.71 8.32L87.71 8.32Q88.37 8.97 89.42 10.01L89.42 10.01L89.42 10.01Q91.36 11.94 91.94 12.42L91.94 12.42L91.94 12.42Q92.51 12.91 93.03 12.99L93.03 12.99L93.03 12.99Q93.44 13.05 93.49 13.16L93.49 13.16L93.49 13.16Q93.51 13.19 93.51 13.24L93.51 13.24L93.51 13.24Q93.51 13.37 93.39 13.40L93.39 13.40L93.39 13.40Q93.27 13.43 92.69 13.43L92.69 13.43L91.34 13.43L91.34 13.43Q91.24 13.43 91.19 13.41L91.19 13.41L91.19 13.41Q91.14 13.40 91.09 13.37L91.09 13.37L91.09 13.37Q91.04 13.34 90.96 13.25L90.96 13.25L90.96 13.25Q90.89 13.16 90.78 13.04L90.78 13.04L90.78 13.04Q90.68 12.92 90.46 12.68L90.46 12.68L90.46 12.68Q90.24 12.43 89.98 12.17L89.98 12.17L89.98 12.17Q87.01 9.16 86.86 9.03L86.86 9.03L86.86 9.03Q86.70 8.90 86.59 8.90L86.59 8.90L86.59 8.90Q86.39 8.90 86.39 9.28L86.39 9.28L86.39 9.32L86.39 9.32Q86.39 9.37 86.40 9.45L86.40 9.45L86.40 9.45Q86.41 9.53 86.41 9.65L86.41 9.65L86.41 9.65Q86.41 9.76 86.41 9.95L86.41 9.95L86.41 9.95Q86.41 10.14 86.41 10.36L86.41 10.36L86.41 10.36Q86.41 12.19 86.62 12.57L86.62 12.57L86.62 12.57Q86.88 13.02 87.56 13.02L87.56 13.02L87.56 13.02Q87.58 13.02 87.61 13.03L87.61 13.03L87.61 13.03Q87.64 13.03 87.67 13.03L87.67 13.03L87.67 13.03Q87.77 13.03 87.86 13.08L87.86 13.08L87.86 13.08Q87.96 13.13 87.96 13.19L87.96 13.19L87.96 13.19Q87.96 13.34 87.88 13.39L87.88 13.39L87.88 13.39Q87.81 13.44 87.61 13.44L87.61 13.44L87.61 13.44Q87.19 13.44 86.83 13.41L86.83 13.41L86.83 13.41Q86.48 13.38 86.28 13.38L86.28 13.38L86.28 13.38Q85.89 13.38 85.43 13.42L85.43 13.42L85.43 13.42Q84.97 13.45 84.74 13.45L84.74 13.45L84.74 13.45Q84.24 13.45 84.24 13.30L84.24 13.30L84.24 13.24L84.24 13.24Q84.24 13.15 84.37 13.11L84.37 13.11L84.37 13.11Q84.50 13.08 84.70 13.02L84.70 13.02L84.70 13.02Q84.90 12.96 85.01 12.85L85.01 12.85L85.01 12.85Q85.20 12.66 85.25 11.95L85.25 11.95L85.25 11.95Q85.30 11.24 85.30 9.69L85.30 9.69L85.30 7.81L85.30 7.81Q85.30 7.63 85.29 7.12L85.29 7.12L85.29 7.12Q85.27 6.61 85.27 6.30L85.27 6.30L85.27 5.66L85.27 5.66Q85.27 4.94 85.23 4.63L85.23 4.63L85.23 4.63Q85.19 4.30 84.88 4.12L84.88 4.12L84.88 4.12Q84.56 3.93 84.21 3.92L84.21 3.92L84.21 3.92Q83.92 3.91 83.92 3.71ZM111.37 8.69L111.37 8.69L111.37 8.69Q111.37 6.34 112.78 4.84L112.78 4.84L112.78 4.84Q114.20 3.33 116.79 3.33L116.79 3.33L116.79 3.33Q117.99 3.33 118.96 3.68L118.96 3.68L118.96 3.68Q119.92 4.03 120.48 4.54L120.48 4.54L120.48 4.54Q121.04 5.05 121.42 5.71L121.42 5.71L121.42 5.71Q121.80 6.37 121.94 6.92L121.94 6.92L121.94 6.92Q122.08 7.48 122.08 7.95L122.08 7.95L122.08 7.95Q122.08 9.86 121.34 11.16L121.34 11.16L121.34 11.16Q120.60 12.47 119.38 13.07L119.38 13.07L119.38 13.07Q118.17 13.66 116.59 13.66L116.59 13.66L116.59 13.66Q114.93 13.66 113.71 12.94L113.71 12.94L113.71 12.94Q112.50 12.21 111.94 11.10L111.94 11.10L111.94 11.10Q111.37 10.00 111.37 8.69ZM112.60 7.98L112.60 7.98L112.60 7.98Q112.60 8.54 112.76 9.19L112.76 9.19L112.76 9.19Q112.91 9.84 113.26 10.54L113.26 10.54L113.26 10.54Q113.61 11.23 114.11 11.78L114.11 11.78L114.11 11.78Q114.60 12.33 115.37 12.69L115.37 12.69L115.37 12.69Q116.13 13.05 117.04 13.05L117.04 13.05L117.04 13.05Q117.52 13.05 118.04 12.90L118.04 12.90L118.04 12.90Q118.57 12.75 119.08 12.45L119.08 12.45L119.08 12.45Q119.60 12.14 120.01 11.70L120.01 11.70L120.01 11.70Q120.41 11.26 120.67 10.62L120.67 10.62L120.67 10.62Q120.93 9.98 120.93 9.24L120.93 9.24L120.93 9.24Q120.93 6.71 119.60 5.30L119.60 5.30L119.60 5.30Q118.27 3.89 116.31 3.89L116.31 3.89L116.31 3.89Q114.77 3.89 113.69 4.93L113.69 4.93L113.69 4.93Q112.60 5.96 112.60 7.98ZM129.98 3.68L129.98 3.68L129.98 3.68Q129.98 3.64 130.00 3.60L130.00 3.60L130.00 3.60Q130.02 3.56 130.11 3.50L130.11 3.50L130.11 3.50Q130.20 3.44 130.34 3.44L130.34 3.44L130.72 3.44L130.72 3.44Q131.05 3.44 131.80 3.49L131.80 3.49L131.80 3.49Q132.55 3.53 133.76 3.53L133.76 3.53L133.76 3.53Q134.75 3.53 135.52 3.49L135.52 3.49L135.52 3.49Q136.29 3.46 136.93 3.46L136.93 3.46L136.93 3.46Q137.17 3.46 137.17 3.79L137.17 3.79L137.17 3.79Q137.17 3.92 137.14 4.11L137.14 4.11L137.14 4.11Q137.12 4.30 137.06 4.61L137.06 4.61L137.06 4.61Q137.00 4.93 136.98 5.22L136.98 5.22L136.98 5.22Q136.95 5.50 136.77 5.50L136.77 5.50L136.77 5.50Q136.57 5.50 136.57 5.22L136.57 5.22L136.57 5.22Q136.57 4.30 135.93 4.26L135.93 4.26L135.93 4.26Q133.81 4.09 133.41 4.09L133.41 4.09L133.41 4.09Q132.78 4.09 132.63 4.24L132.63 4.24L132.63 4.24Q132.48 4.40 132.47 4.87L132.47 4.87L132.47 4.87Q132.47 4.94 132.47 4.98L132.47 4.98L132.47 4.98Q132.43 5.74 132.43 7.32L132.43 7.32L132.43 7.32Q132.43 8.01 132.68 8.02L132.68 8.02L132.68 8.02Q132.75 8.02 132.87 8.03L132.87 8.03L132.87 8.03Q132.99 8.04 133.03 8.04L133.03 8.04L133.03 8.04Q133.13 8.04 133.32 8.03L133.32 8.03L133.32 8.03Q133.52 8.02 133.63 8.02L133.63 8.02L134.06 8.02L134.06 8.02Q134.90 8.02 135.18 7.97L135.18 7.97L135.18 7.97Q135.45 7.92 135.67 7.77L135.67 7.77L135.67 7.77Q135.80 7.69 135.87 7.57L135.87 7.57L135.87 7.57Q135.94 7.46 135.97 7.31L135.97 7.31L135.97 7.31Q136.00 7.15 136.04 7.08L136.04 7.08L136.04 7.08Q136.08 7.01 136.21 7.01L136.21 7.01L136.21 7.01Q136.33 7.01 136.36 7.06L136.36 7.06L136.36 7.06Q136.39 7.10 136.39 7.24L136.39 7.24L136.39 7.24Q136.39 7.34 136.32 7.73L136.32 7.73L136.32 7.73Q136.26 8.12 136.26 8.40L136.26 8.40L136.26 8.40Q136.26 8.67 136.31 9.05L136.31 9.05L136.31 9.05Q136.36 9.44 136.36 9.55L136.36 9.55L136.36 9.55Q136.36 9.77 136.31 9.83L136.31 9.83L136.31 9.83Q136.26 9.90 136.16 9.90L136.16 9.90L136.16 9.90Q135.93 9.90 135.87 9.55L135.87 9.55L135.87 9.55Q135.87 9.52 135.86 9.42L135.86 9.42L135.86 9.42Q135.84 9.32 135.84 9.28L135.84 9.28L135.84 9.28Q135.83 9.24 135.80 9.16L135.80 9.16L135.80 9.16Q135.77 9.09 135.74 9.04L135.74 9.04L135.74 9.04Q135.72 9.00 135.67 8.95L135.67 8.95L135.67 8.95Q135.63 8.90 135.56 8.88L135.56 8.88L135.56 8.88Q135.37 8.79 134.86 8.74L134.86 8.74L134.86 8.74Q134.36 8.68 134.20 8.68L134.20 8.68L132.99 8.68L132.99 8.68Q132.41 8.68 132.41 8.95L132.41 8.95L132.41 8.95Q132.41 9.35 132.40 9.96L132.40 9.96L132.40 9.96Q132.38 10.57 132.38 10.96L132.38 10.96L132.38 10.96Q132.38 11.06 132.38 11.25L132.38 11.25L132.38 11.25Q132.37 11.44 132.37 11.52L132.37 11.52L132.37 11.52Q132.37 11.80 132.43 12.08L132.43 12.08L132.43 12.08Q132.48 12.36 132.75 12.67L132.75 12.67L132.75 12.67Q133.03 12.98 133.49 12.98L133.49 12.98L133.49 12.98Q133.91 12.98 133.91 13.23L133.91 13.23L133.91 13.23Q133.91 13.27 133.88 13.33L133.88 13.33L133.88 13.33Q133.85 13.38 133.75 13.44L133.75 13.44L133.75 13.44Q133.64 13.50 133.48 13.50L133.48 13.50L133.48 13.50Q133.25 13.50 132.77 13.44L132.77 13.44L132.77 13.44Q132.29 13.38 132.12 13.38L132.12 13.38L132.12 13.38Q131.73 13.38 131.24 13.43L131.24 13.43L131.24 13.43Q130.76 13.47 130.42 13.47L130.42 13.47L130.42 13.47Q130.14 13.47 130.14 13.31L130.14 13.31L130.14 13.31Q130.14 13.13 130.21 13.09L130.21 13.09L130.21 13.09Q130.27 13.05 130.75 12.88L130.75 12.88L130.75 12.88Q131.11 12.75 131.19 12.13L131.19 12.13L131.19 12.13Q131.28 11.51 131.29 9.60L131.29 9.60L131.29 9.60Q131.29 8.86 131.29 8.44L131.29 8.44L131.29 8.44Q131.29 8.06 131.31 7.26L131.31 7.26L131.31 7.26Q131.33 6.45 131.33 6.01L131.33 6.01L131.33 5.19L131.33 5.19Q131.33 4.27 130.68 3.96L130.68 3.96L130.68 3.96Q130.58 3.92 130.44 3.90L130.44 3.90L130.44 3.90Q130.30 3.88 130.21 3.88L130.21 3.88L130.21 3.88Q130.12 3.88 130.05 3.83L130.05 3.83L130.05 3.83Q129.98 3.78 129.98 3.68ZM154.71 3.64L154.71 3.64L154.71 3.64Q154.71 3.51 154.83 3.49L154.83 3.49L154.83 3.49Q154.95 3.47 155.43 3.47L155.43 3.47L156.65 3.47L156.65 3.47Q157.00 3.47 157.93 3.44L157.93 3.44L157.93 3.44Q158.87 3.42 159.38 3.42L159.38 3.42L159.38 3.42Q160.34 3.42 161.31 3.71L161.31 3.71L161.31 3.71Q162.27 4.00 163.09 4.56L163.09 4.56L163.09 4.56Q163.90 5.11 164.40 6.00L164.40 6.00L164.40 6.00Q164.91 6.89 164.91 7.98L164.91 7.98L164.91 7.98Q164.91 8.96 164.77 9.68L164.77 9.68L164.77 9.68Q164.64 10.40 164.33 10.93L164.33 10.93L164.33 10.93Q164.02 11.45 163.72 11.78L163.72 11.78L163.72 11.78Q163.41 12.11 162.88 12.56L162.88 12.56L162.88 12.56Q162.46 12.89 161.66 13.19L161.66 13.19L161.66 13.19Q160.86 13.48 160.02 13.48L160.02 13.48L160.02 13.48Q159.94 13.48 158.59 13.45L158.59 13.45L158.59 13.45Q157.25 13.41 156.66 13.41L156.66 13.41L156.66 13.41Q156.17 13.41 155.75 13.45L155.75 13.45L155.75 13.45Q155.33 13.48 155.26 13.48L155.26 13.48L155.26 13.48Q154.92 13.48 154.92 13.30L154.92 13.30L154.92 13.30Q154.92 13.19 154.97 13.14L154.97 13.14L154.97 13.14Q155.02 13.09 155.18 13.05L155.18 13.05L155.18 13.05Q155.34 13.01 155.41 12.98L155.41 12.98L155.41 12.98Q155.64 12.88 155.83 12.61L155.83 12.61L155.83 12.61Q156.02 12.33 156.02 12.07L156.02 12.07L156.02 12.07Q156.02 11.28 156.02 10.07L156.02 10.07L156.02 10.07Q156.03 8.85 156.03 8.27L156.03 8.27L156.03 8.27Q156.03 7.77 156.02 6.70L156.02 6.70L156.02 6.70Q156.02 5.63 156.02 4.72L156.02 4.72L156.02 4.72Q156.02 4.48 155.78 4.23L155.78 4.23L155.78 4.23Q155.55 3.99 155.27 3.98L155.27 3.98L155.27 3.98Q155.08 3.96 154.99 3.95L154.99 3.95L154.99 3.95Q154.90 3.93 154.81 3.86L154.81 3.86L154.81 3.86Q154.71 3.78 154.71 3.64ZM157.19 11.47L157.19 11.47L157.19 11.47Q157.19 11.73 157.20 11.90L157.20 11.90L157.20 11.90Q157.21 12.07 157.25 12.21L157.25 12.21L157.25 12.21Q157.30 12.35 157.33 12.40L157.33 12.40L157.33 12.40Q157.36 12.46 157.50 12.53L157.50 12.53L157.50 12.53Q157.64 12.60 157.72 12.62L157.72 12.62L157.72 12.62Q157.79 12.64 158.05 12.71L158.05 12.71L158.05 12.71Q158.30 12.78 158.47 12.82L158.47 12.82L158.47 12.82Q158.96 12.96 159.49 12.96L159.49 12.96L159.77 12.96L159.77 12.96Q160.72 12.96 161.39 12.69L161.39 12.69L161.39 12.69Q162.06 12.42 162.68 11.83L162.68 11.83L162.68 11.83Q163.72 10.84 163.72 8.61L163.72 8.61L163.72 8.61Q163.72 7.49 163.28 6.58L163.28 6.58L163.28 6.58Q162.83 5.67 162.12 5.13L162.12 5.13L162.12 5.13Q161.41 4.59 160.58 4.30L160.58 4.30L160.58 4.30Q159.75 4.02 158.91 4.02L158.91 4.02L158.91 4.02Q158.54 4.02 158.36 4.02L158.36 4.02L158.36 4.02Q158.19 4.02 157.95 4.05L157.95 4.05L157.95 4.05Q157.72 4.09 157.65 4.11L157.65 4.11L157.65 4.11Q157.57 4.13 157.46 4.25L157.46 4.25L157.46 4.25Q157.35 4.37 157.32 4.45L157.32 4.45L157.32 4.45Q157.30 4.54 157.27 4.78L157.27 4.78L157.27 4.78Q157.23 5.03 157.23 5.21L157.23 5.21L157.23 5.21Q157.23 5.39 157.23 5.80L157.23 5.80L157.23 5.80Q157.23 6.10 157.22 7.24L157.22 7.24L157.22 7.24Q157.21 8.39 157.21 8.48L157.21 8.48L157.21 8.48Q157.21 9.32 157.20 10.30L157.20 10.30L157.20 10.30Q157.19 11.28 157.19 11.47ZM172.80 3.71L172.80 3.71L172.80 3.71Q172.80 3.50 173.19 3.50L173.19 3.50L173.19 3.50Q173.33 3.50 173.84 3.53L173.84 3.53L173.84 3.53Q174.34 3.56 174.78 3.56L174.78 3.56L174.78 3.56Q175.04 3.56 175.29 3.54L175.29 3.54L175.29 3.54Q175.53 3.53 176.01 3.53L176.01 3.53L176.01 3.53Q176.39 3.53 176.39 3.72L176.39 3.72L176.39 3.72Q176.39 3.84 175.74 4.10L175.74 4.10L175.74 4.10Q175.29 4.28 175.29 5.71L175.29 5.71L175.29 5.71Q175.29 7.60 175.27 9.05L175.27 9.05L175.27 9.05Q175.25 10.50 175.25 10.89L175.25 10.89L175.25 10.89Q175.25 12.07 175.60 12.59L175.60 12.59L175.60 12.59Q175.91 13.02 176.27 13.02L176.27 13.02L176.27 13.02Q176.30 13.02 176.41 13.03L176.41 13.03L176.41 13.03Q176.53 13.03 176.55 13.03L176.55 13.03L176.55 13.03Q176.65 13.03 176.75 13.08L176.75 13.08L176.75 13.08Q176.85 13.13 176.85 13.19L176.85 13.19L176.85 13.19Q176.85 13.34 176.77 13.39L176.77 13.39L176.77 13.39Q176.69 13.44 176.50 13.44L176.50 13.44L176.50 13.44Q176.08 13.44 175.72 13.41L175.72 13.41L175.72 13.41Q175.36 13.38 175.17 13.38L175.17 13.38L175.17 13.38Q174.78 13.38 174.31 13.42L174.31 13.42L174.31 13.42Q173.85 13.45 173.63 13.45L173.63 13.45L173.63 13.45Q173.00 13.45 173.00 13.24L173.00 13.24L173.00 13.24Q173.00 13.12 173.13 13.07L173.13 13.07L173.13 13.07Q173.26 13.02 173.43 13.00L173.43 13.00L173.43 13.00Q173.60 12.98 173.78 12.82L173.78 12.82L173.78 12.82Q173.96 12.66 174.03 12.35L174.03 12.35L174.03 12.35Q174.06 12.25 174.13 10.76L174.13 10.76L174.13 10.76Q174.19 9.27 174.19 8.61L174.19 8.61L174.19 7.81L174.19 7.81Q174.19 7.63 174.19 7.12L174.19 7.12L174.19 7.12Q174.20 6.61 174.20 6.30L174.20 6.30L174.20 5.66L174.20 5.66Q174.20 5.04 174.15 4.63L174.15 4.63L174.15 4.63Q174.10 4.30 173.77 4.12L173.77 4.12L173.77 4.12Q173.45 3.93 173.10 3.92L173.10 3.92L173.10 3.92Q172.80 3.91 172.80 3.71ZM184.94 10.82L184.94 10.82L184.94 10.82Q184.94 10.53 185.14 10.53L185.14 10.53L185.14 10.53Q185.32 10.53 185.36 10.67L185.36 10.67L185.36 10.67Q185.50 11.00 185.62 11.25L185.62 11.25L185.62 11.25Q185.74 11.49 186.00 11.85L186.00 11.85L186.00 11.85Q186.27 12.21 186.58 12.44L186.58 12.44L186.58 12.44Q186.89 12.67 187.37 12.84L187.37 12.84L187.37 12.84Q187.85 13.01 188.43 13.01L188.43 13.01L188.43 13.01Q189.48 13.01 190.11 12.45L190.11 12.45L190.11 12.45Q190.75 11.90 190.75 11.00L190.75 11.00L190.75 11.00Q190.75 10.35 190.32 9.90L190.32 9.90L190.32 9.90Q189.88 9.46 189.32 9.27L189.32 9.27L189.32 9.27Q188.76 9.09 187.90 8.77L187.90 8.77L187.90 8.77Q187.04 8.46 186.49 8.13L186.49 8.13L186.49 8.13Q185.22 7.38 185.22 6.08L185.22 6.08L185.22 6.08Q185.22 4.83 186.12 4.08L186.12 4.08L186.12 4.08Q187.03 3.33 188.47 3.33L188.47 3.33L188.47 3.33Q189 3.33 189.74 3.56L189.74 3.56L189.74 3.56Q190.47 3.79 190.48 3.79L190.48 3.79L190.48 3.79Q190.53 3.79 190.64 3.74L190.64 3.74L190.64 3.74Q190.75 3.68 190.81 3.68L190.81 3.68L190.81 3.68Q190.99 3.68 191.02 3.79L191.02 3.79L191.02 3.79Q191.31 5.49 191.31 5.70L191.31 5.70L191.31 5.70Q191.31 6.09 191.11 6.09L191.11 6.09L191.11 6.09Q190.99 6.09 190.92 5.89L190.92 5.89L190.92 5.89Q190.75 5.49 190.59 5.24L190.59 5.24L190.59 5.24Q190.43 4.98 190.36 4.91L190.36 4.91L190.36 4.91Q190.29 4.84 189.99 4.58L189.99 4.58L189.99 4.58Q189.24 3.91 188.16 3.91L188.16 3.91L188.16 3.91Q187.29 3.91 186.70 4.33L186.70 4.33L186.70 4.33Q186.12 4.75 186.12 5.46L186.12 5.46L186.12 5.46Q186.12 6.09 186.46 6.50L186.46 6.50L186.46 6.50Q186.80 6.90 187.38 7.13L187.38 7.13L187.38 7.13Q187.95 7.35 188.58 7.55L188.58 7.55L188.58 7.55Q189.21 7.74 189.92 8.09L189.92 8.09L189.92 8.09Q190.62 8.44 191.09 8.93L191.09 8.93L191.09 8.93Q191.65 9.53 191.65 10.43L191.65 10.43L191.65 10.43Q191.65 11.90 190.71 12.76L190.71 12.76L190.71 12.76Q189.77 13.62 188.38 13.62L188.38 13.62L188.38 13.62Q187.42 13.62 186.83 13.52L186.83 13.52L186.83 13.52Q186.24 13.41 185.63 13.09L185.63 13.09L185.63 13.09Q185.44 12.98 185.19 12.00L185.19 12.00L185.19 12.00Q184.94 11.02 184.94 10.82ZM199.74 5.32L199.74 5.32L199.74 5.32Q199.74 4.76 199.88 3.88L199.88 3.88L199.88 3.88Q199.88 3.85 199.88 3.78L199.88 3.78L199.88 3.78Q199.89 3.71 199.90 3.69L199.90 3.69L199.90 3.69Q199.91 3.67 199.91 3.62L199.91 3.62L199.91 3.62Q199.92 3.57 199.93 3.55L199.93 3.55L199.93 3.55Q199.95 3.53 199.97 3.49L199.97 3.49L199.97 3.49Q199.99 3.46 200.02 3.44L200.02 3.44L200.02 3.44Q200.05 3.43 200.09 3.42L200.09 3.42L200.09 3.42Q200.13 3.40 200.19 3.39L200.19 3.39L200.19 3.39Q200.24 3.39 200.31 3.39L200.31 3.39L200.31 3.39Q200.54 3.39 201.50 3.44L201.50 3.44L201.50 3.44Q202.45 3.50 204.26 3.50L204.26 3.50L204.26 3.50Q207.34 3.50 208.57 3.43L208.57 3.43L208.57 3.43Q208.59 3.43 208.62 3.42L208.62 3.42L208.62 3.42Q208.66 3.42 208.67 3.42L208.67 3.42L208.67 3.42Q208.82 3.42 208.88 3.50L208.88 3.50L208.88 3.50Q208.94 3.58 208.94 3.65L208.94 3.65L208.94 3.65Q208.94 3.75 208.98 4.24L208.98 4.24L208.98 4.24Q209.02 4.73 209.02 4.79L209.02 4.79L209.02 4.79Q209.02 5.14 208.98 5.23L208.98 5.23L208.98 5.23Q208.94 5.32 208.80 5.32L208.80 5.32L208.80 5.32Q208.68 5.32 208.64 5.15L208.64 5.15L208.64 5.15Q208.53 4.75 208.45 4.60L208.45 4.60L208.45 4.60Q208.36 4.45 208.08 4.34L208.08 4.34L208.08 4.34Q207.80 4.23 207.23 4.23L207.23 4.23L205.41 4.23L205.41 4.23Q205.07 4.23 205.00 4.36L205.00 4.36L205.00 4.36Q204.92 4.49 204.92 5.12L204.92 5.12L204.92 5.81L204.92 5.81Q204.92 7.69 204.90 9.11L204.90 9.11L204.90 9.11Q204.88 10.54 204.88 10.93L204.88 10.93L204.88 10.93Q204.88 11.13 204.87 11.43L204.87 11.43L204.87 11.43Q204.86 11.73 204.86 11.84L204.86 11.84L204.86 11.84Q204.86 12.45 205.06 12.64L205.06 12.64L205.06 12.64Q205.24 12.81 205.46 12.90L205.46 12.90L205.46 12.90Q205.69 12.99 205.85 13.01L205.85 13.01L205.85 13.01Q206.01 13.02 206.12 13.08L206.12 13.08L206.12 13.08Q206.23 13.13 206.23 13.26L206.23 13.26L206.23 13.26Q206.23 13.41 206.16 13.45L206.16 13.45L206.16 13.45Q206.09 13.50 205.90 13.50L205.90 13.50L205.90 13.50Q205.73 13.50 205.16 13.44L205.16 13.44L205.16 13.44Q204.58 13.38 204.34 13.38L204.34 13.38L204.34 13.38Q204.18 13.38 203.66 13.43L203.66 13.43L203.66 13.43Q203.15 13.48 202.92 13.48L202.92 13.48L202.92 13.48Q202.40 13.48 202.40 13.26L202.40 13.26L202.40 13.26Q202.40 13.12 202.48 13.07L202.48 13.07L202.48 13.07Q202.57 13.02 202.81 12.98L202.81 12.98L202.81 12.98Q203.06 12.95 203.13 12.94L203.13 12.94L203.13 12.94Q203.60 12.82 203.66 12.38L203.66 12.38L203.66 12.38Q203.80 11.14 203.80 7.08L203.80 7.08L203.78 4.58L203.78 4.58Q203.78 4.31 203.63 4.25L203.63 4.25L203.63 4.25Q203.48 4.19 202.72 4.19L202.72 4.19L202.72 4.19Q201.74 4.19 201.24 4.24L201.24 4.24L201.24 4.24Q200.75 4.30 200.66 4.35L200.66 4.35L200.66 4.35Q200.58 4.40 200.47 4.54L200.47 4.54L200.47 4.54Q200.34 4.70 200.26 4.91L200.26 4.91L200.26 4.91Q200.19 5.11 200.16 5.24L200.16 5.24L200.16 5.24Q200.14 5.38 200.08 5.47L200.08 5.47L200.08 5.47Q200.02 5.56 199.89 5.56L199.89 5.56L199.89 5.56Q199.74 5.56 199.74 5.32ZM216.58 3.71L216.58 3.71L216.58 3.71Q216.58 3.50 216.97 3.50L216.97 3.50L216.97 3.50Q217.11 3.50 217.62 3.53L217.62 3.53L217.62 3.53Q218.12 3.56 218.55 3.56L218.55 3.56L218.55 3.56Q218.82 3.56 219.06 3.54L219.06 3.54L219.06 3.54Q219.31 3.53 219.79 3.53L219.79 3.53L219.79 3.53Q220.16 3.53 220.16 3.72L220.16 3.72L220.16 3.72Q220.16 3.84 219.52 4.10L219.52 4.10L219.52 4.10Q219.07 4.28 219.07 5.71L219.07 5.71L219.07 5.71Q219.07 7.60 219.05 9.05L219.05 9.05L219.05 9.05Q219.03 10.50 219.03 10.89L219.03 10.89L219.03 10.89Q219.03 12.07 219.38 12.59L219.38 12.59L219.38 12.59Q219.69 13.02 220.05 13.02L220.05 13.02L220.05 13.02Q220.08 13.02 220.19 13.03L220.19 13.03L220.19 13.03Q220.30 13.03 220.33 13.03L220.33 13.03L220.33 13.03Q220.43 13.03 220.53 13.08L220.53 13.08L220.53 13.08Q220.63 13.13 220.63 13.19L220.63 13.19L220.63 13.19Q220.63 13.34 220.55 13.39L220.55 13.39L220.55 13.39Q220.47 13.44 220.28 13.44L220.28 13.44L220.28 13.44Q219.86 13.44 219.50 13.41L219.50 13.41L219.50 13.41Q219.14 13.38 218.95 13.38L218.95 13.38L218.95 13.38Q218.55 13.38 218.09 13.42L218.09 13.42L218.09 13.42Q217.63 13.45 217.41 13.45L217.41 13.45L217.41 13.45Q216.78 13.45 216.78 13.24L216.78 13.24L216.78 13.24Q216.78 13.12 216.91 13.07L216.91 13.07L216.91 13.07Q217.04 13.02 217.21 13.00L217.21 13.00L217.21 13.00Q217.38 12.98 217.56 12.82L217.56 12.82L217.56 12.82Q217.74 12.66 217.81 12.35L217.81 12.35L217.81 12.35Q217.84 12.25 217.90 10.76L217.90 10.76L217.90 10.76Q217.97 9.27 217.97 8.61L217.97 8.61L217.97 7.81L217.97 7.81Q217.97 7.63 217.97 7.12L217.97 7.12L217.97 7.12Q217.98 6.61 217.98 6.30L217.98 6.30L217.98 5.66L217.98 5.66Q217.98 5.04 217.92 4.63L217.92 4.63L217.92 4.63Q217.88 4.30 217.55 4.12L217.55 4.12L217.55 4.12Q217.22 3.93 216.87 3.92L216.87 3.92L216.87 3.92Q216.58 3.91 216.58 3.71ZM228.17 3.77L228.17 3.77L228.17 3.77Q228.17 3.68 228.27 3.60L228.27 3.60L228.27 3.60Q228.37 3.53 228.52 3.53L228.52 3.53L228.52 3.53Q228.61 3.53 228.80 3.54L228.80 3.54L228.80 3.54Q229.00 3.54 229.05 3.54L229.05 3.54L229.05 3.54Q229.26 3.54 229.45 3.53L229.45 3.53L229.45 3.53Q229.63 3.51 229.74 3.51L229.74 3.51L229.74 3.51Q229.87 3.51 230.03 3.59L230.03 3.59L230.03 3.59Q230.20 3.67 230.23 3.75L230.23 3.75L230.23 3.75Q230.26 3.79 230.38 3.94L230.38 3.94L230.38 3.94Q230.51 4.09 230.72 4.33L230.72 4.33L230.72 4.33Q230.93 4.56 231.10 4.79L231.10 4.79L231.10 4.79Q233.00 7.27 236.19 10.77L236.19 10.77L236.19 10.77Q236.28 10.86 236.40 10.99L236.40 10.99L236.40 10.99Q236.52 11.12 236.57 11.18L236.57 11.18L236.57 11.18Q236.61 11.24 236.67 11.30L236.67 11.30L236.67 11.30Q236.73 11.35 236.76 11.38L236.76 11.38L236.76 11.38Q236.80 11.40 236.82 11.40L236.82 11.40L236.82 11.40Q236.96 11.40 236.96 10.53L236.96 10.53L236.96 8.89L236.96 8.89Q236.96 7.95 236.96 7.31L236.96 7.31L236.96 7.31Q236.95 6.66 236.94 6.38L236.94 6.38L236.94 6.38Q236.94 6.09 236.94 6.02L236.94 6.02L236.94 5.92L236.94 5.92Q236.94 5.45 236.87 5.11L236.87 5.11L236.87 5.11Q236.81 4.77 236.73 4.59L236.73 4.59L236.73 4.59Q236.64 4.41 236.48 4.28L236.48 4.28L236.48 4.28Q236.32 4.16 236.21 4.12L236.21 4.12L236.21 4.12Q236.10 4.09 235.89 4.05L235.89 4.05L235.89 4.05Q235.68 4.00 235.59 3.98L235.59 3.98L235.59 3.98Q235.31 3.89 235.31 3.74L235.31 3.74L235.31 3.74Q235.31 3.53 235.58 3.53L235.58 3.53L235.58 3.53Q235.66 3.53 236.25 3.54L236.25 3.54L236.25 3.54Q236.84 3.54 236.91 3.54L236.91 3.54L236.91 3.54Q237.24 3.54 237.66 3.53L237.66 3.53L237.66 3.53Q238.07 3.51 238.17 3.51L238.17 3.51L238.17 3.51Q238.41 3.51 238.50 3.56L238.50 3.56L238.50 3.56Q238.59 3.61 238.59 3.75L238.59 3.75L238.59 3.75Q238.59 3.81 238.51 3.86L238.51 3.86L238.51 3.86Q238.43 3.91 238.35 3.94L238.35 3.94L238.35 3.94Q238.27 3.98 238.18 4.00L238.18 4.00L238.10 4.03L238.10 4.03Q237.64 4.28 237.64 5.61L237.64 5.61L237.64 6.15L237.64 6.15Q237.64 7.21 237.56 9.83L237.56 9.83L237.56 9.83Q237.48 12.46 237.48 13.08L237.48 13.08L237.48 13.36L237.48 13.36Q237.48 13.68 237.29 13.68L237.29 13.68L237.29 13.68Q237.16 13.68 237.06 13.58L237.06 13.58L237.06 13.58Q232.41 8.19 231.51 7.17L231.51 7.17L231.51 7.17Q230.61 6.16 230.51 6.16L230.51 6.16L230.51 6.16Q230.37 6.16 230.37 7.11L230.37 7.11L230.37 7.11Q230.37 8.44 230.31 9.97L230.31 9.97L230.31 9.97Q230.26 11.51 230.26 11.65L230.26 11.65L230.26 11.65Q230.26 12.28 230.48 12.61L230.48 12.61L230.48 12.61Q230.69 12.94 230.94 12.98L230.94 12.98L230.94 12.98Q231.20 13.02 231.41 13.07L231.41 13.07L231.41 13.07Q231.63 13.12 231.63 13.26L231.63 13.26L231.63 13.26Q231.63 13.41 231.58 13.45L231.58 13.45L231.58 13.45Q231.53 13.50 231.41 13.50L231.41 13.50L231.41 13.50Q231.31 13.50 230.97 13.48L230.97 13.48L230.97 13.48Q230.62 13.47 229.91 13.47L229.91 13.47L229.91 13.47Q229.78 13.47 229.39 13.48L229.39 13.48L229.39 13.48Q229.00 13.50 228.72 13.50L228.72 13.50L228.72 13.50Q228.41 13.50 228.41 13.27L228.41 13.27L228.41 13.27Q228.41 13.15 228.59 13.11L228.59 13.11L228.59 13.11Q228.77 13.08 229.04 12.89L229.04 12.89L229.04 12.89Q229.31 12.71 229.45 12.21L229.45 12.21L229.45 12.21Q229.53 11.89 229.66 9.60L229.66 9.60L229.66 9.60Q229.78 7.32 229.78 6.45L229.78 6.45L229.78 6.45Q229.78 5.25 229.45 4.65L229.45 4.65L229.45 4.65Q229.11 4.06 228.35 3.98L228.35 3.98L228.35 3.98Q228.17 3.96 228.17 3.77ZM246.68 8.90L246.68 8.90L246.68 8.90Q246.68 7.38 247.27 6.16L247.27 6.16L247.27 6.16Q247.86 4.94 249.08 4.19L249.08 4.19L249.08 4.19Q250.31 3.44 251.99 3.44L251.99 3.44L251.99 3.44Q252.84 3.44 253.71 3.70L253.71 3.70L253.71 3.70Q254.58 3.95 255.09 4.20L255.09 4.20L255.61 4.47L255.61 4.47Q255.65 4.47 255.75 4.40L255.75 4.40L255.75 4.40Q255.85 4.33 255.91 4.33L255.91 4.33L255.91 4.33Q255.98 4.33 256.05 4.38L256.05 4.38L256.05 4.38Q256.12 4.44 256.12 4.55L256.12 4.55L256.12 4.55Q256.13 4.96 256.18 5.41L256.18 5.41L256.18 5.41Q256.23 5.87 256.27 6.16L256.27 6.16L256.27 6.16Q256.31 6.45 256.31 6.51L256.31 6.51L256.31 6.51Q256.31 6.76 256.14 6.76L256.14 6.76L256.14 6.76Q256.02 6.76 255.91 6.57L255.91 6.57L255.91 6.57Q254.55 4.02 251.99 4.02L251.99 4.02L251.99 4.02Q250.24 4.02 249.12 5.14L249.12 5.14L249.12 5.14Q248.00 6.26 248.00 8.06L248.00 8.06L248.00 8.06Q248.00 9.06 248.26 9.93L248.26 9.93L248.26 9.93Q248.51 10.79 249.04 11.51L249.04 11.51L249.04 11.51Q249.56 12.24 250.49 12.66L250.49 12.66L250.49 12.66Q251.41 13.08 252.64 13.08L252.64 13.08L252.64 13.08Q254.66 13.08 256.03 10.98L256.03 10.98L256.03 10.98Q256.09 10.88 256.24 10.88L256.24 10.88L256.24 10.88Q256.37 10.88 256.37 11.07L256.37 11.07L256.37 11.07Q256.37 11.23 256.32 11.49L256.32 11.49L256.32 11.49Q256.27 11.75 256.20 12.06L256.20 12.06L256.20 12.06Q256.13 12.38 256.12 12.45L256.12 12.45L256.12 12.45Q256.09 12.60 255.89 12.70L255.89 12.70L255.89 12.70Q255.14 13.06 254.71 13.24L254.71 13.24L254.71 13.24Q254.28 13.43 253.62 13.57L253.62 13.57L253.62 13.57Q252.97 13.72 252.28 13.72L252.28 13.72L252.28 13.72Q251.06 13.72 250.08 13.43L250.08 13.43L250.08 13.43Q249.10 13.13 248.48 12.66L248.48 12.66L248.48 12.66Q247.86 12.18 247.44 11.54L247.44 11.54L247.44 11.54Q247.02 10.91 246.85 10.25L246.85 10.25L246.85 10.25Q246.68 9.60 246.68 8.90ZM264.64 5.32L264.64 5.32L264.64 5.32Q264.64 4.76 264.78 3.88L264.78 3.88L264.78 3.88Q264.78 3.85 264.79 3.78L264.79 3.78L264.79 3.78Q264.80 3.71 264.80 3.69L264.80 3.69L264.80 3.69Q264.81 3.67 264.82 3.62L264.82 3.62L264.82 3.62Q264.82 3.57 264.84 3.55L264.84 3.55L264.84 3.55Q264.85 3.53 264.87 3.49L264.87 3.49L264.87 3.49Q264.89 3.46 264.92 3.44L264.92 3.44L264.92 3.44Q264.95 3.43 264.99 3.42L264.99 3.42L264.99 3.42Q265.03 3.40 265.09 3.39L265.09 3.39L265.09 3.39Q265.15 3.39 265.22 3.39L265.22 3.39L265.22 3.39Q265.44 3.39 266.40 3.44L266.40 3.44L266.40 3.44Q267.36 3.50 269.16 3.50L269.16 3.50L269.16 3.50Q272.24 3.50 273.48 3.43L273.48 3.43L273.48 3.43Q273.49 3.43 273.53 3.42L273.53 3.42L273.53 3.42Q273.56 3.42 273.57 3.42L273.57 3.42L273.57 3.42Q273.73 3.42 273.78 3.50L273.78 3.50L273.78 3.50Q273.84 3.58 273.84 3.65L273.84 3.65L273.84 3.65Q273.84 3.75 273.88 4.24L273.88 4.24L273.88 4.24Q273.92 4.73 273.92 4.79L273.92 4.79L273.92 4.79Q273.92 5.14 273.88 5.23L273.88 5.23L273.88 5.23Q273.84 5.32 273.70 5.32L273.70 5.32L273.70 5.32Q273.59 5.32 273.55 5.15L273.55 5.15L273.55 5.15Q273.43 4.75 273.35 4.60L273.35 4.60L273.35 4.60Q273.27 4.45 272.99 4.34L272.99 4.34L272.99 4.34Q272.71 4.23 272.13 4.23L272.13 4.23L270.31 4.23L270.31 4.23Q269.98 4.23 269.90 4.36L269.90 4.36L269.90 4.36Q269.82 4.49 269.82 5.12L269.82 5.12L269.82 5.81L269.82 5.81Q269.82 7.69 269.80 9.11L269.80 9.11L269.80 9.11Q269.78 10.54 269.78 10.93L269.78 10.93L269.78 10.93Q269.78 11.13 269.77 11.43L269.77 11.43L269.77 11.43Q269.77 11.73 269.77 11.84L269.77 11.84L269.77 11.84Q269.77 12.45 269.96 12.64L269.96 12.64L269.96 12.64Q270.14 12.81 270.37 12.90L270.37 12.90L270.37 12.90Q270.59 12.99 270.75 13.01L270.75 13.01L270.75 13.01Q270.91 13.02 271.03 13.08L271.03 13.08L271.03 13.08Q271.14 13.13 271.14 13.26L271.14 13.26L271.14 13.26Q271.14 13.41 271.07 13.45L271.07 13.45L271.07 13.45Q271.00 13.50 270.80 13.50L270.80 13.50L270.80 13.50Q270.63 13.50 270.06 13.44L270.06 13.44L270.06 13.44Q269.49 13.38 269.25 13.38L269.25 13.38L269.25 13.38Q269.08 13.38 268.57 13.43L268.57 13.43L268.57 13.43Q268.06 13.48 267.82 13.48L267.82 13.48L267.82 13.48Q267.30 13.48 267.30 13.26L267.30 13.26L267.30 13.26Q267.30 13.12 267.39 13.07L267.39 13.07L267.39 13.07Q267.47 13.02 267.72 12.98L267.72 12.98L267.72 12.98Q267.96 12.95 268.03 12.94L268.03 12.94L268.03 12.94Q268.51 12.82 268.56 12.38L268.56 12.38L268.56 12.38Q268.70 11.14 268.70 7.08L268.70 7.08L268.69 4.58L268.69 4.58Q268.69 4.31 268.53 4.25L268.53 4.25L268.53 4.25Q268.38 4.19 267.62 4.19L267.62 4.19L267.62 4.19Q266.64 4.19 266.15 4.24L266.15 4.24L266.15 4.24Q265.65 4.30 265.57 4.35L265.57 4.35L265.57 4.35Q265.48 4.40 265.37 4.54L265.37 4.54L265.37 4.54Q265.24 4.70 265.17 4.91L265.17 4.91L265.17 4.91Q265.09 5.11 265.07 5.24L265.07 5.24L265.07 5.24Q265.05 5.38 264.99 5.47L264.99 5.47L264.99 5.47Q264.92 5.56 264.80 5.56L264.80 5.56L264.80 5.56Q264.64 5.56 264.64 5.32ZM281.48 3.71L281.48 3.71L281.48 3.71Q281.48 3.50 281.88 3.50L281.88 3.50L281.88 3.50Q282.02 3.50 282.52 3.53L282.52 3.53L282.52 3.53Q283.02 3.56 283.46 3.56L283.46 3.56L283.46 3.56Q283.72 3.56 283.97 3.54L283.97 3.54L283.97 3.54Q284.21 3.53 284.69 3.53L284.69 3.53L284.69 3.53Q285.07 3.53 285.07 3.72L285.07 3.72L285.07 3.72Q285.07 3.84 284.42 4.10L284.42 4.10L284.42 4.10Q283.98 4.28 283.98 5.71L283.98 5.71L283.98 5.71Q283.98 7.60 283.95 9.05L283.95 9.05L283.95 9.05Q283.93 10.50 283.93 10.89L283.93 10.89L283.93 10.89Q283.93 12.07 284.28 12.59L284.28 12.59L284.28 12.59Q284.59 13.02 284.96 13.02L284.96 13.02L284.96 13.02Q284.98 13.02 285.10 13.03L285.10 13.03L285.10 13.03Q285.21 13.03 285.24 13.03L285.24 13.03L285.24 13.03Q285.33 13.03 285.43 13.08L285.43 13.08L285.43 13.08Q285.53 13.13 285.53 13.19L285.53 13.19L285.53 13.19Q285.53 13.34 285.45 13.39L285.45 13.39L285.45 13.39Q285.38 13.44 285.18 13.44L285.18 13.44L285.18 13.44Q284.76 13.44 284.40 13.41L284.40 13.41L284.40 13.41Q284.05 13.38 283.85 13.38L283.85 13.38L283.85 13.38Q283.46 13.38 283.00 13.42L283.00 13.42L283.00 13.42Q282.53 13.45 282.31 13.45L282.31 13.45L282.31 13.45Q281.68 13.45 281.68 13.24L281.68 13.24L281.68 13.24Q281.68 13.12 281.81 13.07L281.81 13.07L281.81 13.07Q281.95 13.02 282.11 13.00L282.11 13.00L282.11 13.00Q282.28 12.98 282.46 12.82L282.46 12.82L282.46 12.82Q282.65 12.66 282.72 12.35L282.72 12.35L282.72 12.35Q282.74 12.25 282.81 10.76L282.81 10.76L282.81 10.76Q282.87 9.27 282.87 8.61L282.87 8.61L282.87 7.81L282.87 7.81Q282.87 7.63 282.88 7.12L282.88 7.12L282.88 7.12Q282.88 6.61 282.88 6.30L282.88 6.30L282.88 5.66L282.88 5.66Q282.88 5.04 282.83 4.63L282.83 4.63L282.83 4.63Q282.79 4.30 282.46 4.12L282.46 4.12L282.46 4.12Q282.13 3.93 281.78 3.92L281.78 3.92L281.78 3.92Q281.48 3.91 281.48 3.71ZM293.41 8.69L293.41 8.69L293.41 8.69Q293.41 6.34 294.83 4.84L294.83 4.84L294.83 4.84Q296.24 3.33 298.83 3.33L298.83 3.33L298.83 3.33Q300.03 3.33 301 3.68L301 3.68L301 3.68Q301.97 4.03 302.53 4.54L302.53 4.54L302.53 4.54Q303.09 5.05 303.46 5.71L303.46 5.71L303.46 5.71Q303.84 6.37 303.98 6.92L303.98 6.92L303.98 6.92Q304.12 7.48 304.12 7.95L304.12 7.95L304.12 7.95Q304.12 9.86 303.38 11.16L303.38 11.16L303.38 11.16Q302.64 12.47 301.43 13.07L301.43 13.07L301.43 13.07Q300.22 13.66 298.63 13.66L298.63 13.66L298.63 13.66Q296.97 13.66 295.76 12.94L295.76 12.94L295.76 12.94Q294.55 12.21 293.98 11.10L293.98 11.10L293.98 11.10Q293.41 10.00 293.41 8.69ZM294.64 7.98L294.64 7.98L294.64 7.98Q294.64 8.54 294.80 9.19L294.80 9.19L294.80 9.19Q294.95 9.84 295.30 10.54L295.30 10.54L295.30 10.54Q295.65 11.23 296.15 11.78L296.15 11.78L296.15 11.78Q296.65 12.33 297.41 12.69L297.41 12.69L297.41 12.69Q298.17 13.05 299.08 13.05L299.08 13.05L299.08 13.05Q299.56 13.05 300.08 12.90L300.08 12.90L300.08 12.90Q300.61 12.75 301.13 12.45L301.13 12.45L301.13 12.45Q301.64 12.14 302.05 11.70L302.05 11.70L302.05 11.70Q302.46 11.26 302.71 10.62L302.71 10.62L302.71 10.62Q302.97 9.98 302.97 9.24L302.97 9.24L302.97 9.24Q302.97 6.71 301.64 5.30L301.64 5.30L301.64 5.30Q300.31 3.89 298.35 3.89L298.35 3.89L298.35 3.89Q296.81 3.89 295.73 4.93L295.73 4.93L295.73 4.93Q294.64 5.96 294.64 7.98ZM311.81 3.77L311.81 3.77L311.81 3.77Q311.81 3.68 311.91 3.60L311.91 3.60L311.91 3.60Q312.00 3.53 312.16 3.53L312.16 3.53L312.16 3.53Q312.24 3.53 312.44 3.54L312.44 3.54L312.44 3.54Q312.63 3.54 312.69 3.54L312.69 3.54L312.69 3.54Q312.90 3.54 313.08 3.53L313.08 3.53L313.08 3.53Q313.26 3.51 313.38 3.51L313.38 3.51L313.38 3.51Q313.50 3.51 313.67 3.59L313.67 3.59L313.67 3.59Q313.84 3.67 313.87 3.75L313.87 3.75L313.87 3.75Q313.89 3.79 314.02 3.94L314.02 3.94L314.02 3.94Q314.15 4.09 314.36 4.33L314.36 4.33L314.36 4.33Q314.57 4.56 314.73 4.79L314.73 4.79L314.73 4.79Q316.64 7.27 319.83 10.77L319.83 10.77L319.83 10.77Q319.91 10.86 320.03 10.99L320.03 10.99L320.03 10.99Q320.15 11.12 320.20 11.18L320.20 11.18L320.20 11.18Q320.25 11.24 320.31 11.30L320.31 11.30L320.31 11.30Q320.36 11.35 320.40 11.38L320.40 11.38L320.40 11.38Q320.43 11.40 320.46 11.40L320.46 11.40L320.46 11.40Q320.60 11.40 320.60 10.53L320.60 10.53L320.60 8.89L320.60 8.89Q320.60 7.95 320.59 7.31L320.59 7.31L320.59 7.31Q320.59 6.66 320.58 6.38L320.58 6.38L320.58 6.38Q320.57 6.09 320.57 6.02L320.57 6.02L320.57 5.92L320.57 5.92Q320.57 5.45 320.51 5.11L320.51 5.11L320.51 5.11Q320.45 4.77 320.36 4.59L320.36 4.59L320.36 4.59Q320.28 4.41 320.12 4.28L320.12 4.28L320.12 4.28Q319.96 4.16 319.84 4.12L319.84 4.12L319.84 4.12Q319.73 4.09 319.52 4.05L319.52 4.05L319.52 4.05Q319.31 4.00 319.23 3.98L319.23 3.98L319.23 3.98Q318.95 3.89 318.95 3.74L318.95 3.74L318.95 3.74Q318.95 3.53 319.21 3.53L319.21 3.53L319.21 3.53Q319.30 3.53 319.89 3.54L319.89 3.54L319.89 3.54Q320.47 3.54 320.54 3.54L320.54 3.54L320.54 3.54Q320.88 3.54 321.29 3.53L321.29 3.53L321.29 3.53Q321.71 3.51 321.80 3.51L321.80 3.51L321.80 3.51Q322.04 3.51 322.13 3.56L322.13 3.56L322.13 3.56Q322.22 3.61 322.22 3.75L322.22 3.75L322.22 3.75Q322.22 3.81 322.15 3.86L322.15 3.86L322.15 3.86Q322.07 3.91 321.99 3.94L321.99 3.94L321.99 3.94Q321.90 3.98 321.82 4.00L321.82 4.00L321.73 4.03L321.73 4.03Q321.27 4.28 321.27 5.61L321.27 5.61L321.27 6.15L321.27 6.15Q321.27 7.21 321.19 9.83L321.19 9.83L321.19 9.83Q321.12 12.46 321.12 13.08L321.12 13.08L321.12 13.36L321.12 13.36Q321.12 13.68 320.92 13.68L320.92 13.68L320.92 13.68Q320.80 13.68 320.70 13.58L320.70 13.58L320.70 13.58Q316.05 8.19 315.15 7.17L315.15 7.17L315.15 7.17Q314.24 6.16 314.15 6.16L314.15 6.16L314.15 6.16Q314.01 6.16 314.01 7.11L314.01 7.11L314.01 7.11Q314.01 8.44 313.95 9.97L313.95 9.97L313.95 9.97Q313.89 11.51 313.89 11.65L313.89 11.65L313.89 11.65Q313.89 12.28 314.11 12.61L314.11 12.61L314.11 12.61Q314.33 12.94 314.58 12.98L314.58 12.98L314.58 12.98Q314.83 13.02 315.05 13.07L315.05 13.07L315.05 13.07Q315.27 13.12 315.27 13.26L315.27 13.26L315.27 13.26Q315.27 13.41 315.22 13.45L315.22 13.45L315.22 13.45Q315.17 13.50 315.04 13.50L315.04 13.50L315.04 13.50Q314.94 13.50 314.60 13.48L314.60 13.48L314.60 13.48Q314.26 13.47 313.54 13.47L313.54 13.47L313.54 13.47Q313.42 13.47 313.03 13.48L313.03 13.48L313.03 13.48Q312.63 13.50 312.35 13.50L312.35 13.50L312.35 13.50Q312.05 13.50 312.05 13.27L312.05 13.27L312.05 13.27Q312.05 13.15 312.23 13.11L312.23 13.11L312.23 13.11Q312.41 13.08 312.68 12.89L312.68 12.89L312.68 12.89Q312.94 12.71 313.08 12.21L313.08 12.21L313.08 12.21Q313.17 11.89 313.29 9.60L313.29 9.60L313.29 9.60Q313.42 7.32 313.42 6.45L313.42 6.45L313.42 6.45Q313.42 5.25 313.08 4.65L313.08 4.65L313.08 4.65Q312.75 4.06 311.99 3.98L311.99 3.98L311.99 3.98Q311.81 3.96 311.81 3.77Z"></path></g></svg>