<svg data-v-423bf9ae="" xmlns="http://www.w3.org/2000/svg" viewBox="0 0 818.1456753993012 60" class="font"><!----><!----><!----><g data-v-423bf9ae="" id="b16e181f-013b-47ea-b470-1534619e62e0" fill="black" transform="matrix(4.415010987956055,0,0,4.415010987956055,0.7505425944366948,-18.498896769001988)"><path d="M12.56 5.28L12.56 5.28Q13.22 5.28 13.64 5.24L13.64 5.24L13.64 5.52L13.64 5.52Q13.29 5.66 12.96 6.05L12.96 6.05L12.96 6.05Q12.63 6.45 12.40 7.18L12.40 7.18L9.94 15.18L9.94 15.18Q9.79 15.16 9.45 15.16L9.45 15.16L9.45 15.16Q9.11 15.16 8.96 15.18L8.96 15.18L6.90 8.93L4.83 15.18L4.83 15.18Q4.68 15.16 4.34 15.16L4.34 15.16L4.34 15.16Q4.00 15.16 3.85 15.18L3.85 15.18L0.71 6.41L0.71 6.41Q0.55 5.95 0.31 5.74L0.31 5.74L0.31 5.74Q0.07 5.53-0.17 5.52L-0.17 5.52L-0.17 5.24L-0.17 5.24Q0.67 5.28 1.92 5.28L1.92 5.28L1.92 5.28Q3.09 5.28 3.64 5.24L3.64 5.24L3.64 5.52L3.64 5.52Q3.15 5.59 3.15 6.06L3.15 6.06L3.15 6.06Q3.15 6.29 3.28 6.69L3.28 6.69L5.32 12.61L6.73 8.44L6.02 6.27L6.02 6.27Q5.88 5.87 5.69 5.71L5.69 5.71L5.69 5.71Q5.50 5.54 5.25 5.52L5.25 5.52L5.25 5.24L5.25 5.24Q6.03 5.28 7.25 5.28L7.25 5.28L7.25 5.28Q8.62 5.28 9.27 5.24L9.27 5.24L9.27 5.52L9.27 5.52Q8.76 5.53 8.54 5.63L8.54 5.63L8.54 5.63Q8.32 5.74 8.32 6.03L8.32 6.03L8.32 6.03Q8.32 6.29 8.46 6.69L8.46 6.69L10.37 12.54L11.70 8.32L11.70 8.32Q12.03 7.27 12.03 6.69L12.03 6.69L12.03 6.69Q12.03 6.09 11.72 5.82L11.72 5.82L11.72 5.82Q11.42 5.54 10.82 5.52L10.82 5.52L10.82 5.24L10.82 5.24Q11.77 5.28 12.56 5.28L12.56 5.28ZM15.74 15.25L15.74 15.25Q14.84 15.25 14.40 14.78L14.40 14.78L14.40 14.78Q13.96 14.32 13.96 13.57L13.96 13.57L13.96 13.57Q13.96 12.94 14.29 12.52L14.29 12.52L14.29 12.52Q14.62 12.11 15.08 11.89L15.08 11.89L15.08 11.89Q15.55 11.66 16.28 11.41L16.28 11.41L16.28 11.41Q17.05 11.14 17.41 10.93L17.41 10.93L17.41 10.93Q17.77 10.71 17.77 10.33L17.77 10.33L17.77 9.24L17.77 9.24Q17.77 8.65 17.49 8.32L17.49 8.32L17.49 8.32Q17.22 7.99 16.65 7.99L16.65 7.99L16.65 7.99Q15.97 7.99 15.62 8.33L15.62 8.33L15.62 8.33Q16.02 8.47 16.23 8.75L16.23 8.75L16.23 8.75Q16.45 9.03 16.45 9.41L16.45 9.41L16.45 9.41Q16.45 9.88 16.13 10.16L16.13 10.16L16.13 10.16Q15.81 10.44 15.34 10.44L15.34 10.44L15.34 10.44Q14.85 10.44 14.59 10.14L14.59 10.14L14.59 10.14Q14.32 9.83 14.32 9.37L14.32 9.37L14.32 9.37Q14.32 8.97 14.51 8.70L14.51 8.70L14.51 8.70Q14.70 8.43 15.09 8.19L15.09 8.19L15.09 8.19Q15.47 7.97 16.02 7.84L16.02 7.84L16.02 7.84Q16.58 7.71 17.23 7.71L17.23 7.71L17.23 7.71Q17.92 7.71 18.42 7.85L18.42 7.85L18.42 7.85Q18.93 7.99 19.26 8.33L19.26 8.33L19.26 8.33Q19.57 8.64 19.68 9.09L19.68 9.09L19.68 9.09Q19.78 9.53 19.78 10.30L19.78 10.30L19.78 14.11L19.78 14.11Q19.78 14.45 19.84 14.59L19.84 14.59L19.84 14.59Q19.91 14.73 20.09 14.73L20.09 14.73L20.09 14.73Q20.30 14.73 20.59 14.49L20.59 14.49L20.73 14.73L20.73 14.73Q20.10 15.25 19.19 15.25L19.19 15.25L19.19 15.25Q18.42 15.25 18.12 14.94L18.12 14.94L18.12 14.94Q17.81 14.63 17.79 14.11L17.79 14.11L17.79 14.11Q17.09 15.25 15.74 15.25L15.74 15.25ZM16.81 14.35L16.81 14.35Q17.36 14.35 17.77 13.78L17.77 13.78L17.77 10.91L17.77 10.91Q17.60 11.19 17.05 11.52L17.05 11.52L17.05 11.52Q16.51 11.87 16.23 12.22L16.23 12.22L16.23 12.22Q15.95 12.57 15.95 13.23L15.95 13.23L15.95 13.23Q15.95 13.80 16.18 14.08L16.18 14.08L16.18 14.08Q16.42 14.35 16.81 14.35L16.81 14.35ZM26.91 7.95L26.91 7.95Q27.61 7.95 27.99 7.91L27.99 7.91L27.99 8.19L27.99 8.19Q27.69 8.27 27.46 8.55L27.46 8.55L27.46 8.55Q27.23 8.82 27.02 9.39L27.02 9.39L24.51 16.44L24.51 16.44Q24.23 17.16 23.90 17.43L23.90 17.43L23.90 17.43Q23.49 17.78 22.68 17.78L22.68 17.78L22.68 17.78Q22.09 17.78 21.62 17.49L21.62 17.49L21.62 17.49Q21.15 17.21 21.15 16.66L21.15 16.66L21.15 16.66Q21.15 16.23 21.46 15.97L21.46 15.97L21.46 15.97Q21.77 15.71 22.27 15.71L22.27 15.71L22.27 15.71Q22.75 15.71 23.04 15.94L23.04 15.94L23.04 15.94Q23.32 16.17 23.32 16.59L23.32 16.59L23.32 16.59Q23.32 16.88 23.14 17.13L23.14 17.13L23.14 17.13Q22.96 17.37 22.62 17.50L22.62 17.50L22.62 17.50Q22.72 17.51 22.95 17.51L22.95 17.51L22.95 17.51Q23.81 17.51 24.22 16.41L24.22 16.41L24.44 15.74L21.48 8.99L21.48 8.99Q21.25 8.51 21.04 8.36L21.04 8.36L21.04 8.36Q20.83 8.20 20.61 8.20L20.61 8.20L20.61 7.91L20.61 7.91Q21.53 7.99 22.53 7.99L22.53 7.99L22.53 7.99Q23.35 7.99 24.47 7.91L24.47 7.91L24.47 8.20L24.47 8.20Q24.02 8.20 23.81 8.27L23.81 8.27L23.81 8.27Q23.59 8.33 23.59 8.60L23.59 8.60L23.59 8.60Q23.59 8.75 23.69 8.99L23.69 8.99L25.40 13.12L26.36 10.43L26.36 10.43Q26.59 9.77 26.59 9.31L26.59 9.31L26.59 9.31Q26.59 8.29 25.55 8.19L25.55 8.19L25.55 7.91L25.55 7.91Q26.21 7.95 26.91 7.95L26.91 7.95ZM33.61 7.71L33.61 7.71Q34.68 7.71 35.15 8.26L35.15 8.26L35.15 8.26Q35.39 8.53 35.49 8.95L35.49 8.95L35.49 8.95Q35.59 9.37 35.59 10.08L35.59 10.08L35.59 13.85L35.59 13.85Q35.59 14.42 35.79 14.64L35.79 14.64L35.79 14.64Q35.99 14.85 36.48 14.85L36.48 14.85L36.48 15.15L36.48 15.15Q35.08 15.09 34.64 15.09L34.64 15.09L34.64 15.09Q34.22 15.09 32.82 15.15L32.82 15.15L32.82 14.85L32.82 14.85Q33.24 14.85 33.40 14.64L33.40 14.64L33.40 14.64Q33.57 14.42 33.57 13.85L33.57 13.85L33.57 9.49L33.57 9.49Q33.57 8.92 33.38 8.62L33.38 8.62L33.38 8.62Q33.19 8.33 32.70 8.33L32.70 8.33L32.70 8.33Q32.13 8.33 31.72 8.80L31.72 8.80L31.72 8.80Q31.32 9.27 31.32 9.95L31.32 9.95L31.32 13.85L31.32 13.85Q31.32 14.42 31.49 14.64L31.49 14.64L31.49 14.64Q31.65 14.85 32.07 14.85L32.07 14.85L32.07 15.15L32.07 15.15Q30.79 15.09 30.34 15.09L30.34 15.09L30.34 15.09Q29.92 15.09 28.41 15.15L28.41 15.15L28.41 14.85L28.41 14.85Q28.91 14.85 29.11 14.64L29.11 14.64L29.11 14.64Q29.30 14.42 29.30 13.85L29.30 13.85L29.30 9.44L29.30 9.44Q29.30 8.79 29.11 8.50L29.11 8.50L29.11 8.50Q28.91 8.20 28.41 8.20L28.41 8.20L28.41 7.91L28.41 7.91Q28.85 7.95 29.27 7.95L29.27 7.95L29.27 7.95Q30.52 7.95 31.32 7.76L31.32 7.76L31.32 9.02L31.32 9.02Q31.95 7.71 33.61 7.71L33.61 7.71ZM41.12 14.20L41.12 14.20Q42.27 14.20 42.97 13.08L42.97 13.08L43.22 13.16L43.22 13.16Q42.94 14.07 42.22 14.71L42.22 14.71L42.22 14.71Q41.50 15.34 40.42 15.34L40.42 15.34L40.42 15.34Q38.93 15.34 38.06 14.40L38.06 14.40L38.06 14.40Q37.18 13.45 37.18 11.61L37.18 11.61L37.18 11.61Q37.18 9.72 38.12 8.71L38.12 8.71L38.12 8.71Q39.06 7.71 40.61 7.71L40.61 7.71L40.61 7.71Q43.25 7.71 43.25 10.82L43.25 10.82L39.31 10.82L39.31 10.82Q39.30 11.03 39.30 11.48L39.30 11.48L39.30 11.48Q39.30 12.40 39.56 13.02L39.56 13.02L39.56 13.02Q39.82 13.64 40.23 13.92L40.23 13.92L40.23 13.92Q40.64 14.20 41.12 14.20L41.12 14.20ZM40.53 8.01L40.53 8.01Q40.03 8.01 39.70 8.63L39.70 8.63L39.70 8.63Q39.37 9.25 39.28 10.56L39.28 10.56L41.48 10.56L41.48 10.56Q41.51 9.45 41.27 8.73L41.27 8.73L41.27 8.73Q41.02 8.01 40.53 8.01L40.53 8.01ZM57.72 5.52L57.72 5.52Q57.25 5.54 57.04 5.63L57.04 5.63L57.04 5.63Q56.83 5.71 56.75 5.95L56.75 5.95L56.75 5.95Q56.67 6.19 56.67 6.72L56.67 6.72L56.67 13.66L56.67 13.66Q56.67 14.20 56.75 14.43L56.75 14.43L56.75 14.43Q56.83 14.67 57.04 14.76L57.04 14.76L57.04 14.76Q57.25 14.84 57.72 14.87L57.72 14.87L57.72 15.15L57.72 15.15Q57.04 15.11 55.59 15.11L55.59 15.11L55.59 15.11Q54.18 15.11 53.40 15.15L53.40 15.15L53.40 14.87L53.40 14.87Q53.86 14.84 54.07 14.76L54.07 14.76L54.07 14.76Q54.29 14.67 54.37 14.43L54.37 14.43L54.37 14.43Q54.45 14.20 54.45 13.66L54.45 13.66L54.45 10.30L50.74 10.30L50.74 13.66L50.74 13.66Q50.74 14.20 50.81 14.43L50.81 14.43L50.81 14.43Q50.89 14.67 51.10 14.76L51.10 14.76L51.10 14.76Q51.31 14.84 51.79 14.87L51.79 14.87L51.79 15.15L51.79 15.15Q51.03 15.11 49.67 15.11L49.67 15.11L49.67 15.11Q48.17 15.11 47.46 15.15L47.46 15.15L47.46 14.87L47.46 14.87Q47.92 14.84 48.14 14.76L48.14 14.76L48.14 14.76Q48.36 14.67 48.43 14.43L48.43 14.43L48.43 14.43Q48.51 14.20 48.51 13.66L48.51 13.66L48.51 6.72L48.51 6.72Q48.51 6.19 48.43 5.95L48.43 5.95L48.43 5.95Q48.36 5.71 48.14 5.63L48.14 5.63L48.14 5.63Q47.92 5.54 47.46 5.52L47.46 5.52L47.46 5.24L47.46 5.24Q48.17 5.28 49.67 5.28L49.67 5.28L49.67 5.28Q51.03 5.28 51.79 5.24L51.79 5.24L51.79 5.52L51.79 5.52Q51.31 5.54 51.10 5.63L51.10 5.63L51.10 5.63Q50.89 5.71 50.81 5.95L50.81 5.95L50.81 5.95Q50.74 6.19 50.74 6.72L50.74 6.72L50.74 10.02L54.45 10.02L54.45 6.72L54.45 6.72Q54.45 6.19 54.37 5.95L54.37 5.95L54.37 5.95Q54.29 5.71 54.07 5.63L54.07 5.63L54.07 5.63Q53.86 5.54 53.40 5.52L53.40 5.52L53.40 5.24L53.40 5.24Q54.18 5.28 55.59 5.28L55.59 5.28L55.59 5.28Q57.04 5.28 57.72 5.24L57.72 5.24L57.72 5.52ZM62.13 7.71L62.13 7.71Q63.74 7.71 64.65 8.63L64.65 8.63L64.65 8.63Q65.56 9.55 65.56 11.54L65.56 11.54L65.56 11.54Q65.56 13.52 64.65 14.43L64.65 14.43L64.65 14.43Q63.74 15.34 62.13 15.34L62.13 15.34L62.13 15.34Q60.54 15.34 59.62 14.43L59.62 14.43L59.62 14.43Q58.70 13.52 58.70 11.54L58.70 11.54L58.70 11.54Q58.70 9.55 59.62 8.63L59.62 8.63L59.62 8.63Q60.54 7.71 62.13 7.71L62.13 7.71ZM62.13 7.99L62.13 7.99Q61.53 7.99 61.17 8.87L61.17 8.87L61.17 8.87Q60.82 9.74 60.82 11.54L60.82 11.54L60.82 11.54Q60.82 13.33 61.17 14.20L61.17 14.20L61.17 14.20Q61.53 15.06 62.13 15.06L62.13 15.06L62.13 15.06Q62.75 15.06 63.10 14.20L63.10 14.20L63.10 14.20Q63.45 13.34 63.45 11.54L63.45 11.54L63.45 11.54Q63.45 9.73 63.09 8.86L63.09 8.86L63.09 8.86Q62.73 7.99 62.13 7.99L62.13 7.99ZM69.27 5.61L69.27 7.91L70.92 7.91L70.92 8.19L69.27 8.19L69.27 13.85L69.27 13.85Q69.27 14.27 69.42 14.44L69.42 14.44L69.42 14.44Q69.57 14.62 69.89 14.62L69.89 14.62L69.89 14.62Q70.49 14.62 70.84 13.78L70.84 13.78L71.08 13.90L71.08 13.90Q70.55 15.34 69.16 15.34L69.16 15.34L69.16 15.34Q68.24 15.34 67.76 14.87L67.76 14.87L67.76 14.87Q67.47 14.57 67.36 14.13L67.36 14.13L67.36 14.13Q67.26 13.69 67.26 12.92L67.26 12.92L67.26 8.19L66.08 8.19L66.08 7.91L67.26 7.91L67.26 6.06L67.26 6.06Q68.42 6.06 69.27 5.61L69.27 5.61ZM75.47 14.20L75.47 14.20Q76.62 14.20 77.32 13.08L77.32 13.08L77.57 13.16L77.57 13.16Q77.29 14.07 76.57 14.71L76.57 14.71L76.57 14.71Q75.85 15.34 74.77 15.34L74.77 15.34L74.77 15.34Q73.29 15.34 72.41 14.40L72.41 14.40L72.41 14.40Q71.54 13.45 71.54 11.61L71.54 11.61L71.54 11.61Q71.54 9.72 72.48 8.71L72.48 8.71L72.48 8.71Q73.42 7.71 74.97 7.71L74.97 7.71L74.97 7.71Q77.60 7.71 77.60 10.82L77.60 10.82L73.67 10.82L73.67 10.82Q73.65 11.03 73.65 11.48L73.65 11.48L73.65 11.48Q73.65 12.40 73.91 13.02L73.91 13.02L73.91 13.02Q74.17 13.64 74.58 13.92L74.58 13.92L74.58 13.92Q75.00 14.20 75.47 14.20L75.47 14.20ZM74.89 8.01L74.89 8.01Q74.38 8.01 74.05 8.63L74.05 8.63L74.05 8.63Q73.72 9.25 73.64 10.56L73.64 10.56L75.84 10.56L75.84 10.56Q75.87 9.45 75.62 8.73L75.62 8.73L75.62 8.73Q75.38 8.01 74.89 8.01L74.89 8.01ZM81.27 4.19L81.27 13.85L81.27 13.85Q81.27 14.42 81.47 14.64L81.47 14.64L81.47 14.64Q81.66 14.85 82.17 14.85L82.17 14.85L82.17 15.15L82.17 15.15Q80.71 15.09 80.29 15.09L80.29 15.09L80.29 15.09Q79.81 15.09 78.36 15.15L78.36 15.15L78.36 14.85L78.36 14.85Q78.85 14.85 79.05 14.64L79.05 14.64L79.05 14.64Q79.25 14.42 79.25 13.85L79.25 13.85L79.25 5.87L79.25 5.87Q79.25 5.22 79.05 4.93L79.05 4.93L79.05 4.93Q78.85 4.63 78.36 4.63L78.36 4.63L78.36 4.34L78.36 4.34Q78.81 4.38 79.23 4.38L79.23 4.38L79.23 4.38Q80.44 4.38 81.27 4.19L81.27 4.19ZM85.54 7.71L85.54 7.71Q86.07 7.71 86.52 7.85L86.52 7.85L86.52 7.85Q86.97 7.98 87.21 8.15L87.21 8.15L87.21 8.15Q87.35 8.25 87.46 8.25L87.46 8.25L87.46 8.25Q87.58 8.25 87.67 8.11L87.67 8.11L87.67 8.11Q87.77 7.98 87.79 7.73L87.79 7.73L88.09 7.73L88.09 7.73Q88.03 8.44 88.03 10.19L88.03 10.19L87.74 10.19L87.74 10.19Q87.61 9.27 87.18 8.64L87.18 8.64L87.18 8.64Q86.76 8.02 85.95 8.02L85.95 8.02L85.95 8.02Q85.53 8.02 85.25 8.26L85.25 8.26L85.25 8.26Q84.98 8.50 84.98 8.92L84.98 8.92L84.98 8.92Q84.98 9.39 85.30 9.74L85.30 9.74L85.30 9.74Q85.62 10.08 86.31 10.57L86.31 10.57L86.72 10.86L86.72 10.86Q87.57 11.51 87.98 12.01L87.98 12.01L87.98 12.01Q88.38 12.52 88.38 13.27L88.38 13.27L88.38 13.27Q88.38 13.89 88.02 14.36L88.02 14.36L88.02 14.36Q87.67 14.84 87.07 15.09L87.07 15.09L87.07 15.09Q86.46 15.34 85.74 15.34L85.74 15.34L85.74 15.34Q84.97 15.34 84.42 15.05L84.42 15.05L84.42 15.05Q83.97 14.83 83.78 14.76L83.78 14.76L83.78 14.76Q83.64 14.71 83.53 14.85L83.53 14.85L83.53 14.85Q83.43 14.98 83.37 15.25L83.37 15.25L83.08 15.25L83.08 15.25Q83.13 14.45 83.13 12.45L83.13 12.45L83.43 12.45L83.43 12.45Q83.71 15.02 85.32 15.02L85.32 15.02L85.32 15.02Q85.72 15.02 86.01 14.78L86.01 14.78L86.01 14.78Q86.30 14.53 86.30 14.03L86.30 14.03L86.30 14.03Q86.30 13.64 86.12 13.33L86.12 13.33L86.12 13.33Q85.95 13.02 85.68 12.78L85.68 12.78L85.68 12.78Q85.41 12.54 84.88 12.12L84.88 12.12L84.88 12.12Q84.25 11.62 83.92 11.31L83.92 11.31L83.92 11.31Q83.59 11.00 83.36 10.58L83.36 10.58L83.36 10.58Q83.13 10.16 83.13 9.65L83.13 9.65L83.13 9.65Q83.13 8.75 83.83 8.23L83.83 8.23L83.83 8.23Q84.53 7.71 85.54 7.71L85.54 7.71ZM104.51 7.01L104.51 7.01Q104.51 8.05 103.79 8.63L103.79 8.63L103.79 8.63Q103.07 9.21 101.67 9.51L101.67 9.51L101.42 9.59L101.42 9.59Q102.05 9.87 102.38 10.49L102.38 10.49L102.38 10.49Q102.72 11.10 102.72 11.91L102.72 11.91L102.72 11.91Q102.72 12.89 102.12 13.67L102.12 13.67L102.12 13.67Q101.51 14.45 100.41 14.90L100.41 14.90L100.41 14.90Q99.32 15.34 97.89 15.34L97.89 15.34L97.89 15.34Q96.35 15.34 95.18 14.92L95.18 14.92L95.18 14.92Q94.01 14.50 93.37 13.71L93.37 13.71L93.37 13.71Q92.74 12.92 92.74 11.86L92.74 11.86L92.74 11.86Q92.74 10.91 93.24 10.25L93.24 10.25L93.24 10.25Q93.74 9.60 94.38 9.27L94.38 9.27L94.38 9.27Q95.02 8.93 95.58 8.79L95.58 8.79L95.58 8.79Q94.00 8.16 94.00 7.03L94.00 7.03L94.00 7.03Q94.00 6.17 94.82 5.69L94.82 5.69L94.82 5.69Q95.65 5.21 96.78 5.21L96.78 5.21L96.78 5.21Q97.30 5.21 97.64 5.28L97.64 5.28L97.64 5.28Q97.97 5.35 98.24 5.50L98.24 5.50L98.24 5.50Q98.62 5.68 98.85 5.96L98.85 5.96L98.85 5.96Q99.09 6.24 99.09 6.64L99.09 6.64L99.09 6.64Q99.09 7.04 98.78 7.30L98.78 7.30L98.78 7.30Q98.46 7.56 98.01 7.56L98.01 7.56L98.01 7.56Q97.57 7.56 97.28 7.34L97.28 7.34L97.28 7.34Q96.99 7.11 96.99 6.69L96.99 6.69L96.99 6.69Q96.99 6.34 97.24 6.05L97.24 6.05L97.24 6.05Q97.50 5.77 97.89 5.70L97.89 5.70L97.89 5.70Q97.76 5.59 97.51 5.52L97.51 5.52L97.51 5.52Q97.26 5.45 96.96 5.45L96.96 5.45L96.96 5.45Q96.19 5.45 95.70 5.92L95.70 5.92L95.70 5.92Q95.21 6.40 95.21 7.28L95.21 7.28L95.21 7.28Q95.21 8.09 95.76 8.71L95.76 8.71L95.76 8.71Q96.28 8.60 96.54 8.60L96.54 8.60L96.54 8.60Q96.80 8.60 96.93 8.70L96.93 8.70L96.93 8.70Q97.06 8.81 97.06 8.97L97.06 8.97L97.06 8.97Q97.06 9.11 96.95 9.19L96.95 9.19L96.95 9.19Q96.84 9.27 96.67 9.27L96.67 9.27L96.67 9.27Q96.46 9.27 96.26 9.17L96.26 9.17L96.26 9.17Q96.07 9.07 95.77 8.90L95.77 8.90L95.77 8.90Q95.06 9.27 94.67 9.81L94.67 9.81L94.67 9.81Q94.29 10.35 94.29 11.17L94.29 11.17L94.29 11.17Q94.29 12.53 95.37 13.21L95.37 13.21L95.37 13.21Q96.46 13.89 98.38 13.89L98.38 13.89L98.38 13.89Q99.34 13.89 100.23 13.60L100.23 13.60L100.23 13.60Q101.12 13.31 101.67 12.76L101.67 12.76L101.67 12.76Q102.23 12.21 102.23 11.45L102.23 11.45L102.23 11.45Q102.23 10.16 101.16 9.67L101.16 9.67L100.27 9.93L100.27 9.93Q99.48 10.15 99.48 10.15L99.48 10.15L99.48 10.15Q98.31 10.42 97.76 10.71L97.76 10.71L97.76 10.71Q97.22 11.00 97.22 11.51L97.22 11.51L97.22 11.51Q97.22 12.01 97.68 12.33L97.68 12.33L97.68 12.33Q98.15 12.64 98.73 12.64L98.73 12.64L98.73 12.64Q98.88 12.64 99.06 12.60L99.06 12.60L99.06 12.60Q99.23 12.56 99.29 12.50L99.29 12.50L99.29 12.50Q98.95 12.39 98.77 12.15L98.77 12.15L98.77 12.15Q98.59 11.91 98.59 11.58L98.59 11.58L98.59 11.58Q98.59 11.14 98.90 10.90L98.90 10.90L98.90 10.90Q99.22 10.65 99.71 10.65L99.71 10.65L99.71 10.65Q100.21 10.65 100.50 10.91L100.50 10.91L100.50 10.91Q100.79 11.17 100.79 11.61L100.79 11.61L100.79 11.61Q100.79 12.24 100.23 12.56L100.23 12.56L100.23 12.56Q99.67 12.88 98.80 12.88L98.80 12.88L98.80 12.88Q97.90 12.88 97.31 12.42L97.31 12.42L97.31 12.42Q96.71 11.96 96.71 11.09L96.71 11.09L96.71 11.09Q96.71 10.04 97.51 9.42L97.51 9.42L97.51 9.42Q98.31 8.81 99.85 8.51L99.85 8.51L100.45 8.36L100.45 8.36Q101.36 8.15 101.93 7.95L101.93 7.95L101.93 7.95Q103.01 7.69 103.53 7.37L103.53 7.37L103.53 7.37Q104.05 7.06 104.05 6.57L104.05 6.57L104.05 6.57Q104.05 6.02 103.56 5.66L103.56 5.66L103.56 5.66Q103.08 5.29 102.47 5.29L102.47 5.29L102.47 5.29Q102.20 5.29 102.06 5.36L102.06 5.36L102.06 5.36Q102.38 5.49 102.56 5.73L102.56 5.73L102.56 5.73Q102.75 5.98 102.75 6.24L102.75 6.24L102.75 6.24Q102.75 6.66 102.43 6.90L102.43 6.90L102.43 6.90Q102.12 7.14 101.63 7.14L101.63 7.14L101.63 7.14Q101.14 7.14 100.83 6.89L100.83 6.89L100.83 6.89Q100.53 6.65 100.53 6.22L100.53 6.22L100.53 6.22Q100.53 5.67 101.01 5.35L101.01 5.35L101.01 5.35Q101.49 5.04 102.28 5.04L102.28 5.04L102.28 5.04Q103.29 5.04 103.90 5.56L103.90 5.56L103.90 5.56Q104.51 6.09 104.51 7.01L104.51 7.01ZM117.77 14.36L117.96 14.53L117.96 14.53Q117.59 14.97 117.15 15.15L117.15 15.15L117.15 15.15Q116.72 15.34 116.10 15.34L116.10 15.34L116.10 15.34Q115.29 15.34 114.82 15.00L114.82 15.00L114.82 15.00Q114.35 14.66 114.21 13.83L114.21 13.83L113.96 12.43L113.96 12.43Q113.78 11.41 113.52 10.93L113.52 10.93L113.52 10.93Q113.26 10.44 112.66 10.44L112.66 10.44L111.75 10.44L111.75 13.66L111.75 13.66Q111.75 14.20 111.82 14.43L111.82 14.43L111.82 14.43Q111.90 14.67 112.11 14.76L112.11 14.76L112.11 14.76Q112.32 14.84 112.80 14.87L112.80 14.87L112.80 15.15L112.80 15.15Q112.04 15.11 110.68 15.11L110.68 15.11L110.68 15.11Q109.19 15.11 108.47 15.15L108.47 15.15L108.47 14.87L108.47 14.87Q108.93 14.84 109.15 14.76L109.15 14.76L109.15 14.76Q109.37 14.67 109.44 14.43L109.44 14.43L109.44 14.43Q109.52 14.20 109.52 13.66L109.52 13.66L109.52 6.72L109.52 6.72Q109.52 6.19 109.44 5.95L109.44 5.95L109.44 5.95Q109.37 5.71 109.15 5.63L109.15 5.63L109.15 5.63Q108.93 5.54 108.47 5.52L108.47 5.52L108.47 5.24L108.47 5.24Q109.19 5.28 110.60 5.28L110.60 5.28L112.15 5.26L112.15 5.26Q112.43 5.25 112.80 5.25L112.80 5.25L112.80 5.25Q114.73 5.25 115.70 5.88L115.70 5.88L115.70 5.88Q116.68 6.51 116.68 7.69L116.68 7.69L116.68 7.69Q116.68 8.68 115.95 9.44L115.95 9.44L115.95 9.44Q115.22 10.19 113.54 10.39L113.54 10.39L113.54 10.39Q114.80 10.50 115.42 10.93L115.42 10.93L115.42 10.93Q116.03 11.37 116.21 12.24L116.21 12.24L116.54 13.68L116.54 13.68Q116.65 14.24 116.79 14.46L116.79 14.46L116.79 14.46Q116.94 14.69 117.21 14.69L117.21 14.69L117.21 14.69Q117.38 14.67 117.49 14.60L117.49 14.60L117.49 14.60Q117.61 14.53 117.77 14.36L117.77 14.36ZM112.62 5.52L112.62 5.52Q112.24 5.52 112.06 5.61L112.06 5.61L112.06 5.61Q111.89 5.71 111.82 5.96L111.82 5.96L111.82 5.96Q111.75 6.22 111.75 6.72L111.75 6.72L111.75 10.16L112.35 10.16L112.35 10.16Q113.50 10.16 113.92 9.55L113.92 9.55L113.92 9.55Q114.35 8.95 114.35 7.84L114.35 7.84L114.35 7.84Q114.35 6.69 113.95 6.10L113.95 6.10L113.95 6.10Q113.54 5.52 112.62 5.52L112.62 5.52ZM122.14 14.20L122.14 14.20Q123.28 14.20 123.98 13.08L123.98 13.08L124.24 13.16L124.24 13.16Q123.96 14.07 123.23 14.71L123.23 14.71L123.23 14.71Q122.51 15.34 121.44 15.34L121.44 15.34L121.44 15.34Q119.95 15.34 119.08 14.40L119.08 14.40L119.08 14.40Q118.20 13.45 118.20 11.61L118.20 11.61L118.20 11.61Q118.20 9.72 119.14 8.71L119.14 8.71L119.14 8.71Q120.08 7.71 121.63 7.71L121.63 7.71L121.63 7.71Q124.26 7.71 124.26 10.82L124.26 10.82L120.33 10.82L120.33 10.82Q120.32 11.03 120.32 11.48L120.32 11.48L120.32 11.48Q120.32 12.40 120.58 13.02L120.58 13.02L120.58 13.02Q120.83 13.64 121.25 13.92L121.25 13.92L121.25 13.92Q121.66 14.20 122.14 14.20L122.14 14.20ZM121.55 8.01L121.55 8.01Q121.04 8.01 120.72 8.63L120.72 8.63L120.72 8.63Q120.39 9.25 120.30 10.56L120.30 10.56L122.50 10.56L122.50 10.56Q122.53 9.45 122.28 8.73L122.28 8.73L122.28 8.73Q122.04 8.01 121.55 8.01L121.55 8.01ZM127.85 7.71L127.85 7.71Q128.38 7.71 128.83 7.85L128.83 7.85L128.83 7.85Q129.28 7.98 129.51 8.15L129.51 8.15L129.51 8.15Q129.65 8.25 129.77 8.25L129.77 8.25L129.77 8.25Q129.89 8.25 129.98 8.11L129.98 8.11L129.98 8.11Q130.07 7.98 130.10 7.73L130.10 7.73L130.40 7.73L130.40 7.73Q130.34 8.44 130.34 10.19L130.34 10.19L130.05 10.19L130.05 10.19Q129.92 9.27 129.49 8.64L129.49 8.64L129.49 8.64Q129.07 8.02 128.25 8.02L128.25 8.02L128.25 8.02Q127.83 8.02 127.56 8.26L127.56 8.26L127.56 8.26Q127.29 8.50 127.29 8.92L127.29 8.92L127.29 8.92Q127.29 9.39 127.61 9.74L127.61 9.74L127.61 9.74Q127.93 10.08 128.62 10.57L128.62 10.57L129.02 10.86L129.02 10.86Q129.88 11.51 130.28 12.01L130.28 12.01L130.28 12.01Q130.69 12.52 130.69 13.27L130.69 13.27L130.69 13.27Q130.69 13.89 130.33 14.36L130.33 14.36L130.33 14.36Q129.98 14.84 129.37 15.09L129.37 15.09L129.37 15.09Q128.77 15.34 128.04 15.34L128.04 15.34L128.04 15.34Q127.27 15.34 126.73 15.05L126.73 15.05L126.73 15.05Q126.28 14.83 126.08 14.76L126.08 14.76L126.08 14.76Q125.94 14.71 125.84 14.85L125.84 14.85L125.84 14.85Q125.73 14.98 125.68 15.25L125.68 15.25L125.38 15.25L125.38 15.25Q125.44 14.45 125.44 12.45L125.44 12.45L125.73 12.45L125.73 12.45Q126.01 15.02 127.62 15.02L127.62 15.02L127.62 15.02Q128.03 15.02 128.32 14.78L128.32 14.78L128.32 14.78Q128.60 14.53 128.60 14.03L128.60 14.03L128.60 14.03Q128.60 13.64 128.43 13.33L128.43 13.33L128.43 13.33Q128.25 13.02 127.99 12.78L127.99 12.78L127.99 12.78Q127.72 12.54 127.19 12.12L127.19 12.12L127.19 12.12Q126.56 11.62 126.23 11.31L126.23 11.31L126.23 11.31Q125.90 11.00 125.67 10.58L125.67 10.58L125.67 10.58Q125.44 10.16 125.44 9.65L125.44 9.65L125.44 9.65Q125.44 8.75 126.14 8.23L126.14 8.23L126.14 8.23Q126.84 7.71 127.85 7.71L127.85 7.71ZM134.39 5.61L134.39 7.91L136.04 7.91L136.04 8.19L134.39 8.19L134.39 13.85L134.39 13.85Q134.39 14.27 134.53 14.44L134.53 14.44L134.53 14.44Q134.68 14.62 135.00 14.62L135.00 14.62L135.00 14.62Q135.60 14.62 135.95 13.78L135.95 13.78L136.19 13.90L136.19 13.90Q135.66 15.34 134.27 15.34L134.27 15.34L134.27 15.34Q133.35 15.34 132.87 14.87L132.87 14.87L132.87 14.87Q132.58 14.57 132.47 14.13L132.47 14.13L132.47 14.13Q132.37 13.69 132.37 12.92L132.37 12.92L132.37 8.19L131.19 8.19L131.19 7.91L132.37 7.91L132.37 6.06L132.37 6.06Q133.53 6.06 134.39 5.61L134.39 5.61ZM138.32 15.25L138.32 15.25Q137.42 15.25 136.98 14.78L136.98 14.78L136.98 14.78Q136.54 14.32 136.54 13.57L136.54 13.57L136.54 13.57Q136.54 12.94 136.87 12.52L136.87 12.52L136.87 12.52Q137.20 12.11 137.67 11.89L137.67 11.89L137.67 11.89Q138.14 11.66 138.87 11.41L138.87 11.41L138.87 11.41Q139.64 11.14 139.99 10.93L139.99 10.93L139.99 10.93Q140.35 10.71 140.35 10.33L140.35 10.33L140.35 9.24L140.35 9.24Q140.35 8.65 140.08 8.32L140.08 8.32L140.08 8.32Q139.80 7.99 139.23 7.99L139.23 7.99L139.23 7.99Q138.56 7.99 138.21 8.33L138.21 8.33L138.21 8.33Q138.60 8.47 138.82 8.75L138.82 8.75L138.82 8.75Q139.03 9.03 139.03 9.41L139.03 9.41L139.03 9.41Q139.03 9.88 138.71 10.16L138.71 10.16L138.71 10.16Q138.39 10.44 137.93 10.44L137.93 10.44L137.93 10.44Q137.44 10.44 137.17 10.14L137.17 10.14L137.17 10.14Q136.91 9.83 136.91 9.37L136.91 9.37L136.91 9.37Q136.91 8.97 137.09 8.70L137.09 8.70L137.09 8.70Q137.28 8.43 137.68 8.19L137.68 8.19L137.68 8.19Q138.05 7.97 138.61 7.84L138.61 7.84L138.61 7.84Q139.16 7.71 139.82 7.71L139.82 7.71L139.82 7.71Q140.50 7.71 141.01 7.85L141.01 7.85L141.01 7.85Q141.51 7.99 141.85 8.33L141.85 8.33L141.85 8.33Q142.16 8.64 142.26 9.09L142.26 9.09L142.26 9.09Q142.37 9.53 142.37 10.30L142.37 10.30L142.37 14.11L142.37 14.11Q142.37 14.45 142.43 14.59L142.43 14.59L142.43 14.59Q142.49 14.73 142.67 14.73L142.67 14.73L142.67 14.73Q142.88 14.73 143.18 14.49L143.18 14.49L143.32 14.73L143.32 14.73Q142.69 15.25 141.78 15.25L141.78 15.25L141.78 15.25Q141.01 15.25 140.70 14.94L140.70 14.94L140.70 14.94Q140.39 14.63 140.38 14.11L140.38 14.11L140.38 14.11Q139.68 15.25 138.32 15.25L138.32 15.25ZM139.40 14.35L139.40 14.35Q139.94 14.35 140.35 13.78L140.35 13.78L140.35 10.91L140.35 10.91Q140.18 11.19 139.64 11.52L139.64 11.52L139.64 11.52Q139.09 11.87 138.81 12.22L138.81 12.22L138.81 12.22Q138.53 12.57 138.53 13.23L138.53 13.23L138.53 13.23Q138.53 13.80 138.77 14.08L138.77 14.08L138.77 14.08Q139.01 14.35 139.40 14.35L139.40 14.35ZM150.70 7.76L150.70 13.62L150.70 13.62Q150.70 14.27 150.90 14.56L150.90 14.56L150.90 14.56Q151.10 14.85 151.59 14.85L151.59 14.85L151.59 15.15L151.59 15.15Q151.16 15.11 150.72 15.11L150.72 15.11L150.72 15.11Q149.51 15.11 148.68 15.30L148.68 15.30L148.68 14.04L148.68 14.04Q148.04 15.34 146.43 15.34L146.43 15.34L146.43 15.34Q145.38 15.34 144.90 14.80L144.90 14.80L144.90 14.80Q144.68 14.53 144.57 14.11L144.57 14.11L144.57 14.11Q144.47 13.68 144.47 12.98L144.47 12.98L144.47 9.44L144.47 9.44Q144.47 8.79 144.26 8.50L144.26 8.50L144.26 8.50Q144.06 8.20 143.57 8.20L143.57 8.20L143.57 7.91L143.57 7.91Q144.00 7.95 144.44 7.95L144.44 7.95L144.44 7.95Q145.66 7.95 146.48 7.76L146.48 7.76L146.48 13.55L146.48 13.55Q146.48 14.14 146.66 14.43L146.66 14.43L146.66 14.43Q146.83 14.73 147.32 14.73L147.32 14.73L147.32 14.73Q147.88 14.73 148.28 14.26L148.28 14.26L148.28 14.26Q148.68 13.79 148.68 13.10L148.68 13.10L148.68 9.44L148.68 9.44Q148.68 8.79 148.48 8.50L148.48 8.50L148.48 8.50Q148.27 8.20 147.78 8.20L147.78 8.20L147.78 7.91L147.78 7.91Q148.23 7.95 148.65 7.95L148.65 7.95L148.65 7.95Q149.87 7.95 150.70 7.76L150.70 7.76ZM157.02 7.71L157.02 7.71Q157.65 7.71 157.98 8.09L157.98 8.09L157.98 8.09Q158.30 8.47 158.30 9.00L158.30 9.00L158.30 9.00Q158.30 9.52 158.00 9.85L158.00 9.85L158.00 9.85Q157.70 10.18 157.21 10.18L157.21 10.18L157.21 10.18Q156.73 10.18 156.45 9.93L156.45 9.93L156.45 9.93Q156.17 9.69 156.17 9.28L156.17 9.28L156.17 9.28Q156.17 8.61 156.79 8.19L156.79 8.19L156.79 8.19Q156.73 8.18 156.62 8.18L156.62 8.18L156.62 8.18Q156.48 8.18 156.39 8.20L156.39 8.20L156.39 8.20Q155.86 8.29 155.49 8.85L155.49 8.85L155.49 8.85Q155.12 9.41 155.12 10.00L155.12 10.00L155.12 13.71L155.12 13.71Q155.12 14.35 155.44 14.60L155.44 14.60L155.44 14.60Q155.75 14.85 156.44 14.85L156.44 14.85L156.44 15.15L156.44 15.15Q156.24 15.15 156.11 15.13L156.11 15.13L156.11 15.13Q154.69 15.09 154.21 15.09L154.21 15.09L154.21 15.09Q153.83 15.09 152.49 15.13L152.49 15.13L152.49 15.13Q152.38 15.15 152.21 15.15L152.21 15.15L152.21 14.85L152.21 14.85Q152.71 14.85 152.91 14.64L152.91 14.64L152.91 14.64Q153.10 14.42 153.10 13.85L153.10 13.85L153.10 9.44L153.10 9.44Q153.10 8.79 152.91 8.50L152.91 8.50L152.91 8.50Q152.71 8.20 152.21 8.20L152.21 8.20L152.21 7.91L152.21 7.91Q152.66 7.95 153.08 7.95L153.08 7.95L153.08 7.95Q154.32 7.95 155.12 7.76L155.12 7.76L155.12 9.06L155.12 9.06Q155.39 8.46 155.89 8.09L155.89 8.09L155.89 8.09Q156.39 7.71 157.02 7.71L157.02 7.71ZM160.59 15.25L160.59 15.25Q159.70 15.25 159.26 14.78L159.26 14.78L159.26 14.78Q158.82 14.32 158.82 13.57L158.82 13.57L158.82 13.57Q158.82 12.94 159.15 12.52L159.15 12.52L159.15 12.52Q159.47 12.11 159.94 11.89L159.94 11.89L159.94 11.89Q160.41 11.66 161.14 11.41L161.14 11.41L161.14 11.41Q161.91 11.14 162.27 10.93L162.27 10.93L162.27 10.93Q162.62 10.71 162.62 10.33L162.62 10.33L162.62 9.24L162.62 9.24Q162.62 8.65 162.35 8.32L162.35 8.32L162.35 8.32Q162.08 7.99 161.50 7.99L161.50 7.99L161.50 7.99Q160.83 7.99 160.48 8.33L160.48 8.33L160.48 8.33Q160.87 8.47 161.09 8.75L161.09 8.75L161.09 8.75Q161.31 9.03 161.31 9.41L161.31 9.41L161.31 9.41Q161.31 9.88 160.99 10.16L160.99 10.16L160.99 10.16Q160.66 10.44 160.20 10.44L160.20 10.44L160.20 10.44Q159.71 10.44 159.45 10.14L159.45 10.14L159.45 10.14Q159.18 9.83 159.18 9.37L159.18 9.37L159.18 9.37Q159.18 8.97 159.37 8.70L159.37 8.70L159.37 8.70Q159.56 8.43 159.95 8.19L159.95 8.19L159.95 8.19Q160.33 7.97 160.88 7.84L160.88 7.84L160.88 7.84Q161.43 7.71 162.09 7.71L162.09 7.71L162.09 7.71Q162.78 7.71 163.28 7.85L163.28 7.85L163.28 7.85Q163.79 7.99 164.12 8.33L164.12 8.33L164.12 8.33Q164.43 8.64 164.54 9.09L164.54 9.09L164.54 9.09Q164.64 9.53 164.64 10.30L164.64 10.30L164.64 14.11L164.64 14.11Q164.64 14.45 164.70 14.59L164.70 14.59L164.70 14.59Q164.77 14.73 164.95 14.73L164.95 14.73L164.95 14.73Q165.16 14.73 165.45 14.49L165.45 14.49L165.59 14.73L165.59 14.73Q164.96 15.25 164.05 15.25L164.05 15.25L164.05 15.25Q163.28 15.25 162.97 14.94L162.97 14.94L162.97 14.94Q162.67 14.63 162.65 14.11L162.65 14.11L162.65 14.11Q161.95 15.25 160.59 15.25L160.59 15.25ZM161.67 14.35L161.67 14.35Q162.22 14.35 162.62 13.78L162.62 13.78L162.62 10.91L162.62 10.91Q162.46 11.19 161.91 11.52L161.91 11.52L161.91 11.52Q161.36 11.87 161.08 12.22L161.08 12.22L161.08 12.22Q160.80 12.57 160.80 13.23L160.80 13.23L160.80 13.23Q160.80 13.80 161.04 14.08L161.04 14.08L161.04 14.08Q161.28 14.35 161.67 14.35L161.67 14.35ZM171.21 7.71L171.21 7.71Q172.27 7.71 172.75 8.26L172.75 8.26L172.75 8.26Q172.98 8.53 173.08 8.95L173.08 8.95L173.08 8.95Q173.18 9.37 173.18 10.08L173.18 10.08L173.18 13.85L173.18 13.85Q173.18 14.42 173.38 14.64L173.38 14.64L173.38 14.64Q173.59 14.85 174.08 14.85L174.08 14.85L174.08 15.15L174.08 15.15Q172.68 15.09 172.23 15.09L172.23 15.09L172.23 15.09Q171.81 15.09 170.41 15.15L170.41 15.15L170.41 14.85L170.41 14.85Q170.83 14.85 171.00 14.64L171.00 14.64L171.00 14.64Q171.16 14.42 171.16 13.85L171.16 13.85L171.16 9.49L171.16 9.49Q171.16 8.92 170.98 8.62L170.98 8.62L170.98 8.62Q170.79 8.33 170.30 8.33L170.30 8.33L170.30 8.33Q169.72 8.33 169.32 8.80L169.32 8.80L169.32 8.80Q168.91 9.27 168.91 9.95L168.91 9.95L168.91 13.85L168.91 13.85Q168.91 14.42 169.08 14.64L169.08 14.64L169.08 14.64Q169.25 14.85 169.67 14.85L169.67 14.85L169.67 15.15L169.67 15.15Q168.38 15.09 167.93 15.09L167.93 15.09L167.93 15.09Q167.51 15.09 166.00 15.15L166.00 15.15L166.00 14.85L166.00 14.85Q166.50 14.85 166.70 14.64L166.70 14.64L166.70 14.64Q166.89 14.42 166.89 13.85L166.89 13.85L166.89 9.44L166.89 9.44Q166.89 8.79 166.70 8.50L166.70 8.50L166.70 8.50Q166.50 8.20 166.00 8.20L166.00 8.20L166.00 7.91L166.00 7.91Q166.45 7.95 166.87 7.95L166.87 7.95L166.87 7.95Q168.11 7.95 168.91 7.76L168.91 7.76L168.91 9.02L168.91 9.02Q169.54 7.71 171.21 7.71L171.21 7.71ZM177.44 5.61L177.44 7.91L179.09 7.91L179.09 8.19L177.44 8.19L177.44 13.85L177.44 13.85Q177.44 14.27 177.58 14.44L177.58 14.44L177.58 14.44Q177.73 14.62 178.05 14.62L178.05 14.62L178.05 14.62Q178.65 14.62 179.00 13.78L179.00 13.78L179.24 13.90L179.24 13.90Q178.71 15.34 177.32 15.34L177.32 15.34L177.32 15.34Q176.40 15.34 175.92 14.87L175.92 14.87L175.92 14.87Q175.63 14.57 175.53 14.13L175.53 14.13L175.53 14.13Q175.42 13.69 175.42 12.92L175.42 12.92L175.42 8.19L174.24 8.19L174.24 7.91L175.42 7.91L175.42 6.06L175.42 6.06Q176.58 6.06 177.44 5.61L177.44 5.61ZM182.29 7.71L182.29 7.71Q182.83 7.71 183.27 7.85L183.27 7.85L183.27 7.85Q183.72 7.98 183.96 8.15L183.96 8.15L183.96 8.15Q184.10 8.25 184.21 8.25L184.21 8.25L184.21 8.25Q184.34 8.25 184.43 8.11L184.43 8.11L184.43 8.11Q184.52 7.98 184.55 7.73L184.55 7.73L184.84 7.73L184.84 7.73Q184.79 8.44 184.79 10.19L184.79 10.19L184.49 10.19L184.49 10.19Q184.37 9.27 183.94 8.64L183.94 8.64L183.94 8.64Q183.51 8.02 182.70 8.02L182.70 8.02L182.70 8.02Q182.28 8.02 182.01 8.26L182.01 8.26L182.01 8.26Q181.73 8.50 181.73 8.92L181.73 8.92L181.73 8.92Q181.73 9.39 182.06 9.74L182.06 9.74L182.06 9.74Q182.38 10.08 183.06 10.57L183.06 10.57L183.47 10.86L183.47 10.86Q184.32 11.51 184.73 12.01L184.73 12.01L184.73 12.01Q185.14 12.52 185.14 13.27L185.14 13.27L185.14 13.27Q185.14 13.89 184.78 14.36L184.78 14.36L184.78 14.36Q184.42 14.84 183.82 15.09L183.82 15.09L183.82 15.09Q183.22 15.34 182.49 15.34L182.49 15.34L182.49 15.34Q181.72 15.34 181.17 15.05L181.17 15.05L181.17 15.05Q180.73 14.83 180.53 14.76L180.53 14.76L180.53 14.76Q180.39 14.71 180.29 14.85L180.29 14.85L180.29 14.85Q180.18 14.98 180.12 15.25L180.12 15.25L179.83 15.25L179.83 15.25Q179.89 14.45 179.89 12.45L179.89 12.45L180.18 12.45L180.18 12.45Q180.46 15.02 182.07 15.02L182.07 15.02L182.07 15.02Q182.48 15.02 182.76 14.78L182.76 14.78L182.76 14.78Q183.05 14.53 183.05 14.03L183.05 14.03L183.05 14.03Q183.05 13.64 182.88 13.33L182.88 13.33L182.88 13.33Q182.70 13.02 182.43 12.78L182.43 12.78L182.43 12.78Q182.17 12.54 181.64 12.12L181.64 12.12L181.64 12.12Q181.01 11.62 180.68 11.31L180.68 11.31L180.68 11.31Q180.35 11.00 180.12 10.58L180.12 10.58L180.12 10.58Q179.89 10.16 179.89 9.65L179.89 9.65L179.89 9.65Q179.89 8.75 180.59 8.23L180.59 8.23L180.59 8.23Q181.29 7.71 182.29 7.71L182.29 7.71Z"></path></g><!----><!----></svg>