<svg xmlns="http://www.w3.org/2000/svg" width="39" height="32" version="1.1" viewBox="0 0 39 32"><title>comfort</title><path fill="#deaf62" d="M4.044 17.325c1.446 2.472 1.174 5.792 0.537 8.399-0.213 0.873-0.459 1.794-0.276 2.78 0.222 1.206 1.032 2.169 1.853 2.726 1.496 1.017 3.204 1.028 4.448 0.030 1.075-0.863 1.783-2.394 2.879-3.208 1.837-1.366 4.352-0.455 6.538 0.908 1.547 0.965 3.249 2.181 4.678 1.547 1.006-0.446 1.633-1.755 1.927-3.188 0.142-0.692 0.227-1.449 0.552-1.972 0.193-0.311 0.458-0.515 0.733-0.681 2.508-1.519 5.9-0.123 8.32-1.853 1.634-1.168 2.563-3.634 2.87-6.288s0.057-5.506-0.257-8.317c-0.223-1.997-0.524-4.137-1.528-5.78-1.061-1.739-2.735-2.542-4.19-2.415s-2.72 1.062-3.808 2.211c-1.362 1.437-2.59 3.283-4.351 3.716-1.2 0.295-2.51-0.108-3.786-0.348-2.129-0.402-4.23-0.348-6.316-0.263-1.996 0.081-4.005 0.194-5.866 0.884-1.317 0.489-2.327 1.545-3.556 2.219-0.801 0.439-1.704 0.477-2.451 1.070-0.92 0.731-1.715 2.1-1.348 3.862 0.35 1.675 1.627 2.65 2.396 3.963z" opacity=".1"/><path fill="#deaf62" d="M0.281 12.119s-1.954 3.053 4.453 3.106c0 0 0.094-2.657-2-3.752-0.253-0.136-0.554-0.215-0.873-0.215-0.64 0-1.206 0.32-1.545 0.809l-0.004 0.006z"/><path fill="#deaf62" d="M1.429 3.249c0.147 0.377-0.109 1.737-0.109 1.737s-1.11-0.828-1.257-1.204c-0.029-0.076-0.046-0.164-0.046-0.256 0-0.405 0.328-0.733 0.733-0.733 0.305 0 0.566 0.186 0.677 0.451l0.002 0.005z"/><path fill="#deaf62" d="M3.374 4.898c-0.081 0.397-1.035 1.399-1.035 1.399s-0.482-1.297-0.401-1.696c0.071-0.336 0.366-0.585 0.718-0.585 0.405 0 0.733 0.328 0.733 0.733 0 0.053-0.006 0.104-0.016 0.153l0.001-0.005z"/><path fill="#deaf62" d="M4.715 8.486c-0.271 0.301-1.6 0.685-1.6 0.685s0.239-1.363 0.509-1.664c0.135-0.154 0.332-0.251 0.552-0.251 0.405 0 0.733 0.328 0.733 0.733 0 0.192-0.074 0.367-0.195 0.498l0-0.001z"/><path fill="#deaf62" d="M5.122 11.43c-0.216 0.343-1.461 0.946-1.461 0.946s0.005-1.384 0.221-1.726c0.13-0.214 0.363-0.355 0.628-0.355 0.405 0 0.733 0.328 0.733 0.733 0 0.15-0.045 0.29-0.122 0.406l0.002-0.003z"/><path fill="#deaf62" d="M0.932 6.93c0.373 0.158 1.739-0.062 1.739-0.062s-0.796-1.133-1.17-1.29c-0.084-0.036-0.182-0.057-0.284-0.057-0.405 0-0.734 0.328-0.734 0.734 0 0.302 0.183 0.562 0.444 0.674l0.005 0.002z"/><path fill="#deaf62" d="M1.45 10.366c0.403 0.039 1.641-0.58 1.641-0.58s-1.097-0.841-1.502-0.879c-0.015-0.001-0.032-0.002-0.050-0.002-0.405 0-0.733 0.328-0.733 0.733 0 0.374 0.28 0.682 0.641 0.727l0.004 0z"/><path fill="#deaf62" d="M2.412 13.638c0.391 0.106 1.715-0.295 1.715-0.295s-0.941-1.015-1.332-1.12c-0.061-0.019-0.132-0.029-0.205-0.029-0.405 0-0.733 0.328-0.733 0.733 0 0.342 0.234 0.629 0.55 0.71l0.005 0.001z"/><path fill="#000" d="M1.429 3.249c0.147 0.377-0.109 1.737-0.109 1.737s-1.11-0.828-1.257-1.204c-0.029-0.076-0.046-0.164-0.046-0.256 0-0.405 0.328-0.733 0.733-0.733 0.305 0 0.566 0.186 0.677 0.451l0.002 0.005z" opacity=".25"/><path fill="#000" d="M3.374 4.898c-0.081 0.397-1.035 1.399-1.035 1.399s-0.482-1.297-0.401-1.696c0.071-0.336 0.366-0.585 0.718-0.585 0.405 0 0.733 0.328 0.733 0.733 0 0.053-0.006 0.104-0.016 0.153l0.001-0.005z" opacity=".25"/><path fill="#000" d="M4.715 8.486c-0.271 0.301-1.6 0.685-1.6 0.685s0.239-1.363 0.509-1.664c0.135-0.154 0.332-0.251 0.552-0.251 0.405 0 0.733 0.328 0.733 0.733 0 0.192-0.074 0.367-0.195 0.498l0-0.001z" opacity=".25"/><path fill="#000" d="M5.122 11.43c-0.216 0.343-1.461 0.946-1.461 0.946s0.005-1.384 0.221-1.726c0.13-0.214 0.363-0.355 0.628-0.355 0.405 0 0.733 0.328 0.733 0.733 0 0.15-0.045 0.29-0.122 0.406l0.002-0.003z" opacity=".25"/><path fill="#000" d="M0.932 6.93c0.373 0.158 1.739-0.062 1.739-0.062s-0.796-1.133-1.17-1.29c-0.084-0.036-0.182-0.057-0.284-0.057-0.405 0-0.734 0.328-0.734 0.734 0 0.302 0.183 0.562 0.444 0.674l0.005 0.002z" opacity=".25"/><path fill="#000" d="M1.45 10.366c0.403 0.039 1.641-0.58 1.641-0.58s-1.097-0.841-1.502-0.879c-0.015-0.001-0.032-0.002-0.050-0.002-0.405 0-0.733 0.328-0.733 0.733 0 0.374 0.28 0.682 0.641 0.727l0.004 0z" opacity=".25"/><path fill="#000" d="M2.412 13.638c0.391 0.106 1.715-0.295 1.715-0.295s-0.941-1.015-1.332-1.12c-0.061-0.019-0.132-0.029-0.205-0.029-0.405 0-0.733 0.328-0.733 0.733 0 0.342 0.234 0.629 0.55 0.71l0.005 0.001z" opacity=".25"/><path fill="#5f546f" d="M4.85 5.523v13.479l17.934-3.484-0.343-10.338-17.591 0.343z"/><path fill="#000" d="M4.85 5.523v13.479l17.934-3.484-0.343-10.338-17.591 0.343z" opacity=".1"/><path fill="#5f546f" d="M38.562 21.415v4.455l-18.962 5.54-0.194-0.1-14.999-7.782v-18.42l18.563-0.6 0.114 10.224-0.743 0.229-0.285-9.562-16.335 0.567-0.114 13.85 14.232 6.223 18.723-4.624z"/><path fill="#000" d="M38.562 21.415v4.455l-18.962 5.54-0.194-0.1 0.433-5.271 18.723-4.624z" opacity=".1"/><path fill="#ebecf0" d="M15.702 14.947s-9.181 0.916-10.073 2.243-0.007 2.955-0.007 2.955l14.193 6.168 19.248-4.968s-0.513-3.484-2.113-3.884-14.336-3.142-14.336-3.142-5.14-0.314-6.911 0.628z"/><path fill="#f8f9fa" d="M5.622 17.203l14.479 4.998s15.443-4.683 17.631-4.241c0 0-10.805-3.866-15.118-3.698-3.439 0.134-7.040 0.699-7.040 0.699s-9.553 0.958-9.952 2.243z"/><path fill="#deaf62" d="M7.262 12.856l4.493-3.786c0.5-0.421 1.246-0.357 1.667 0.142l2.258 2.68c0.421 0.5 0.357 1.246-0.142 1.667l-4.493 3.786c-0.5 0.421-1.246 0.357-1.667-0.142l-2.258-2.68c-0.421-0.5-0.357-1.246 0.142-1.667z"/><path fill="#000" d="M7.262 12.896l4.493-3.786c0.5-0.421 1.246-0.357 1.667 0.142l2.258 2.68c0.421 0.5 0.357 1.246-0.142 1.667l-4.493 3.786c-0.5 0.421-1.246 0.357-1.667-0.142l-2.258-2.68c-0.421-0.5-0.357-1.246 0.142-1.667z" opacity=".1"/><path fill="#deaf62" d="M7.593 12.829l4.080-3.438c0.5-0.421 1.246-0.357 1.667 0.142l2.010 2.385c0.421 0.5 0.357 1.246-0.142 1.667l-4.080 3.438c-0.5 0.421-1.246 0.357-1.667-0.142l-2.010-2.385c-0.421-0.5-0.357-1.246 0.142-1.667z"/><path fill="#000" d="M8.567 15.020c0.113-0.153 0.237-0.315 0.412-0.383 0.103-0.039 0.218-0.047 0.319-0.089 0.214-0.091 0.329-0.321 0.407-0.54s0.144-0.455 0.315-0.612z" opacity=".05"/><path fill="#000" d="M9.551 15.391c0.113-0.153 0.237-0.315 0.412-0.383 0.103-0.039 0.218-0.047 0.319-0.089 0.214-0.091 0.329-0.321 0.407-0.54s0.144-0.455 0.315-0.612z" opacity=".05"/><path fill="#000" d="M11.703 12.2c0.113-0.153 0.237-0.315 0.412-0.383 0.103-0.039 0.218-0.047 0.319-0.089 0.214-0.091 0.329-0.321 0.407-0.54s0.144-0.455 0.315-0.612z" opacity=".05"/><path fill="#000" d="M12.080 14.744c0.113-0.153 0.237-0.315 0.412-0.383 0.103-0.039 0.218-0.047 0.319-0.089 0.214-0.091 0.329-0.321 0.407-0.54s0.144-0.455 0.315-0.612z" opacity=".1"/><path fill="#deaf62" d="M14.439 11.989l4.493-3.786c0.5-0.421 1.246-0.357 1.667 0.142l2.258 2.68c0.421 0.5 0.357 1.246-0.142 1.667l-4.493 3.786c-0.5 0.421-1.246 0.357-1.667-0.142l-2.258-2.68c-0.421-0.5-0.357-1.246 0.142-1.667z"/><path fill="#000" d="M14.439 11.989l4.493-3.786c0.5-0.421 1.246-0.357 1.667 0.142l2.258 2.68c0.421 0.5 0.357 1.246-0.142 1.667l-4.493 3.786c-0.5 0.421-1.246 0.357-1.667-0.142l-2.258-2.68c-0.421-0.5-0.357-1.246 0.142-1.667z" opacity=".1"/><path fill="#deaf62" d="M14.77 11.962l4.080-3.438c0.5-0.421 1.246-0.357 1.667 0.142l2.010 2.385c0.421 0.5 0.357 1.246-0.142 1.667l-4.080 3.438c-0.5 0.421-1.246 0.357-1.667-0.142l-2.010-2.385c-0.421-0.5-0.357-1.246 0.142-1.667z"/><path fill="#000" d="M15.743 14.152c0.113-0.153 0.237-0.315 0.412-0.383 0.103-0.039 0.218-0.047 0.319-0.089 0.214-0.091 0.329-0.321 0.407-0.54s0.144-0.455 0.315-0.612z" opacity=".05"/><path fill="#000" d="M16.728 14.523c0.113-0.153 0.237-0.315 0.412-0.383 0.103-0.039 0.218-0.047 0.319-0.089 0.214-0.091 0.329-0.321 0.407-0.54s0.144-0.455 0.315-0.612z" opacity=".05"/><path fill="#000" d="M18.88 11.332c0.113-0.153 0.237-0.315 0.412-0.383 0.103-0.039 0.218-0.047 0.319-0.089 0.214-0.091 0.329-0.321 0.407-0.54s0.144-0.455 0.315-0.612z" opacity=".05"/><path fill="#000" d="M19.257 13.876c0.113-0.153 0.237-0.315 0.412-0.383 0.103-0.039 0.218-0.047 0.319-0.089 0.214-0.091 0.329-0.321 0.407-0.54s0.144-0.455 0.315-0.612z" opacity=".1"/><path fill="#169a61" d="M37.202 25.008c-0.032-0.13-0.133-0.229-0.261-0.259l-0.002-0c-1.109-0.276-2.108-2.384-2.108-2.384s-0.039-0.401-0.321-1.004c-0.131-0.281-0.227-0.754-0.293-1.179 0.358-0.162 0.631-0.342 0.453-0.466-0.093-0.064-0.204-0.112-0.322-0.137l-0.006-0.001-0.114-0.625c0.039-0.442-0.281-1.927-0.281-1.927l-0.278-2.304s0.032-0.054-0.018-0.143v-0.003l-0.008-0.013-0.004-0.005-0.008-0.012-0.005-0.006-0.015-0.019-0.010-0.011-0.008-0.009-0.012-0.012-0.009-0.009-0.014-0.013-0.009-0.008-0.019-0.015-0.008-0.007c-0.019-0.015-0.039-0.031-0.065-0.047l-0.007-0.004-0.032-0.020-0.010-0.006-0.033-0.019-0.011-0.006-0.039-0.021-0.008-0.004q-0.051-0.026-0.111-0.054l-0.010-0.004-0.051-0.022-0.018-0.008-0.049-0.020-0.020-0.008-0.054-0.021-0.019-0.008-0.079-0.028c-0.026-0.009-0.052-0.017-0.079-0.025l-0.028-0.008-0.047-0.013-0.030-0.008-0.042-0.009-0.029-0.006-0.043-0.008-0.023-0.004q-0.032-0.005-0.063-0.008h-0.013l-0.049-0.004h-0.133l-0.046 0.005h-0.004q-0.026 0.004-0.050 0.008h-0.004l-0.039 0.009-0.012 0.003-0.031 0.009-0.013 0.004-0.027 0.010-0.014 0.006h-0.004l-0.009 0.004c-0.339 0.118-0.927 0.211-1.557 0.282-0.123-0.427-0.228-0.85-0.257-1.136-0.079-0.803-0.482-1.726-0.482-1.726-0.005 0.011-0.010 0.021-0.016 0.030l0-0c0-0.011-0.004-0.021-0.006-0.032-0.057-0.289-0.254-0.394-0.902-0.641-0.631-0.241-0.925 0.127-1.032 0.326-0.006 0.011-0.011 0.022-0.017 0.032l-0.075-0.037-0.924 1.245-0.025 0.046-0.652 1.277-0.009 0.006-0.891 2.058c-0.501-0.252-1.317-0.252-1.317-0.252l-0.401-0.361-1.004-1.205c-0.112-0.379-0.235-0.699-0.381-1.006l0.018 0.042c-0.13-0.281-0.201-0.714-0.24-1.053 0.094-0.125 0.175-0.268 0.235-0.421l0.004-0.012-0.022-0.029c0.008-0.017 0.015-0.034 0.022-0.051 0 0-0.803-1.044-0.803-1.445s-2.248-0.723-2.248-0.723-0.002 0.008-0.006 0.021c-0.093-0.054-0.171-0.123-0.235-0.203l-0.001-0.002c-0.011-0.014-0.022-0.029-0.033-0.044 0.142-0.151 0.255-0.331 0.331-0.529l0.004-0.011c0.066 0.036 0.144 0.057 0.227 0.058h0c0.1 0 0.22-0.069 0.201-0.167v0c0.001-0.006 0.002-0.013 0.002-0.020s-0.001-0.014-0.002-0.020l0 0.001c-0.011-0.056-0.064-0.092-0.106-0.132-0.045-0.044-0.076-0.103-0.083-0.169l-0-0.001c0.003-0.038 0.019-0.071 0.044-0.097l-0 0c0.033-0.025 0.069-0.051 0.108-0.074l0.005-0.003c0.092-0.072 0.106-0.202 0.104-0.321 0-0.025 0-0.050 0-0.075-0.013-0.288-0.045-0.558-0.096-0.821l0.006 0.036c-0.013-0.076-0.030-0.142-0.052-0.206l0.003 0.009c-0.039-0.098-0.083-0.182-0.135-0.261l0.003 0.005-0.391-0.649c-0.047-0.089-0.107-0.164-0.178-0.227l-0.001-0.001c-0.273-0.21-0.591 0.046-0.853-0.102-0.136-0.077-0.234-0.173-0.394-0.21-0.186-0.042-0.381-0.017-0.564 0.023-0.053 0.007-0.1 0.029-0.138 0.061l0-0c-0.052 0.053-0.052 0.136-0.072 0.207-0.039 0.138-0.154 0.241-0.276 0.315s-0.257 0.129-0.371 0.216c-0.208 0.158-0.327 0.403-0.466 0.624-0.191 0.301-0.42 0.557-0.683 0.773l-0.006 0.005c0.005 0.010 0.010 0.018 0.017 0.026l-0-0-0.017 0.015c0.039 0.090 0.181 0.064 0.26 0.124 0.033 0.026 0.054 0.065 0.056 0.109v0c-0.008 0.067-0.027 0.128-0.057 0.183l0.001-0.003c-0.037 0.074-0.074 0.163-0.067 0.241-0.001 0.007-0.002 0.016-0.002 0.024 0 0.042 0.016 0.081 0.041 0.11l-0-0c0.026 0.021 0.049 0.043 0.071 0.066l0 0c0.008 0.011 0.013 0.024 0.016 0.039l0 0.001c-0.011 0.073-0.075 0.154-0.082 0.234-0.001 0.005-0.001 0.011-0.001 0.017s0 0.012 0.001 0.018l-0-0.001c0 0.002 0 0.004 0 0.006-0.009 0.108 0.088 0.194 0.186 0.241 0.091 0.043 0.192 0.071 0.266 0.138-0.053 0.077-0.102 0.167-0.093 0.252-0.001 0.006-0.001 0.013-0.001 0.020 0 0.030 0.007 0.058 0.019 0.083l-0.001-0.001c0.062 0.125 0.24 0.126 0.375 0.093 0.019-0.007 0.041-0.011 0.065-0.011 0.016 0 0.031 0.002 0.046 0.006l-0.001-0c0.032 0.017 0.060 0.039 0.081 0.067l0 0.001c0.147 0.145 0.431 0.091 0.523-0.092l-0.007 0.030c-0.012 0.050-0.026 0.101-0.039 0.153 0-0.011 0-0.022 0-0.033 0 0-0.76 0.178-1.359 0.308-0.354 0.079-0.644 0.302-0.812 0.603l-0.003 0.006-0.556 1.011s0.006 0.017 0.019 0.046l-0.019 0.035c0.037 0.093 0.082 0.173 0.134 0.246l-0.002-0.003c-0.254 0.598-0.789 1.766-1.256 2.206-0.073 0.069-0.151 0.135-0.232 0.197l-0.007 0.005c-0.005-0-0.010-0-0.016-0-0.093 0-0.181 0.021-0.26 0.058l0.004-0.002c-0.098 0.047-0.181 0.114-0.245 0.196l-0.001 0.001c-0.137 0.022-0.206-0.011-0.206-0.011s-0.46 0.362-0.757 0.753c-0.061 0.022-0.122 0.045-0.181 0.069-0.273 0.115-0.55 0.338-0.547 0.634 0 0.208 0.143 0.394 0.212 0.591l-0.172 0.201s-0.361 0.281-0.683 0.361-0.965 0.599-0.965 0.599l-1.204 0.843-0.127 0.082c-0.262-0.373-0.515-0.925-0.515-0.925s-0.442-0.803-0.923 0.079l-0.015 0.026c-0.072 0.131-0.126 0.284-0.154 0.445l-0.001 0.009c-0.565-0.276-0.839 0.803-0.874 1.045-0.008 0.055-0.082 0.32 0.016 0.541 0.279 0.636 0.807 1.119 1.458 1.331l0.017 0.005c0.051 0.017 0.117 0.034 0.184 0.048l0.013 0.002c0.602 0.12 1.004-0.763 1.004-0.763l0.013-0.127c0.057 0.006 0.124 0.010 0.191 0.010 0.030 0 0.060-0.001 0.089-0.002l-0.004 0c0.059-0.003 0.118-0.003 0.184 0 0.014 0 0.030 0 0.046 0 0.323 0 0.631-0.064 0.912-0.181l-0.016 0.006 0.598-0.24c-0.002 0.017-0.005 0.034-0.008 0.051l1.927-0.64s0.659-0.082 1.39-0.19c0.023 0.065 0.044 0.13 0.071 0.194 0.168 0.394 0.552 0.661 0.959 0.791s0.841 0.14 1.269 0.149c0.044 0 0.088 0 0.133 0 0.14 0.002 0.283-0.002 0.41-0.059 0.143-0.064 0.261-0.214 0.234-0.368-0.021-0.121-0.118-0.21-0.209-0.293-0.174-0.161-0.34-0.34-0.427-0.56-0.019-0.046-0.034-0.099-0.045-0.155l-0.001-0.005c0.106 0.101 0.238 0.176 0.385 0.214l0.006 0.001c0.803 0.201 2.208 0.401 2.609 0.281s1.405-0.361 2.931 0 1.967 0.241 1.967 0.241l-0.007-0.010c0.4 0.093 0.976 0.177 1.521 0.074 0.272-0.054 0.602-0.098 0.939-0.122l0.026-0.001c0.205-0.014 0.444-0.039 0.687-0.079 0.45-0.079 0.837-0.306 1.117-0.629l0.002-0.002c0.8 0.108 2.058-0.355 2.058-0.355l0.184-0.096 0.137 0.337s-0.201 1.044 1.044 1.485c0.523 0.193 1.138 0.347 1.774 0.435l0.047 0.005c0.202 1.369 0.467 1.928 0.467 1.928l-0.442 0.642c-0.136 0.543 0.276 0.768 0.664 0.86 0.344 0.086 0.644 0.233 0.905 0.43l-0.006-0.004c0.56 0.416 1.649 0.842 1.649 0.842 1.105 0.225 1.252-0.004 1.208-0.207zM22.908 16.061l0.248 0.248-0.088-0.008-0.155 0.281h-0.77c-0.079 0-0.442-0.281-0.442-0.281l-0.103 0.010 0.183-0.131s0.265-0.143 0.228-0.675zM20.159 15.033c-0.067-0.215-0.142-0.448-0.219-0.674 0.009-0.089 0.020-0.179 0.034-0.266l0.285 0.884zM14.533 13.8c-0.096 0.168-0.198 0.313-0.313 0.448l0.003-0.004c-0.036-0.011-0.072-0.020-0.109-0.029v0s0.188-0.165 0.418-0.415zM31.016 17.787c-0.006-0.056-0.013-0.116-0.022-0.179l0.504-0.262c0.322 0.241 0.442 0.925 0.482 1.549-0.175-0.079-0.892-0.439-0.963-1.107z"/><path fill="#ffbcc7" d="M31.55 14.429s0.237-0.591 1.144-0.276 0.752 0.576 0.752 0.576l-0.121 0.528-0.473 0.276-0.789-0.079z"/><path fill="#000" d="M33.453 14.708c-0.001 0.008-0.004 0.015-0.007 0.022l0-0-0.121 0.528-0.473 0.276-0.789-0.079-0.513-1.025c0.069-0.141 0.186-0.249 0.328-0.307l0.004-0.002c0.176-0.074 0.437-0.098 0.811 0.032 0.754 0.262 0.774 0.487 0.759 0.555z" opacity=".03"/><path fill="#ffbcc7" d="M33.877 19.201s0.118 1.459 0.394 2.050 0.315 0.986 0.315 0.986 0.98 2.070 2.070 2.341c0.128 0.030 0.227 0.128 0.258 0.253l0.001 0.002c0.044 0.2-0.101 0.425-1.185 0.203 0 0-1.069-0.418-1.62-0.828-0.25-0.19-0.545-0.334-0.866-0.415l-0.017-0.004c-0.379-0.090-0.785-0.311-0.652-0.845l0.434-0.631s-0.355-0.749-0.552-2.642 1.42-0.472 1.42-0.472z"/><path fill="#ffbcc7" d="M29.618 11.905c0 0.552-1.972-0.513-1.972-0.513 0.015-0.044 0.032-0.082 0.052-0.117l-0.002 0.004c0.106-0.197 0.394-0.556 1.014-0.32 0.636 0.242 0.828 0.345 0.886 0.631 0.014 0.082 0.022 0.175 0.022 0.271 0 0.016-0 0.031-0.001 0.047l0-0.002z"/><path fill="#ffbcc7" d="M27.292 12.063l-1.183 2.287-0.11-0.479 0.061-0.12 0.641-1.254 0.591-0.434z"/><path fill="#ffbcc7" d="M23.191 16.559l-0.631 1.38-0.434 0.434-0.749-0.789 0.434-1.025h1.38z"/><path fill="#feb7c5" d="M19.839 10.328s-2.681 1.262-2.76 1.222-1.104-0.276-0.631-1.222c0.126-0.248 0.234-0.537 0.309-0.839l0.006-0.029c0.075-0.278 0.118-0.598 0.118-0.927 0-0.007-0-0.014-0-0.020v0.001s1.656-0.749 1.774 0.118c0.039 0.281 0.13 0.473 0.237 0.608 0.122 0.159 0.302 0.269 0.509 0.298l0.004 0z"/><path fill="#feb7c5" d="M7.97 19.082l-0.118 1.183s-0.394 0.868-0.986 0.749c-0.078-0.016-0.143-0.033-0.206-0.053l0.014 0.004c-0.656-0.213-1.175-0.687-1.443-1.297l-0.006-0.015c-0.096-0.217-0.023-0.478-0.015-0.532 0.039-0.276 0.394-1.656 1.144-0.789s1.183 1.301 1.183 1.301z"/><path fill="#5d526d" d="M14.397 14.469l-3.352 1.577-0.473 0.552s-0.355 0.276-0.67 0.355-0.946 0.591-0.946 0.591l-1.183 0.828-0.552 0.355 0.552 0.434 1.696-0.394 2.050-0.434 1.065-0.513 3.036-2.642z"/><path fill="#000" d="M7.97 19.082l-0.118 1.183s-0.394 0.868-0.986 0.749c-0.078-0.016-0.143-0.033-0.206-0.053l0.014 0.004c-0.656-0.213-1.175-0.687-1.443-1.297l-0.006-0.015c-0.096-0.217-0.023-0.478-0.015-0.532 0.039-0.276 0.394-1.656 1.144-0.789s1.183 1.301 1.183 1.301z" opacity=".03"/><path fill="#000" d="M14.397 14.469l-3.352 1.577-0.473 0.552s-0.355 0.276-0.67 0.355-0.946 0.591-0.946 0.591l-1.183 0.828-0.552 0.355 0.552 0.434 1.696-0.394 2.050-0.434 1.065-0.513 3.036-2.642z" opacity=".05"/><path fill="#feb7c5" d="M10.296 19.555l-1.054 0.422c-0.259 0.108-0.56 0.171-0.876 0.171-0.018 0-0.035-0-0.053-0.001l0.003 0c-0.063 0-0.123 0-0.181 0-0.026 0.001-0.057 0.002-0.087 0.002-0.446 0-0.855-0.162-1.17-0.431l0.002 0.002c-0.066-0.056-0.135-0.109-0.206-0.158-0.382-0.273-0.629-0.715-0.629-1.214 0-0.256 0.065-0.497 0.178-0.707l-0.004 0.008 0.014-0.026c0.473-0.868 0.907-0.079 0.907-0.079s0.434 0.946 0.749 1.183c0.215 0.161 0.923 0.011 1.354-0.101 0.201-0.052 0.342-0.097 0.342-0.097z"/><path fill="#000" d="M9.747 19.775c0.129-0.843-0.197-1.091-0.502-1.148 0.201-0.052 0.342-0.097 0.342-0.097l0.71 1.025z" opacity=".1"/><path fill="#5d526d" d="M16.251 14.902l-4.101 2.879s-1.065 0.631-1.459 0.473-1.814 0.394-1.814 0.394 1.183-0.355 0.946 1.144l1.893-0.631s2.839-0.355 3.233-0.552 2.050-3.588 2.050-3.588z"/><path fill="#feb7c5" d="M21.85 11.551s0.039 1.025 0.276 1.538c0.125 0.26 0.245 0.574 0.343 0.898l0.012 0.048 0.986 1.183 0.394 0.355s1.498 0 1.656 0.631-2.287 0.197-2.287 0.197l-0.355-0.355-1.656-1.025-0.946-2.879z"/><path fill="#feb7c5" d="M14.318 11.432s-0.749 1.932-1.38 2.524-0.946 0.434-0.946 0.434-1.656 1.301-0.67 1.617 1.498-1.065 1.498-1.065l1.42-0.71s1.301-1.144 1.222-1.972-1.144-0.828-1.144-0.828z"/><path fill="#000" d="M14.318 11.432s-0.749 1.932-1.38 2.524-0.946 0.434-0.946 0.434-1.656 1.301-0.67 1.617 1.498-1.065 1.498-1.065l1.42-0.71s1.301-1.144 1.222-1.972-1.144-0.828-1.144-0.828z" opacity=".03"/><path fill="#000" d="M17.495 10.444c-0.292 0.015-0.759 0.146-0.771-0.786 0 0-0.747 0.175-1.335 0.302-0.348 0.077-0.633 0.296-0.798 0.592l-0.003 0.006-0.546 0.993s0.237 0.67 0.986 0.749c0 0 0.158 1.577-1.262 2.563s3.667 2.366 3.667 2.366l2.524-0.828s-0.276-2.839 0.552-3.588c0 0 1.183-0.079 1.617-1.183 0 0-0.789-1.025-0.789-1.42s-2.208-0.71-2.208-0.71-0.267 1.080-1.198 0.957c-0.088-0.011-0.19-0.018-0.293-0.018-0.050 0-0.1 0.002-0.149 0.005l0.007-0z" opacity=".1"/><path fill="#d6e6f9" d="M17.495 10.365c-0.292 0.015-0.759 0.146-0.771-0.786 0 0-0.747 0.175-1.335 0.302-0.348 0.077-0.633 0.296-0.798 0.592l-0.003 0.006-0.546 0.993s0.237 0.67 0.986 0.749c0 0 0.158 1.577-1.262 2.563s3.667 2.366 3.667 2.366l2.524-0.828s-0.276-2.839 0.552-3.588c0 0 1.183-0.079 1.617-1.183 0 0-0.789-1.025-0.789-1.42s-2.208-0.71-2.208-0.71-0.267 1.080-1.198 0.957c-0.088-0.011-0.19-0.018-0.293-0.018-0.050 0-0.1 0.002-0.149 0.005l0.007-0z"/><path fill="#000" d="M33.877 19.201s0.118 1.459 0.394 2.050 0.315 0.986 0.315 0.986 0.98 2.070 2.070 2.341c0.128 0.030 0.227 0.128 0.258 0.253l0.001 0.002c0.044 0.2-0.101 0.425-1.185 0.203 0 0-1.069-0.418-1.62-0.828-0.25-0.19-0.545-0.334-0.866-0.415l-0.017-0.004c-0.379-0.090-0.785-0.311-0.652-0.845l0.434-0.631s-0.355-0.749-0.552-2.642 1.42-0.472 1.42-0.472z" opacity=".03"/><path fill="#000" d="M33.453 14.708c-0.001 0.008-0.004 0.015-0.007 0.022l0-0-0.121 0.528-0.473 0.276-0.789-0.079-0.513-1.025c0.069-0.141 0.186-0.249 0.328-0.307l0.004-0.002c-0.061 0.267-0.18 1.065 0.575 1.097 0.907 0.039 0.986-0.591 0.986-0.591z" opacity=".1"/><path fill="#94b6f0" d="M27.765 14.587s3.194-0.118 4.14-0.473c0 0-0.355 1.144 0.552 1.183s0.986-0.591 0.986-0.591l0.276 2.287s0.315 1.459 0.276 1.893l0.158 0.868s-2.129 0.71-2.366 0.237c0 0 0.158-2.208-0.473-2.681l-1.893 0.986s-1.814 0.67-2.445 0.197 0.789-3.904 0.789-3.904z"/><path fill="#000" d="M27.765 14.587s3.194-0.118 4.14-0.473c0 0-0.355 1.144 0.552 1.183s0.986-0.591 0.986-0.591l0.276 2.287s0.315 1.459 0.276 1.893l0.158 0.868s-2.129 0.71-2.366 0.237c0 0 0.158-2.208-0.473-2.681l-1.893 0.986s-1.814 0.67-2.445 0.197 0.789-3.904 0.789-3.904z" opacity=".03"/><path fill="#000" d="M18.893 9.241c-0.291 0.329-0.713 0.535-1.184 0.535-0.356 0-0.685-0.118-0.949-0.317l0.004 0.003c0.075-0.278 0.118-0.598 0.118-0.927 0-0.007-0-0.014-0-0.020v0.001s1.656-0.749 1.774 0.118c0.038 0.28 0.13 0.473 0.237 0.607z" opacity=".1"/><path fill="#feb7c5" d="M19.287 8.12c0 0.871-0.706 1.577-1.577 1.577s-1.577-0.706-1.577-1.577c0-0.871 0.706-1.577 1.577-1.577s1.577 0.706 1.577 1.577z"/><path fill="#000" d="M17.074 5.341c-0.052 0.007-0.099 0.029-0.136 0.061l0-0c-0.051 0.052-0.051 0.133-0.071 0.203-0.039 0.135-0.151 0.237-0.271 0.31s-0.252 0.127-0.364 0.212c-0.205 0.155-0.321 0.394-0.458 0.613-0.188 0.296-0.413 0.549-0.673 0.761l-0.006 0.004c0.039 0.089 0.178 0.063 0.256 0.122 0.093 0.071 0.053 0.219 0 0.324s-0.106 0.243-0.025 0.328c0.026 0.021 0.049 0.042 0.070 0.065l0 0c0.062 0.090-0.056 0.2-0.065 0.309s0.087 0.191 0.183 0.237 0.205 0.073 0.276 0.151c-0.071 0.098-0.145 0.224-0.091 0.332 0.061 0.123 0.237 0.123 0.369 0.091 0.019-0.007 0.041-0.011 0.064-0.011 0.016 0 0.031 0.002 0.045 0.005l-0.001-0c0.031 0.017 0.058 0.039 0.078 0.065l0 0.001c0.15 0.147 0.446 0.085 0.523-0.111 0.042-0.106 0.025-0.226 0.030-0.34 0.007-0.181 0.071-0.355 0.093-0.536 0.039-0.305-0.039-0.612-0.045-0.919-0-0.003-0.001-0.007-0.001-0.011 0-0.017 0.005-0.034 0.013-0.048l-0 0c0.018-0.019 0.043-0.030 0.071-0.030v0c0.199-0.027 0.373-0.062 0.542-0.106l-0.031 0.007c0.13-0.034 0.276-0.089 0.321-0.215-0.026 0.093 0.020 0.195 0.093 0.259 0.073 0.057 0.159 0.101 0.254 0.124l0.005 0.001c0.227 0.069 0.489 0.109 0.686-0.022-0.011 0.243-0.020 0.494 0.066 0.721s0.294 0.427 0.537 0.425c0.098 0 0.216-0.068 0.197-0.164-0.011-0.055-0.064-0.091-0.104-0.13-0.081-0.079-0.118-0.222-0.039-0.302 0.032-0.025 0.068-0.050 0.106-0.072l0.005-0.003c0.099-0.079 0.106-0.223 0.101-0.349-0.013-0.283-0.044-0.549-0.094-0.809l0.006 0.035c-0.013-0.074-0.030-0.139-0.052-0.202l0.003 0.009c-0.038-0.096-0.082-0.179-0.132-0.256l0.003 0.005-0.384-0.638c-0.046-0.087-0.105-0.161-0.175-0.223l-0.001-0.001c-0.269-0.206-0.58 0.045-0.838-0.1-0.134-0.075-0.23-0.171-0.387-0.206-0.182-0.042-0.374-0.017-0.554 0.022z" opacity=".1"/><path fill="#8e6f80" d="M17.074 5.301c-0.052 0.007-0.099 0.029-0.136 0.061l0-0c-0.051 0.052-0.051 0.133-0.071 0.203-0.039 0.135-0.151 0.237-0.271 0.31s-0.252 0.127-0.364 0.212c-0.205 0.155-0.321 0.394-0.458 0.613-0.188 0.296-0.413 0.549-0.673 0.761l-0.006 0.004c0.039 0.089 0.178 0.063 0.256 0.122 0.093 0.071 0.053 0.219 0 0.324s-0.106 0.243-0.025 0.328c0.026 0.021 0.049 0.042 0.070 0.065l0 0c0.062 0.090-0.056 0.2-0.065 0.309s0.087 0.191 0.183 0.237 0.205 0.073 0.276 0.151c-0.071 0.098-0.145 0.224-0.091 0.332 0.061 0.123 0.237 0.123 0.369 0.091 0.019-0.007 0.041-0.011 0.064-0.011 0.016 0 0.031 0.002 0.045 0.005l-0.001-0c0.031 0.017 0.058 0.039 0.078 0.065l0 0.001c0.15 0.147 0.446 0.085 0.523-0.111 0.042-0.106 0.025-0.226 0.030-0.34 0.007-0.181 0.071-0.355 0.093-0.536 0.039-0.305-0.039-0.612-0.045-0.919-0-0.003-0.001-0.007-0.001-0.011 0-0.017 0.005-0.034 0.013-0.048l-0 0c0.018-0.019 0.043-0.030 0.071-0.030v0c0.199-0.027 0.373-0.062 0.542-0.106l-0.031 0.007c0.13-0.034 0.276-0.089 0.321-0.215-0.026 0.093 0.020 0.195 0.093 0.259 0.073 0.057 0.159 0.101 0.254 0.124l0.005 0.001c0.227 0.069 0.489 0.109 0.686-0.022-0.011 0.243-0.020 0.494 0.066 0.721s0.294 0.427 0.537 0.425c0.098 0 0.216-0.068 0.197-0.164-0.011-0.055-0.064-0.091-0.104-0.13-0.081-0.079-0.118-0.222-0.039-0.302 0.032-0.025 0.068-0.050 0.106-0.072l0.005-0.003c0.099-0.079 0.106-0.223 0.101-0.349-0.013-0.283-0.044-0.549-0.094-0.809l0.006 0.035c-0.013-0.074-0.030-0.139-0.052-0.202l0.003 0.009c-0.038-0.096-0.082-0.179-0.132-0.256l0.003 0.005-0.384-0.638c-0.046-0.087-0.105-0.161-0.175-0.223l-0.001-0.001c-0.269-0.206-0.58 0.045-0.838-0.1-0.134-0.075-0.23-0.171-0.387-0.206-0.182-0.042-0.374-0.017-0.554 0.022z"/><path fill="#ffbcc7" d="M16.329 17.702l-0.591 0.394c-0.228-0.425-0.48-0.792-0.767-1.128l0.007 0.009c-0.293-0.343-0.662-0.693-1.093-0.931-1.144-0.631 1.104-0.986 1.104-0.986 0.17 0.248 0.352 0.465 0.552 0.664l0 0c0.397 0.394 0.962 0.789 1.538 0.637 1.065-0.276-0.749 1.341-0.749 1.341z"/><path fill="#cccad6" d="M17.394 15.454h2.445v0.828h-2.445v-0.828z"/><path fill="#ffbcc7" d="M18.183 13.759s-0.355-0.789-0.552-1.025-0.237-1.065-0.237-1.065-0.237-1.459 0.473-1.774 0.513 1.814 0.513 1.814l-0.039 0.315s1.065 0.986 1.025 1.735-1.183 0-1.183 0z"/><path fill="#000" d="M18.183 13.759s-0.355-0.789-0.552-1.025-0.237-1.065-0.237-1.065-0.237-1.459 0.473-1.774 0.513 1.814 0.513 1.814l-0.039 0.315s1.065 0.986 1.025 1.735-1.183 0-1.183 0z" opacity=".03"/><path fill="#000" d="M15.659 15.849s0.355-0.158 0.434-0.394 1.065-0.118 1.065-0.118l1.183-0.237s0.315-0.473 0-0.71-0.315-0.749-0.315-0.749 1.095 0 1.353-0.281c0.010-0.010 0.018-0.022 0.026-0.034l0.001-0.001c0.197-0.315 1.025 2.603 1.025 2.603l-1.972-0.394-1.498 0.868s-0.868 0.158-1.301-0.552z" opacity=".1"/><path fill="#ff7f8e" d="M15.659 15.809s0.355-0.158 0.434-0.394 1.065-0.118 1.065-0.118l1.183-0.237s0.315-0.473 0-0.71-0.315-0.749-0.315-0.749 1.095 0 1.353-0.281c0.010-0.010 0.018-0.022 0.026-0.034l0.001-0.001c0.197-0.315 1.025 2.603 1.025 2.603l-1.972-0.394-1.498 0.868s-0.868 0.158-1.301-0.552z"/><path fill="#000" d="M15.659 15.809s0.355-0.158 0.434-0.394 1.065-0.118 1.065-0.118l1.183-0.237s0.315-0.473 0-0.71-0.315-0.749-0.315-0.749 1.095 0 1.353-0.281c0.010-0.010 0.018-0.022 0.026-0.034l0.001-0.001c0.197-0.315 1.025 2.603 1.025 2.603l-1.972-0.394-1.498 0.868s-0.868 0.158-1.301-0.552z" opacity=".03"/><path fill="#000" d="M21.841 18.073l-0.465-0.489 0.434-1.025h0.355s0.228 1.065-0.324 1.514z" opacity=".1"/><path fill="#cccad6" d="M20.904 16.361l0.789-0.079s0.355 0.276 0.434 0.276c0 0 0.237 1.104-0.355 1.538s-1.341-0.394-1.341-0.394l-0.67-0.789z"/><path fill="#ffbcc7" d="M32.97 20.462s-0.986-0.039-2.208-0.473-1.025-1.459-1.025-1.459l-0.868-2.129 1.538-0.946s0.056 0.242 0.128 0.581c0.11 0.515 0.258 1.254 0.306 1.706 0.079 0.749 0.986 1.104 0.986 1.104l1.617 0.67s0.592-0.158 0.986 0.118-1.459 0.828-1.459 0.828z"/><path fill="#000" d="M22.802 16.559h0.388l-0.631 1.38-0.434 0.434-0.203-0.214 0.88-1.6z" opacity=".1"/><path fill="#000" d="M29.618 11.905c0 0.552-1.972-0.513-1.972-0.513 0.015-0.044 0.032-0.082 0.052-0.117l-0.002 0.004c1.446 0.704 1.817 0.422 1.899 0.309 0.014 0.082 0.022 0.177 0.022 0.274 0 0.015-0 0.031-0.001 0.046l0-0.002z" opacity=".1"/><path fill="#000" d="M26.7 12.497l0.591-0.434-1.183 2.287-0.11-0.48 0.061-0.118c0.794-0.552 0.675-1.065 0.62-1.213z" opacity=".1"/><path fill="#000" d="M30.535 16.035c-0.494 0.121-1.205 0.547-1.513 0.741l-0.153-0.375 1.538-0.946s0.057 0.242 0.128 0.581z" opacity=".1"/><path fill="#94b6f0" d="M23.033 16.283l-1.301 2.366 0.946 0.591s1.049 0.401 2 0.221c0.267-0.053 0.591-0.096 0.921-0.12l0.026-0.001c0.201-0.014 0.434-0.039 0.674-0.079 0.73-0.127 1.308-0.662 1.495-1.358l0.003-0.013c0.243-0.925 0.58-2.347 0.494-2.813-0.004-0.022-0.009-0.042-0.015-0.061l0.001 0.003 0.591 1.774s1.42-0.946 1.972-0.868c0 0-0.67-1.853-0.749-2.642s-0.473-1.696-0.473-1.696-0.197 0.591-2.011-0.315l-0.907 1.222s0.355 0.631-0.67 1.301l-1.144 2.642z"/><path fill="#000" d="M15.541 15.77c0 0.001 0 0.001 0 0.002 0 0.483-0.218 0.915-0.56 1.203l-0.002 0.002c-0.293-0.343-0.662-0.693-1.093-0.931-1.144-0.631 1.104-0.986 1.104-0.986 0.17 0.248 0.352 0.465 0.552 0.664l0 0c-0 0.015 0 0.030 0 0.046z" opacity=".1"/><path fill="#ffbcc7" d="M15.462 15.77c0 0.871-0.706 1.577-1.577 1.577s-1.577-0.706-1.577-1.577c0-0.871 0.706-1.577 1.577-1.577s1.577 0.706 1.577 1.577z"/><path fill="#000" d="M23.23 19.358s-0.434 0.118-1.932-0.237-2.484-0.118-2.879 0-1.774-0.079-2.563-0.276-0.868-1.38-0.868-1.38c0.276 0.039 1.498-1.104 1.498-1.104 0.71-0.631 2.011-0.631 2.011-0.631l2.642 0.473 0.246 0.371z" opacity=".1"/><path fill="#ff7f8e" d="M23.191 19.398s-0.434 0.118-1.932-0.237-2.484-0.118-2.879 0-1.774-0.079-2.563-0.276-0.868-1.38-0.868-1.38c0.276 0.039 1.498-1.104 1.498-1.104 0.71-0.631 2.011-0.631 2.011-0.631l2.642 0.473 0.246 0.371z"/><path fill="#000" d="M21.346 16.614l-3.124 2.232c-0.897 0.304-1.43 0.134-1.746-0.176-0.591-0.582-0.394-1.584 0.362-1.928 0.301-0.136 0.65-0.229 1.017-0.261l0.012-0.001 1.097-0.619 2.136 0.382z" opacity=".1"/><path fill="#000" d="M22.346 16.559s0.115 0.099 0.273 0z" opacity=".1"/><path fill="#ffe09c" d="M17.904 8.759s-0.118-0.003-0.124 0.093c-0.003 0.046 0.072 0.326 0.151 0.606 0.039 0.138 0.079 0.276 0.11 0.385 0.039 0.134 0.067 0.227 0.067 0.227l0.031 0.066 0.362 0.771 0.109 0.141 0.572-0.394 0.284-0.722-0.153-0.067-0.252-0.197-1.030-0.8-0.039-0.029z"/><path fill="#e7c4c3" d="M18.783 11.292s0.629-0.42 0.739-0.789c0 0 0.108-0.313 0.104-0.47 0 0 0.024-0.147-0.263-0.14 0 0-0.049 0.537-0.398 0.82l-0.349 0.283z"/><path fill="#ff7f8e" d="M18.833 10.214c0.108 0.012 0.184 0.125 0.17 0.253s-0.113 0.221-0.222 0.209c-0.108-0.012-0.184-0.125-0.17-0.253s0.113-0.221 0.222-0.209z"/><path fill="#ff7f8e" d="M18.66 9.497c0.108 0.012 0.184 0.125 0.17 0.253s-0.113 0.221-0.222 0.209c-0.108-0.012-0.184-0.125-0.17-0.253s0.113-0.221 0.222-0.209z"/><path fill="#ff7f8e" d="M19.061 9.67c-0.066 0.040-0.111 0.108-0.118 0.188l-0 0.001c-0.014 0.128 0.062 0.241 0.17 0.253s0.207-0.082 0.222-0.209q0-0.013 0-0.026l-0.022-0.010z"/><path fill="#ff7f8e" d="M18.279 10.090c-0.005-0.001-0.011-0.001-0.017-0.001-0.047 0-0.090 0.018-0.123 0.048l0-0 0.187 0.397c0.069-0.039 0.117-0.109 0.124-0.19l0-0.001c0.014-0.128-0.062-0.241-0.17-0.253z"/><path fill="#ff7f8e" d="M18.099 9.382c-0.005-0-0.010-0.001-0.016-0.001-0.062 0-0.118 0.030-0.152 0.077l-0 0.001c0.039 0.138 0.079 0.276 0.11 0.385h0.006c0.108 0.012 0.207-0.082 0.222-0.209s-0.062-0.24-0.17-0.252z"/><path fill="#ff7f8e" d="M18.029 8.869c-0.009 0.021-0.015 0.046-0.018 0.072l-0 0.001c-0.014 0.128 0.062 0.241 0.17 0.253 0.004 0 0.009 0.001 0.015 0.001 0.063 0 0.119-0.031 0.154-0.079l0-0.001z"/><path fill="#94cc79" d="M18.615 10.682l-0.074-0.008c0.016-0.042 0.025-0.090 0.025-0.14 0-0.012-0.001-0.024-0.002-0.036l0 0.002q0-0.006-0.003-0.011c-0.020-0.072 0.074 0.008 0.074 0.008s0.010 0.153-0.020 0.185z"/><path fill="#94cc79" d="M18.871 10.175l-0.074-0.008c0.016-0.042 0.025-0.090 0.025-0.14 0-0.012-0.001-0.024-0.002-0.036l0 0.002q0-0.006-0.003-0.011c-0.020-0.072 0.074 0.008 0.074 0.008s0.009 0.153-0.020 0.185z"/><path fill="#94cc79" d="M18.626 10.056l-0.074-0.008c0.016-0.042 0.025-0.090 0.025-0.14 0-0.012-0.001-0.024-0.002-0.036l0 0.002q0-0.006-0.003-0.011c-0.020-0.072 0.074 0.008 0.074 0.008s0.010 0.153-0.020 0.185z"/><path fill="#94cc79" d="M18.283 9.717l-0.074-0.008c0.016-0.042 0.025-0.090 0.025-0.14 0-0.012-0.001-0.024-0.002-0.036l0 0.002q0-0.006-0.003-0.011c-0.020-0.072 0.074 0.008 0.074 0.008s0.010 0.153-0.020 0.185z"/><path fill="#94cc79" d="M18.011 9.114l-0.074-0.008c0.016-0.042 0.025-0.090 0.025-0.14 0-0.012-0.001-0.024-0.002-0.036l0 0.002q0-0.006-0.003-0.011c-0.020-0.072 0.074 0.008 0.074 0.008s0.011 0.153-0.020 0.185z"/><path fill="#94cc79" d="M18.463 9.496l-0.074-0.008c0.016-0.042 0.025-0.090 0.025-0.14 0-0.012-0.001-0.024-0.002-0.036l0 0.002q0-0.006-0.003-0.011c-0.020-0.072 0.074 0.008 0.074 0.008s0.010 0.153-0.020 0.185z"/><path fill="#e7c4c3" d="M18.555 11.268s0.137 0.215 0.229 0.026c-0.033-0.144-0.1-0.27-0.192-0.372l0.001 0.001s-0.52-0.946-0.513-1.107c0 0-0.291-0.946-0.263-1.004 0 0-0.050-0.063-0.039 0.197s0.248 0.997 0.248 0.997l0.301 0.758 0.162 0.246z"/><path fill="#fff" d="M18.555 11.268s0.137 0.215 0.229 0.026c-0.033-0.144-0.1-0.27-0.192-0.372l0.001 0.001s-0.52-0.946-0.513-1.107c0 0-0.291-0.946-0.263-1.004 0 0-0.050-0.063-0.039 0.197s0.248 0.997 0.248 0.997l0.301 0.758 0.162 0.246z" opacity=".2"/><path fill="#ffbcc7" d="M21.022 13.483c0 0.276-0.946 0.434-0.946 0.434l-0.134-0.237-1.010-1.774s-0.631-1.577 0-1.814 0.71 1.577 0.71 1.577 0.907 1.011 1.25 1.541c0.080 0.123 0.13 0.221 0.13 0.273z"/><path fill="#000" d="M21.022 13.483c0 0.276-0.946 0.434-0.946 0.434l-0.134-0.237c0.353-0.011 0.801-0.351 0.95-0.473 0.080 0.126 0.13 0.224 0.13 0.276z" opacity=".1"/><path fill="#ff7f8e" d="M16.437 18.551c0.315 0.31 0.849 0.481 1.746 0.176l3.588-2.563s0.513-0.276 0-1.498-0.828-1.42-0.828-1.42-0.631 0.552-1.065 0.513l0.394 1.222-2.445 1.38c-0.379 0.033-0.728 0.126-1.050 0.27l0.021-0.008c-0.757 0.344-0.955 1.347-0.362 1.928z"/><path fill="#000" d="M12.515 14.209c-0.261 0.114-0.372 0.422-0.582 0.616s-0.516 0.26-0.784 0.373-0.54 0.332-0.537 0.623 0.289 0.547 0.241 0.838c-0.025 0.149-0.136 0.274-0.162 0.423-0.028 0.161 0.049 0.324 0.155 0.449 0.287 0.341 0.752 0.458 1.179 0.584s0.887 0.315 1.080 0.717c0.051 0.107 0.079 0.224 0.127 0.333 0.164 0.386 0.542 0.649 0.942 0.777s0.828 0.138 1.246 0.147c0.154 0.003 0.315 0.006 0.454-0.057s0.256-0.21 0.229-0.362c-0.020-0.118-0.118-0.206-0.205-0.288-0.171-0.158-0.334-0.334-0.42-0.552s-0.081-0.481 0.064-0.663c0.172-0.215 0.48-0.259 0.704-0.42 0.402-0.288 0.406-0.98 0.008-1.272-0.142-0.104-0.313-0.158-0.467-0.242-0.463-0.255-0.727-0.764-1.149-1.081-0.336-0.252-0.746-0.364-1.104-0.576-0.332-0.195-0.57-0.559-1.017-0.365z" opacity=".1"/><path fill="#ad5975" d="M12.436 14.209c-0.261 0.114-0.372 0.422-0.582 0.616s-0.516 0.26-0.784 0.373-0.54 0.332-0.537 0.623 0.289 0.547 0.241 0.838c-0.025 0.149-0.136 0.274-0.162 0.423-0.028 0.161 0.049 0.324 0.155 0.449 0.287 0.341 0.752 0.458 1.179 0.584s0.887 0.315 1.080 0.717c0.051 0.107 0.079 0.224 0.127 0.333 0.164 0.386 0.542 0.649 0.942 0.777s0.828 0.138 1.246 0.147c0.154 0.003 0.315 0.006 0.454-0.057s0.256-0.21 0.23-0.362c-0.020-0.118-0.118-0.206-0.205-0.288-0.171-0.158-0.334-0.334-0.42-0.552s-0.081-0.481 0.064-0.663c0.172-0.215 0.48-0.259 0.704-0.42 0.402-0.288 0.406-0.98 0.008-1.272-0.142-0.104-0.313-0.158-0.467-0.242-0.463-0.255-0.727-0.764-1.149-1.081-0.336-0.252-0.746-0.364-1.104-0.576-0.332-0.195-0.57-0.559-1.017-0.365z"/><path fill="#dadae5" d="M10.381 28.146l-2.83 2.357-3.331-2.251 3.275-1.75 2.759 1.305 0.127 0.339z"/><path fill="#dadae5" d="M5.876 23.5l1.426 2.738-3.077 1.433-1.989-3.693 3.641-0.478z"/><path fill="#000" d="M6.102 23.246l-0.226 0.282-3.641 0.478-0.12-0.224 3.987-0.536z" opacity=".03"/><path fill="#000" d="M7.52 26.033l-1.418-2.788-0.226 0.282 1.39 2.669 0.255-0.164z" opacity=".03"/><path fill="#eff0f4" d="M6.102 23.217l-0.226 0.282-3.641 0.478-0.12-0.224 3.987-0.536z"/><path fill="#eff0f4" d="M7.52 26.005l-1.418-2.788-0.226 0.282 1.39 2.67 0.255-0.164z"/><path fill="#000" d="M6.102 23.217l-0.344 0.44-3.641 0.478-0.002-0.382 3.987-0.536z" opacity=".03"/><path fill="#000" d="M7.52 26.005l-1.418-2.788-0.344 0.44 1.39 2.67 0.373-0.322z" opacity=".03"/><path fill="#000" d="M7.52 26.047v0.573l-3.296 1.757v-0.664l3.296-1.666z" opacity=".03"/><path fill="#000" d="M10.385 27.479l-2.865-1.433-0.025 0.576 2.827 1.485 0.063-0.629z" opacity=".03"/><path fill="#eff0f4" d="M7.52 26.005v0.494l-3.296 1.757v-0.586l3.296-1.666z"/><path fill="#eff0f4" d="M10.385 27.437l-2.865-1.433-0.025 0.498 2.827 1.485 0.063-0.55z"/><path fill="#000" d="M7.52 26.005v0.494l-3.296 1.757v-0.586l3.296-1.666z" opacity=".03"/><path fill="#000" d="M10.385 27.437l-2.865-1.433-0.025 0.498 2.827 1.485 0.063-0.55z" opacity=".03"/><path fill="#cccad6" d="M10.385 27.437l-0.007 0.713-2.823 2.35-0.035-0.727 2.865-2.336z"/><path fill="#ffe09c" d="M8.949 27.55s0.070 0.095-0.005 0.155c-0.036 0.029-0.308 0.129-0.583 0.226-0.135 0.048-0.27 0.094-0.378 0.131l-0.224 0.076-0.912 0.16-0.178-0.008-0.008-0.694 0.427-0.647 0.122 0.074 0.021 0.013 1.599 0.49z"/><path fill="#e7c4c3" d="M6.371 28.29s-0.019-0.756 0.22-1.059c0 0 0.194-0.269 0.325-0.355 0 0 0.107-0.104 0.266 0.134 0 0-0.411 0.349-0.441 0.798l-0.030 0.448z"/><path fill="#ff7f8e" d="M7.226 27.628c0.072 0.082 0.053 0.217-0.044 0.302s-0.233 0.088-0.305 0.006c-0.072-0.082-0.053-0.217 0.044-0.302s0.233-0.088 0.305-0.006z"/><path fill="#ff7f8e" d="M7.912 27.356c0.072 0.082 0.053 0.217-0.044 0.302s-0.233 0.088-0.305 0.006c-0.072-0.082-0.053-0.217 0.044-0.302s0.233-0.088 0.305-0.006z"/><path fill="#ff7f8e" d="M7.538 27.128c0 0.006 0.001 0.013 0.001 0.019 0 0.075-0.034 0.141-0.086 0.186l-0 0c-0.096 0.085-0.233 0.088-0.305 0.006s-0.052-0.216 0.044-0.302q0.010-0.009 0.021-0.017l0.021 0.013z"/><path fill="#ff7f8e" d="M7.645 28.009c0.027 0.031 0.044 0.073 0.044 0.118 0 0.008-0.001 0.017-0.002 0.025l0-0.001-0.434 0.076c-0.001-0.008-0.001-0.017-0.001-0.026 0-0.074 0.034-0.141 0.086-0.185l0-0c0.097-0.085 0.234-0.088 0.306-0.006z"/><path fill="#ff7f8e" d="M8.327 27.751c0.027 0.033 0.044 0.075 0.044 0.121 0 0.021-0.004 0.042-0.010 0.061l0-0.001c-0.135 0.048-0.27 0.094-0.378 0.131l-0.004-0.005c-0.072-0.082-0.052-0.216 0.044-0.302s0.232-0.089 0.304-0.006z"/><path fill="#ff7f8e" d="M8.787 27.511c-0.014 0.022-0.030 0.041-0.049 0.057l-0 0c-0.096 0.085-0.233 0.088-0.305 0.006-0.027-0.033-0.044-0.075-0.044-0.121 0-0.022 0.004-0.043 0.011-0.063l-0 0.001z"/><path fill="#94cc79" d="M6.967 28.076l0.049 0.056c0.034-0.048 0.077-0.088 0.127-0.117l0.002-0.001 0.011-0.004c0.071-0.024-0.049-0.056-0.049-0.056s-0.131 0.079-0.14 0.123z"/><path fill="#94cc79" d="M7.236 27.576l0.049 0.056c0.034-0.048 0.077-0.088 0.127-0.117l0.002-0.001 0.011-0.004c0.071-0.024-0.049-0.056-0.049-0.056s-0.131 0.079-0.14 0.123z"/><path fill="#94cc79" d="M7.473 27.707l0.049 0.056c0.034-0.048 0.077-0.088 0.127-0.117l0.002-0.001 0.011-0.004c0.071-0.024-0.049-0.056-0.049-0.056s-0.131 0.079-0.14 0.123z"/><path fill="#94cc79" d="M7.948 27.79l0.049 0.056c0.034-0.048 0.077-0.088 0.127-0.117l0.002-0.001 0.011-0.004c0.071-0.024-0.049-0.056-0.049-0.056s-0.131 0.081-0.14 0.123z"/><path fill="#94cc79" d="M8.598 27.667l0.049 0.056c0.034-0.048 0.077-0.088 0.127-0.117l0.002-0.001 0.011-0.004c0.071-0.024-0.049-0.056-0.049-0.056s-0.131 0.079-0.14 0.123z"/><path fill="#94cc79" d="M8.025 27.517l0.049 0.056c0.034-0.048 0.077-0.088 0.127-0.117l0.002-0.001 0.011-0.004c0.071-0.024-0.049-0.056-0.049-0.056s-0.131 0.080-0.14 0.123z"/><path fill="#e7c4c3" d="M6.525 28.461s-0.255 0.012-0.153-0.173c0.093-0.040 0.202-0.063 0.317-0.063 0.034 0 0.068 0.002 0.101 0.006l-0.004-0s1.073-0.118 1.2-0.218c0 0 0.942-0.307 0.973-0.363 0 0 0.079 0.005-0.14 0.147s-0.961 0.371-0.961 0.371l-0.794 0.19-0.295 0.009z"/><path fill="#fff" d="M6.525 28.461s-0.255 0.012-0.153-0.173c0.093-0.040 0.202-0.063 0.317-0.063 0.034 0 0.068 0.002 0.101 0.006l-0.004-0s1.073-0.118 1.2-0.218c0 0 0.942-0.307 0.973-0.363 0 0 0.079 0.005-0.14 0.147s-0.961 0.371-0.961 0.371l-0.794 0.19-0.295 0.009z" opacity=".2"/><path fill="#ffe09c" d="M8.692 27.82s0.101 0.061 0.054 0.145c-0.022 0.039-0.237 0.237-0.455 0.429-0.107 0.095-0.215 0.189-0.301 0.264-0.106 0.092-0.179 0.155-0.179 0.155l-0.062 0.039-0.721 0.452-0.168 0.059-0.269-0.64 0.152-0.761 0.165 0.026 1.666-0.147z"/><path fill="#e7c4c3" d="M6.582 29.476s-0.302-0.693-0.197-1.065c0 0 0.079-0.322 0.167-0.452 0 0 0.060-0.137 0.297 0.024 0 0-0.249 0.478-0.108 0.907l0.143 0.425z"/><path fill="#ff7f8e" d="M7.124 28.545c0.098 0.048 0.13 0.181 0.073 0.296s-0.183 0.169-0.28 0.121c-0.098-0.048-0.13-0.181-0.073-0.296s0.183-0.169 0.28-0.121z"/><path fill="#ff7f8e" d="M7.657 28.035c0.098 0.048 0.13 0.181 0.073 0.296s-0.183 0.169-0.28 0.121c-0.098-0.048-0.13-0.181-0.073-0.296s0.183-0.169 0.28-0.121z"/><path fill="#ff7f8e" d="M7.226 27.961c0.016 0.032 0.026 0.069 0.026 0.109 0 0.042-0.010 0.081-0.029 0.115l0.001-0.001c-0.057 0.115-0.182 0.169-0.28 0.121s-0.13-0.181-0.073-0.296q0.006-0.012 0.013-0.023l0.024 0.004z"/><path fill="#ff7f8e" d="M7.656 28.737c0.045 0.024 0.079 0.065 0.092 0.114l0 0.001-0.371 0.233c-0.018-0.033-0.029-0.072-0.029-0.114s0.011-0.081 0.029-0.115l-0.001 0.001c0.058-0.114 0.182-0.168 0.279-0.12z"/><path fill="#ff7f8e" d="M8.191 28.239c0.057 0.030 0.096 0.088 0.1 0.154l0 0.001c-0.107 0.095-0.215 0.189-0.301 0.264l-0.006-0.003c-0.097-0.049-0.13-0.181-0.073-0.296s0.182-0.169 0.279-0.121z"/><path fill="#ff7f8e" d="M8.527 27.845c-0.005 0.027-0.013 0.051-0.025 0.073l0.001-0.002c-0.057 0.115-0.182 0.169-0.28 0.121-0.057-0.031-0.097-0.089-0.1-0.157l-0-0z"/><path fill="#94cc79" d="M7.053 29.052l0.067 0.033c0.014-0.060 0.040-0.113 0.075-0.159l-0.001 0.001 0.008-0.008c0.056-0.049-0.067-0.033-0.067-0.033s-0.091 0.124-0.083 0.166z"/><path fill="#94cc79" d="M7.114 28.489l0.067 0.033c0.014-0.060 0.040-0.113 0.075-0.159l-0.001 0.001 0.008-0.008c0.056-0.049-0.067-0.033-0.067-0.033s-0.091 0.123-0.083 0.166z"/><path fill="#94cc79" d="M7.383 28.522l0.067 0.033c0.014-0.060 0.040-0.113 0.075-0.159l-0.001 0.001 0.008-0.008c0.056-0.049-0.067-0.033-0.067-0.033s-0.091 0.122-0.083 0.166z"/><path fill="#94cc79" d="M7.855 28.421l0.067 0.033c0.014-0.060 0.040-0.113 0.075-0.159l-0.001 0.001 0.008-0.008c0.056-0.049-0.067-0.033-0.067-0.033s-0.091 0.122-0.083 0.166z"/><path fill="#94cc79" d="M8.41 28.061l0.067 0.033c0.014-0.060 0.040-0.113 0.075-0.159l-0.001 0.001 0.008-0.008c0.056-0.049-0.067-0.033-0.067-0.033s-0.091 0.122-0.083 0.166z"/><path fill="#94cc79" d="M7.823 28.138l0.067 0.033c0.014-0.060 0.040-0.113 0.075-0.159l-0.001 0.001 0.008-0.008c0.056-0.049-0.067-0.033-0.067-0.033s-0.091 0.122-0.083 0.166z"/><path fill="#e7c4c3" d="M6.789 29.578s-0.231 0.107-0.207-0.103c0.098-0.097 0.219-0.169 0.355-0.208l0.006-0.001s0.949-0.515 1.030-0.654c0 0 0.757-0.639 0.765-0.702 0 0 0.076-0.026-0.074 0.189s-0.749 0.705-0.749 0.705l-0.664 0.473-0.269 0.118z"/><path fill="#fff" d="M6.789 29.578s-0.231 0.107-0.207-0.103c0.098-0.097 0.219-0.169 0.355-0.208l0.006-0.001s0.949-0.515 1.030-0.654c0 0 0.757-0.639 0.765-0.702 0 0 0.076-0.026-0.074 0.189s-0.749 0.705-0.749 0.705l-0.664 0.473-0.269 0.118z" opacity=".2"/><path fill="#cccad6" d="M7.52 29.773l-3.296-2.103v0.578l3.331 2.251-0.035-0.727z"/><path fill="#cccad6" d="M3.872 27.875l0.353-0.204-2.11-3.917-0.247 0.24 2.004 3.881z"/></svg>