<svg xmlns="http://www.w3.org/2000/svg" width="32" height="32" version="1.1" viewBox="0 0 32 32"><title>default</title><path fill="#fff" d="M4.038 16.708v0q0.099 0 0.162-0.006v0 0.042q-0.052 0.021-0.102 0.079v0 0q-0.049 0.060-0.084 0.169v0l-0.368 1.197q-0.022-0.003-0.073-0.003v0 0q-0.051 0-0.073 0.003v0l-0.308-0.935-0.31 0.935q-0.022-0.003-0.073-0.003v0 0q-0.051 0-0.073 0.003v0l-0.47-1.313q-0.024-0.069-0.060-0.1v0 0q-0.036-0.031-0.072-0.033v0-0.042q0.126 0.006 0.313 0.006v0 0q0.175 0 0.257-0.006v0 0.042q-0.073 0.010-0.073 0.081v0 0q0 0.034 0.019 0.094v0l0.305 0.886 0.211-0.624-0.106-0.325q-0.021-0.060-0.049-0.084v0 0q-0.028-0.025-0.066-0.028v0-0.042q0.117 0.006 0.299 0.006v0 0q0.205 0 0.302-0.006v0 0.042q-0.076 0.002-0.109 0.016v0 0q-0.033 0.016-0.033 0.060v0 0q0 0.039 0.021 0.099v0l0.286 0.875 0.199-0.632q0.049-0.157 0.049-0.244v0 0q0-0.090-0.046-0.13v0 0q-0.045-0.042-0.135-0.045v0-0.042q0.142 0.006 0.26 0.006v0zM4.514 18.2v0q-0.135 0-0.201-0.070v0 0q-0.066-0.069-0.066-0.181v0 0q0-0.094 0.049-0.157v0 0q0.049-0.061 0.118-0.094v0 0q0.070-0.034 0.18-0.072v0 0q0.115-0.040 0.169-0.072v0 0q0.054-0.033 0.054-0.090v0-0.163q0-0.088-0.042-0.138v0 0q-0.040-0.049-0.126-0.049v0 0q-0.102 0-0.154 0.051v0 0q0.060 0.021 0.091 0.063v0 0q0.033 0.042 0.033 0.099v0 0q0 0.070-0.048 0.112v0 0q-0.048 0.042-0.118 0.042v0 0q-0.073 0-0.112-0.045v0 0q-0.040-0.046-0.040-0.115v0 0q0-0.060 0.028-0.1v0 0q0.028-0.040 0.087-0.076v0 0q0.057-0.033 0.139-0.052v0 0q0.084-0.019 0.181-0.019v0 0q0.103 0 0.178 0.021v0 0q0.076 0.021 0.126 0.072v0 0q0.046 0.046 0.063 0.114v0 0q0.015 0.066 0.015 0.181v0 0.57q0 0.051 0.009 0.072v0 0q0.010 0.021 0.037 0.021v0 0q0.031 0 0.075-0.036v0l0.021 0.036q-0.094 0.078-0.23 0.078v0 0q-0.115 0-0.16-0.046v0 0q-0.046-0.046-0.049-0.124v0 0q-0.105 0.171-0.307 0.171v0zM4.675 18.065v0q0.082 0 0.144-0.085v0-0.43q-0.025 0.042-0.108 0.091v0 0q-0.081 0.052-0.123 0.105v0 0q-0.042 0.052-0.042 0.151v0 0q0 0.085 0.034 0.127v0 0q0.036 0.040 0.094 0.040v0zM6.186 17.107v0q0.105 0 0.162-0.006v0 0.042q-0.045 0.012-0.079 0.054v0 0q-0.034 0.040-0.066 0.126v0l-0.376 1.055q-0.042 0.108-0.091 0.148v0 0q-0.061 0.052-0.183 0.052v0 0q-0.088 0-0.159-0.043v0 0q-0.070-0.042-0.070-0.124v0 0q0-0.064 0.046-0.103v0 0q0.046-0.039 0.121-0.039v0 0q0.072 0 0.115 0.034v0 0q0.042 0.034 0.042 0.097v0 0q0 0.043-0.027 0.081v0 0q-0.027 0.036-0.078 0.055v0 0q0.015 0.002 0.049 0.002v0 0q0.129 0 0.19-0.165v0l0.033-0.1-0.443-1.010q-0.034-0.072-0.066-0.094v0 0q-0.031-0.024-0.064-0.024v0-0.043q0.138 0.012 0.287 0.012v0 0q0.123 0 0.29-0.012v0 0.043q-0.067 0-0.099 0.010v0 0q-0.033 0.009-0.033 0.049v0 0q0 0.022 0.015 0.058v0l0.256 0.618 0.144-0.403q0.034-0.099 0.034-0.168v0 0q0-0.153-0.156-0.168v0-0.042q0.099 0.006 0.204 0.006v0zM7.189 17.071v0q0.16 0 0.23 0.082v0 0q0.036 0.040 0.051 0.103v0 0q0.015 0.063 0.015 0.169v0 0.564q0 0.085 0.030 0.118v0 0q0.030 0.031 0.103 0.031v0 0.045q-0.21-0.009-0.275-0.009v0 0q-0.063 0-0.272 0.009v0-0.045q0.063 0 0.087-0.031v0 0q0.025-0.033 0.025-0.118v0-0.652q0-0.085-0.028-0.13v0 0q-0.028-0.043-0.102-0.043v0 0q-0.085 0-0.147 0.070v0 0q-0.060 0.070-0.060 0.172v0 0.584q0 0.085 0.025 0.118v0 0q0.024 0.031 0.087 0.031v0 0.045q-0.192-0.009-0.259-0.009v0 0q-0.063 0-0.289 0.009v0-0.045q0.075 0 0.105-0.031v0 0q0.028-0.033 0.028-0.118v0-0.66q0-0.097-0.028-0.141v0 0q-0.030-0.045-0.105-0.045v0-0.043q0.066 0.006 0.129 0.006v0 0q0.187 0 0.307-0.028v0 0.189q0.094-0.196 0.343-0.196v0zM8.313 18.043v0q0.172 0 0.277-0.168v0l0.037 0.012q-0.042 0.136-0.15 0.232v0 0q-0.108 0.094-0.269 0.094v0 0q-0.223 0-0.353-0.141v0 0q-0.132-0.142-0.132-0.418v0 0q0-0.283 0.141-0.434v0 0q0.141-0.15 0.373-0.15v0 0q0.395 0 0.395 0.465v0h-0.59q-0.002 0.031-0.002 0.099v0 0q0 0.138 0.039 0.23v0 0q0.039 0.093 0.1 0.135v0 0q0.061 0.042 0.133 0.042v0zM8.224 17.116v0q-0.075 0-0.124 0.093v0 0q-0.049 0.093-0.063 0.289v0h0.329q0.005-0.166-0.031-0.274v0 0q-0.037-0.108-0.111-0.108v0zM10.797 16.743v0q-0.070 0.003-0.102 0.016v0 0q-0.031 0.012-0.043 0.048v0 0q-0.012 0.036-0.012 0.115v0 1.039q0 0.081 0.012 0.115v0 0q0.012 0.036 0.043 0.049v0 0q0.031 0.012 0.102 0.016v0 0.042q-0.102-0.006-0.319-0.006v0 0q-0.211 0-0.328 0.006v0-0.042q0.069-0.005 0.1-0.016v0 0q0.033-0.013 0.045-0.049v0 0q0.012-0.034 0.012-0.115v0-0.503h-0.555v0.503q0 0.081 0.010 0.115v0 0q0.012 0.036 0.043 0.049v0 0q0.031 0.012 0.103 0.016v0 0.042q-0.114-0.006-0.317-0.006v0 0q-0.225 0-0.331 0.006v0-0.042q0.069-0.005 0.102-0.016v0 0q0.033-0.013 0.043-0.049v0 0q0.012-0.034 0.012-0.115v0-1.039q0-0.079-0.012-0.115v0 0q-0.010-0.036-0.043-0.048v0 0q-0.033-0.013-0.102-0.016v0-0.042q0.106 0.006 0.331 0.006v0 0q0.204 0 0.317-0.006v0 0.042q-0.072 0.003-0.103 0.016v0 0q-0.031 0.012-0.043 0.048v0 0q-0.010 0.036-0.010 0.115v0 0.494h0.555v-0.494q0-0.079-0.012-0.115v0 0q-0.012-0.036-0.045-0.048v0 0q-0.031-0.013-0.1-0.016v0-0.042q0.117 0.006 0.328 0.006v0 0q0.217 0 0.319-0.006v0 0.042zM11.457 17.071v0q0.241 0 0.377 0.138v0 0q0.136 0.138 0.136 0.436v0 0q0 0.296-0.136 0.433v0 0q-0.136 0.136-0.377 0.136v0 0q-0.238 0-0.376-0.136v0 0q-0.138-0.136-0.138-0.433v0 0q0-0.298 0.138-0.436v0 0q0.138-0.138 0.376-0.138v0zM11.457 17.113v0q-0.090 0-0.144 0.132v0 0q-0.052 0.13-0.052 0.4v0 0q0 0.268 0.052 0.398v0 0q0.054 0.129 0.144 0.129v0 0q0.093 0 0.145-0.129v0 0q0.052-0.129 0.052-0.398v0 0q0-0.271-0.054-0.401v0 0q-0.054-0.13-0.144-0.13v0zM12.526 16.757v0.344h0.247v0.042h-0.247v0.847q0 0.063 0.022 0.088v0 0q0.022 0.027 0.070 0.027v0 0q0.090 0 0.142-0.126v0l0.036 0.018q-0.079 0.215-0.287 0.215v0 0q-0.138 0-0.21-0.070v0 0q-0.043-0.045-0.060-0.111v0 0q-0.015-0.066-0.015-0.181v0-0.708h-0.177v-0.042h0.177v-0.277q0.174 0 0.301-0.067v0zM13.454 18.043v0q0.172 0 0.277-0.168v0l0.037 0.012q-0.042 0.136-0.15 0.232v0 0q-0.108 0.094-0.269 0.094v0 0q-0.222 0-0.353-0.141v0 0q-0.13-0.142-0.13-0.418v0 0q0-0.283 0.141-0.434v0 0q0.141-0.15 0.373-0.15v0 0q0.394 0 0.394 0.465v0h-0.588q-0.003 0.031-0.003 0.099v0 0q0 0.138 0.039 0.23v0 0q0.039 0.093 0.1 0.135v0 0q0.063 0.042 0.133 0.042v0zM13.367 17.116v0q-0.076 0-0.126 0.093v0 0q-0.049 0.093-0.061 0.289v0h0.329q0.005-0.166-0.033-0.274v0 0q-0.036-0.108-0.109-0.108v0zM14.322 16.544v1.446q0 0.085 0.030 0.118v0 0q0.028 0.031 0.105 0.031v0 0.045q-0.219-0.009-0.281-0.009v0 0q-0.072 0-0.289 0.009v0-0.045q0.073 0 0.103-0.031v0 0q0.030-0.033 0.030-0.118v0-1.194q0-0.097-0.030-0.141v0 0q-0.030-0.045-0.103-0.045v0-0.043q0.067 0.006 0.13 0.006v0 0q0.181 0 0.305-0.028v0zM14.961 17.071v0q0.079 0 0.147 0.021v0 0q0.067 0.019 0.103 0.045v0 0q0.021 0.015 0.037 0.015v0 0q0.018 0 0.031-0.021v0 0q0.015-0.019 0.018-0.057v0h0.045q-0.009 0.106-0.009 0.368v0h-0.043q-0.019-0.138-0.084-0.232v0 0q-0.063-0.093-0.184-0.093v0 0q-0.063 0-0.105 0.036v0 0q-0.040 0.036-0.040 0.099v0 0q0 0.070 0.048 0.123v0 0q0.048 0.051 0.151 0.124v0l0.061 0.043q0.127 0.097 0.189 0.172v0 0q0.060 0.076 0.060 0.189v0 0q0 0.093-0.054 0.163v0 0q-0.052 0.072-0.142 0.109v0 0q-0.091 0.037-0.199 0.037v0 0q-0.115 0-0.198-0.043v0 0q-0.067-0.033-0.096-0.043v0 0q-0.021-0.007-0.037 0.013v0 0q-0.015 0.019-0.024 0.060v0h-0.043q0.007-0.12 0.007-0.419v0h0.045q0.042 0.385 0.283 0.385v0 0q0.060 0 0.103-0.036v0 0q0.043-0.037 0.043-0.112v0 0q0-0.058-0.027-0.105v0 0q-0.025-0.046-0.066-0.082v0 0q-0.040-0.036-0.12-0.099v0 0q-0.094-0.075-0.144-0.121v0 0q-0.049-0.046-0.084-0.109v0 0q-0.034-0.063-0.034-0.139v0 0q0-0.135 0.105-0.213v0 0q0.105-0.078 0.256-0.078v0zM17.8 16.966v0q0 0.156-0.108 0.242v0 0q-0.108 0.087-0.317 0.132v0l-0.037 0.012q0.094 0.042 0.144 0.135v0 0q0.051 0.091 0.051 0.213v0 0q0 0.147-0.090 0.263v0 0q-0.091 0.117-0.256 0.184v0 0q-0.163 0.066-0.377 0.066v0 0q-0.23 0-0.406-0.063v0 0q-0.175-0.063-0.271-0.181v0 0q-0.094-0.118-0.094-0.277v0 0q0-0.142 0.075-0.241v0 0q0.075-0.097 0.171-0.147v0 0q0.096-0.051 0.18-0.072v0 0q-0.236-0.094-0.236-0.263v0 0q0-0.129 0.123-0.201v0 0q0.124-0.072 0.293-0.072v0 0q0.078 0 0.129 0.010v0 0q0.049 0.010 0.090 0.033v0 0q0.057 0.027 0.091 0.069v0 0q0.036 0.042 0.036 0.102v0 0q0 0.060-0.046 0.099v0 0q-0.048 0.039-0.115 0.039v0 0q-0.066 0-0.109-0.033v0 0q-0.043-0.034-0.043-0.097v0 0q0-0.052 0.037-0.096v0 0q0.039-0.042 0.097-0.052v0 0q-0.019-0.016-0.057-0.027v0 0q-0.037-0.010-0.082-0.010v0 0q-0.115 0-0.189 0.070v0 0q-0.073 0.072-0.073 0.204v0 0q0 0.121 0.082 0.214v0 0q0.078-0.016 0.117-0.016v0 0q0.039 0 0.058 0.015v0 0q0.019 0.016 0.019 0.040v0 0q0 0.021-0.016 0.033v0 0q-0.016 0.012-0.042 0.012v0 0q-0.031 0-0.061-0.015v0 0q-0.028-0.015-0.073-0.040v0 0q-0.106 0.055-0.165 0.136v0 0q-0.057 0.081-0.057 0.204v0 0q0 0.204 0.162 0.305v0 0q0.163 0.102 0.45 0.102v0 0q0.144 0 0.277-0.043v0 0q0.133-0.043 0.215-0.126v0 0q0.084-0.082 0.084-0.196v0 0q0-0.193-0.16-0.266v0l-0.133 0.039q-0.118 0.033-0.118 0.033v0 0q-0.175 0.040-0.257 0.084v0 0q-0.081 0.043-0.081 0.12v0 0q0 0.075 0.069 0.123v0 0q0.070 0.046 0.157 0.046v0 0q0.022 0 0.049-0.006v0 0q0.025-0.006 0.034-0.015v0 0q-0.051-0.016-0.078-0.052v0 0q-0.027-0.036-0.027-0.085v0 0q0-0.066 0.046-0.102v0 0q0.048-0.037 0.121-0.037v0 0q0.075 0 0.118 0.039v0 0q0.043 0.039 0.043 0.105v0 0q0 0.094-0.084 0.142v0 0q-0.084 0.048-0.214 0.048v0 0q-0.135 0-0.223-0.069v0 0q-0.090-0.069-0.090-0.199v0 0q0-0.157 0.12-0.25v0 0q0.12-0.091 0.35-0.136v0l0.090-0.022q0.136-0.031 0.221-0.061v0 0q0.162-0.039 0.239-0.087v0 0q0.078-0.046 0.078-0.12v0 0q0-0.082-0.073-0.136v0 0q-0.072-0.055-0.163-0.055v0 0q-0.040 0-0.061 0.010v0 0q0.048 0.019 0.075 0.055v0 0q0.028 0.037 0.028 0.076v0 0q0 0.063-0.048 0.099v0 0q-0.046 0.036-0.12 0.036v0 0q-0.073 0-0.12-0.037v0 0q-0.045-0.036-0.045-0.1v0 0q0-0.082 0.072-0.13v0 0q0.072-0.046 0.19-0.046v0 0q0.151 0 0.242 0.078v0 0q0.091 0.079 0.091 0.217v0zM19.784 18.066l0.028 0.025q-0.055 0.066-0.121 0.093v0 0q-0.064 0.028-0.157 0.028v0 0q-0.121 0-0.192-0.051v0 0q-0.070-0.051-0.091-0.175v0l-0.037-0.21q-0.027-0.153-0.066-0.224v0 0q-0.039-0.073-0.129-0.073v0h-0.136v0.482q0 0.081 0.010 0.115v0 0q0.012 0.036 0.043 0.049v0 0q0.031 0.012 0.103 0.016v0 0.042q-0.114-0.006-0.317-0.006v0 0q-0.223 0-0.331 0.006v0-0.042q0.069-0.005 0.102-0.016v0 0q0.033-0.013 0.043-0.049v0 0q0.012-0.034 0.012-0.115v0-1.039q0-0.079-0.012-0.115v0 0q-0.010-0.036-0.043-0.048v0 0q-0.033-0.013-0.102-0.016v0-0.042q0.108 0.006 0.319 0.006v0l0.232-0.003q0.042-0.002 0.097-0.002v0 0q0.289 0 0.434 0.094v0 0q0.147 0.094 0.147 0.271v0 0q0 0.148-0.109 0.262v0 0q-0.109 0.112-0.361 0.142v0 0q0.189 0.016 0.281 0.081v0 0q0.091 0.066 0.118 0.196v0l0.049 0.215q0.016 0.084 0.037 0.117v0 0q0.022 0.034 0.063 0.034v0 0q0.025-0.003 0.042-0.013v0 0q0.018-0.010 0.042-0.036v0zM19.013 16.743v0q-0.057 0-0.084 0.013v0 0q-0.025 0.015-0.036 0.052v0 0q-0.010 0.039-0.010 0.114v0 0.515h0.090q0.172 0 0.235-0.091v0 0q0.064-0.090 0.064-0.256v0 0q0-0.172-0.060-0.26v0 0q-0.061-0.087-0.199-0.087v0zM20.438 18.043v0q0.171 0 0.275-0.168v0l0.039 0.012q-0.042 0.136-0.151 0.232v0 0q-0.108 0.094-0.268 0.094v0 0q-0.223 0-0.353-0.141v0 0q-0.132-0.142-0.132-0.418v0 0q0-0.283 0.141-0.434v0 0q0.141-0.15 0.373-0.15v0 0q0.394 0 0.394 0.465v0h-0.588q-0.002 0.031-0.002 0.099v0 0q0 0.138 0.039 0.23v0 0q0.037 0.093 0.1 0.135v0 0q0.061 0.042 0.133 0.042v0zM20.35 17.116v0q-0.076 0-0.124 0.093v0 0q-0.049 0.093-0.063 0.289v0h0.329q0.005-0.166-0.033-0.274v0 0q-0.036-0.108-0.109-0.108v0zM21.293 17.071v0q0.079 0 0.147 0.021v0 0q0.067 0.019 0.102 0.045v0 0q0.021 0.015 0.039 0.015v0 0q0.018 0 0.031-0.021v0 0q0.013-0.019 0.018-0.057v0h0.045q-0.009 0.106-0.009 0.368v0h-0.043q-0.019-0.138-0.084-0.232v0 0q-0.063-0.093-0.186-0.093v0 0q-0.063 0-0.103 0.036v0 0q-0.040 0.036-0.040 0.099v0 0q0 0.070 0.048 0.123v0 0q0.048 0.051 0.151 0.124v0l0.060 0.043q0.129 0.097 0.189 0.172v0 0q0.061 0.076 0.061 0.189v0 0q0 0.093-0.054 0.163v0 0q-0.052 0.072-0.144 0.109v0 0q-0.090 0.037-0.199 0.037v0 0q-0.115 0-0.196-0.043v0 0q-0.067-0.033-0.097-0.043v0 0q-0.021-0.007-0.036 0.013v0 0q-0.016 0.019-0.024 0.060v0h-0.045q0.009-0.12 0.009-0.419v0h0.043q0.042 0.385 0.283 0.385v0 0q0.061 0 0.105-0.036v0 0q0.042-0.037 0.042-0.112v0 0q0-0.058-0.025-0.105v0 0q-0.027-0.046-0.066-0.082v0 0q-0.040-0.036-0.12-0.099v0 0q-0.094-0.075-0.144-0.121v0 0q-0.049-0.046-0.084-0.109v0 0q-0.034-0.063-0.034-0.139v0 0q0-0.135 0.105-0.213v0 0q0.105-0.078 0.256-0.078v0zM22.271 16.757v0.344h0.247v0.042h-0.247v0.847q0 0.063 0.021 0.088v0 0q0.022 0.027 0.070 0.027v0 0q0.090 0 0.142-0.126v0l0.036 0.018q-0.079 0.215-0.287 0.215v0 0q-0.138 0-0.21-0.070v0 0q-0.043-0.045-0.060-0.111v0 0q-0.015-0.066-0.015-0.181v0-0.708h-0.177v-0.042h0.177v-0.277q0.174 0 0.302-0.067v0zM22.86 18.2v0q-0.135 0-0.201-0.070v0 0q-0.066-0.069-0.066-0.181v0 0q0-0.094 0.049-0.157v0 0q0.049-0.061 0.12-0.094v0 0q0.070-0.034 0.18-0.072v0 0q0.115-0.040 0.168-0.072v0 0q0.054-0.033 0.054-0.090v0-0.163q0-0.088-0.040-0.138v0 0q-0.042-0.049-0.127-0.049v0 0q-0.1 0-0.153 0.051v0 0q0.058 0.021 0.091 0.063v0 0q0.031 0.042 0.031 0.099v0 0q0 0.070-0.048 0.112v0 0q-0.048 0.042-0.117 0.042v0 0q-0.073 0-0.114-0.045v0 0q-0.039-0.046-0.039-0.115v0 0q0-0.060 0.027-0.1v0 0q0.028-0.040 0.088-0.076v0 0q0.055-0.033 0.139-0.052v0 0q0.082-0.019 0.181-0.019v0 0q0.102 0 0.178 0.021v0 0q0.075 0.021 0.126 0.072v0 0q0.046 0.046 0.061 0.114v0 0q0.016 0.066 0.016 0.181v0 0.57q0 0.051 0.009 0.072v0 0q0.009 0.021 0.036 0.021v0 0q0.031 0 0.076-0.036v0l0.021 0.036q-0.094 0.078-0.23 0.078v0 0q-0.115 0-0.162-0.046v0 0q-0.046-0.046-0.048-0.124v0 0q-0.105 0.171-0.308 0.171v0zM23.021 18.065v0q0.081 0 0.142-0.085v0-0.43q-0.025 0.042-0.106 0.091v0 0q-0.082 0.052-0.124 0.105v0 0q-0.042 0.052-0.042 0.151v0 0q0 0.085 0.036 0.127v0 0q0.036 0.040 0.094 0.040v0zM24.712 17.079v0.877q0 0.097 0.030 0.141v0 0q0.030 0.043 0.103 0.043v0 0.045q-0.064-0.006-0.13-0.006v0 0q-0.181 0-0.305 0.028v0-0.189q-0.096 0.195-0.337 0.195v0 0q-0.157 0-0.229-0.081v0 0q-0.033-0.040-0.049-0.103v0 0q-0.015-0.064-0.015-0.169v0-0.53q0-0.097-0.031-0.141v0 0q-0.030-0.045-0.103-0.045v0-0.043q0.064 0.006 0.13 0.006v0 0q0.183 0 0.305-0.028v0 0.867q0 0.088 0.027 0.132v0 0q0.025 0.045 0.099 0.045v0 0q0.084 0 0.144-0.070v0 0q0.060-0.070 0.060-0.174v0-0.548q0-0.097-0.030-0.141v0 0q-0.031-0.045-0.105-0.045v0-0.043q0.067 0.006 0.13 0.006v0 0q0.183 0 0.307-0.028v0zM25.658 17.071v0q0.094 0 0.144 0.057v0 0q0.048 0.057 0.048 0.136v0 0q0 0.078-0.045 0.127v0 0q-0.045 0.049-0.118 0.049v0 0q-0.072 0-0.114-0.037v0 0q-0.042-0.036-0.042-0.097v0 0q0-0.1 0.093-0.163v0 0q-0.009-0.002-0.025-0.002v0 0q-0.021 0-0.034 0.003v0 0q-0.079 0.013-0.135 0.097v0 0q-0.055 0.084-0.055 0.172v0 0.555q0 0.096 0.048 0.133v0 0q0.046 0.037 0.15 0.037v0 0.045q-0.030 0-0.049-0.003v0 0q-0.213-0.006-0.284-0.006v0 0q-0.057 0-0.257 0.006v0 0q-0.016 0.003-0.042 0.003v0-0.045q0.075 0 0.105-0.031v0 0q0.028-0.033 0.028-0.118v0-0.66q0-0.097-0.028-0.141v0 0q-0.030-0.045-0.105-0.045v0-0.043q0.067 0.006 0.13 0.006v0 0q0.186 0 0.305-0.028v0 0.195q0.040-0.090 0.115-0.145v0 0q0.075-0.057 0.169-0.057v0zM26.193 18.2v0q-0.133 0-0.199-0.070v0 0q-0.066-0.069-0.066-0.181v0 0q0-0.094 0.049-0.157v0 0q0.048-0.061 0.118-0.094v0 0q0.070-0.034 0.18-0.072v0 0q0.115-0.040 0.169-0.072v0 0q0.052-0.033 0.052-0.090v0-0.163q0-0.088-0.040-0.138v0 0q-0.040-0.049-0.127-0.049v0 0q-0.1 0-0.153 0.051v0 0q0.058 0.021 0.091 0.063v0 0q0.033 0.042 0.033 0.099v0 0q0 0.070-0.048 0.112v0 0q-0.049 0.042-0.118 0.042v0 0q-0.073 0-0.112-0.045v0 0q-0.040-0.046-0.040-0.115v0 0q0-0.060 0.028-0.1v0 0q0.028-0.040 0.087-0.076v0 0q0.057-0.033 0.139-0.052v0 0q0.082-0.019 0.181-0.019v0 0q0.103 0 0.178 0.021v0 0q0.076 0.021 0.126 0.072v0 0q0.046 0.046 0.063 0.114v0 0q0.015 0.066 0.015 0.181v0 0.57q0 0.051 0.009 0.072v0 0q0.010 0.021 0.037 0.021v0 0q0.031 0 0.075-0.036v0l0.021 0.036q-0.094 0.078-0.23 0.078v0 0q-0.115 0-0.162-0.046v0 0q-0.045-0.046-0.048-0.124v0 0q-0.105 0.171-0.308 0.171v0zM26.354 18.065v0q0.082 0 0.142-0.085v0-0.43q-0.024 0.042-0.106 0.091v0 0q-0.082 0.052-0.124 0.105v0 0q-0.042 0.052-0.042 0.151v0 0q0 0.085 0.036 0.127v0 0q0.036 0.040 0.094 0.040v0zM27.782 17.071v0q0.159 0 0.23 0.082v0 0q0.034 0.040 0.049 0.103v0 0q0.015 0.063 0.015 0.169v0 0.564q0 0.085 0.030 0.118v0 0q0.031 0.031 0.105 0.031v0 0.045q-0.21-0.009-0.277-0.009v0 0q-0.063 0-0.272 0.009v0-0.045q0.063 0 0.088-0.031v0 0q0.024-0.033 0.024-0.118v0-0.652q0-0.085-0.027-0.13v0 0q-0.028-0.043-0.102-0.043v0 0q-0.087 0-0.147 0.070v0 0q-0.061 0.070-0.061 0.172v0 0.584q0 0.085 0.025 0.118v0 0q0.025 0.031 0.088 0.031v0 0.045q-0.193-0.009-0.26-0.009v0 0q-0.063 0-0.289 0.009v0-0.045q0.075 0 0.105-0.031v0 0q0.028-0.033 0.028-0.118v0-0.66q0-0.097-0.028-0.141v0 0q-0.030-0.045-0.105-0.045v0-0.043q0.067 0.006 0.13 0.006v0 0q0.186 0 0.305-0.028v0 0.189q0.094-0.196 0.344-0.196v0zM28.714 16.757v0.344h0.247v0.042h-0.247v0.847q0 0.063 0.021 0.088v0 0q0.022 0.027 0.070 0.027v0 0q0.090 0 0.142-0.126v0l0.036 0.018q-0.079 0.215-0.287 0.215v0 0q-0.138 0-0.21-0.070v0 0q-0.043-0.045-0.058-0.111v0 0q-0.016-0.066-0.016-0.181v0-0.708h-0.177v-0.042h0.177v-0.277q0.174 0 0.302-0.067v0zM29.44 17.071v0q0.081 0 0.147 0.021v0 0q0.067 0.019 0.103 0.045v0 0q0.021 0.015 0.037 0.015v0 0q0.019 0 0.033-0.021v0 0q0.013-0.019 0.018-0.057v0h0.043q-0.007 0.106-0.007 0.368v0h-0.045q-0.018-0.138-0.082-0.232v0 0q-0.064-0.093-0.186-0.093v0 0q-0.063 0-0.103 0.036v0 0q-0.042 0.036-0.042 0.099v0 0q0 0.070 0.049 0.123v0 0q0.048 0.051 0.15 0.124v0l0.061 0.043q0.127 0.097 0.189 0.172v0 0q0.061 0.076 0.061 0.189v0 0q0 0.093-0.054 0.163v0 0q-0.054 0.072-0.144 0.109v0 0q-0.090 0.037-0.199 0.037v0 0q-0.115 0-0.198-0.043v0 0q-0.066-0.033-0.096-0.043v0 0q-0.021-0.007-0.036 0.013v0 0q-0.016 0.019-0.025 0.060v0h-0.043q0.009-0.12 0.009-0.419v0h0.043q0.042 0.385 0.283 0.385v0 0q0.061 0 0.103-0.036v0 0q0.043-0.037 0.043-0.112v0 0q0-0.058-0.025-0.105v0 0q-0.027-0.046-0.067-0.082v0 0q-0.039-0.036-0.118-0.099v0 0q-0.094-0.075-0.144-0.121v0 0q-0.049-0.046-0.084-0.109v0 0q-0.034-0.063-0.034-0.139v0 0q0-0.135 0.105-0.213v0 0q0.105-0.078 0.254-0.078v0z"/><path fill="#fff" d="M17.253 11.774l-0.285 0.292h-2.066v2.175h2.066l0.285 0.292h-2.632v-2.759h2.632zM17.471 11.682h-2.943v2.943h2.943l-0.465-0.476h-2.013v-1.991h2.013l0.465-0.476z"/><path fill="#fff" d="M16.463 12.69v0.927h-0.927v-0.927h0.927zM16.555 12.598h-1.11v1.11h1.11v-1.11z"/><path fill="#fff" d="M5.6 20.293v0 0q0-0.013 0.014-0.017v0 0q0.029-0.011 0.050-0.048v0 0q0.022-0.037 0.108-0.225v0 0q0.088-0.191 0.156-0.336v0 0q0.006-0.014 0.012-0.017v0 0q0.005-0.004 0.016-0.004v0 0q0.008 0 0.011 0.004v0 0q0.003 0.004 0.012 0.030v0 0q0.006 0.015 0.010 0.026v0 0q0.004 0.011 0.013 0.035v0 0q0.009 0.025 0.020 0.051v0 0q0.029 0.071 0.1 0.236v0 0q0.071 0.165 0.077 0.178v0 0q0.016 0.031 0.035 0.047v0 0q0.019 0.015 0.033 0.017v0 0q0.014 0.001 0.023 0.005v0 0q0.010 0.003 0.010 0.014v0 0q0 0.014-0.025 0.014v0 0q-0.010 0-0.039-0.003v0 0q-0.029-0.003-0.043-0.003v0 0q-0.017 0-0.045 0.002v0 0q-0.027 0.002-0.039 0.002v0 0q-0.028 0-0.036-0.003v0 0q-0.007-0.002-0.007-0.010v0 0q0-0.006 0.007-0.010v0 0q0.007-0.004 0.016-0.005v0 0q0.008-0.001 0.015-0.008v0 0q0.008-0.006 0.008-0.018v0 0q0-0.020-0.023-0.081v0 0q-0.023-0.062-0.038-0.090v0 0q-0.008-0.015-0.037-0.015v0 0q-0.005 0-0.039 0.001v0 0q-0.036 0.001-0.070 0.001v0h-0.048q-0.041 0-0.051 0.005v0 0q-0.010 0.005-0.019 0.021v0 0q-0.005 0.012-0.018 0.037v0 0q-0.013 0.026-0.017 0.036v0 0q-0.005 0.010-0.011 0.025v0 0q-0.007 0.016-0.009 0.026v0 0q-0.003 0.009-0.003 0.017v0 0q0 0.021 0.011 0.032v0 0q0.010 0.010 0.023 0.012v0 0q0.013 0.002 0.023 0.005v0 0q0.010 0.004 0.010 0.013v0 0q0 0.006-0.003 0.009v0 0q-0.003 0.003-0.013 0.003v0 0q-0.005 0-0.031 0v0 0q-0.026-0.001-0.044-0.001v0 0q-0.020 0-0.045 0.002v0 0q-0.025 0.002-0.033 0.002v0 0q-0.027 0-0.027-0.011zM5.827 19.994v0 0q0 0.012 0.008 0.014v0 0q0.008 0.003 0.038 0.003v0h0.028l0.086-0.001q0.036 0 0.036-0.014v0 0q0-0.012-0.045-0.112v0 0q-0.044-0.1-0.056-0.1v0 0q-0.008 0-0.051 0.1v0 0q-0.044 0.099-0.044 0.11zM7.432 19.671v0 0q0-0.014 0.016-0.014v0 0q0.006 0 0.025 0.002v0 0q0.019 0.002 0.023 0.002v0 0q0.014 0 0.037-0.001v0 0q0.023-0.001 0.030-0.001v0 0q0.017 0 0.022 0.012v0 0q0.011 0.024 0.039 0.085v0 0q0.028 0.061 0.045 0.098v0 0q0.017 0.036 0.043 0.092v0 0q0.027 0.056 0.043 0.090v0 0q0.016 0.035 0.034 0.070v0 0q0.018 0.035 0.027 0.052v0 0q0.010 0.017 0.012 0.017v0 0q0.003 0 0.006-0.003v0 0q0.003-0.003 0.006-0.008v0 0q0.003-0.005 0.006-0.011v0 0q0.002-0.005 0.006-0.014v0 0q0.005-0.009 0.006-0.014v0l0.117-0.24q0.020-0.041 0.036-0.074v0 0q0.015-0.032 0.024-0.052v0 0q0.009-0.020 0.015-0.034v0 0q0.006-0.014 0.010-0.022v0 0q0.003-0.007 0.005-0.011v0 0q0.001-0.004 0.002-0.006v0 0q0.001-0.002 0.002-0.004v0 0q0.001-0.002 0.003-0.008v0 0q0.003-0.006 0.005-0.008v0 0q0.003-0.003 0.009-0.005v0 0q0.007-0.003 0.017-0.003v0 0q0.017 0 0.032 0.001v0 0q0.015 0.001 0.046 0.001v0 0q0.015 0 0.015 0.012v0 0q0 0.009-0.006 0.013v0 0q-0.006 0.005-0.025 0.007v0 0q-0.023 0.003-0.032 0.023v0 0q-0.009 0.020-0.009 0.076v0 0q0 0.122 0.006 0.222v0 0q0.005 0.099 0.005 0.124v0 0q0 0.090 0.015 0.116v0 0q0.014 0.025 0.060 0.025v0 0q0.006 0 0.012 0.005v0 0q0.005 0.005 0.005 0.008v0 0q0 0.005-0.001 0.008v0 0q-0.001 0.003-0.003 0.005v0 0q-0.003 0.002-0.006 0.002v0 0q-0.003 0-0.010 0v0 0q-0.027 0-0.054-0.002v0 0q-0.026-0.001-0.039-0.001v0 0q-0.025 0-0.052 0.002v0 0q-0.027 0.003-0.042 0.003v0 0q-0.016 0-0.016-0.013v0 0q0-0.008 0.007-0.012v0 0q0.008-0.004 0.017-0.005v0 0q0.010-0.001 0.020-0.012v0 0q0.010-0.010 0.015-0.031v0 0q0.004-0.018 0.004-0.058v0 0q0-0.028-0.001-0.069v0 0q-0.001-0.041-0.003-0.079v0 0q-0.002-0.038-0.004-0.072v0 0q-0.002-0.034-0.003-0.056v0l-0.002-0.022q0-0.039-0.008-0.039v0 0q-0.001 0-0.003 0.001v0 0q-0.001 0.001-0.003 0.003v0 0q-0.002 0.002-0.003 0.003v0 0q-0.002 0.002-0.004 0.006v0 0q-0.002 0.005-0.004 0.007v0 0q-0.001 0.003-0.005 0.008v0 0q-0.003 0.005-0.005 0.008v0 0q-0.001 0.004-0.005 0.010v0 0q-0.003 0.006-0.005 0.010v0l-0.126 0.255q-0.021 0.044-0.046 0.095v0 0q-0.016 0.034-0.020 0.040v0 0q-0.003 0.006-0.009 0.006v0 0q-0.008 0-0.014-0.008v0 0q-0.005-0.008-0.016-0.034v0 0q-0.011-0.026-0.019-0.043v0 0q-0.166-0.337-0.171-0.343v0 0q-0.003-0.004-0.005-0.004v0 0q-0.007 0-0.007 0.036v0 0q-0.001 0.071-0.005 0.14v0 0q-0.004 0.069-0.004 0.099v0 0.041q0 0.023 0.001 0.036v0 0q0.001 0.013 0.008 0.029v0 0q0.006 0.017 0.021 0.026v0 0q0.016 0.009 0.040 0.012v0 0q0.005 0 0.008 0.003v0 0q0.005 0.003 0.005 0.006v0 0q0 0.010-0.003 0.013v0 0q-0.003 0.003-0.010 0.003v0 0q-0.018 0-0.054-0.002v0 0q-0.036-0.001-0.040-0.001v0 0q-0.002 0-0.027 0.001v0 0q-0.024 0.001-0.048 0.001v0 0q-0.007 0-0.010-0.001v0 0q-0.003-0.001-0.006-0.004v0 0q-0.003-0.003-0.003-0.010v0 0q0-0.007 0.008-0.010v0 0q0.008-0.003 0.019-0.003v0 0q0.010-0.001 0.023-0.014v0 0q0.012-0.014 0.019-0.041v0 0q0.005-0.020 0.011-0.158v0 0q0.006-0.137 0.006-0.204v0 0q0-0.090-0.017-0.125v0 0q-0.018-0.034-0.077-0.048v0 0q-0.012-0.003-0.012-0.014zM8.715 20.293v0 0q0-0.013 0.014-0.017v0 0q0.028-0.011 0.050-0.048v0 0q0.022-0.037 0.108-0.225v0 0q0.088-0.191 0.156-0.336v0 0q0.006-0.014 0.011-0.017v0 0q0.005-0.004 0.016-0.004v0 0q0.008 0 0.011 0.004v0 0q0.003 0.004 0.012 0.030v0 0q0.005 0.015 0.010 0.026v0 0q0.004 0.011 0.013 0.035v0 0q0.009 0.025 0.020 0.051v0 0q0.028 0.071 0.1 0.236v0 0q0.071 0.165 0.078 0.178v0 0q0.015 0.031 0.034 0.047v0 0q0.019 0.015 0.033 0.017v0 0q0.014 0.001 0.024 0.005v0 0q0.009 0.003 0.009 0.014v0 0q0 0.014-0.024 0.014v0 0q-0.010 0-0.039-0.003v0 0q-0.028-0.003-0.042-0.003v0 0q-0.017 0-0.045 0.002v0 0q-0.027 0.002-0.040 0.002v0 0q-0.028 0-0.036-0.003v0 0q-0.008-0.002-0.008-0.010v0 0q0-0.006 0.007-0.010v0 0q0.008-0.004 0.015-0.005v0 0q0.008-0.001 0.015-0.008v0 0q0.007-0.006 0.007-0.018v0 0q0-0.020-0.023-0.081v0 0q-0.023-0.062-0.038-0.090v0 0q-0.008-0.015-0.037-0.015v0 0q-0.005 0-0.040 0.001v0 0q-0.035 0.001-0.069 0.001v0h-0.048q-0.041 0-0.051 0.005v0 0q-0.010 0.005-0.018 0.021v0 0q-0.006 0.012-0.018 0.037v0 0q-0.013 0.026-0.017 0.036v0 0q-0.005 0.010-0.011 0.025v0 0q-0.007 0.016-0.009 0.026v0 0q-0.003 0.009-0.003 0.017v0 0q0 0.021 0.010 0.032v0 0q0.010 0.010 0.023 0.012v0 0q0.012 0.002 0.023 0.005v0 0q0.011 0.004 0.011 0.013v0 0q0 0.006-0.003 0.009v0 0q-0.003 0.003-0.012 0.003v0 0q-0.006 0-0.031 0v0 0q-0.026-0.001-0.044-0.001v0 0q-0.020 0-0.045 0.002v0 0q-0.025 0.002-0.033 0.002v0 0q-0.026 0-0.026-0.011zM8.942 19.994v0 0q0 0.012 0.008 0.014v0 0q0.008 0.003 0.037 0.003v0h0.028l0.086-0.001q0.035 0 0.035-0.014v0 0q0-0.012-0.044-0.112v0 0q-0.045-0.1-0.056-0.1v0 0q-0.008 0-0.052 0.1v0 0q-0.043 0.099-0.043 0.11zM9.902 19.671v0 0q0-0.015 0.027-0.015v0h0.15q0.021 0 0.048-0.001v0 0q0.027-0.001 0.042-0.001v0 0q0.081 0 0.14 0.041v0 0q0.058 0.041 0.058 0.11v0 0q0 0.047-0.018 0.081v0 0q-0.017 0.035-0.039 0.050v0 0q-0.021 0.015-0.039 0.026v0 0q-0.017 0.012-0.017 0.015v0 0q0 0.010 0.076 0.117v0 0q0.076 0.106 0.104 0.136v0 0q0.034 0.042 0.083 0.042v0 0q0.013 0 0.013 0.011v0 0q0 0.014-0.011 0.018v0 0q-0.011 0.005-0.056 0.005v0 0q-0.043 0-0.078-0.021v0 0q-0.045-0.026-0.153-0.203v0 0q-0.006-0.010-0.009-0.014v0 0q-0.043-0.070-0.067-0.070v0h-0.074q-0.011 0-0.014 0.009v0 0q-0.002 0.009-0.002 0.055v0 0q0 0.043 0 0.072v0 0q0 0.028 0.001 0.036v0 0q0 0.008 0 0.013v0 0q0 0.005 0 0.008v0 0q0 0.037 0.017 0.057v0 0q0.017 0.021 0.038 0.024v0 0q0.021 0.003 0.039 0.007v0 0q0.017 0.004 0.017 0.013v0 0q0 0.015-0.016 0.015v0 0q-0.001 0-0.062-0.003v0 0q-0.062-0.003-0.067-0.003v0 0q-0.027 0-0.063 0.002v0 0q-0.036 0.002-0.037 0.002v0 0q-0.019 0-0.019-0.015v0 0q0-0.010 0.012-0.014v0 0q0.012-0.004 0.026-0.006v0 0q0.015-0.001 0.027-0.019v0 0q0.012-0.018 0.012-0.052v0 0q0-0.024 0.001-0.127v0 0q0.001-0.103 0.001-0.158v0 0q0-0.056-0.001-0.103v0 0q-0.001-0.047-0.001-0.050v0 0q0-0.034-0.014-0.051v0 0q-0.014-0.017-0.030-0.020v0 0q-0.017-0.002-0.030-0.006v0 0q-0.014-0.003-0.014-0.012zM10.066 19.79v0.026q0 0.093 0.001 0.115v0 0q0.001 0.022 0.006 0.026v0 0q0.014 0.008 0.039 0.008v0h0.036q0.077 0 0.11-0.036v0 0q0.033-0.036 0.033-0.090v0 0q0-0.056-0.044-0.102v0 0q-0.044-0.047-0.132-0.047v0 0q-0.034 0-0.041 0.018v0 0q-0.007 0.017-0.007 0.081v0zM11.004 19.671v0 0q0-0.012 0.025-0.012v0 0q0.009 0 0.041 0.001v0 0q0.033 0.001 0.061 0.001v0 0q0.016 0 0.030-0.001v0 0q0.014-0.001 0.048-0.001v0 0q0.015 0 0.015 0.012v0 0q0 0.004-0.005 0.006v0 0q-0.005 0.003-0.013 0.006v0 0q-0.008 0.003-0.014 0.006v0 0q-0.028 0.017-0.028 0.11v0 0q0 0.049-0.001 0.094v0 0q-0.001 0.045-0.001 0.047v0 0q0 0.019 0.008 0.019v0 0q0.006 0 0.072-0.054v0 0q0.066-0.054 0.131-0.117v0 0q0.065-0.063 0.065-0.083v0 0q0-0.005-0.003-0.010v0 0q-0.003-0.004-0.009-0.006v0 0q-0.006-0.003-0.011-0.004v0 0q-0.005-0.002-0.013-0.003v0 0q-0.008-0.001-0.010-0.002v0 0q-0.010-0.002-0.010-0.013v0 0q0-0.010 0.014-0.010v0 0q0.002 0 0.010 0.001v0 0q0.008 0 0.013 0v0 0q0.002 0 0.021 0.001v0 0q0.019 0.001 0.033 0.001v0l0.112-0.003q0.018 0 0.018 0.012v0 0q0 0.006-0.006 0.010v0 0q-0.005 0.003-0.021 0.008v0 0q-0.015 0.005-0.027 0.009v0 0q-0.005 0.001-0.044 0.027v0 0q-0.008 0.005-0.102 0.084v0 0q-0.068 0.058-0.158 0.133v0l-0.010 0.012q0 0.005 0.010 0.015v0 0q0.043 0.042 0.11 0.109v0 0q0.125 0.125 0.163 0.156v0 0q0.037 0.032 0.070 0.037v0 0q0.027 0.004 0.030 0.011v0 0q0.001 0.002 0.001 0.005v0 0q0 0.008-0.008 0.010v0 0q-0.008 0.002-0.045 0.002v0h-0.087q-0.006 0-0.010-0.001v0 0q-0.003-0.001-0.006-0.003v0 0q-0.003-0.002-0.008-0.008v0 0q-0.005-0.006-0.012-0.014v0 0q-0.006-0.008-0.021-0.023v0 0q-0.014-0.016-0.031-0.033v0 0q-0.192-0.194-0.202-0.203v0 0q-0.010-0.008-0.017-0.008v0 0q-0.013 0-0.013 0.025v0 0.003q0 0.003 0.001 0.008v0 0q0.001 0.005 0.001 0.013v0 0q0 0.007 0 0.019v0 0q0 0.012 0 0.026v0 0q0 0.118 0.014 0.143v0 0q0.017 0.029 0.061 0.029v0 0q0.001 0 0.003 0.001v0 0q0.002 0 0.004 0v0 0q0.006 0 0.012 0.003v0 0q0.006 0.003 0.006 0.007v0 0q0 0.010-0.005 0.013v0 0q-0.005 0.003-0.017 0.003v0 0q-0.027 0-0.050-0.002v0 0q-0.023-0.002-0.036-0.002v0 0q-0.025 0-0.055 0.003v0 0q-0.030 0.002-0.045 0.002v0 0q-0.032 0-0.032-0.010v0-0.004q0-0.006 0.008-0.008v0 0q0.008-0.002 0.021-0.006v0 0q0.013-0.004 0.020-0.011v0 0q0.012-0.012 0.015-0.058v0 0q0.003-0.046 0.003-0.146v0-0.121q0-0.012-0.001-0.045v0 0q-0.001-0.033-0.001-0.053v0-0.041q0-0.047-0.003-0.067v0 0q-0.003-0.021-0.023-0.033v0 0q-0.021-0.012-0.043-0.013v0 0q-0.019-0.001-0.019-0.014zM12.777 19.993v0 0q0-0.152 0.091-0.249v0 0q0.092-0.098 0.259-0.098v0 0q0.078 0 0.14 0.023v0 0q0.062 0.023 0.098 0.056v0 0q0.036 0.033 0.061 0.076v0 0q0.025 0.043 0.034 0.078v0 0q0.009 0.036 0.009 0.067v0 0q0 0.123-0.048 0.207v0 0q-0.048 0.085-0.127 0.123v0 0q-0.078 0.038-0.18 0.038v0 0q-0.107 0-0.186-0.047v0 0q-0.078-0.047-0.114-0.119v0 0q-0.037-0.071-0.037-0.156zM12.857 19.947v0 0q0 0.036 0.010 0.078v0 0q0.010 0.042 0.032 0.087v0 0q0.023 0.045 0.055 0.080v0 0q0.032 0.036 0.081 0.059v0 0q0.049 0.023 0.108 0.023v0 0q0.031 0 0.065-0.010v0 0q0.034-0.010 0.067-0.029v0 0q0.034-0.020 0.060-0.048v0 0q0.026-0.028 0.043-0.070v0 0q0.017-0.041 0.017-0.089v0 0q0-0.163-0.086-0.255v0 0q-0.086-0.091-0.213-0.091v0 0q-0.1 0-0.169 0.067v0 0q-0.070 0.067-0.070 0.197zM13.98 19.669v0 0q0-0.003 0.001-0.005v0 0q0.001-0.003 0.007-0.006v0 0q0.006-0.004 0.015-0.004v0h0.025q0.021 0 0.070 0.003v0 0q0.048 0.003 0.127 0.003v0 0q0.064 0 0.114-0.003v0 0q0.050-0.002 0.091-0.002v0 0q0.015 0 0.015 0.021v0 0q0 0.008-0.002 0.021v0 0q-0.001 0.012-0.005 0.032v0 0q-0.004 0.021-0.005 0.039v0 0q-0.002 0.018-0.014 0.018v0 0q-0.013 0-0.013-0.018v0 0q0-0.059-0.041-0.062v0 0q-0.137-0.011-0.163-0.011v0 0q-0.041 0-0.050 0.010v0 0q-0.010 0.010-0.010 0.041v0 0q0 0.005 0 0.007v0 0q-0.003 0.049-0.003 0.151v0 0q0 0.045 0.016 0.045v0 0q0.005 0 0.012 0.001v0 0q0.008 0.001 0.010 0.001v0 0q0.006 0 0.019-0.001v0 0q0.013-0.001 0.020-0.001v0h0.028q0.054 0 0.072-0.003v0 0q0.017-0.003 0.032-0.013v0 0q0.008-0.005 0.013-0.013v0 0q0.005-0.007 0.006-0.017v0 0q0.002-0.010 0.005-0.015v0 0q0.003-0.005 0.011-0.005v0 0q0.008 0 0.010 0.003v0 0q0.002 0.003 0.002 0.012v0 0q0 0.006-0.005 0.032v0 0q-0.004 0.025-0.004 0.043v0 0q0 0.017 0.003 0.042v0 0q0.003 0.025 0.003 0.032v0 0q0 0.014-0.003 0.018v0 0q-0.003 0.005-0.010 0.005v0 0q-0.015 0-0.019-0.023v0 0q0-0.002-0.001-0.008v0 0q-0.001-0.006-0.001-0.009v0 0q-0.001-0.003-0.003-0.008v0 0q-0.002-0.005-0.004-0.008v0 0q-0.001-0.003-0.005-0.006v0 0q-0.003-0.003-0.007-0.005v0 0q-0.012-0.006-0.045-0.009v0 0q-0.032-0.004-0.043-0.004v0h-0.078q-0.037 0-0.037 0.017v0 0q0 0.026-0.001 0.065v0 0q-0.001 0.039-0.001 0.065v0 0q0 0.006 0 0.019v0 0q-0.001 0.012-0.001 0.017v0 0q0 0.018 0.004 0.036v0 0q0.003 0.018 0.021 0.038v0 0q0.018 0.020 0.048 0.020v0 0q0.027 0 0.027 0.016v0 0q0 0.003-0.002 0.006v0 0q-0.002 0.003-0.008 0.007v0 0q-0.007 0.004-0.017 0.004v0 0q-0.015 0-0.046-0.004v0 0q-0.031-0.004-0.042-0.004v0 0q-0.025 0-0.057 0.003v0 0q-0.031 0.003-0.053 0.003v0 0q-0.018 0-0.018-0.010v0 0q0-0.012 0.005-0.014v0 0q0.004-0.003 0.035-0.014v0 0q0.023-0.008 0.028-0.048v0 0q0.006-0.040 0.006-0.163v0 0q0-0.048 0-0.075v0 0q0-0.025 0.001-0.076v0 0q0.001-0.052 0.001-0.081v0-0.053q0-0.059-0.042-0.079v0 0q-0.006-0.003-0.015-0.004v0 0q-0.009-0.001-0.015-0.001v0 0q-0.006 0-0.010-0.003v0 0q-0.005-0.003-0.005-0.010zM15.577 19.667v0 0q0-0.008 0.008-0.010v0 0q0.008-0.001 0.039-0.001v0h0.079q0.023 0 0.083-0.002v0 0q0.061-0.001 0.094-0.001v0 0q0.062 0 0.125 0.019v0 0q0.062 0.019 0.115 0.055v0 0q0.052 0.036 0.085 0.093v0 0q0.033 0.058 0.033 0.128v0 0q0 0.063-0.009 0.11v0 0q-0.008 0.047-0.028 0.081v0 0q-0.020 0.034-0.039 0.055v0 0q-0.020 0.021-0.054 0.050v0 0q-0.027 0.021-0.079 0.041v0 0q-0.052 0.019-0.106 0.019v0 0q-0.005 0-0.092-0.002v0 0q-0.087-0.003-0.125-0.003v0 0q-0.032 0-0.059 0.003v0 0q-0.027 0.002-0.032 0.002v0 0q-0.022 0-0.022-0.012v0 0q0-0.007 0.003-0.010v0 0q0.003-0.003 0.014-0.006v0 0q0.010-0.003 0.015-0.005v0 0q0.015-0.006 0.027-0.024v0 0q0.012-0.018 0.012-0.035v0 0q0-0.051 0-0.129v0 0q0.001-0.079 0.001-0.116v0 0q0-0.032-0.001-0.101v0 0q0-0.069 0-0.128v0 0q0-0.015-0.015-0.032v0 0q-0.015-0.015-0.033-0.016v0 0q-0.012-0.001-0.018-0.002v0 0q-0.006-0.001-0.012-0.006v0 0q-0.006-0.005-0.006-0.014zM15.738 20.173v0 0q0 0.017 0.001 0.028v0 0q0.001 0.011 0.003 0.020v0 0q0.003 0.009 0.005 0.012v0 0q0.002 0.004 0.011 0.008v0 0q0.009 0.005 0.014 0.006v0 0q0.005 0.001 0.021 0.006v0 0q0.016 0.005 0.027 0.007v0 0q0.032 0.009 0.066 0.009v0h0.018q0.061 0 0.105-0.017v0 0q0.043-0.017 0.083-0.056v0 0q0.067-0.064 0.067-0.208v0 0q0-0.072-0.028-0.131v0 0q-0.029-0.059-0.075-0.094v0 0q-0.046-0.035-0.1-0.054v0 0q-0.054-0.018-0.108-0.018v0 0q-0.024 0-0.036 0v0 0q-0.011 0-0.027 0.002v0 0q-0.015 0.003-0.019 0.004v0 0q-0.005 0.001-0.012 0.009v0 0q-0.007 0.008-0.009 0.013v0 0q-0.001 0.006-0.003 0.021v0 0q-0.003 0.016-0.003 0.028v0 0q0 0.012 0 0.038v0 0q0 0.019-0.001 0.093v0 0q-0.001 0.074-0.001 0.080v0 0q0 0.054-0.001 0.118v0 0q-0.001 0.063-0.001 0.076zM16.746 19.671v0 0q0-0.014 0.025-0.014v0 0q0.009 0 0.042 0.002v0 0q0.032 0.002 0.061 0.002v0 0q0.017 0 0.033-0.001v0 0q0.015-0.001 0.047-0.001v0 0q0.025 0 0.025 0.012v0 0q0 0.008-0.042 0.025v0 0q-0.029 0.012-0.029 0.104v0 0q0 0.122-0.001 0.216v0 0q-0.001 0.094-0.001 0.119v0 0q0 0.076 0.023 0.11v0 0q0.020 0.028 0.043 0.028v0 0q0.002 0 0.009 0.001v0 0q0.008 0 0.009 0v0 0q0.006 0 0.013 0.003v0 0q0.006 0.003 0.006 0.007v0 0q0 0.010-0.005 0.013v0 0q-0.005 0.003-0.017 0.003v0 0q-0.027 0-0.050-0.002v0 0q-0.023-0.002-0.036-0.002v0 0q-0.025 0-0.056 0.003v0 0q-0.030 0.002-0.044 0.002v0 0q-0.041 0-0.041-0.014v0 0q0-0.008 0.008-0.011v0 0q0.008-0.003 0.019-0.005v0 0q0.011-0.001 0.023-0.012v0 0q0.012-0.010 0.016-0.030v0 0q0.002-0.006 0.006-0.103v0 0q0.004-0.096 0.004-0.139v0-0.052q0-0.012 0-0.045v0 0q0.001-0.033 0.001-0.053v0-0.041q0-0.040-0.003-0.067v0 0q-0.003-0.021-0.025-0.033v0 0q-0.021-0.012-0.043-0.013v0 0q-0.019-0.001-0.019-0.014zM17.531 20.131v0 0q0-0.019 0.013-0.019v0 0q0.012 0 0.014 0.009v0 0q0.009 0.021 0.017 0.037v0 0q0.008 0.015 0.025 0.039v0 0q0.017 0.023 0.037 0.038v0 0q0.020 0.015 0.051 0.026v0 0q0.031 0.011 0.069 0.011v0 0q0.068 0 0.109-0.036v0 0q0.041-0.036 0.041-0.094v0 0q0-0.042-0.028-0.071v0 0q-0.028-0.028-0.065-0.041v0 0q-0.036-0.012-0.092-0.032v0 0q-0.056-0.020-0.091-0.041v0 0q-0.082-0.048-0.082-0.132v0 0q0-0.081 0.058-0.129v0 0q0.059-0.048 0.152-0.048v0 0q0.034 0 0.082 0.015v0 0q0.047 0.015 0.048 0.015v0 0q0.003 0 0.010-0.003v0 0q0.007-0.004 0.011-0.004v0 0q0.012 0 0.014 0.007v0 0q0.019 0.11 0.019 0.123v0 0q0 0.025-0.013 0.025v0 0q-0.008 0-0.012-0.013v0 0q-0.011-0.026-0.021-0.042v0 0q-0.010-0.017-0.015-0.021v0 0q-0.005-0.005-0.024-0.021v0 0q-0.048-0.043-0.118-0.043v0 0q-0.056 0-0.094 0.027v0 0q-0.037 0.027-0.037 0.073v0 0q0 0.041 0.022 0.067v0 0q0.022 0.026 0.059 0.041v0 0q0.037 0.014 0.078 0.027v0 0q0.041 0.012 0.087 0.035v0 0q0.045 0.023 0.076 0.054v0 0q0.036 0.039 0.036 0.097v0 0q0 0.095-0.061 0.151v0 0q-0.061 0.056-0.151 0.056v0 0q-0.062 0-0.1-0.006v0 0q-0.038-0.007-0.078-0.028v0 0q-0.012-0.007-0.028-0.070v0 0q-0.016-0.063-0.016-0.076zM18.487 19.775v0 0q0-0.036 0.009-0.093v0 0q0-0.002 0-0.006v0 0q0.001-0.005 0.001-0.006v0 0q0.001-0.001 0.001-0.005v0 0q0.001-0.003 0.001-0.005v0 0q0.001-0.001 0.003-0.004v0 0q0.001-0.002 0.003-0.003v0 0q0.002-0.001 0.005-0.001v0 0q0.003-0.001 0.006-0.002v0 0q0.003 0 0.008 0v0 0q0.015 0 0.077 0.003v0 0q0.061 0.004 0.178 0.004v0 0q0.199 0 0.278-0.005v0 0q0.001 0 0.003-0.001v0 0q0.003 0 0.003 0v0 0q0.010 0 0.014 0.005v0 0q0.004 0.005 0.004 0.010v0 0q0 0.006 0.003 0.038v0 0q0.003 0.032 0.003 0.036v0 0q0 0.023-0.003 0.028v0 0q-0.003 0.006-0.012 0.006v0 0q-0.008 0-0.010-0.011v0 0q-0.007-0.026-0.012-0.036v0 0q-0.006-0.010-0.024-0.017v0 0q-0.018-0.007-0.055-0.007v0h-0.118q-0.022 0-0.026 0.008v0 0q-0.005 0.008-0.005 0.049v0 0.045q0 0.121-0.001 0.213v0 0q-0.001 0.092-0.001 0.118v0 0q0 0.013-0.001 0.032v0 0q-0.001 0.019-0.001 0.026v0 0q0 0.039 0.013 0.052v0 0q0.012 0.011 0.026 0.017v0 0q0.015 0.006 0.025 0.007v0 0q0.010 0.001 0.017 0.005v0 0q0.007 0.003 0.007 0.012v0 0q0 0.010-0.005 0.012v0 0q-0.005 0.003-0.017 0.003v0 0q-0.011 0-0.048-0.004v0 0q-0.037-0.004-0.053-0.004v0 0q-0.010 0-0.044 0.003v0 0q-0.033 0.003-0.048 0.003v0 0q-0.034 0-0.034-0.014v0 0q0-0.009 0.005-0.012v0 0q0.006-0.003 0.021-0.006v0 0q0.016-0.002 0.021-0.003v0 0q0.030-0.008 0.034-0.036v0 0q0.009-0.080 0.009-0.342v0l-0.001-0.162q0-0.017-0.010-0.021v0 0q-0.010-0.004-0.059-0.004v0 0q-0.063 0-0.096 0.003v0 0q-0.032 0.004-0.037 0.007v0 0q-0.005 0.003-0.012 0.012v0 0q-0.008 0.010-0.014 0.024v0 0q-0.005 0.013-0.006 0.021v0 0q-0.001 0.009-0.005 0.015v0 0q-0.004 0.006-0.012 0.006v0 0q-0.010 0-0.010-0.015zM19.575 19.671v0 0q0-0.014 0.025-0.014v0 0q0.009 0 0.042 0.002v0 0q0.032 0.002 0.060 0.002v0 0q0.017 0 0.033-0.001v0 0q0.016-0.001 0.047-0.001v0 0q0.024 0 0.024 0.012v0 0q0 0.008-0.041 0.025v0 0q-0.029 0.012-0.029 0.104v0 0q0 0.122-0.001 0.216v0 0q-0.001 0.094-0.001 0.119v0 0q0 0.076 0.023 0.11v0 0q0.020 0.028 0.043 0.028v0 0q0.002 0 0.009 0.001v0 0q0.007 0 0.009 0v0 0q0.006 0 0.013 0.003v0 0q0.006 0.003 0.006 0.007v0 0q0 0.010-0.005 0.013v0 0q-0.005 0.003-0.017 0.003v0 0q-0.027 0-0.050-0.002v0 0q-0.023-0.002-0.036-0.002v0 0q-0.026 0-0.056 0.003v0 0q-0.030 0.002-0.044 0.002v0 0q-0.041 0-0.041-0.014v0 0q0-0.008 0.008-0.011v0 0q0.008-0.003 0.019-0.005v0 0q0.011-0.001 0.023-0.012v0 0q0.012-0.010 0.016-0.030v0 0q0.002-0.006 0.006-0.103v0 0q0.005-0.096 0.005-0.139v0-0.052q0-0.012 0-0.045v0 0q0.001-0.033 0.001-0.053v0-0.041q0-0.040-0.004-0.067v0 0q-0.003-0.021-0.024-0.033v0 0q-0.021-0.012-0.044-0.013v0 0q-0.019-0.001-0.019-0.014zM20.324 19.675v0 0q0-0.006 0.006-0.011v0 0q0.006-0.005 0.016-0.005v0 0q0.006 0 0.018 0.001v0 0q0.013 0 0.016 0v0 0q0.014 0 0.026-0.001v0 0q0.012-0.001 0.019-0.001v0 0q0.008 0 0.019 0.005v0 0q0.011 0.005 0.013 0.010v0 0q0.002 0.003 0.010 0.012v0 0q0.008 0.010 0.022 0.025v0 0q0.014 0.015 0.025 0.030v0 0q0.123 0.16 0.329 0.386v0 0q0.006 0.006 0.014 0.014v0 0q0.008 0.008 0.011 0.012v0 0q0.003 0.004 0.006 0.008v0 0q0.004 0.003 0.006 0.005v0 0q0.003 0.001 0.004 0.001v0 0q0.009 0 0.009-0.056v0-0.106q0-0.061 0-0.102v0 0q-0.001-0.042-0.001-0.060v0 0q0-0.019 0-0.023v0-0.006q0-0.030-0.005-0.052v0 0q-0.004-0.022-0.009-0.034v0 0q-0.006-0.012-0.016-0.020v0 0q-0.010-0.008-0.017-0.010v0 0q-0.007-0.002-0.021-0.005v0 0q-0.014-0.003-0.019-0.005v0 0q-0.018-0.006-0.018-0.015v0 0q0-0.014 0.017-0.014v0 0q0.005 0 0.043 0.001v0 0q0.038 0 0.043 0v0 0q0.021 0 0.048-0.001v0 0q0.026-0.001 0.033-0.001v0 0q0.015 0 0.021 0.003v0 0q0.006 0.003 0.006 0.012v0 0q0 0.004-0.005 0.007v0 0q-0.005 0.003-0.010 0.005v0 0q-0.005 0.003-0.011 0.004v0l-0.005 0.002q-0.030 0.016-0.030 0.102v0 0.035q0 0.069-0.005 0.238v0 0q-0.005 0.17-0.005 0.21v0 0.018q0 0.021-0.012 0.021v0 0q-0.008 0-0.015-0.006v0 0q-0.3-0.348-0.359-0.414v0 0q-0.058-0.065-0.065-0.065v0 0q-0.009 0-0.009 0.061v0 0q0 0.086-0.004 0.185v0 0q-0.003 0.099-0.003 0.109v0 0q0 0.041 0.014 0.062v0 0q0.014 0.021 0.030 0.024v0 0q0.017 0.003 0.030 0.006v0 0q0.014 0.003 0.014 0.012v0 0q0 0.010-0.003 0.012v0 0q-0.003 0.003-0.011 0.003v0 0q-0.006 0-0.028-0.001v0 0q-0.023-0.001-0.069-0.001v0 0q-0.008 0-0.034 0.001v0 0q-0.025 0.001-0.043 0.001v0 0q-0.020 0-0.020-0.015v0 0q0-0.008 0.012-0.010v0 0q0.012-0.002 0.029-0.014v0 0q0.017-0.012 0.026-0.044v0 0q0.005-0.021 0.014-0.169v0 0q0.008-0.147 0.008-0.204v0 0q0-0.078-0.021-0.116v0 0q-0.022-0.038-0.071-0.043v0 0q-0.012-0.001-0.012-0.014zM21.52 20.007v0 0q0-0.098 0.038-0.177v0 0q0.038-0.079 0.117-0.127v0 0q0.079-0.048 0.188-0.048v0 0q0.055 0 0.111 0.017v0 0q0.056 0.016 0.089 0.032v0l0.034 0.017q0.003 0 0.009-0.005v0 0q0.006-0.005 0.010-0.005v0 0q0.005 0 0.009 0.003v0 0q0.005 0.004 0.005 0.011v0 0q0.001 0.026 0.004 0.056v0 0q0.003 0.030 0.006 0.048v0 0q0.003 0.019 0.003 0.023v0 0q0 0.016-0.011 0.016v0 0q-0.008 0-0.015-0.012v0 0q-0.088-0.165-0.253-0.165v0 0q-0.113 0-0.185 0.072v0 0q-0.072 0.072-0.072 0.189v0 0q0 0.065 0.017 0.121v0 0q0.016 0.056 0.050 0.102v0 0q0.034 0.047 0.094 0.074v0 0q0.059 0.027 0.139 0.027v0 0q0.131 0 0.219-0.136v0 0q0.004-0.006 0.014-0.006v0 0q0.008 0 0.008 0.012v0 0q0 0.010-0.003 0.027v0 0q-0.003 0.017-0.008 0.037v0 0q-0.005 0.021-0.005 0.025v0 0q-0.002 0.010-0.015 0.016v0 0q-0.048 0.023-0.076 0.035v0 0q-0.028 0.012-0.070 0.021v0 0q-0.042 0.010-0.087 0.010v0 0q-0.079 0-0.142-0.019v0 0q-0.063-0.019-0.103-0.050v0 0q-0.040-0.031-0.067-0.072v0 0q-0.027-0.041-0.038-0.083v0 0q-0.011-0.042-0.011-0.087zM22.68 19.775v0 0q0-0.036 0.009-0.093v0 0q0-0.002 0.001-0.006v0 0q0.001-0.005 0.001-0.006v0 0q0.001-0.001 0.001-0.005v0 0q0-0.003 0.001-0.005v0 0q0.001-0.001 0.002-0.004v0 0q0.001-0.002 0.003-0.003v0 0q0.002-0.001 0.005-0.001v0 0q0.003-0.001 0.006-0.002v0 0q0.004 0 0.008 0v0 0q0.014 0 0.076 0.003v0 0q0.062 0.004 0.178 0.004v0 0q0.199 0 0.279-0.005v0 0q0.001 0 0.003-0.001v0 0q0.002 0 0.003 0v0 0q0.010 0 0.014 0.005v0 0q0.004 0.005 0.004 0.010v0 0q0 0.006 0.003 0.038v0 0q0.003 0.032 0.003 0.036v0 0q0 0.023-0.003 0.028v0 0q-0.003 0.006-0.012 0.006v0 0q-0.007 0-0.010-0.011v0 0q-0.008-0.026-0.013-0.036v0 0q-0.005-0.010-0.023-0.017v0 0q-0.018-0.007-0.056-0.007v0h-0.118q-0.021 0-0.026 0.008v0 0q-0.005 0.008-0.005 0.049v0 0.045q0 0.121-0.001 0.213v0 0q-0.001 0.092-0.001 0.118v0 0q0 0.013-0.001 0.032v0 0q0 0.019 0 0.026v0 0q0 0.039 0.012 0.052v0 0q0.012 0.011 0.026 0.017v0 0q0.014 0.006 0.025 0.007v0 0q0.010 0.001 0.018 0.005v0 0q0.007 0.003 0.007 0.012v0 0q0 0.010-0.005 0.012v0 0q-0.005 0.003-0.017 0.003v0 0q-0.011 0-0.048-0.004v0 0q-0.037-0.004-0.052-0.004v0 0q-0.011 0-0.044 0.003v0 0q-0.033 0.003-0.048 0.003v0 0q-0.034 0-0.034-0.014v0 0q0-0.009 0.006-0.012v0 0q0.005-0.003 0.021-0.006v0 0q0.015-0.002 0.020-0.003v0 0q0.031-0.008 0.034-0.036v0 0q0.009-0.080 0.009-0.342v0l-0.001-0.162q0-0.017-0.010-0.021v0 0q-0.010-0.004-0.059-0.004v0 0q-0.063 0-0.095 0.003v0 0q-0.032 0.004-0.037 0.007v0 0q-0.006 0.003-0.013 0.012v0 0q-0.008 0.010-0.013 0.024v0 0q-0.005 0.013-0.006 0.021v0 0q-0.001 0.009-0.005 0.015v0 0q-0.005 0.006-0.012 0.006v0 0q-0.010 0-0.010-0.015zM23.768 19.671v0 0q0-0.014 0.026-0.014v0 0q0.009 0 0.041 0.002v0 0q0.032 0.002 0.061 0.002v0 0q0.017 0 0.033-0.001v0 0q0.015-0.001 0.047-0.001v0 0q0.025 0 0.025 0.012v0 0q0 0.008-0.042 0.025v0 0q-0.028 0.012-0.028 0.104v0 0q0 0.122-0.002 0.216v0 0q-0.001 0.094-0.001 0.119v0 0q0 0.076 0.023 0.11v0 0q0.020 0.028 0.044 0.028v0 0q0.001 0 0.009 0.001v0 0q0.007 0 0.009 0v0 0q0.006 0 0.012 0.003v0 0q0.006 0.003 0.006 0.007v0 0q0 0.010-0.005 0.013v0 0q-0.005 0.003-0.017 0.003v0 0q-0.027 0-0.050-0.002v0 0q-0.023-0.002-0.036-0.002v0 0q-0.025 0-0.055 0.003v0 0q-0.030 0.002-0.045 0.002v0 0q-0.041 0-0.041-0.014v0 0q0-0.008 0.008-0.011v0 0q0.009-0.003 0.019-0.005v0 0q0.011-0.001 0.023-0.012v0 0q0.012-0.010 0.017-0.030v0 0q0.001-0.006 0.006-0.103v0 0q0.004-0.096 0.004-0.139v0-0.052q0-0.012 0.001-0.045v0 0q0-0.033 0-0.053v0-0.041q0-0.040-0.003-0.067v0 0q-0.003-0.021-0.024-0.033v0 0q-0.021-0.012-0.044-0.013v0 0q-0.019-0.001-0.019-0.014zM24.539 19.993v0 0q0-0.152 0.092-0.249v0 0q0.091-0.098 0.258-0.098v0 0q0.078 0 0.14 0.023v0 0q0.063 0.023 0.099 0.056v0 0q0.036 0.033 0.060 0.076v0 0q0.025 0.043 0.034 0.078v0 0q0.009 0.036 0.009 0.067v0 0q0 0.123-0.048 0.207v0 0q-0.048 0.085-0.126 0.123v0 0q-0.078 0.038-0.181 0.038v0 0q-0.107 0-0.185-0.047v0 0q-0.078-0.047-0.115-0.119v0 0q-0.037-0.071-0.037-0.156zM24.618 19.947v0 0q0 0.036 0.010 0.078v0 0q0.010 0.042 0.032 0.087v0 0q0.023 0.045 0.055 0.080v0 0q0.032 0.036 0.081 0.059v0 0q0.049 0.023 0.108 0.023v0 0q0.031 0 0.065-0.010v0 0q0.034-0.010 0.068-0.029v0 0q0.033-0.020 0.059-0.048v0 0q0.026-0.028 0.043-0.070v0 0q0.017-0.041 0.017-0.089v0 0q0-0.163-0.086-0.255v0 0q-0.086-0.091-0.213-0.091v0 0q-0.099 0-0.169 0.067v0 0q-0.070 0.067-0.070 0.197zM25.727 19.675v0 0q0-0.006 0.006-0.011v0 0q0.006-0.005 0.016-0.005v0 0q0.005 0 0.018 0.001v0 0q0.012 0 0.016 0v0 0q0.014 0 0.025-0.001v0 0q0.012-0.001 0.019-0.001v0 0q0.008 0 0.019 0.005v0 0q0.011 0.005 0.013 0.010v0 0q0.001 0.003 0.010 0.012v0 0q0.008 0.010 0.022 0.025v0 0q0.014 0.015 0.024 0.030v0 0q0.123 0.16 0.329 0.386v0 0q0.005 0.006 0.013 0.014v0 0q0.008 0.008 0.011 0.012v0 0q0.003 0.004 0.007 0.008v0 0q0.003 0.003 0.006 0.005v0 0q0.002 0.001 0.004 0.001v0 0q0.009 0 0.009-0.056v0-0.106q0-0.061-0.001-0.102v0 0q0-0.042-0.001-0.060v0 0q-0.001-0.019-0.001-0.023v0-0.006q0-0.030-0.004-0.052v0 0q-0.004-0.022-0.010-0.034v0 0q-0.005-0.012-0.015-0.020v0 0q-0.010-0.008-0.018-0.010v0 0q-0.007-0.002-0.021-0.005v0 0q-0.014-0.003-0.019-0.005v0 0q-0.018-0.006-0.018-0.015v0 0q0-0.014 0.017-0.014v0 0q0.006 0 0.044 0.001v0 0q0.037 0 0.042 0v0 0q0.022 0 0.048-0.001v0 0q0.027-0.001 0.033-0.001v0 0q0.015 0 0.021 0.003v0 0q0.006 0.003 0.006 0.012v0 0q0 0.004-0.005 0.007v0 0q-0.005 0.003-0.010 0.005v0 0q-0.006 0.003-0.011 0.004v0l-0.006 0.002q-0.030 0.016-0.030 0.102v0 0.035q0 0.069-0.005 0.238v0 0q-0.005 0.17-0.005 0.21v0 0.018q0 0.021-0.013 0.021v0 0q-0.008 0-0.014-0.006v0 0q-0.3-0.348-0.359-0.414v0 0q-0.059-0.065-0.065-0.065v0 0q-0.009 0-0.009 0.061v0 0q0 0.086-0.004 0.185v0 0q-0.004 0.099-0.004 0.109v0 0q0 0.041 0.014 0.062v0 0q0.014 0.021 0.030 0.024v0 0q0.016 0.003 0.030 0.006v0 0q0.014 0.003 0.014 0.012v0 0q0 0.010-0.003 0.012v0 0q-0.003 0.003-0.012 0.003v0 0q-0.006 0-0.028-0.001v0 0q-0.022-0.001-0.069-0.001v0 0q-0.008 0-0.033 0.001v0 0q-0.026 0.001-0.044 0.001v0 0q-0.019 0-0.019-0.015v0 0q0-0.008 0.012-0.010v0 0q0.012-0.002 0.029-0.014v0 0q0.017-0.012 0.026-0.044v0 0q0.006-0.021 0.014-0.169v0 0q0.008-0.147 0.008-0.204v0 0q0-0.078-0.022-0.116v0 0q-0.021-0.038-0.070-0.043v0 0q-0.012-0.001-0.012-0.014z"/></svg>