<svg xmlns="http://www.w3.org/2000/svg" width="41" height="32" version="1.1" viewBox="0 0 41 32"><title>food</title><path fill="#3f3d56" d="M18.362 7.276c-0.003 0-0.008 0-0.012 0-1.786 0-3.501-0.307-5.094-0.872l0.107 0.033c-2.155-0.745-3.921-1.773-5.248-3.055-2.51-2.425-4.568-2.791-5.853-2.67-1.39 0.13-2.199 0.842-2.207 0.849l-0.055-0.062c0.008-0.007 0.834-0.735 2.249-0.87 0.83-0.079 1.698 0.058 2.58 0.408 1.1 0.436 2.225 1.204 3.343 2.285 1.318 1.274 3.074 2.295 5.218 3.037 3.936 1.361 8.372 1.031 12.17-0.904 1.258-0.641 2.501-1.078 3.694-1.3 1.505-0.28 2.933-0.215 4.244 0.193 2.88 0.896 4.847 0.848 5.99 0.651 1.233-0.213 1.793-0.64 1.798-0.644l0.051 0.065c-0.023 0.018-0.582 0.444-1.835 0.66-1.152 0.199-3.133 0.247-6.029-0.653-2.932-0.912-5.901 0.096-7.876 1.102-1.751 0.917-3.802 1.526-5.975 1.698l-0.055 0.004q-0.605 0.046-1.205 0.046z"/><path fill="#deaf62" d="M19.035 7.465c0 0.464-0.376 0.839-0.839 0.839s-0.839-0.376-0.839-0.839c0-0.464 0.376-0.839 0.839-0.839s0.839 0.376 0.839 0.839z"/><path fill="#deaf62" d="M32.037 4.111c0 0.464-0.376 0.839-0.839 0.839s-0.839-0.376-0.839-0.839c0-0.464 0.376-0.839 0.839-0.839s0.839 0.376 0.839 0.839z"/><path fill="#deaf62" d="M4.997 0.839c0 0.464-0.376 0.839-0.839 0.839s-0.839-0.376-0.839-0.839c0-0.464 0.376-0.839 0.839-0.839s0.839 0.376 0.839 0.839z"/><path fill="#3f3d56" d="M24.214 20.062v8.109h1.275v-7.395h5.1v7.395h1.275v-16.218h-1.275c-0.422 0-1.071 2.2-1.071 4.412 0 1.667 0.195 3.095 0.471 3.698zM30.589 20.062h-0.012c0.004-0.009 0.008-0.019 0.012-0.028z"/><path fill="#2f2e41" d="M28.939 7.939v0c-1.047 0-1.895 0.942-1.895 2.103v1.476h0.454l0.263-0.547-0.066 0.547h2.917l0.239-0.497-0.060 0.497h0.328v-1.159c0-1.337-0.976-2.42-2.181-2.42z"/><path fill="#2f2e41" d="M26.767 17.581l-1.163 0.494-4.043 3.287c-0.143 0.175-0.238 0.395-0.261 0.635l-0 0.005c-0.029 0.378-1.251 2.356-0.814 2.618s2.007 1.047 2.094 0.524 0.553-2.763 0.553-2.763l3.898-3.491z"/><path fill="#2f2e41" d="M22.201 24.707l-0.494 1.454s0.524 0.553 0.262 1.018v1.6h-0.407l-0.116-0.844s-0.464 0.833-0.698 0.844c-0.491 0.022-1.464 0.197-1.493-0.065s0.736-0.517 0.736-0.517l0.814-2.24 0.349-1.367z"/><path fill="#2f2e41" d="M29.793 17.202s0.262 2.56-0.494 3.025-4.101 1.949-4.101 1.949 1.425 1.338 1.134 1.658-1.6 1.193-1.774 1.018-2.123-2.269-1.891-2.938 3.461-2.851 3.461-2.851l0.378-1.367 0.116-1.105 1.222-0.785z"/><path fill="#ffb9b9" d="M29.672 10.030c0 0.67-0.543 1.213-1.213 1.213s-1.213-0.543-1.213-1.213c0-0.67 0.543-1.213 1.213-1.213s1.213 0.543 1.213 1.213z"/><path fill="#ffb9b9" d="M29.4 10.527s-0.058 1.105 0.844 1.454-2.24 2.618-2.24 2.618v-2.531s0.407-0.436 0-1.105z"/><path fill="#ffb9b9" d="M31.334 15.719l-0.233 1.134-0.698 3.898s0.582 1.658-0.204 1.629-0.407-1.803-0.407-1.803l0.407-3.229v-1.251z"/><path fill="#ffb9b9" d="M26.331 15.166l-0.262 1.018-1.193 2.88s-0.814 1.367-0.145 1.338 0.669-1.338 0.669-1.338l1.367-2.327v-1.309z"/><path fill="#2f2e41" d="M26.127 23.66l0.96 0.902s0.669-0.145 0.931 0.64 0.436 1.28 0.436 1.28l-0.349 0.204-0.436-0.611s-0.262 1.105-0.524 1.193-1.571 0.669-1.454 0l0.64-0.931s0.087-1.047-0.175-1.134-0.96-0.96-0.96-0.96z"/><path fill="#3f3d56" d="M29.839 18.104s-2.734-0.989-2.909-0.902c-0.12 0.054-0.259 0.092-0.404 0.106l-0.005 0 0.002-0.397s0.902-0.32 1.396-0.116 2.007 1.105 2.007 1.105z"/><path fill="#d0cde1" d="M28.178 14.017s0.785-0.902 1.018-1.454c0.15-0.336 0.416-0.598 0.746-0.739l0.009-0.004s1.747 0.393 1.718 1.091-1.105 1.774-1.105 1.774 0.145 3.869-0.64 3.811c-0.163-0.194-0.285-0.429-0.347-0.687l-0.002-0.012c-0.087-0.407-2.792-0.844-2.792-0.844s-0.233 0.407-0.262 0.233 0.233-4.45 0.233-4.45l1.387-0.917z"/><path fill="#d0cde1" d="M31.445 12.631l0.019 0.011c0.123 0.070 0.205 0.2 0.205 0.35 0 0 0 0 0 0v0l-0 2.159c0 0.123 0.056 0.233 0.143 0.307l0.001 0.001c0.112 0.095 0.216 0.233 0.002 0.304-0.349 0.116-1.716 0.698-1.745 0.494s-0.087-0.436 0-0.436c0.068 0 0.475-2.086 0.802-2.978 0.058-0.155 0.205-0.263 0.377-0.263 0.072 0 0.14 0.019 0.198 0.052l-0.002-0.001z"/><path fill="#d0cde1" d="M27.145 12.636l-0.407 0.116-0.465 2.007s-0.553 0.116-0.378 0.32 0.902 0.727 0.902 0.727z"/><path fill="#2f2e41" d="M29.477 8.519c-0.181-0.241-0.464-0.396-0.783-0.4h-0.038c-0.717 0-1.299 0.649-1.299 1.45v0h0.24l0.039-0.295 0.057 0.295h1.426l0.119-0.25-0.030 0.25h0.28q0.196 0.975-0.564 1.95h0.478l0.239-0.5-0.060 0.5h0.911l0.179-1.15c0-0.861-0.5-1.591-1.194-1.85z"/><path fill="#3f3d56" d="M5.115 21.936c0.306-0.666 0.521-2.245 0.521-4.088 0-2.445-0.717-4.878-1.184-4.878h-1.41v17.932h1.41v-8.176h5.639v8.176h1.41v-8.966zM4.453 21.905c0.005 0.010 0.009 0.021 0.014 0.031h-0.014z"/><path fill="#9f616a" d="M10.991 18.664s1.698 0.704 1.159 1.118-1.656-0.497-1.615-0.621-0.166-0.414-0.166-0.414z"/><path fill="#575a88" d="M9.501 13.116l0.538 0.497 0.124 1.449 0.414 1.532s0.704 1.449 0.58 1.739 0.124 0.373 0.124 0.373l-0.952 0.373s-1.035-1.159-1.035-1.408 0.207-4.555 0.207-4.555z"/><path fill="#000" d="M9.501 13.116l0.538 0.497 0.124 1.449 0.414 1.532s0.704 1.449 0.58 1.739 0.124 0.373 0.124 0.373l-0.952 0.373s-1.035-1.159-1.035-1.408 0.207-4.555 0.207-4.555z" opacity=".1"/><path fill="#575a88" d="M14.594 28.023s-0.207 0.952-0.248 1.035 0.787 0.373 0.787 0.373l0.994-0.704s-0.414-0.911-0.414-1.077z"/><path fill="#2f2e41" d="M9.169 18.747l0.29 0.331s6.004 0.745 6.129 1.905 0.994 6.625 0.497 6.791-1.781 0.787-1.781 0.456-0.828-4.886-0.663-5.714c0 0-7.164-0.911-7.329-1.946s0.166-1.491 0.166-1.491z"/><path fill="#000" d="M9.169 18.747l0.29 0.331s6.004 0.745 6.129 1.905 0.994 6.625 0.497 6.791-1.781 0.787-1.781 0.456-0.828-4.886-0.663-5.714c0 0-7.164-0.911-7.329-1.946s0.166-1.491 0.166-1.491z" opacity=".1"/><path fill="#2f2e41" d="M14.511 28.975s-0.166-0.373-0.248-0.248-0.373 1.574-0.083 1.574 2.94 0.663 3.313 0.58 1.077 0.041 0.994-0.373-0.497-0.456-0.497-0.456-1.532-0.911-1.615-1.366-0.538-0.207-0.538-0.207v0.29s-0.87 0.663-1.325 0.207z"/><path fill="#9f616a" d="M6.643 9.968s0.29 1.408-0.331 1.532 0.787 0.952 0.787 0.952l0.911 0.497 0.663-0.663s-0.6-1.222-0.145-2.133-1.884-0.186-1.884-0.186z"/><path fill="#9f616a" d="M8.672 12.287l-0.663 0.663-0.911-0.497s-1.408-0.828-0.787-0.952c0.4-0.080 0.422-0.691 0.388-1.117-0.013-0.158-0.033-0.3-0.060-0.44l0.004 0.024s2.34-0.725 1.884 0.186c-0.065 0.129-0.115 0.279-0.141 0.436l-0.001 0.009c-0.14 0.819 0.287 1.687 0.287 1.687z"/><path fill="#575a88" d="M10.991 29.224v0.952h1.574l0.124-0.373-0.166-0.994-1.532 0.414z"/><path fill="#2f2e41" d="M4.49 19.575s0 2.443 0.994 2.526 4.555 0.538 4.555 0.538 0.207 4.058 0.58 5.383 0.041 1.408 0.373 1.491 1.739-0.207 1.698-0.497-0.207-7.619-0.207-7.619 0.373-1.574-4.596-2.319z"/><path fill="#2f2e41" d="M11.116 29.886s-0.248-0.538-0.29-0.373-0.538 1.615-0.041 1.739 2.070 0.787 3.106 0.745 1.159-0.083 1.159-0.083 0.29-0.414-0.083-0.663-1.905-1.698-1.988-1.863-0.704-0.29-0.704 0-0.87 0.87-1.159 0.497z"/><path fill="#000" d="M8.528 10.155c-0.065 0.129-0.115 0.279-0.141 0.436l-0.001 0.009c-0.206 0.125-0.344 0.093-0.603 0.093-0.384 0-0.539-0.491-0.787-0.745-0.019-0.236-0.352 0.021-0.352 0.021s2.34-0.725 1.884 0.186z" opacity=".1"/><path fill="#9f616a" d="M9.045 9.306c0 0.755-0.612 1.367-1.367 1.367s-1.367-0.612-1.367-1.367c0-0.755 0.612-1.367 1.367-1.367s1.367 0.612 1.367 1.367z"/><path fill="#575a88" d="M10.039 13.612s-0.207 1.491-0.331 2.029-0.29 3.023-0.373 3.354-0.58 0.414-1.574 0.29c-0.055-0.007-0.12-0.012-0.186-0.014l-0.002-0c-0.612-0.019-1.312 0.21-1.96 0.389-0.373 0.104-0.728 0.19-1.040 0.205-0.472 0.022-0.61-0.502-0.594-1.068 0.015-0.527 0.165-1.092 0.304-1.292 0.251-0.359 0.004-3.586 0.097-4.651v-0c0.014-0.162 0.036-0.274 0.069-0.318 0.248-0.331 1.863-1.159 2.044-1.126s1.724 1.002 1.724 1.002c0.373 0 0.361-0.404 0.361-0.404s0.26 0.487 0.757 0.611 0.704 0.994 0.704 0.994z"/><path fill="#9f616a" d="M7.271 18.981s2.667 0.085 2.2 0.402-2.538 0.607-2.579 0.193 0.379-0.595 0.379-0.595z"/><path fill="#000" d="M7.573 19.271c0.009 0.159-0.419 0.517-0.557 0.759-0.077 0.134-0.67-0.043-1.403-0.37-0.645-0.291-1.181-0.579-1.696-0.899l0.061 0.035c0.015-0.527 0.165-1.092 0.304-1.292 0.251-0.359 0.004-3.586 0.097-4.651v-0c0.019-0.010 0.042-0.020 0.066-0.027l0.003-0.001h0.497c1.698 0.787-0.248 4.182-0.248 4.182s2.567 2.112 2.816 2.195c0.033 0.006 0.058 0.034 0.060 0.069v0z" opacity=".1"/><path fill="#575a88" d="M4.946 12.577h-0.497s-0.455 0.124-0.828 0.952-1.739 3.396-0.538 4.389 3.768 2.153 3.934 1.863 0.745-0.745 0.497-0.828-2.816-2.195-2.816-2.195 1.946-3.396 0.248-4.182z"/><path fill="#2f2e41" d="M7.468 8.67s0.060-0.83 0.8-0.492 0.692-0.595 0.468-0.759-0.216-0.206-1.034-0.095-2.405 0.297-1.892 1.941 0.978 1.221 0.978 1.221-0.408-1.479 0.005-1.198l0.413 0.282 0.218-0.046z"/><path fill="#3f3d56" d="M37.995 20.624c0-0.747-5.554-1.353-12.406-1.353s-12.406 0.606-12.406 1.353c0 0.29 0.835 0.558 2.256 0.778v9.259h0.677v-9.164c2.276 0.293 5.675 0.48 9.473 0.48 3.83 0 7.254-0.189 9.53-0.487v9.171h0.677v-9.268c1.386-0.218 2.199-0.484 2.199-0.769z"/><path fill="#f2f2f2" d="M29.669 20.031c0 0.343-1.131 0.621-2.526 0.621s-2.526-0.278-2.526-0.621c0-0.343 1.131-0.621 2.526-0.621s2.526 0.278 2.526 0.621z"/><path fill="#d0cde1" d="M29.213 20.031c0 0.281-0.927 0.509-2.070 0.509s-2.070-0.228-2.070-0.509c0-0.281 0.927-0.509 2.070-0.509s2.070 0.228 2.070 0.509z"/><path fill="#f2f2f2" d="M20.269 20.528c0 0.343-1.131 0.621-2.526 0.621s-2.526-0.278-2.526-0.621c0-0.343 1.131-0.621 2.526-0.621s2.526 0.278 2.526 0.621z"/><path fill="#d0cde1" d="M19.814 20.528c0 0.281-0.927 0.509-2.070 0.509s-2.070-0.228-2.070-0.509c0-0.281 0.927-0.509 2.070-0.509s2.070 0.228 2.070 0.509z"/><path fill="#9f616a" d="M28.288 19.797c0 0.105-0.539 0.19-1.204 0.19s-1.204-0.085-1.204-0.19c0-0.105 0.539-0.19 1.204-0.19s1.204 0.085 1.204 0.19z"/><path fill="#deaf62" d="M26.823 19.52c0 0.114-0.17 0.206-0.38 0.206s-0.38-0.092-0.38-0.206c0-0.114 0.17-0.206 0.38-0.206s0.38 0.092 0.38 0.206z"/><path fill="#deaf62" d="M26.68 19.52c0 0.114-0.17 0.206-0.38 0.206s-0.38-0.092-0.38-0.206c0-0.114 0.17-0.206 0.38-0.206s0.38 0.092 0.38 0.206z"/><path fill="#deaf62" d="M28.344 19.567c0 0.114-0.17 0.206-0.38 0.206s-0.38-0.092-0.38-0.206c0-0.114 0.17-0.206 0.38-0.206s0.38 0.092 0.38 0.206z"/><path fill="#deaf62" d="M27.472 19.52c0 0.114-0.17 0.206-0.38 0.206s-0.38-0.092-0.38-0.206c0-0.114 0.17-0.206 0.38-0.206s0.38 0.092 0.38 0.206z"/><path fill="#deaf62" d="M28.122 19.52c0 0.114-0.17 0.206-0.38 0.206s-0.38-0.092-0.38-0.206c0-0.114 0.17-0.206 0.38-0.206s0.38 0.092 0.38 0.206z"/><path fill="#3f3d56" d="M28.233 19.393q-1.031 0.35-2.313 0v-0.032c0-0 0-0 0-0.001 0-0.505 0.396-0.918 0.895-0.944l0.002-0c0.089-0.005 0.193-0.008 0.298-0.008 0.11 0 0.22 0.003 0.329 0.009l-0.015-0.001c0.45 0.027 0.804 0.398 0.804 0.852 0 0.001 0 0.002 0 0.002v-0z"/><path fill="#3f3d56" d="M27.896 20.266c-0.229 0.024-0.495 0.038-0.764 0.038s-0.535-0.014-0.797-0.041l0.033 0.003c-0.248-0.025-0.44-0.233-0.44-0.485v-0h2.408c-0 0.252-0.192 0.46-0.438 0.485l-0.002 0z"/><path fill="#d0cde1" d="M26.759 18.712c-0.051 0.022-0.111 0.035-0.174 0.035s-0.123-0.013-0.177-0.036l0.003 0.001c0.051-0.022 0.111-0.035 0.174-0.035s0.123 0.013 0.177 0.036l-0.003-0.001z"/><path fill="#d0cde1" d="M27.108 18.854c-0.051 0.022-0.111 0.035-0.174 0.035s-0.123-0.013-0.177-0.036l0.003 0.001c0.051-0.022 0.111-0.035 0.174-0.035s0.123 0.013 0.177 0.036l-0.003-0.001z"/><path fill="#d0cde1" d="M27.14 18.601c-0.051 0.022-0.111 0.035-0.174 0.035s-0.123-0.013-0.177-0.036l0.003 0.001c0.051-0.022 0.111-0.035 0.174-0.035s0.123 0.013 0.177 0.036l-0.003-0.001z"/><path fill="#d0cde1" d="M27.789 18.601c-0.051 0.022-0.111 0.035-0.174 0.035s-0.123-0.013-0.177-0.036l0.003 0.001c0.051-0.022 0.111-0.035 0.174-0.035s0.123 0.013 0.177 0.036l-0.003-0.001z"/><path fill="#d0cde1" d="M27.615 18.743c-0.051 0.022-0.111 0.035-0.174 0.035s-0.123-0.013-0.177-0.036l0.003 0.001c0.051-0.022 0.111-0.035 0.174-0.035s0.123 0.013 0.177 0.036l-0.003-0.001z"/><path fill="#9f616a" d="M18.93 20.294c0 0.105-0.539 0.19-1.204 0.19s-1.204-0.085-1.204-0.19c0-0.105 0.539-0.19 1.204-0.19s1.204 0.085 1.204 0.19z"/><path fill="#deaf62" d="M17.464 20.017c0 0.114-0.17 0.206-0.38 0.206s-0.38-0.092-0.38-0.206c0-0.114 0.17-0.206 0.38-0.206s0.38 0.092 0.38 0.206z"/><path fill="#deaf62" d="M17.322 20.017c0 0.114-0.17 0.206-0.38 0.206s-0.38-0.092-0.38-0.206c0-0.114 0.17-0.206 0.38-0.206s0.38 0.092 0.38 0.206z"/><path fill="#deaf62" d="M18.985 20.064c0 0.114-0.17 0.206-0.38 0.206s-0.38-0.092-0.38-0.206c0-0.114 0.17-0.206 0.38-0.206s0.38 0.092 0.38 0.206z"/><path fill="#deaf62" d="M18.114 20.017c0 0.114-0.17 0.206-0.38 0.206s-0.38-0.092-0.38-0.206c0-0.114 0.17-0.206 0.38-0.206s0.38 0.092 0.38 0.206z"/><path fill="#deaf62" d="M18.764 20.017c0 0.114-0.17 0.206-0.38 0.206s-0.38-0.092-0.38-0.206c0-0.114 0.17-0.206 0.38-0.206s0.38 0.092 0.38 0.206z"/><path fill="#3f3d56" d="M18.874 19.89q-1.031 0.35-2.313 0v-0.032c0-0 0-0 0-0.001 0-0.505 0.396-0.918 0.895-0.944l0.002-0c0.089-0.005 0.193-0.008 0.298-0.008 0.11 0 0.22 0.003 0.329 0.009l-0.015-0.001c0.45 0.027 0.804 0.398 0.804 0.852 0 0.001 0 0.002 0 0.002v-0z"/><path fill="#3f3d56" d="M18.537 20.763c-0.229 0.024-0.495 0.038-0.764 0.038s-0.535-0.014-0.797-0.041l0.033 0.003c-0.248-0.025-0.44-0.233-0.44-0.485v-0h2.408c-0 0.252-0.192 0.46-0.438 0.485l-0.002 0z"/><path fill="#d0cde1" d="M17.401 19.208c-0.051 0.022-0.111 0.035-0.174 0.035s-0.123-0.013-0.177-0.036l0.003 0.001c0.051-0.022 0.111-0.035 0.174-0.035s0.123 0.013 0.177 0.036l-0.003-0.001z"/><path fill="#d0cde1" d="M17.75 19.351c-0.051 0.022-0.111 0.035-0.174 0.035s-0.123-0.013-0.177-0.036l0.003 0.001c0.051-0.022 0.111-0.035 0.174-0.035s0.123 0.013 0.177 0.036l-0.003-0.001z"/><path fill="#d0cde1" d="M17.781 19.098c-0.051 0.022-0.111 0.035-0.174 0.035s-0.123-0.013-0.177-0.036l0.003 0.001c0.051-0.022 0.111-0.035 0.174-0.035s0.123 0.013 0.177 0.036l-0.003-0.001z"/><path fill="#d0cde1" d="M18.431 19.098c-0.051 0.022-0.111 0.035-0.174 0.035s-0.123-0.013-0.177-0.036l0.003 0.001c0.051-0.022 0.111-0.035 0.174-0.035s0.123 0.013 0.177 0.036l-0.003-0.001z"/><path fill="#d0cde1" d="M18.257 19.24c-0.051 0.022-0.111 0.035-0.174 0.035s-0.123-0.013-0.177-0.036l0.003 0.001c0.051-0.022 0.111-0.035 0.174-0.035s0.123 0.013 0.177 0.036l-0.003-0.001z"/><path fill="#deaf62" d="M29.316 19.863l0.006 0.128 0.007 0.166s-0.764 0.043-0.918 0.206c-0.003 0.003-0.007 0.007-0.010 0.011l-0 0-0.306-0.067-0.001-0.151s0.004-0.002 0.012-0.007c0.002-0.001 0.004-0.002 0.007-0.003 0.351-0.176 0.764-0.28 1.201-0.284h0.001z"/><path fill="#000" d="M29.316 19.863l0.006 0.128c-0.339 0.010-0.98 0.212-0.98 0.212l-0.235-0.053c0.353-0.178 0.768-0.284 1.208-0.287h0.001z" opacity=".1"/><path fill="#fff" d="M28.114 20.146l0.228 0.057 0.069 0.16c-0.003 0.003-0.007 0.007-0.010 0.011l-0 0-0.306-0.067-0.001-0.151s0.004-0.002 0.012-0.007c0.002-0.001 0.004-0.002 0.007-0.003z" opacity=".1"/><path fill="#deaf62" d="M20.082 20.401l0.006 0.128 0.007 0.166s-0.764 0.043-0.918 0.206c-0.003 0.003-0.007 0.007-0.010 0.011l-0 0-0.306-0.067-0.001-0.151s0.004-0.002 0.012-0.007c0.002-0.001 0.004-0.002 0.007-0.003 0.351-0.176 0.764-0.28 1.201-0.284h0.001z"/><path fill="#000" d="M20.082 20.401l0.006 0.128c-0.339 0.010-0.98 0.212-0.98 0.212l-0.235-0.053c0.353-0.178 0.768-0.284 1.208-0.287h0.001z" opacity=".1"/><path fill="#fff" d="M18.879 20.685l0.228 0.057 0.069 0.16c-0.003 0.003-0.007 0.007-0.010 0.011l-0 0-0.306-0.067-0.001-0.151s0.004-0.002 0.012-0.007c0.002-0.001 0.004-0.002 0.007-0.003z" opacity=".1"/><path fill="#3f3d56" d="M33.918 16.021c-0.064-0.063-0.138-0.116-0.221-0.154l-0.005-0.002v-1.609c0-0.039-0.032-0.071-0.071-0.071v0h-0.398c-0.039 0-0.071 0.032-0.071 0.071v0 1.578c-0.29 0.098-0.495 0.368-0.495 0.685v0 3.452c0 0.175 0.142 0.316 0.316 0.316 0 0 0 0 0 0h0.853c0.174 0 0.315-0.141 0.315-0.315v0-3.412c0-0 0-0.001 0-0.001 0-0.21-0.085-0.401-0.223-0.538l-0-0z"/><path fill="#deaf62" d="M32.657 17.025h1.484v1.961h-1.484v-1.961z"/><path fill="#deaf62" d="M33.724 14.295h-0.032v-0.039c0-0.039-0.032-0.071-0.071-0.071v0h-0.398c-0.039 0-0.071 0.032-0.071 0.071v0 0.039h-0.032v0.165h0.032v0.843h0.541v-0.843h0.032z"/><path fill="#d0cde1" d="M22.033 17.417c-0.039-0.084-0.070-0.143-0.081-0.164-0.666 0.164-1.111 0.025-1.181 0.001-0.034 0.065-0.248 0.479-0.335 0.875-0.078 0.358-0.033 0.598 0.135 0.713l0.005 0.004 0.001 0.001c0.185 0.122 0.361 0.23 0.524 0.321q0.033 0.018 0.062 0.034l0.002 0.001 0.001 0.002c0.020 0.026 0.041 0.054 0.060 0.084l0.002 0.004c0.035 0.048 0.057 0.106 0.063 0.17l0 0.001v1.777l-0.011 0c-0.425 0.009-0.688 0.081-0.688 0.142 0 0.068 0.315 0.143 0.768 0.143s0.768-0.076 0.768-0.143c0-0.061-0.259-0.133-0.676-0.142l-0.011-0 0.011-1.644c0-0.117 0.028-0.227 0.078-0.325l-0.002 0.004c0.008-0.017 0.017-0.033 0.027-0.048 0.008-0.012 0.016-0.024 0.024-0.036l0.002-0.002 0.002-0.001q0.031-0.017 0.067-0.037l0.003-0.002c0.154-0.087 0.32-0.189 0.494-0.304 0.155-0.102 0.209-0.309 0.16-0.614-0.046-0.291-0.174-0.604-0.274-0.816z"/><path fill="#deaf62" d="M22.073 18.81c-0.182 0.12-0.332 0.21-0.447 0.275h-0c-0.053-0.004-0.116-0.006-0.178-0.006-0.114 0-0.227 0.007-0.338 0.022l0.013-0.001c-0.118-0.066-0.277-0.16-0.472-0.289-0.002-0.001-0.004-0.002-0.006-0.004v-0c-0.179-0.123-0.184-0.385-0.125-0.652 0.148-0.017 0.385-0.009 0.703 0.104 0.377 0.134 0.771 0.058 0.999-0.011 0.038 0.236 0.015 0.454-0.149 0.562z"/><path fill="#deaf62" d="M21.042 18.006c0 0.028-0.023 0.052-0.052 0.052s-0.052-0.023-0.052-0.052c0-0.028 0.023-0.052 0.052-0.052s0.052 0.023 0.052 0.052z"/><path fill="#fff" d="M20.898 18.48c0 0.028-0.023 0.052-0.052 0.052s-0.052-0.023-0.052-0.052c0-0.028 0.023-0.052 0.052-0.052s0.052 0.023 0.052 0.052z"/><path fill="#deaf62" d="M21.145 18.13c0 0.017-0.014 0.031-0.031 0.031s-0.031-0.014-0.031-0.031c0-0.017 0.014-0.031 0.031-0.031s0.031 0.014 0.031 0.031z"/><path fill="#fff" d="M21.269 18.717c0 0.017-0.014 0.031-0.031 0.031s-0.031-0.014-0.031-0.031c0-0.017 0.014-0.031 0.031-0.031s0.031 0.014 0.031 0.031z"/><path fill="#fff" d="M21.052 18.748c0 0.017-0.014 0.031-0.031 0.031s-0.031-0.014-0.031-0.031c0-0.017 0.014-0.031 0.031-0.031s0.031 0.014 0.031 0.031z"/><path fill="#deaf62" d="M21.681 17.717c0 0.017-0.014 0.031-0.031 0.031s-0.031-0.014-0.031-0.031c0-0.017 0.014-0.031 0.031-0.031s0.031 0.014 0.031 0.031z"/><path fill="#d0cde1" d="M24.45 15.742c-0.039-0.084-0.070-0.143-0.081-0.164-0.666 0.164-1.111 0.025-1.181 0.001-0.034 0.065-0.248 0.479-0.335 0.875-0.078 0.358-0.033 0.598 0.135 0.713l0.005 0.004 0.001 0.001c0.185 0.122 0.361 0.23 0.524 0.321q0.033 0.018 0.062 0.034l0.002 0.001 0.001 0.002c0.020 0.026 0.041 0.054 0.060 0.084l0.002 0.004c0.035 0.048 0.057 0.106 0.063 0.17l0 0.001v1.777l-0.011 0c-0.425 0.009-0.688 0.081-0.688 0.142 0 0.068 0.315 0.143 0.768 0.143s0.768-0.076 0.768-0.143c0-0.061-0.259-0.133-0.676-0.142l-0.011-0 0.011-1.644c0-0.117 0.028-0.227 0.078-0.325l-0.002 0.004c0.008-0.017 0.017-0.033 0.027-0.048 0.008-0.012 0.016-0.024 0.024-0.036l0.002-0.002 0.002-0.001q0.031-0.017 0.067-0.037l0.003-0.002c0.154-0.087 0.32-0.189 0.494-0.304 0.155-0.102 0.209-0.309 0.16-0.614-0.046-0.291-0.174-0.604-0.274-0.816z"/><path fill="#deaf62" d="M24.49 17.134c-0.182 0.12-0.332 0.21-0.447 0.275h-0c-0.053-0.004-0.116-0.006-0.178-0.006-0.114 0-0.227 0.007-0.338 0.022l0.013-0.001c-0.118-0.066-0.277-0.16-0.472-0.289-0.002-0.001-0.004-0.002-0.006-0.004v-0c-0.179-0.123-0.184-0.385-0.125-0.652 0.148-0.017 0.385-0.009 0.703 0.104 0.377 0.134 0.771 0.058 0.999-0.011 0.038 0.236 0.015 0.454-0.149 0.562z"/><path fill="#deaf62" d="M23.459 16.33c0 0.028-0.023 0.052-0.052 0.052s-0.052-0.023-0.052-0.052c0-0.028 0.023-0.052 0.052-0.052s0.052 0.023 0.052 0.052z"/><path fill="#fff" d="M23.315 16.804c0 0.028-0.023 0.052-0.052 0.052s-0.052-0.023-0.052-0.052c0-0.028 0.023-0.052 0.052-0.052s0.052 0.023 0.052 0.052z"/><path fill="#deaf62" d="M23.562 16.454c0 0.017-0.014 0.031-0.031 0.031s-0.031-0.014-0.031-0.031c0-0.017 0.014-0.031 0.031-0.031s0.031 0.014 0.031 0.031z"/><path fill="#fff" d="M23.686 17.041c0 0.017-0.014 0.031-0.031 0.031s-0.031-0.014-0.031-0.031c0-0.017 0.014-0.031 0.031-0.031s0.031 0.014 0.031 0.031z"/><path fill="#fff" d="M23.47 17.072c0 0.017-0.014 0.031-0.031 0.031s-0.031-0.014-0.031-0.031c0-0.017 0.014-0.031 0.031-0.031s0.031 0.014 0.031 0.031z"/><path fill="#deaf62" d="M24.098 16.042c0 0.017-0.014 0.031-0.031 0.031s-0.031-0.014-0.031-0.031c0-0.017 0.014-0.031 0.031-0.031s0.031 0.014 0.031 0.031z"/></svg>