<svg xmlns="http://www.w3.org/2000/svg" width="134" height="32" version="1.1" viewBox="0 0 134 32"><title>logo</title><path fill="#fff" d="M9.223 17.692v0q0.478 0 0.782-0.029v0 0.203q-0.254 0.101-0.493 0.384v0 0q-0.239 0.29-0.406 0.819v0l-1.782 5.796q-0.109-0.015-0.355-0.015v0 0q-0.246 0-0.355 0.015v0l-1.492-4.528-1.5 4.528q-0.109-0.015-0.355-0.015v0 0q-0.246 0-0.355 0.015v0l-2.275-6.354q-0.116-0.333-0.29-0.485v0 0q-0.174-0.152-0.348-0.159v0-0.203q0.609 0.029 1.514 0.029v0 0q0.848 0 1.246-0.029v0 0.203q-0.355 0.051-0.355 0.391v0 0q0 0.167 0.094 0.456v0l1.478 4.289 1.022-3.021-0.514-1.572q-0.101-0.29-0.239-0.406v0 0q-0.138-0.123-0.319-0.138v0-0.203q0.565 0.029 1.449 0.029v0 0q0.993 0 1.464-0.029v0 0.203q-0.37 0.007-0.529 0.080v0 0q-0.159 0.080-0.159 0.29v0 0q0 0.188 0.101 0.478v0l1.384 4.238 0.964-3.057q0.239-0.761 0.239-1.181v0 0q0-0.435-0.225-0.63v0 0q-0.217-0.203-0.652-0.217v0-0.203q0.688 0.029 1.261 0.029v0zM11.527 24.916v0q-0.652 0-0.971-0.341v0 0q-0.319-0.333-0.319-0.877v0 0q0-0.456 0.239-0.761v0 0q0.239-0.297 0.572-0.456v0 0q0.341-0.167 0.869-0.348v0 0q0.558-0.196 0.819-0.348v0 0q0.261-0.159 0.261-0.435v0-0.79q0-0.427-0.203-0.667v0 0q-0.196-0.239-0.609-0.239v0 0q-0.493 0-0.746 0.246v0 0q0.29 0.101 0.442 0.304v0 0q0.159 0.203 0.159 0.478v0 0q0 0.341-0.232 0.543v0 0q-0.232 0.203-0.572 0.203v0 0q-0.355 0-0.543-0.217v0 0q-0.196-0.225-0.196-0.558v0 0q0-0.29 0.138-0.485v0 0q0.138-0.196 0.42-0.369v0 0q0.275-0.159 0.674-0.254v0 0q0.406-0.094 0.877-0.094v0 0q0.5 0 0.862 0.101v0 0q0.37 0.101 0.609 0.348v0 0q0.225 0.225 0.304 0.551v0 0q0.072 0.319 0.072 0.877v0 2.76q0 0.246 0.043 0.348v0 0q0.051 0.101 0.181 0.101v0 0q0.152 0 0.362-0.174v0l0.101 0.174q-0.456 0.377-1.116 0.377v0 0q-0.558 0-0.775-0.225v0 0q-0.225-0.225-0.239-0.601v0 0q-0.507 0.826-1.485 0.826v0zM12.302 24.264v0q0.398 0 0.696-0.413v0-2.079q-0.123 0.203-0.522 0.442v0 0q-0.391 0.254-0.594 0.507v0 0q-0.203 0.254-0.203 0.732v0 0q0 0.413 0.167 0.616v0 0q0.174 0.196 0.456 0.196v0zM19.62 19.627v0q0.507 0 0.782-0.029v0 0.203q-0.217 0.058-0.384 0.261v0 0q-0.167 0.196-0.319 0.609v0l-1.819 5.108q-0.203 0.522-0.442 0.717v0 0q-0.297 0.254-0.884 0.254v0 0q-0.427 0-0.768-0.21v0 0q-0.341-0.203-0.341-0.601v0 0q0-0.312 0.225-0.5v0 0q0.225-0.188 0.587-0.188v0 0q0.348 0 0.558 0.167v0 0q0.203 0.167 0.203 0.471v0 0q0 0.21-0.13 0.391v0 0q-0.13 0.174-0.377 0.268v0 0q0.072 0.007 0.239 0.007v0 0q0.623 0 0.92-0.797v0l0.159-0.485-2.145-4.89q-0.167-0.348-0.319-0.456v0 0q-0.152-0.116-0.312-0.116v0-0.21q0.667 0.058 1.391 0.058v0 0q0.594 0 1.406-0.058v0 0.21q-0.326 0-0.478 0.051v0 0q-0.159 0.043-0.159 0.239v0 0q0 0.109 0.072 0.283v0l1.239 2.992 0.696-1.949q0.167-0.478 0.167-0.811v0 0q0-0.739-0.753-0.811v0-0.203q0.478 0.029 0.985 0.029v0zM24.474 19.453v0q0.775 0 1.116 0.398v0 0q0.174 0.196 0.246 0.5v0 0q0.072 0.304 0.072 0.819v0 2.731q0 0.413 0.145 0.572v0 0q0.145 0.152 0.5 0.152v0 0.217q-1.014-0.043-1.333-0.043v0 0q-0.304 0-1.319 0.043v0-0.217q0.304 0 0.42-0.152v0 0q0.123-0.159 0.123-0.572v0-3.159q0-0.413-0.138-0.63v0 0q-0.138-0.21-0.493-0.21v0 0q-0.413 0-0.71 0.341v0 0q-0.29 0.341-0.29 0.833v0 2.826q0 0.413 0.123 0.572v0 0q0.116 0.152 0.42 0.152v0 0.217q-0.927-0.043-1.253-0.043v0 0q-0.304 0-1.398 0.043v0-0.217q0.362 0 0.507-0.152v0 0q0.138-0.159 0.138-0.572v0-3.195q0-0.471-0.138-0.681v0 0q-0.145-0.217-0.507-0.217v0-0.21q0.319 0.029 0.623 0.029v0 0q0.906 0 1.485-0.138v0 0.913q0.456-0.949 1.659-0.949v0zM29.915 24.155v0q0.833 0 1.34-0.811v0l0.181 0.058q-0.203 0.659-0.724 1.123v0 0q-0.522 0.456-1.304 0.456v0 0q-1.080 0-1.71-0.681v0 0q-0.638-0.688-0.638-2.021v0 0q0-1.369 0.681-2.101v0 0q0.681-0.724 1.804-0.724v0 0q1.913 0 1.913 2.253v0h-2.855q-0.007 0.152-0.007 0.478v0 0q0 0.667 0.188 1.116v0 0q0.188 0.449 0.485 0.652v0 0q0.297 0.203 0.645 0.203v0zM29.488 19.67v0q-0.362 0-0.601 0.449v0 0q-0.239 0.449-0.304 1.398v0h1.594q0.022-0.804-0.152-1.326v0 0q-0.181-0.522-0.536-0.522v0zM41.942 17.866v0q-0.341 0.015-0.493 0.080v0 0q-0.152 0.058-0.21 0.232v0 0q-0.058 0.174-0.058 0.558v0 5.028q0 0.391 0.058 0.558v0 0q0.058 0.174 0.21 0.239v0 0q0.152 0.058 0.493 0.080v0 0.203q-0.493-0.029-1.543-0.029v0 0q-1.022 0-1.587 0.029v0-0.203q0.333-0.022 0.485-0.080v0 0q0.159-0.065 0.217-0.239v0 0q0.058-0.167 0.058-0.558v0-2.434h-2.688v2.434q0 0.391 0.051 0.558v0 0q0.058 0.174 0.21 0.239v0 0q0.152 0.058 0.5 0.080v0 0.203q-0.551-0.029-1.536-0.029v0 0q-1.087 0-1.601 0.029v0-0.203q0.333-0.022 0.493-0.080v0 0q0.159-0.065 0.21-0.239v0 0q0.058-0.167 0.058-0.558v0-5.028q0-0.384-0.058-0.558v0 0q-0.051-0.174-0.21-0.232v0 0q-0.159-0.065-0.493-0.080v0-0.203q0.514 0.029 1.601 0.029v0 0q0.985 0 1.536-0.029v0 0.203q-0.348 0.015-0.5 0.080v0 0q-0.152 0.058-0.21 0.232v0 0q-0.051 0.174-0.051 0.558v0 2.391h2.688v-2.391q0-0.384-0.058-0.558v0 0q-0.058-0.174-0.217-0.232v0 0q-0.152-0.065-0.485-0.080v0-0.203q0.565 0.029 1.587 0.029v0 0q1.051 0 1.543-0.029v0 0.203zM45.137 19.453v0q1.166 0 1.826 0.667v0 0q0.659 0.667 0.659 2.108v0 0q0 1.435-0.659 2.094v0 0q-0.659 0.659-1.826 0.659v0 0q-1.152 0-1.819-0.659v0 0q-0.667-0.659-0.667-2.094v0 0q0-1.442 0.667-2.108v0 0q0.667-0.667 1.819-0.667v0zM45.137 19.656v0q-0.435 0-0.696 0.638v0 0q-0.254 0.63-0.254 1.934v0 0q0 1.297 0.254 1.927v0 0q0.261 0.623 0.696 0.623v0 0q0.449 0 0.703-0.623v0 0q0.254-0.623 0.254-1.927v0 0q0-1.311-0.261-1.942v0 0q-0.261-0.63-0.696-0.63v0zM50.31 17.931v1.666h1.195v0.203h-1.195v4.101q0 0.304 0.109 0.427v0 0q0.109 0.13 0.341 0.13v0 0q0.435 0 0.688-0.609v0l0.174 0.087q-0.384 1.043-1.391 1.043v0 0q-0.667 0-1.014-0.341v0 0q-0.21-0.217-0.29-0.536v0 0q-0.072-0.319-0.072-0.877v0-3.427h-0.855v-0.203h0.855v-1.34q0.84 0 1.456-0.326v0zM54.802 24.155v0q0.833 0 1.34-0.811v0l0.181 0.058q-0.203 0.659-0.724 1.123v0 0q-0.522 0.456-1.304 0.456v0 0q-1.072 0-1.71-0.681v0 0q-0.63-0.688-0.63-2.021v0 0q0-1.369 0.681-2.101v0 0q0.681-0.724 1.804-0.724v0 0q1.905 0 1.905 2.253v0h-2.847q-0.014 0.152-0.014 0.478v0 0q0 0.667 0.188 1.116v0 0q0.188 0.449 0.485 0.652v0 0q0.304 0.203 0.645 0.203v0zM54.382 19.67v0q-0.37 0-0.609 0.449v0 0q-0.239 0.449-0.297 1.398v0h1.594q0.022-0.804-0.159-1.326v0 0q-0.174-0.522-0.529-0.522v0zM59.004 16.903v6.999q0 0.413 0.145 0.572v0 0q0.138 0.152 0.507 0.152v0 0.217q-1.058-0.043-1.362-0.043v0 0q-0.348 0-1.398 0.043v0-0.217q0.355 0 0.5-0.152v0 0q0.145-0.159 0.145-0.572v0-5.782q0-0.471-0.145-0.681v0 0q-0.145-0.217-0.5-0.217v0-0.21q0.326 0.029 0.63 0.029v0 0q0.877 0 1.478-0.138v0zM62.098 19.453v0q0.384 0 0.71 0.101v0 0q0.326 0.094 0.5 0.217v0 0q0.101 0.072 0.181 0.072v0 0q0.087 0 0.152-0.101v0 0q0.072-0.094 0.087-0.275v0h0.217q-0.043 0.514-0.043 1.782v0h-0.21q-0.094-0.667-0.406-1.123v0 0q-0.304-0.449-0.891-0.449v0 0q-0.304 0-0.507 0.174v0 0q-0.196 0.174-0.196 0.478v0 0q0 0.341 0.232 0.594v0 0q0.232 0.246 0.732 0.601v0l0.297 0.21q0.616 0.471 0.913 0.833v0 0q0.29 0.369 0.29 0.913v0 0q0 0.449-0.261 0.79v0 0q-0.254 0.348-0.688 0.529v0 0q-0.442 0.181-0.964 0.181v0 0q-0.558 0-0.956-0.21v0 0q-0.326-0.159-0.464-0.21v0 0q-0.101-0.036-0.181 0.065v0 0q-0.072 0.094-0.116 0.29v0h-0.21q0.036-0.58 0.036-2.029v0h0.217q0.203 1.862 1.369 1.862v0 0q0.29 0 0.5-0.174v0 0q0.21-0.181 0.21-0.543v0 0q0-0.283-0.13-0.507v0 0q-0.123-0.225-0.319-0.398v0 0q-0.196-0.174-0.58-0.478v0 0q-0.456-0.362-0.696-0.587v0 0q-0.239-0.225-0.406-0.529v0 0q-0.167-0.304-0.167-0.674v0 0q0-0.652 0.507-1.029v0 0q0.507-0.377 1.239-0.377v0zM75.842 18.946v0q0 0.753-0.522 1.174v0 0q-0.522 0.42-1.536 0.638v0l-0.181 0.058q0.456 0.203 0.696 0.652v0 0q0.246 0.442 0.246 1.029v0 0q0 0.71-0.435 1.275v0 0q-0.442 0.565-1.239 0.891v0 0q-0.79 0.319-1.826 0.319v0 0q-1.116 0-1.963-0.304v0 0q-0.848-0.304-1.311-0.877v0 0q-0.456-0.572-0.456-1.34v0 0q0-0.688 0.362-1.166v0 0q0.362-0.471 0.826-0.71v0 0q0.464-0.246 0.869-0.348v0 0q-1.145-0.456-1.145-1.275v0 0q0-0.623 0.594-0.971v0 0q0.601-0.348 1.42-0.348v0 0q0.377 0 0.623 0.051v0 0q0.239 0.051 0.435 0.159v0 0q0.275 0.13 0.442 0.333v0 0q0.174 0.203 0.174 0.493v0 0q0 0.29-0.225 0.478v0 0q-0.232 0.188-0.558 0.188v0 0q-0.319 0-0.529-0.159v0 0q-0.21-0.167-0.21-0.471v0 0q0-0.254 0.181-0.464v0 0q0.188-0.203 0.471-0.254v0 0q-0.094-0.080-0.275-0.13v0 0q-0.181-0.051-0.398-0.051v0 0q-0.558 0-0.913 0.341v0 0q-0.355 0.348-0.355 0.985v0 0q0 0.587 0.398 1.036v0 0q0.377-0.080 0.565-0.080v0 0q0.188 0 0.283 0.072v0 0q0.094 0.080 0.094 0.196v0 0q0 0.101-0.080 0.159v0 0q-0.080 0.058-0.203 0.058v0 0q-0.152 0-0.297-0.072v0 0q-0.138-0.072-0.355-0.196v0 0q-0.514 0.268-0.797 0.659v0 0q-0.275 0.391-0.275 0.985v0 0q0 0.985 0.782 1.478v0 0q0.79 0.493 2.181 0.493v0 0q0.696 0 1.34-0.21v0 0q0.645-0.21 1.043-0.609v0 0q0.406-0.398 0.406-0.949v0 0q0-0.935-0.775-1.29v0l-0.645 0.188q-0.572 0.159-0.572 0.159v0 0q-0.848 0.196-1.246 0.406v0 0q-0.391 0.21-0.391 0.58v0 0q0 0.362 0.333 0.594v0 0q0.341 0.225 0.761 0.225v0 0q0.109 0 0.239-0.029v0 0q0.123-0.029 0.167-0.072v0 0q-0.246-0.080-0.377-0.254v0 0q-0.13-0.174-0.13-0.413v0 0q0-0.319 0.225-0.493v0 0q0.232-0.181 0.587-0.181v0 0q0.362 0 0.572 0.188v0 0q0.21 0.188 0.21 0.507v0 0q0 0.456-0.406 0.688v0 0q-0.406 0.232-1.036 0.232v0 0q-0.652 0-1.080-0.333v0 0q-0.435-0.333-0.435-0.964v0 0q0-0.761 0.58-1.21v0 0q0.58-0.442 1.695-0.659v0l0.435-0.109q0.659-0.152 1.072-0.297v0 0q0.782-0.188 1.159-0.42v0 0q0.377-0.225 0.377-0.58v0 0q0-0.398-0.355-0.659v0 0q-0.348-0.268-0.79-0.268v0 0q-0.196 0-0.297 0.051v0 0q0.232 0.094 0.362 0.268v0 0q0.138 0.181 0.138 0.369v0 0q0 0.304-0.232 0.478v0 0q-0.225 0.174-0.58 0.174v0 0q-0.355 0-0.58-0.181v0 0q-0.217-0.174-0.217-0.485v0 0q0-0.398 0.348-0.63v0 0q0.348-0.225 0.92-0.225v0 0q0.732 0 1.174 0.377v0 0q0.442 0.384 0.442 1.051v0zM85.449 24.271l0.138 0.123q-0.268 0.319-0.587 0.449v0 0q-0.312 0.138-0.761 0.138v0 0q-0.587 0-0.927-0.246v0 0q-0.341-0.246-0.442-0.848v0l-0.181-1.014q-0.13-0.739-0.319-1.087v0 0q-0.188-0.355-0.623-0.355v0h-0.659v2.333q0 0.391 0.051 0.558v0 0q0.058 0.174 0.21 0.239v0 0q0.152 0.058 0.5 0.080v0 0.203q-0.551-0.029-1.536-0.029v0 0q-1.080 0-1.601 0.029v0-0.203q0.333-0.022 0.493-0.080v0 0q0.159-0.065 0.21-0.239v0 0q0.058-0.167 0.058-0.558v0-5.028q0-0.384-0.058-0.558v0 0q-0.051-0.174-0.21-0.232v0 0q-0.159-0.065-0.493-0.080v0-0.203q0.522 0.029 1.543 0.029v0l1.123-0.015q0.203-0.007 0.471-0.007v0 0q1.398 0 2.101 0.456v0 0q0.71 0.456 0.71 1.311v0 0q0 0.717-0.529 1.268v0 0q-0.529 0.543-1.746 0.688v0 0q0.913 0.080 1.362 0.391v0 0q0.442 0.319 0.572 0.949v0l0.239 1.043q0.080 0.406 0.181 0.565v0 0q0.109 0.167 0.304 0.167v0 0q0.123-0.015 0.203-0.065v0 0q0.087-0.051 0.203-0.174v0zM81.718 17.866v0q-0.275 0-0.406 0.065v0 0q-0.123 0.072-0.174 0.254v0 0q-0.051 0.188-0.051 0.551v0 2.492h0.435q0.833 0 1.138-0.442v0 0q0.312-0.435 0.312-1.239v0 0q0-0.833-0.29-1.261v0 0q-0.297-0.42-0.964-0.42v0zM88.615 24.155v0q0.826 0 1.333-0.811v0l0.188 0.058q-0.203 0.659-0.732 1.123v0 0q-0.522 0.456-1.297 0.456v0 0q-1.080 0-1.71-0.681v0 0q-0.638-0.688-0.638-2.021v0 0q0-1.369 0.681-2.101v0 0q0.681-0.724 1.804-0.724v0 0q1.905 0 1.905 2.253v0h-2.847q-0.007 0.152-0.007 0.478v0 0q0 0.667 0.188 1.116v0 0q0.181 0.449 0.485 0.652v0 0q0.297 0.203 0.645 0.203v0zM88.188 19.67v0q-0.37 0-0.601 0.449v0 0q-0.239 0.449-0.304 1.398v0h1.594q0.022-0.804-0.159-1.326v0 0q-0.174-0.522-0.529-0.522v0zM92.752 19.453v0q0.384 0 0.71 0.101v0 0q0.326 0.094 0.493 0.217v0 0q0.101 0.072 0.188 0.072v0 0q0.087 0 0.152-0.101v0 0q0.065-0.094 0.087-0.275v0h0.217q-0.043 0.514-0.043 1.782v0h-0.21q-0.094-0.667-0.406-1.123v0 0q-0.304-0.449-0.898-0.449v0 0q-0.304 0-0.5 0.174v0 0q-0.196 0.174-0.196 0.478v0 0q0 0.341 0.232 0.594v0 0q0.232 0.246 0.732 0.601v0l0.29 0.21q0.623 0.471 0.913 0.833v0 0q0.297 0.369 0.297 0.913v0 0q0 0.449-0.261 0.79v0 0q-0.254 0.348-0.696 0.529v0 0q-0.435 0.181-0.964 0.181v0 0q-0.558 0-0.949-0.21v0 0q-0.326-0.159-0.471-0.21v0 0q-0.101-0.036-0.174 0.065v0 0q-0.080 0.094-0.116 0.29v0h-0.217q0.043-0.58 0.043-2.029v0h0.21q0.203 1.862 1.369 1.862v0 0q0.297 0 0.507-0.174v0 0q0.203-0.181 0.203-0.543v0 0q0-0.283-0.123-0.507v0 0q-0.13-0.225-0.319-0.398v0 0q-0.196-0.174-0.58-0.478v0 0q-0.456-0.362-0.696-0.587v0 0q-0.239-0.225-0.406-0.529v0 0q-0.167-0.304-0.167-0.674v0 0q0-0.652 0.507-1.029v0 0q0.507-0.377 1.239-0.377v0zM97.491 17.931v1.666h1.195v0.203h-1.195v4.101q0 0.304 0.101 0.427v0 0q0.109 0.13 0.341 0.13v0 0q0.435 0 0.688-0.609v0l0.174 0.087q-0.384 1.043-1.391 1.043v0 0q-0.667 0-1.014-0.341v0 0q-0.21-0.217-0.29-0.536v0 0q-0.072-0.319-0.072-0.877v0-3.427h-0.855v-0.203h0.855v-1.34q0.84 0 1.464-0.326v0zM100.338 24.916v0q-0.652 0-0.971-0.341v0 0q-0.319-0.333-0.319-0.877v0 0q0-0.456 0.239-0.761v0 0q0.239-0.297 0.58-0.456v0 0q0.341-0.167 0.869-0.348v0 0q0.558-0.196 0.811-0.348v0 0q0.261-0.159 0.261-0.435v0-0.79q0-0.427-0.196-0.667v0 0q-0.203-0.239-0.616-0.239v0 0q-0.485 0-0.739 0.246v0 0q0.283 0.101 0.442 0.304v0 0q0.152 0.203 0.152 0.478v0 0q0 0.341-0.232 0.543v0 0q-0.232 0.203-0.565 0.203v0 0q-0.355 0-0.551-0.217v0 0q-0.188-0.225-0.188-0.558v0 0q0-0.29 0.13-0.485v0 0q0.138-0.196 0.427-0.369v0 0q0.268-0.159 0.674-0.254v0 0q0.398-0.094 0.877-0.094v0 0q0.493 0 0.862 0.101v0 0q0.362 0.101 0.609 0.348v0 0q0.225 0.225 0.297 0.551v0 0q0.080 0.319 0.080 0.877v0 2.76q0 0.246 0.043 0.348v0 0q0.043 0.101 0.174 0.101v0 0q0.152 0 0.37-0.174v0l0.101 0.174q-0.456 0.377-1.116 0.377v0 0q-0.558 0-0.782-0.225v0 0q-0.225-0.225-0.232-0.601v0 0q-0.507 0.826-1.493 0.826v0zM101.121 24.264v0q0.391 0 0.688-0.413v0-2.079q-0.123 0.203-0.514 0.442v0 0q-0.398 0.254-0.601 0.507v0 0q-0.203 0.254-0.203 0.732v0 0q0 0.413 0.174 0.616v0 0q0.174 0.196 0.456 0.196v0zM109.308 19.489v4.246q0 0.471 0.145 0.681v0 0q0.145 0.21 0.5 0.21v0 0.217q-0.312-0.029-0.63-0.029v0 0q-0.877 0-1.478 0.138v0-0.913q-0.464 0.942-1.63 0.942v0 0q-0.761 0-1.109-0.391v0 0q-0.159-0.196-0.239-0.5v0 0q-0.072-0.312-0.072-0.819v0-2.565q0-0.471-0.152-0.681v0 0q-0.145-0.217-0.5-0.217v0-0.21q0.312 0.029 0.63 0.029v0 0q0.884 0 1.478-0.138v0 4.195q0 0.427 0.13 0.638v0 0q0.123 0.217 0.478 0.217v0 0q0.406 0 0.696-0.341v0 0q0.29-0.341 0.29-0.84v0-2.652q0-0.471-0.145-0.681v0 0q-0.152-0.217-0.507-0.217v0-0.21q0.326 0.029 0.63 0.029v0 0q0.884 0 1.485-0.138v0zM113.886 19.453v0q0.456 0 0.696 0.275v0 0q0.232 0.275 0.232 0.659v0 0q0 0.377-0.217 0.616v0 0q-0.217 0.239-0.572 0.239v0 0q-0.348 0-0.551-0.181v0 0q-0.203-0.174-0.203-0.471v0 0q0-0.485 0.449-0.79v0 0q-0.043-0.007-0.123-0.007v0 0q-0.101 0-0.167 0.015v0 0q-0.384 0.065-0.652 0.471v0 0q-0.268 0.406-0.268 0.833v0 2.688q0 0.464 0.232 0.645v0 0q0.225 0.181 0.725 0.181v0 0.217q-0.145 0-0.239-0.015v0 0q-1.029-0.029-1.377-0.029v0 0q-0.275 0-1.246 0.029v0 0q-0.080 0.015-0.203 0.015v0-0.217q0.362 0 0.507-0.152v0 0q0.138-0.159 0.138-0.572v0-3.195q0-0.471-0.138-0.681v0 0q-0.145-0.217-0.507-0.217v0-0.21q0.326 0.029 0.63 0.029v0 0q0.898 0 1.478-0.138v0 0.942q0.196-0.435 0.558-0.703v0 0q0.362-0.275 0.819-0.275v0zM116.473 24.916v0q-0.645 0-0.964-0.341v0 0q-0.319-0.333-0.319-0.877v0 0q0-0.456 0.239-0.761v0 0q0.232-0.297 0.572-0.456v0 0q0.341-0.167 0.869-0.348v0 0q0.558-0.196 0.819-0.348v0 0q0.254-0.159 0.254-0.435v0-0.79q0-0.427-0.196-0.667v0 0q-0.196-0.239-0.616-0.239v0 0q-0.485 0-0.739 0.246v0 0q0.283 0.101 0.442 0.304v0 0q0.159 0.203 0.159 0.478v0 0q0 0.341-0.232 0.543v0 0q-0.239 0.203-0.572 0.203v0 0q-0.355 0-0.543-0.217v0 0q-0.196-0.225-0.196-0.558v0 0q0-0.29 0.138-0.485v0 0q0.138-0.196 0.42-0.369v0 0q0.275-0.159 0.674-0.254v0 0q0.398-0.094 0.877-0.094v0 0q0.5 0 0.862 0.101v0 0q0.37 0.101 0.609 0.348v0 0q0.225 0.225 0.304 0.551v0 0q0.072 0.319 0.072 0.877v0 2.76q0 0.246 0.043 0.348v0 0q0.051 0.101 0.181 0.101v0 0q0.152 0 0.362-0.174v0l0.101 0.174q-0.456 0.377-1.116 0.377v0 0q-0.558 0-0.782-0.225v0 0q-0.217-0.225-0.232-0.601v0 0q-0.507 0.826-1.493 0.826v0zM117.255 24.264v0q0.398 0 0.688-0.413v0-2.079q-0.116 0.203-0.514 0.442v0 0q-0.398 0.254-0.601 0.507v0 0q-0.203 0.254-0.203 0.732v0 0q0 0.413 0.174 0.616v0 0q0.174 0.196 0.456 0.196v0zM124.167 19.453v0q0.768 0 1.116 0.398v0 0q0.167 0.196 0.239 0.5v0 0q0.072 0.304 0.072 0.819v0 2.731q0 0.413 0.145 0.572v0 0q0.152 0.152 0.507 0.152v0 0.217q-1.014-0.043-1.34-0.043v0 0q-0.304 0-1.319 0.043v0-0.217q0.304 0 0.427-0.152v0 0q0.116-0.159 0.116-0.572v0-3.159q0-0.413-0.13-0.63v0 0q-0.138-0.21-0.493-0.21v0 0q-0.42 0-0.71 0.341v0 0q-0.297 0.341-0.297 0.833v0 2.826q0 0.413 0.123 0.572v0 0q0.123 0.152 0.427 0.152v0 0.217q-0.935-0.043-1.261-0.043v0 0q-0.304 0-1.398 0.043v0-0.217q0.362 0 0.507-0.152v0 0q0.138-0.159 0.138-0.572v0-3.195q0-0.471-0.138-0.681v0 0q-0.145-0.217-0.507-0.217v0-0.21q0.326 0.029 0.63 0.029v0 0q0.898 0 1.478-0.138v0 0.913q0.456-0.949 1.666-0.949v0zM128.681 17.931v1.666h1.195v0.203h-1.195v4.101q0 0.304 0.101 0.427v0 0q0.109 0.13 0.341 0.13v0 0q0.435 0 0.688-0.609v0l0.174 0.087q-0.384 1.043-1.391 1.043v0 0q-0.667 0-1.014-0.341v0 0q-0.21-0.217-0.283-0.536v0 0q-0.080-0.319-0.080-0.877v0-3.427h-0.855v-0.203h0.855v-1.34q0.84 0 1.464-0.326v0zM132.195 19.453v0q0.391 0 0.71 0.101v0 0q0.326 0.094 0.5 0.217v0 0q0.101 0.072 0.181 0.072v0 0q0.094 0 0.159-0.101v0 0q0.065-0.094 0.087-0.275v0h0.21q-0.036 0.514-0.036 1.782v0h-0.217q-0.087-0.667-0.398-1.123v0 0q-0.312-0.449-0.898-0.449v0 0q-0.304 0-0.5 0.174v0 0q-0.203 0.174-0.203 0.478v0 0q0 0.341 0.239 0.594v0 0q0.232 0.246 0.725 0.601v0l0.297 0.21q0.616 0.471 0.913 0.833v0 0q0.297 0.369 0.297 0.913v0 0q0 0.449-0.261 0.79v0 0q-0.261 0.348-0.696 0.529v0 0q-0.435 0.181-0.964 0.181v0 0q-0.558 0-0.956-0.21v0 0q-0.319-0.159-0.464-0.21v0 0q-0.101-0.036-0.174 0.065v0 0q-0.080 0.094-0.123 0.29v0h-0.21q0.043-0.58 0.043-2.029v0h0.21q0.203 1.862 1.369 1.862v0 0q0.297 0 0.5-0.174v0 0q0.21-0.181 0.21-0.543v0 0q0-0.283-0.123-0.507v0 0q-0.13-0.225-0.326-0.398v0 0q-0.188-0.174-0.572-0.478v0 0q-0.456-0.362-0.696-0.587v0 0q-0.239-0.225-0.406-0.529v0 0q-0.167-0.304-0.167-0.674v0 0q0-0.652 0.507-1.029v0 0q0.507-0.377 1.232-0.377v0z"/><path fill="#fff" d="M73.57 0.462l-1.43 1.464h-10.372v10.919h10.372l1.43 1.464h-13.212v-13.846h13.212zM74.667 0h-14.769v14.769h14.769l-2.333-2.387h-10.104v-9.995h10.104l2.332-2.387z"/><path fill="#fff" d="M69.607 5.059v4.65h-4.65v-4.65h4.65zM70.069 4.598h-5.574v5.574h5.574v-5.574z"/></svg>