<svg xmlns="http://www.w3.org/2000/svg" width="51" height="32" version="1.1" viewBox="0 0 51 32"><title>party</title><path fill="#deaf62" d="M50.636 22.043c-0.511 1.23-1.581 2.34-2.729 3.392q-1.514 1.387-3.239 2.681-0.478 0.359-0.971 0.709l-0.228 0.161q-0.304 0.215-0.618 0.426l-0.025 0.017q-0.305 0.207-0.615 0.411c-0.676 0.444-1.392 0.886-2.182 1.251-0.269 0.125-0.547 0.241-0.835 0.345q-0.233 0.085-0.477 0.159c-0.266 0.081-0.539 0.151-0.824 0.209-0.048 0.010-0.096 0.019-0.144 0.028-0.292 0.055-0.587 0.095-0.886 0.122-1.094 0.1-2.224 0.027-3.319-0.145-0.548-0.086-1.087-0.196-1.608-0.322-0.064-0.015-0.128-0.031-0.192-0.045-1.776-0.444-3.444-1.048-5.233-1.472q-0.925-0.22-1.885-0.373-0.469-0.075-0.943-0.135c-0.744-0.092-1.497-0.154-2.253-0.186-1.020-0.045-2.073-0.026-3.043 0.153q-0.194 0.035-0.383 0.080-0.24 0.056-0.47 0.128c-0.473 0.154-0.872 0.322-1.254 0.519l0.047-0.022c-0.077 0.038-0.153 0.076-0.228 0.114v0c-0.238 0.121-0.473 0.245-0.711 0.365-0.373 0.201-0.814 0.392-1.272 0.548l-0.063 0.019c-0.201 0.067-0.459 0.135-0.721 0.188l-0.045 0.008c-0.685 0.137-1.415 0.192-2.147 0.195-0.353 0-0.707-0.008-1.057-0.026h-0.011c-0.119-0.006-0.239-0.013-0.359-0.022-0.546-0.037-1.090-0.095-1.626-0.173-1.836-0.269-3.578-0.778-4.979-1.555-1.903-1.054-3.111-2.626-2.93-4.196 0.13-1.131 0.939-2.182 1.706-3.21 1.427-1.915 2.764-3.873 3.467-5.938 0.571-1.676 0.741-3.447 2.054-4.953 0.421-0.482 0.958-0.922 1.585-1.308 0.415-0.259 0.897-0.508 1.4-0.717l0.067-0.025c0.485-0.207 1.074-0.404 1.681-0.558l0.088-0.019c0.428-0.113 0.966-0.217 1.514-0.29l0.072-0.008c0.29-0.038 0.584-0.067 0.879-0.087q0.341-0.024 0.685-0.030h0.035q0.211-0.004 0.421 0c1.091 0.017 2.145 0.121 3.171 0.304l-0.119-0.018c0.631 0.105 1.257 0.235 1.87 0.377q0.549 0.127 1.087 0.266c0.11 0.028 0.219 0.057 0.327 0.086 2.555 0.685 4.803 1.63 7.265 2.406 0.013 0.004 0.025 0.008 0.037 0.011v0c0.397 0.13 0.914 0.263 1.44 0.37l0.097 0.016c0.381 0.076 0.771 0.142 1.167 0.2 0.607 0.090 1.227 0.161 1.851 0.222l0.138 0.013c0.916 0.090 1.84 0.157 2.738 0.235 0.319 0.028 0.635 0.057 0.946 0.090q0.296 0.030 0.587 0.063c0.139 0.016 0.279 0.032 0.418 0.049s0.287 0.035 0.431 0.053c0.093 0.012 0.186 0.024 0.28 0.037 0.566 0.075 1.13 0.159 1.688 0.255 0.339 0.058 0.677 0.121 1.010 0.189q0.362 0.074 0.718 0.155 0.264 0.060 0.523 0.126c1.405 0.353 2.721 0.817 3.854 1.442 2.943 1.62 4.26 4.285 3.282 6.636z" opacity=".1"/><path fill="#deaf62" d="M12.148 3.087c0 0.536-0.435 0.971-0.971 0.971s-0.971-0.435-0.971-0.971c0-0.536 0.435-0.971 0.971-0.971s0.971 0.435 0.971 0.971z" opacity=".1"/><path fill="#deaf62" d="M31.993 0.971c0 0.536-0.435 0.971-0.971 0.971s-0.971-0.435-0.971-0.971c0-0.536 0.435-0.971 0.971-0.971s0.971 0.435 0.971 0.971z" opacity=".1"/><path fill="#deaf62" d="M43.761 3.145c0 0.536-0.435 0.971-0.971 0.971s-0.971-0.435-0.971-0.971c0-0.536 0.435-0.971 0.971-0.971s0.971 0.435 0.971 0.971z" opacity=".1"/><path fill="#deaf62" d="M3.254 5.436c0 0.899-0.729 1.627-1.627 1.627s-1.627-0.729-1.627-1.627c0-0.899 0.729-1.627 1.627-1.627s1.627 0.729 1.627 1.627z" opacity=".1"/><path fill="#deaf62" d="M4.814 13.471c0 0.899-0.729 1.627-1.627 1.627s-1.627-0.729-1.627-1.627c0-0.899 0.729-1.627 1.627-1.627s1.627 0.729 1.627 1.627z" opacity=".1"/><path fill="#deaf62" d="M48.487 10.513c0 0.899-0.729 1.627-1.627 1.627s-1.627-0.729-1.627-1.627c0-0.899 0.729-1.627 1.627-1.627s1.627 0.729 1.627 1.627z" opacity=".1"/><path fill="#be6f72" d="M15.906 10.744c0.002 0.031 0.003 0.067 0.003 0.103 0 0.108-0.010 0.214-0.028 0.316l0.002-0.011c-0.090 0.417-0.47 0.703-0.837 0.921s-0.772 0.423-0.99 0.79c-0.264 0.443-0.18 1.039 0.13 1.453s0.799 0.66 1.304 0.763c0.92 0.19 1.928-0.077 2.618-0.714s1.036-1.633 0.867-2.559c-0.374 0.053-0.708-0.278-0.829-0.636s-0.096-0.746-0.143-1.122c-0.004-0.067-0.024-0.128-0.057-0.181l0.001 0.002c-0.053-0.073-0.145-0.102-0.232-0.126-0.433-0.119-1.161-0.379-1.609-0.28-0.404 0.092-0.205 0.943-0.198 1.282z"/><path fill="#000" d="M15.906 10.744c0.002 0.031 0.003 0.067 0.003 0.103 0 0.108-0.010 0.214-0.028 0.316l0.002-0.011c-0.090 0.417-0.47 0.703-0.837 0.921s-0.772 0.423-0.99 0.79c-0.264 0.443-0.18 1.039 0.13 1.453s0.799 0.66 1.304 0.763c0.92 0.19 1.928-0.077 2.618-0.714s1.036-1.633 0.867-2.559c-0.374 0.053-0.708-0.278-0.829-0.636s-0.096-0.746-0.143-1.122c-0.004-0.067-0.024-0.128-0.057-0.181l0.001 0.002c-0.053-0.073-0.145-0.102-0.232-0.126-0.433-0.119-1.161-0.379-1.609-0.28-0.404 0.092-0.205 0.943-0.198 1.282z" opacity=".1"/><path fill="#be6f72" d="M15.383 30.617c-0.373 0.201-0.814 0.392-1.272 0.548l-0.063 0.019c-0.201 0.067-0.459 0.135-0.721 0.188l-0.045 0.008c-0.004-0.076-0.007-0.166-0.007-0.256 0-0.274 0.023-0.543 0.067-0.805l-0.004 0.028c0.035-0.196 0.087-0.391 0.1-0.589 0.002-0.031 0.003-0.066 0.003-0.102 0-0.265-0.067-0.515-0.185-0.733l0.004 0.008c0.5-0.068 0.975-0.18 1.477-0.147l0.032 0.002c0.063 0.002 0.123 0.014 0.179 0.034l-0.004-0.001c0.078 0.038 0.143 0.095 0.189 0.165l0.001 0.002c0.023 0.031 0.047 0.067 0.068 0.104l0.003 0.006c0.142 0.245 0.196 0.528 0.207 0.819 0.001 0.036 0.001 0.079 0.001 0.123 0 0.204-0.011 0.406-0.033 0.605l0.002-0.024z"/><path fill="#be6f72" d="M18.001 29.511q-0.24 0.056-0.47 0.128c-0.473 0.154-0.872 0.322-1.254 0.519l0.047-0.022c-0.023-0.108-0.037-0.233-0.037-0.36 0-0.004 0-0.008 0-0.012v0.001c0.329-0.23 0.738-0.367 1.178-0.367 0.145 0 0.286 0.015 0.422 0.043l-0.013-0.002c0.038 0.005 0.073 0.019 0.101 0.041l-0.001-0c0.011 0.009 0.019 0.020 0.027 0.032l0 0.001z"/><path fill="#3f3d56" d="M18.772 27.245c-0.031 0.294-0.075 0.588-0.18 0.864-0.113 0.296-0.296 0.584-0.272 0.9 0.010 0.137 0.057 0.286 0.064 0.422q-0.194 0.035-0.383 0.080-0.24 0.056-0.47 0.128c-0.473 0.154-0.872 0.322-1.254 0.519l0.047-0.022c-0.077 0.038-0.153 0.076-0.228 0.114v0c-0.031-0.004-0.062-0.009-0.094-0.015-0.224-0.041-0.461-0.141-0.588-0.321-0.028-0.039-0.051-0.083-0.067-0.131l-0.001-0.004c-0.073-0.219 0.003-0.491-0.149-0.664l-0.007 0.006-0.005 0.004c-0.080 0.073-0.169 0.138-0.266 0.193l-0.007 0.004c-0.259 0.149-0.57 0.237-0.901 0.237-0.208 0-0.407-0.035-0.593-0.098l0.013 0.004c-0.107-0.037-0.199-0.079-0.286-0.129l0.008 0.004c-0.206-0.117-0.404-0.314-0.388-0.549 0.009-0.131 0.084-0.257 0.064-0.387-0.015-0.093-0.076-0.17-0.122-0.252-0.3-0.539 0.058-1.231-0.131-1.817-0.005-0.014-0.009-0.028-0.014-0.041-0.014-0.038-0.030-0.075-0.045-0.112-0.039-0.086-0.082-0.17-0.116-0.258-0.025-0.063-0.048-0.139-0.066-0.218l-0.002-0.010c-0.031-0.158-0.049-0.341-0.049-0.527 0-0.055 0.002-0.11 0.005-0.164l-0 0.008c0-0.603 0.108-1.22 0.261-1.801 0.027-0.103 0.058-0.249 0.098-0.408v0c0.045-0.19 0.1-0.354 0.167-0.511l-0.008 0.020c0.090-0.206 0.212-0.371 0.379-0.41 0.251-0.059 0.636 0.066 0.891 0.096l3.023 0.361c0.348 0.042 0.713 0.090 1 0.285 0.019 0.013 0.037 0.026 0.056 0.041 0.076 0.060 0.143 0.128 0.2 0.203l0.002 0.003c0.021 0.026 0.040 0.054 0.059 0.083 0.060 0.091 0.116 0.195 0.162 0.305l0.005 0.012c0.25 0.601 0.256 1.271 0.258 1.921 0 0.679 0.002 1.357-0.068 2.031z"/><path fill="#000" d="M14.909 29.326c-0.061-0.233-0.189-0.571-0.207-0.663-0.056-0.258-0.105-0.577-0.135-0.901l-0.002-0.033c-0.050-0.559-0.14-1.347 0.058-1.879 0.185 0.099 0.348 0.378 0.434 0.569 0.311 0.692-0.039 1.541 0.253 2.241 0.021 0.039 0.035 0.085 0.040 0.133l0 0.002c-0.005 0.063-0.028 0.119-0.063 0.166l0.001-0.001-0.098 0.163z" opacity=".1"/><path fill="#be6f72" d="M21.374 7.97c0.33-0.539 0.783-1.068 0.755-1.698-0.010-0.224-0.084-0.444-0.14-0.664-0.082-0.311-0.129-0.669-0.129-1.037 0-0.321 0.036-0.634 0.103-0.934l-0.005 0.028c0.105-0.018 0.225-0.028 0.348-0.028 0.463 0 0.892 0.143 1.246 0.388l-0.007-0.005c0.147 0.101 0.286 0.228 0.351 0.394 0.060 0.154 0.050 0.325 0.039 0.489-0.025 0.378-0.058 0.78-0.291 1.077-0.072 0.093-0.161 0.171-0.232 0.265-0.103 0.135-0.163 0.299-0.222 0.459l-0.763 2.076c-0.385 1.046-0.803 2.141-1.651 2.865-0.021 0.018-0.628-0.846-0.679-0.932-0.203-0.355-0.114-0.505 0.132-0.802 0.485-0.588 0.749-1.296 1.145-1.941z"/><path fill="#fbbebe" d="M12.629 25.666c-0.003 0.166-0.017 0.326-0.042 0.482l0.003-0.020c-0.008 0.057-0.018 0.113-0.029 0.169-0.153 0.799-0.534 1.559-0.801 2.337-0.351 1.027-0.506 1.919-0.628 2.939-0.353 0-0.707-0.008-1.057-0.026h-0.011c-0.119-0.006-0.239-0.013-0.359-0.022 0.108-0.952-0.090-1.95 0.104-2.902 0.078-0.383 0.211-0.755 0.292-1.137 0.022-0.092 0.041-0.208 0.055-0.326l0.001-0.015c0.011-0.109 0.017-0.221 0.066-0.319 0.005-0.011 0.010-0.020 0.016-0.028l-0.001 0.001c0.044-0.069 0.097-0.128 0.157-0.179l0.001-0.001c0.526-0.463 1.183-0.79 1.909-0.918l0.024-0.003c0.102-0.014 0.201-0.026 0.3-0.032z"/><path fill="#000" d="M12.629 25.666c-0.003 0.166-0.017 0.326-0.042 0.482l0.003-0.020c-0.008 0.057-0.018 0.113-0.029 0.169-0.153 0.799-0.534 1.559-0.801 2.337-0.351 1.027-0.506 1.919-0.628 2.939-0.353 0-0.707-0.008-1.057-0.026h-0.011c-0.119-0.006-0.239-0.013-0.359-0.022 0.108-0.952-0.090-1.95 0.104-2.902 0.078-0.383 0.211-0.755 0.292-1.137 0.022-0.092 0.041-0.208 0.055-0.326l0.001-0.015c0.011-0.109 0.017-0.221 0.066-0.319 0.005-0.011 0.010-0.020 0.016-0.028l-0.001 0.001c0.044-0.069 0.097-0.128 0.157-0.179l0.001-0.001c0.526-0.463 1.183-0.79 1.909-0.918l0.024-0.003c0.102-0.014 0.201-0.026 0.3-0.032z" opacity=".1"/><path fill="#fbbebe" d="M10.353 27.711c-0.008 0.272-0.030 0.529-0.066 0.783l0.004-0.037c-0.12 1.010-0.142 2.065-0.224 3.091-0.119-0.006-0.239-0.013-0.359-0.022-0.546-0.037-1.090-0.095-1.626-0.173q0.062-0.347 0.125-0.693c0.051-0.283 0.102-0.569 0.088-0.856-0.014-0.272-0.087-0.536-0.145-0.802-0.123-0.57-0.193-1.185-0.396-1.723-0.112-0.315-0.282-0.584-0.497-0.809l0.001 0.001c0.841-0.33 1.65-0.349 2.553-0.314 0.005-0 0.012-0 0.018-0 0.061 0 0.118 0.017 0.167 0.046l-0.001-0.001c0.042 0.036 0.074 0.084 0.091 0.137l0.001 0.002c0.128 0.3 0.218 0.647 0.252 1.011l0.001 0.014c0.009 0.094 0.015 0.202 0.015 0.312 0 0.012-0 0.025-0 0.037l0-0.002z"/><path fill="#be6f72" d="M18.88 8.762c0 0.967-0.784 1.751-1.751 1.751s-1.751-0.784-1.751-1.751c0-0.967 0.784-1.751 1.751-1.751s1.751 0.784 1.751 1.751z"/><path fill="#e3e8f4" d="M17.493 12.853c0.224-0.383 0.421-0.861 0.853-0.967 0.244-0.061 0.497 0.022 0.735 0.103 0.071 0.017 0.132 0.054 0.179 0.104l0 0c0.034 0.053 0.054 0.117 0.054 0.186v0c0.035 0.345 0.055 0.745 0.055 1.151 0 0.433-0.023 0.86-0.067 1.281l0.004-0.053c-0.057 0.56-0.153 1.117-0.17 1.679-0.024 0.78 0.105 1.559 0.062 2.338-0.032 0.59-0.161 1.17-0.29 1.747l-0.539 2.415c-0.010 0.078-0.041 0.148-0.087 0.205l0.001-0.001c-0.044 0.040-0.097 0.071-0.156 0.089l-0.003 0.001c-0.587 0.214-1.265 0.338-1.971 0.338-1.032 0-2.002-0.264-2.846-0.728l0.031 0.015c-0.194-0.107-0.388-0.23-0.515-0.413-0.18-0.259-0.196-0.601-0.138-0.91s0.184-0.602 0.269-0.906c0.131-0.471 0.162-0.963 0.192-1.452 0.040-0.643 0.079-1.29 0.010-1.93-0.047-0.441-0.145-0.876-0.22-1.313-0.102-0.587-0.171-1.275-0.189-1.975l-0-0.019c-0.011-0.399 0.007-0.842 0.283-1.13 0.135-0.14 0.314-0.224 0.497-0.293 0.307-0.113 0.649-0.18 0.959-0.076s0.559 0.428 0.486 0.746c-0.034 0.148-0.129 0.277-0.153 0.427-0.031 0.198 0.074 0.398 0.224 0.532 0.809 0.731 2.044-0.499 2.447-1.192z"/><path fill="#3f3d56" d="M17.557 11.065c0.136-0.052 0.293-0.082 0.458-0.082 0.11 0 0.217 0.013 0.319 0.039l-0.009-0.002c0.162 0.039 0.337 0.107 0.487 0.035 0.054-0.026 0.099-0.069 0.154-0.093 0.148-0.065 0.34 0.015 0.471-0.080 0.083-0.060 0.11-0.168 0.137-0.267 0.142-0.486 0.419-0.895 0.787-1.196l0.004-0.003c-0.047 0.344-0.081 0.736 0.146 0.999 0.104 0.119 0.249 0.194 0.396 0.253 0.211 0.084 0.444 0.14 0.667 0.094s0.432-0.215 0.467-0.439c-0.008 0.338-0.329 0.574-0.42 0.9-0.034 0.122-0.031 0.252-0.055 0.377-0.061 0.319-0.288 0.575-0.487 0.831-0.611 0.788-1.031 1.754-1.173 2.807l-0.003 0.030c-0.010 0.132-0.037 0.254-0.079 0.369l0.003-0.009c-0.050 0.1-0.099 0.184-0.154 0.265l0.005-0.008c-0.329 0.556-0.228 1.257-0.116 1.892 0.175 0.994 0.349 1.968 0.632 2.938 0.048 0.166 0.103 0.338 0.227 0.459-0.039 0.392-0.435 0.571-0.79 0.74-0.368 0.178-0.685 0.395-0.963 0.653l0.003-0.002c-0.102 0.094-0.203 0.2-0.241 0.334-0.035 0.126-0.010 0.265-0.055 0.387s-0.224 0.211-0.303 0.107c-0.099-0.369 0.070-0.756 0.062-1.138-0.005-0.258-0.090-0.509-0.102-0.767-0.012-0.292 0.075-0.579 0.166-0.856 0.255-0.773 0.563-1.538 0.651-2.346s-0.077-1.691-0.65-2.268c-0.681-0.688-1.059-1.62-1.789-2.252-0.116-0.1-0.247-0.224-0.228-0.376 0.014-0.070 0.044-0.132 0.086-0.183l-0.001 0.001c0.25-0.354 0.584-0.642 0.853-0.981s0.485-0.728 0.436-1.159z"/><path fill="#3f3d56" d="M15.161 11.789c-0.045 0.045-0.076 0.107-0.128 0.145-0.057 0.036-0.127 0.059-0.201 0.062l-0.001 0c-0.233 0.037-0.509 0.063-0.788 0.071l-0.009 0c-0.224 0-0.457-0.020-0.673 0.042-0.301 0.085-0.542 0.323-0.693 0.597s-0.222 0.584-0.28 0.892c-0.121 0.615-0.195 1.326-0.204 2.052l-0 0.008c0.371-0.298 0.694-0.632 0.971-1.004l0.010-0.014c0.215-0.292 0.411-0.615 0.718-0.811 0.141-0.090 0.3-0.149 0.443-0.237 0.297-0.183 0.502-0.478 0.7-0.763 0.145-0.211 0.566-0.624 0.599-0.878 0.028-0.242-0.306-0.36-0.463-0.164z"/><path fill="#3f3d56" d="M16.724 7.563c0.061 0.037 0.112 0.073 0.162 0.113l-0.003-0.002c0.305 0.213 0.713 0.173 1.081 0.125 0.113-0.014 0.229-0.031 0.326-0.090 0.156-0.096 0.229-0.294 0.214-0.476s-0.107-0.351-0.22-0.494c-0.294-0.371-0.728-0.621-1.22-0.669l-0.007-0.001c-0.031-0.004-0.066-0.007-0.103-0.007-0.095 0-0.186 0.017-0.27 0.048l0.006-0.002c-0.145 0.060-0.254 0.183-0.388 0.265-0.395 0.242-1.002 0.135-1.257 0.522-0.186 0.285-0.053 0.673-0.141 1.001-0.066 0.245-0.255 0.468-0.218 0.718 0.020 0.135 0.105 0.252 0.172 0.373 0.132 0.231 0.209 0.508 0.209 0.803 0 0.037-0.001 0.073-0.004 0.11l0-0.005c0.173 0.122 0.414-0.068 0.462-0.273s-0.007-0.425 0.034-0.632c0.072-0.364 0.394-0.631 0.539-0.965 0.104-0.239 0.274-0.643 0.627-0.461z"/><path fill="#fbbebe" d="M12.48 11.548c-0.013 0.082-0.022 0.172 0.023 0.241 0.090 0.135 0.295 0.086 0.457 0.106 0.252 0.031 0.438 0.269 0.487 0.52s-0.009 0.505-0.073 0.751q-0.216 0.836-0.515 1.649c-0.536-0.063-1.1-0.269-1.385-0.727-0.259-0.416-0.232-0.946-0.396-1.408-0.115-0.325-0.322-0.608-0.527-0.885 0.329 0.041 0.564-0.335 0.584-0.666s-0.085-0.668-0.014-0.991c0.017-0.077 1.313 0.165 1.44 0.253 0.364 0.253-0.022 0.806-0.079 1.157z"/><path fill="#000" d="M12.48 11.548c-0.013 0.082-0.022 0.172 0.023 0.241 0.090 0.135 0.295 0.086 0.457 0.106 0.252 0.031 0.438 0.269 0.487 0.52s-0.009 0.505-0.073 0.751q-0.216 0.836-0.515 1.649c-0.536-0.063-1.1-0.269-1.385-0.727-0.259-0.416-0.232-0.946-0.396-1.408-0.115-0.325-0.322-0.608-0.527-0.885 0.329 0.041 0.564-0.335 0.584-0.666s-0.085-0.668-0.014-0.991c0.017-0.077 1.313 0.165 1.44 0.253 0.364 0.253-0.022 0.806-0.079 1.157z" opacity=".1"/><path fill="#fbbebe" d="M13.942 9.256c0 0.967-0.784 1.751-1.751 1.751s-1.751-0.784-1.751-1.751c0-0.967 0.784-1.751 1.751-1.751s1.751 0.784 1.751 1.751z"/><path fill="#3f3d56" d="M11.652 11.297c0.064-0.1-0.045-0.239 0.005-0.346 0.030-0.065 0.105-0.092 0.162-0.135 0.072-0.059 0.129-0.132 0.168-0.216l0.002-0.004c0.182-0.342 0.288-0.747 0.288-1.178 0-0.186-0.020-0.368-0.058-0.542l0.003 0.017c-0.041-0.194-0.078-0.452 0.099-0.539 0.039-0.018 0.084-0.028 0.131-0.028 0.009 0 0.018 0 0.027 0.001l-0.001-0c0.32 0.010 0.628 0.224 0.939 0.149 0.215-0.060 0.373-0.244 0.395-0.468l0-0.002c0.020-0.29-0.197-0.539-0.411-0.734-0.385-0.354-0.971-0.432-1.493-0.441l-0.972-0.016c-0.311-0.005-0.66 0.005-0.876 0.228-0.312 0.321-0.155 0.846-0.2 1.291-0.041 0.367-0.223 0.685-0.491 0.903l-0.002 0.002c-0.202 0.161-0.479 0.314-0.475 0.571 0 0.090 0.039 0.171 0.063 0.256 0.099 0.336 0.005 0.707-0.186 1.001s-0.469 0.52-0.757 0.718c-0.154 0.105-0.314 0.207-0.436 0.35-0.129 0.158-0.212 0.358-0.227 0.577l-0 0.003c-0.003 0.027-0.005 0.058-0.005 0.090 0 0.139 0.037 0.27 0.102 0.382l-0.002-0.004c0.19 0.303 0.646 0.348 0.957 0.172s0.502-0.509 0.628-0.844c0.075-0.199 0.152-0.426 0.345-0.516 0.244-0.114 0.53 0.066 0.689 0.284s0.257 0.483 0.46 0.66c0.319 0.277 0.861 0.233 1.13-0.093 0.193-0.234 0.235-0.557 0.224-0.861-0.006-0.258-0.089-0.496-0.227-0.693l0.003 0.004z"/><path fill="#f86d70" d="M12.281 13.578c-0.2 0.043-0.408-0.052-0.557-0.193s-0.249-0.323-0.353-0.499c-0.284-0.474-0.583-0.884-0.914-1.265l0.009 0.011c-0.294-0.34-0.704-0.685-1.142-0.58-0.154 0.045-0.287 0.118-0.4 0.214l0.002-0.001c-0.674 0.537-1.102 1.358-1.102 2.278 0 0.111 0.006 0.221 0.018 0.329l-0.001-0.013c0.034 0.286 0.112 0.566 0.144 0.853 0.015 0.15 0.023 0.324 0.023 0.501 0 0.075-0.002 0.149-0.004 0.222l0-0.011c-0.012 0.724-0.037 1.489-0.427 2.099-0.605 0.943-0.928 2.068-1.372 3.097-0.24 0.556-0.383 1.148-0.524 1.737q-0.125 0.524-0.25 1.048l-0.543 2.285c-0.056 0.236-0.112 0.483-0.053 0.718 0.090 0.352 0.421 0.598 0.769 0.698s0.718 0.083 1.080 0.086c0.693 0.007 1.392 0.093 2.042 0.334 0.186 0.069 0.371 0.151 0.569 0.167s0.395-0.035 0.58-0.107c0.506-0.196 0.94-0.539 1.405-0.816 0.26-0.16 0.562-0.309 0.878-0.43l0.038-0.013c0.16-0.060 0.331-0.116 0.441-0.247 0.083-0.098 0.12-0.227 0.148-0.352 0.152-0.707 0.050-1.44 0-2.162s-0.481-1.484-0.124-2.114c0.072-0.127 0.158-0.249 0.194-0.39 0.048-0.184 0.008-0.382 0.048-0.568 0.030-0.137 0.102-0.261 0.152-0.392 0.086-0.232 0.098-0.484 0.097-0.731-0.002-0.573-0.064-1.131-0.18-1.669l0.010 0.053c-0.141-0.673 0.326-1.339 0.594-1.975 0.096-0.228 0.232-0.443 0.272-0.686 0.036-0.22-0.010-0.444-0.045-0.664-0.041-0.261-0.065-0.562-0.065-0.868 0-0.058 0.001-0.115 0.003-0.173l-0 0.008c0.009-0.31 0.041-0.625-0.033-0.927s-0.286-0.593-0.589-0.655c-0.020-0.006-0.044-0.010-0.068-0.010-0.050 0-0.097 0.016-0.136 0.042l0.001-0.001c-0.034 0.033-0.059 0.076-0.071 0.124l-0 0.002c-0.099 0.303-0.079 0.628-0.135 0.943s-0.12 0.597-0.43 0.663z"/><path fill="#be6f72" d="M8.044 15.506c0.018-0.124-0.040-0.29-0.165-0.285-0.116 0.005-0.167 0.149-0.167 0.266s0.016 0.25-0.066 0.331c-0.073 0.072-0.193 0.070-0.277 0.129-0.058 0.042-0.096 0.109-0.096 0.186 0 0.001 0 0.001 0 0.002v-0c0 0.062 0.028 0.122 0.030 0.184s-0.040 0.135-0.102 0.131c-0.025 0.041-0.040 0.091-0.040 0.144 0 0.077 0.031 0.146 0.081 0.197l-0-0c0.032 0.031 0.074 0.058 0.085 0.102 0.001 0.008 0.002 0.018 0.002 0.027 0 0.023-0.003 0.045-0.009 0.067l0-0.002c-0.019 0.123 0.066 0.262 0.191 0.275-0.070 0.050-0.056 0.167 0.008 0.224s0.155 0.069 0.241 0.069c0.205-0.001 0.399-0.044 0.575-0.121l-0.009 0.004c0.063-0.021 0.116-0.059 0.156-0.107l0-0.001c0.016-0.022 0.026-0.050 0.026-0.079 0-0.037-0.015-0.070-0.039-0.095v0c0.087 0.014 0.192 0.022 0.249-0.045 0.079-0.094-0.006-0.234-0.090-0.325 0.087-0.013 0.153-0.088 0.153-0.178 0-0.058-0.027-0.109-0.069-0.142l-0-0c-0.029-0.021-0.068-0.040-0.072-0.075s0.026-0.058 0.039-0.090c0.029-0.070-0.037-0.142-0.1-0.185-0.15-0.1-0.371-0.098-0.504-0.198s-0.049-0.276-0.030-0.411z"/><path fill="#3f3d56" d="M17.305 8.695c-0.064 0.007-0.138 0.011-0.213 0.011-0.040 0-0.080-0.001-0.12-0.003l0.006 0c-0.002-0-0.005-0-0.008-0-0.036 0-0.066 0.027-0.071 0.062l-0 0-0.209 1.566c-0.017 0.119-0.065 0.225-0.136 0.311l0.001-0.001c-0.098 0.116-0.157 0.268-0.157 0.434 0 0.029 0.002 0.058 0.005 0.086l-0-0.003v2.66s-0.013 0.355 0.259 0.355c0.147 0.020 0.318 0.031 0.491 0.031s0.344-0.011 0.511-0.033l-0.020 0.002s0.218-0.041 0.218-0.369v-2.619c0.007-0.034 0.010-0.074 0.010-0.115 0-0.155-0.055-0.296-0.146-0.407l0.001 0.001c-0.067-0.086-0.113-0.19-0.13-0.305l-0-0.004-0.217-1.598c-0.005-0.035-0.035-0.062-0.071-0.062-0.002 0-0.004 0-0.005 0h0z"/><path fill="#000" d="M17.305 8.695c-0.064 0.007-0.138 0.011-0.213 0.011-0.040 0-0.080-0.001-0.12-0.003l0.006 0c-0.002-0-0.005-0-0.008-0-0.036 0-0.066 0.027-0.071 0.062l-0 0-0.209 1.566c-0.017 0.119-0.065 0.225-0.136 0.311l0.001-0.001c-0.098 0.116-0.157 0.268-0.157 0.434 0 0.029 0.002 0.058 0.005 0.086l-0-0.003v2.66s-0.013 0.355 0.259 0.355c0.147 0.020 0.318 0.031 0.491 0.031s0.344-0.011 0.511-0.033l-0.020 0.002s0.218-0.041 0.218-0.369v-2.619c0.007-0.034 0.010-0.074 0.010-0.115 0-0.155-0.055-0.296-0.146-0.407l0.001 0.001c-0.067-0.086-0.113-0.19-0.13-0.305l-0-0.004-0.217-1.598c-0.005-0.035-0.035-0.062-0.071-0.062-0.002 0-0.004 0-0.005 0h0z" opacity=".1"/><path fill="#deaf62" d="M16.975 11.205h0.331c0.274 0 0.496 0.222 0.496 0.496v1.245c0 0.274-0.222 0.496-0.496 0.496h-0.331c-0.274 0-0.496-0.222-0.496-0.496v-1.245c0-0.274 0.222-0.496 0.496-0.496z"/><path fill="#3f3d56" d="M21.752 1.929c-0.084 0.047-0.182 0.093-0.285 0.13l-0.014 0.005c-0.030 0.009-0.051 0.036-0.051 0.069 0 0.006 0.001 0.013 0.002 0.019l-0-0.001 0.41 1.526c0.013 0.049 0.021 0.105 0.021 0.162 0 0.062-0.009 0.123-0.026 0.18l0.001-0.004c-0.019 0.060-0.031 0.129-0.031 0.201 0 0.123 0.033 0.239 0.091 0.338l-0.002-0.003 1.024 2.455s0.124 0.332 0.376 0.227c0.345-0.097 0.646-0.227 0.925-0.39l-0.019 0.010s0.185-0.122 0.060-0.424l-1.009-2.417c-0.042-0.187-0.161-0.34-0.321-0.427l-0.003-0.002c-0.099-0.057-0.18-0.136-0.238-0.231l-0.002-0.003-0.816-1.392c-0.013-0.022-0.036-0.036-0.062-0.036-0.012 0-0.024 0.003-0.034 0.008l0-0z"/><path fill="#deaf62" d="M22.415 4.373l0.305-0.127c0.253-0.106 0.543 0.014 0.649 0.267l0.479 1.149c0.105 0.253-0.014 0.543-0.267 0.649l-0.305 0.127c-0.253 0.106-0.543-0.014-0.649-0.267l-0.479-1.149c-0.105-0.253 0.014-0.543 0.267-0.649z"/><path fill="#fbbebe" d="M9.155 11.343c-0.483 0.199-0.673 0.817-0.56 1.326s0.454 0.933 0.786 1.337l0.931 1.136c0.257 0.314 0.539 0.645 0.931 0.755 0.574 0.16 1.147-0.205 1.643-0.536 1.358-0.918 2.912-1.744 4.553-2.399l0.167-0.059c0.162-0.063 0.328-0.127 0.461-0.239 0.276-0.233 0.354-0.661 0.2-0.988s-0.513-0.539-0.874-0.541-0.713 0.189-0.93 0.478c-0.104 0.138-0.18 0.295-0.28 0.435-0.253 0.352-0.648 0.57-1.035 0.766-0.769 0.406-1.716 0.829-2.691 1.197l-0.182 0.060c-0.18 0.066-0.382 0.128-0.551 0.041-0.104-0.053-0.174-0.154-0.237-0.253-0.268-0.415-0.498-0.894-0.665-1.4l-0.013-0.044c-0.123-0.382-0.222-0.797-0.516-1.068-0.417-0.384-1.173-0.292-1.486 0.18 0 0-0.367 0.536-0.142 0.761s0.488-0.944 0.488-0.944z"/><path fill="#fbbebe" d="M34.33 9.485c0.066 0.175 0.067 0.366 0.058 0.552-0.012 0.227-0.069 0.494-0.28 0.58-0.137 0.055-0.307 0.013-0.429 0.097-0.148 0.101-0.141 0.317-0.118 0.494 0.063 0.486 0.135 0.99 0.4 1.401 0.142 0.22 0.335 0.404 0.53 0.579 0.389 0.351 0.816 0.694 1.327 0.811 0.045 0.013 0.097 0.021 0.151 0.021 0.037 0 0.074-0.004 0.109-0.011l-0.004 0.001c0.087-0.027 0.161-0.074 0.221-0.135l0-0c0.296-0.272 0.449-0.66 0.646-1.012 0.14-0.252 0.306-0.494 0.385-0.771 0.029-0.104 0.046-0.224 0.046-0.347 0-0.402-0.176-0.763-0.456-1.010l-0.001-0.001c-0.088-0.075-0.184-0.138-0.269-0.215-0.222-0.201-0.351-0.49-0.404-0.784s-0.045-0.597-0.019-0.898c-0.449-0.035-0.895 0.020-1.333 0.107-0.195 0.039-0.469 0.057-0.645 0.15-0.198 0.105 0.032 0.241 0.087 0.391z"/><path fill="#000" d="M34.33 9.485c0.066 0.175 0.067 0.366 0.058 0.552-0.012 0.227-0.069 0.494-0.28 0.58-0.137 0.055-0.307 0.013-0.429 0.097-0.148 0.101-0.141 0.317-0.118 0.494 0.063 0.486 0.135 0.99 0.4 1.401 0.142 0.22 0.335 0.404 0.53 0.579 0.389 0.351 0.816 0.694 1.327 0.811 0.045 0.013 0.097 0.021 0.151 0.021 0.037 0 0.074-0.004 0.109-0.011l-0.004 0.001c0.087-0.027 0.161-0.074 0.221-0.135l0-0c0.296-0.272 0.449-0.66 0.646-1.012 0.14-0.252 0.306-0.494 0.385-0.771 0.029-0.104 0.046-0.224 0.046-0.347 0-0.402-0.176-0.763-0.456-1.010l-0.001-0.001c-0.088-0.075-0.184-0.138-0.269-0.215-0.222-0.201-0.351-0.49-0.404-0.784s-0.045-0.597-0.019-0.898c-0.449-0.035-0.895 0.020-1.333 0.107-0.195 0.039-0.469 0.057-0.645 0.15-0.198 0.105 0.032 0.241 0.087 0.391z" opacity=".1"/><path fill="#fbbebe" d="M31.825 10.806c-0.729-0.25-1.077-1.227-1.84-1.336-0.12-0.018-0.244-0.011-0.362-0.039-0.439-0.104-0.628-0.612-0.755-1.045-0.428-1.444-0.988-2.857-1.782-4.137-0.335-0.539-0.865-0.981-1.107-1.571-0.056-0.135-0.084-0.288-0.184-0.395s-0.314-0.122-0.369 0.014c-0.009 0.028-0.015 0.061-0.015 0.095 0 0.019 0.002 0.038 0.005 0.056l-0-0.002 0.053 0.559-0.913-0.082c-0.027-0.005-0.058-0.008-0.090-0.008-0.058 0-0.114 0.009-0.167 0.027l0.004-0.001c-0.088 0.045-0.157 0.117-0.198 0.204l-0.001 0.003c-0.309 0.58 0.020 1.341 0.565 1.708 0.637 0.429 1.546 0.494 1.968 1.133 0.251 0.381 0.256 0.87 0.422 1.295 0.079 0.203 0.194 0.39 0.286 0.587 0.175 0.376 0.265 0.784 0.401 1.176 0.195 0.56 0.483 1.081 0.771 1.6 0.222 0.4 0.449 0.808 0.79 1.114 0.224 0.201 0.488 0.35 0.752 0.494 0.649 0.355 1.414 0.696 2.102 0.424 0.039-0.613-0.114-1.297-0.337-1.872z"/><path fill="#fbbebe" d="M34.039 30.13c-0.055 0.586-0.411 1.116-0.494 1.68-0.548-0.086-1.087-0.196-1.608-0.322-0.064-0.015-0.128-0.031-0.192-0.045 0.295-0.808 0.038-1.713 0.116-2.573 0.008-0.083 0.018-0.165 0.033-0.247 0.676-0.231 1.287-0.539 1.997-0.449 0.014 0.144 0.028 0.288 0.042 0.431q0.043 0.43 0.084 0.86c0.018 0.134 0.029 0.289 0.029 0.447 0 0.076-0.002 0.152-0.007 0.228l0.001-0.010z"/><path fill="#fbbebe" d="M38.717 31.595c-0.266 0.081-0.539 0.151-0.824 0.209-0.048 0.010-0.096 0.019-0.144 0.028-0.292 0.055-0.587 0.095-0.886 0.122-0.031-0.624-0.449-1.198-0.51-1.838-0.005-0.063-0.008-0.137-0.008-0.211 0-0.094 0.005-0.187 0.014-0.278l-0.001 0.011c0.005-0.063 0.012-0.126 0.017-0.189l0.127-1.291c0.075-0.010 0.161-0.016 0.249-0.016 0.019 0 0.039 0 0.058 0.001l-0.003-0c0.584 0.014 1.115 0.267 1.693 0.464 0.032 0.189 0.050 0.408 0.050 0.63 0 0.068-0.002 0.136-0.005 0.203l0-0.009c-0.022 0.701-0.135 1.411 0.126 2.054 0.015 0.036 0.031 0.073 0.047 0.11z"/><path fill="#f86d70" d="M31.14 21.749c0.079 0.612-0.234 1.199-0.37 1.8-0.090 0.398-0.102 0.808-0.114 1.216l-0.071 2.447c-0.007 0.245-0.013 0.494 0.061 0.729 0.15 0.47 0.612 0.788 1.093 0.901s0.983 0.056 1.473-0.009c0.24-0.032 0.491-0.069 0.69-0.208 0.273-0.191 0.393-0.531 0.496-0.848l0.291-0.895c0.335 0.755 0.193 1.581 0.395 2.382 0.014 0.078 0.045 0.147 0.091 0.204l-0.001-0.001c0.085 0.094 0.224 0.109 0.351 0.118 0.88 0.062 1.772 0.123 2.637-0.045 0.238-0.045 0.486-0.118 0.65-0.296 0.191-0.208 0.224-0.514 0.222-0.796-0.012-0.97-0.363-1.906-0.441-2.873-0.034-0.414-0.017-0.831-0.032-1.247-0.013-0.342-0.044-0.664-0.094-0.981l0.006 0.047c-0.016-0.151-0.057-0.29-0.118-0.416l0.003 0.007c-0.135-0.251-0.414-0.388-0.679-0.494-2.058-0.836-4.321-0.828-6.54-0.746z"/><path fill="#fbbebe" d="M36.88 7.774c0 1.066-0.864 1.93-1.93 1.93s-1.93-0.864-1.93-1.93c0-1.066 0.864-1.93 1.93-1.93s1.93 0.864 1.93 1.93z"/><path fill="#e3e8f4" d="M36.632 11.174c-0.143 0.314-0.369 0.628-0.704 0.708-0.308 0.074-0.635-0.075-0.862-0.296s-0.376-0.509-0.533-0.784c-0.115-0.201-0.243-0.404-0.437-0.531-0.266-0.172-0.609-0.168-0.922-0.117s-0.624 0.141-0.943 0.121c-0.396-0.026-0.8-0.224-1.174-0.092 0.121 0.542 0.078 1.138 0.064 1.694 0 0.006 0 0.014 0 0.021 0 0.083-0.013 0.163-0.038 0.238l0.002-0.005c-0.035 0.080-0.079 0.15-0.132 0.211l0.001-0.001-0.359 0.463c0.385 0.288 0.718 0.664 0.853 1.126 0.076 0.263 0.053 0.542 0.050 0.816-0.009 0.804 0.166 1.605 0.111 2.407-0.065 0.939-0.44 1.827-0.633 2.749-0.097 0.444-0.153 0.953-0.153 1.476 0 0.328 0.022 0.651 0.064 0.967l-0.004-0.037c2.012 0.696 4.085 1.053 6.212 1.169 0.376 0.021 0.782 0.024 1.090-0.192 0.256-0.18 0.4-0.487 0.449-0.797s0.015-0.625-0.019-0.936q-0.139-1.264-0.277-2.527c-0.053-0.479-0.105-0.962-0.071-1.442 0.026-0.359 0.099-0.711 0.172-1.063l0.449-2.157c0.064-0.307 0.129-0.615 0.256-0.901 0.104-0.233 0.248-0.449 0.363-0.676 0.129-0.25 0.227-0.541 0.278-0.848l0.002-0.017c0.009-0.038 0.014-0.081 0.014-0.125 0-0.050-0.006-0.098-0.018-0.144l0.001 0.004c-0.048-0.147-0.195-0.236-0.332-0.308-0.767-0.412-1.656-0.735-2.594-0.921l-0.061-0.010c-0.063 0.264-0.051 0.512-0.163 0.759z"/><path fill="#3f3d56" d="M36.446 9.881c0.224-0.43 0.644-0.732 0.888-1.152 0.139-0.241 0.221-0.53 0.221-0.838 0-0.266-0.061-0.519-0.17-0.743l0.004 0.010c-0.086-0.175-0.202-0.336-0.269-0.519-0.075-0.208-0.082-0.438-0.169-0.641-0.119-0.279-0.377-0.48-0.657-0.596s-0.584-0.158-0.886-0.198l-1.020-0.137c-0.148-0.020-0.301-0.040-0.444 0s-0.277 0.157-0.289 0.306c-0.014 0.176 0.141 0.341 0.105 0.514-0.013 0.061-0.049 0.123-0.028 0.182 0.019 0.040 0.050 0.071 0.089 0.089l0.001 0c0.242 0.135 0.531 0.147 0.793 0.235s0.525 0.309 0.499 0.584c-0.014 0.148-0.11 0.301-0.045 0.434 0.062 0.123 0.224 0.145 0.354 0.183 0.42 0.122 0.714 0.577 0.653 1.010-0.019 0.135-0.067 0.264-0.077 0.399-0.033 0.473 0.042 0.608 0.428 0.883z"/><path fill="#be6f72" d="M39.068 11.927c0 0.005 0 0.010 0 0.015 0 0.089-0.018 0.174-0.050 0.251l0.002-0.004c-0.14 0.299-0.569 0.28-0.853 0.449-0.354 0.211-0.432 0.682-0.464 1.092-0.037 0.465-0.062 0.936 0.033 1.392s0.324 0.9 0.707 1.167c0.465 0.324 1.098 0.335 1.63 0.138s0.975-0.578 1.361-0.995c0.365-0.395 0.693-0.835 0.889-1.337 0.035-0.090 0.065-0.185 0.037-0.275-0.042-0.135-0.189-0.196-0.308-0.269-0.279-0.168-0.465-0.462-0.561-0.772s-0.113-0.64-0.116-0.966c-0.004-0.338-0.005-0.707-0.22-0.968s-0.589-0.334-0.929-0.331c-0.278 0-1.049 0.026-1.238 0.269-0.156 0.202 0.092 0.855 0.081 1.144z"/><path fill="#000" d="M39.068 11.927c0 0.005 0 0.010 0 0.015 0 0.089-0.018 0.174-0.050 0.251l0.002-0.004c-0.14 0.299-0.569 0.28-0.853 0.449-0.354 0.211-0.432 0.682-0.464 1.092-0.037 0.465-0.062 0.936 0.033 1.392s0.324 0.9 0.707 1.167c0.465 0.324 1.098 0.335 1.63 0.138s0.975-0.578 1.361-0.995c0.365-0.395 0.693-0.835 0.889-1.337 0.035-0.090 0.065-0.185 0.037-0.275-0.042-0.135-0.189-0.196-0.308-0.269-0.279-0.168-0.465-0.462-0.561-0.772s-0.113-0.64-0.116-0.966c-0.004-0.338-0.005-0.707-0.22-0.968s-0.589-0.334-0.929-0.331c-0.278 0-1.049 0.026-1.238 0.269-0.156 0.202 0.092 0.855 0.081 1.144z" opacity=".1"/><path fill="#be6f72" d="M36.674 23.965c0.015 0.071 0.048 0.134 0.094 0.183l-0-0c0.042 0.034 0.093 0.059 0.149 0.071l0.002 0c1.473 0.432 3.047 0.26 4.572 0.084-0.209-0.636-0.419-1.278-0.477-1.945-0.048-0.55 0.006-1.122-0.189-1.638-0.057-0.153-3.406 0.55-3.736 0.607-0.169 0.029-0.364 0.019-0.484 0.154-0.145 0.163-0.157 0.549-0.172 0.752-0.043 0.585 0.078 1.174 0.241 1.733z"/><path fill="#be6f72" d="M40.029 31.091c-0.269 0.125-0.547 0.241-0.835 0.345q-0.233 0.085-0.477 0.159c-0.266 0.081-0.539 0.151-0.824 0.209q-0.244-0.618-0.488-1.237c-0.12-0.303-0.24-0.608-0.34-0.918-0.059-0.171-0.118-0.387-0.165-0.608l-0.007-0.037c-0.056-0.269-0.088-0.578-0.088-0.895 0-0.478 0.073-0.939 0.208-1.372l-0.009 0.033c0.622 0.117 1.23 0.193 1.843 0.282 0.327 0.045 0.655 0.098 0.988 0.16q0.039 0.325 0.071 0.649 0.048 0.501 0.079 1.002 0.069 1.113 0.042 2.228z"/><path fill="#000" d="M40.029 31.091c-0.269 0.125-0.547 0.241-0.835 0.345q-0.233 0.085-0.477 0.159c-0.266 0.081-0.539 0.151-0.824 0.209q-0.244-0.618-0.488-1.237c-0.12-0.303-0.24-0.608-0.34-0.918-0.059-0.171-0.118-0.387-0.165-0.608l-0.007-0.037c-0.056-0.269-0.088-0.578-0.088-0.895 0-0.478 0.073-0.939 0.208-1.372l-0.009 0.033c0.622 0.117 1.23 0.193 1.843 0.282 0.327 0.045 0.655 0.098 0.988 0.16q0.039 0.325 0.071 0.649 0.048 0.501 0.079 1.002 0.069 1.113 0.042 2.228z" opacity=".1"/><path fill="#be6f72" d="M43.481 29.146c0.004 0.259-0.070 0.523-0.138 0.776-0.005 0.018-0.009 0.035-0.014 0.053-0.166-0.053-0.303-0.157-0.395-0.294l-0.002-0.003c-0.046-0.072-0.083-0.155-0.105-0.243l-0.001-0.006q-0.305 0.207-0.615 0.411c-0.676 0.444-1.392 0.886-2.182 1.251-0.269 0.125-0.547 0.241-0.835 0.345q-0.090-0.314-0.171-0.632c-0.051-0.178-0.099-0.403-0.134-0.631l-0.004-0.033c-0.018-0.13-0.028-0.28-0.028-0.433 0-0.386 0.065-0.756 0.184-1.102l-0.007 0.024 0.020-0.058c0.085-0.238 0.184-0.442 0.302-0.633l-0.008 0.014c0.112-0.18 0.333-0.149 0.559-0.090 0.102 0.026 0.206 0.058 0.3 0.078 0.587 0.123 1.196-0.004 1.796 0.030 0.302 0.015 0.583 0.091 0.836 0.215l-0.013-0.006c0.289 0.145 0.521 0.367 0.612 0.673 0.011 0.037 0.022 0.083 0.029 0.129l0.001 0.006c0.007 0.047 0.012 0.102 0.012 0.158v0.001z"/><path fill="#be6f72" d="M32.681 8.473c-0.927-0.898-1.98-1.659-3.058-2.37-0.309-0.195-0.572-0.384-0.824-0.588l0.016 0.012c-0.269-0.224-0.504-0.488-0.79-0.69s-0.64-0.341-0.983-0.274-0.649 0.395-0.598 0.739c0.045 0.303 0.317 0.51 0.568 0.684 0.476 0.329 0.954 0.659 1.471 0.917 0.206 0.094 0.377 0.187 0.541 0.29l-0.019-0.011c0.322 0.217 0.557 0.539 0.801 0.841 0.918 1.134 2.019 2.078 3.265 2.798l0.056 0.030c0.015 0.009 0.546-1.137 0.524-1.286-0.049-0.342-0.726-0.854-0.971-1.091z"/><path fill="#3f3d56" d="M40.61 22.979c-0.716 0.045-1.402 0.286-2.102 0.44s-1.46 0.214-2.11-0.090l0.395 2.697c0.022 0.15 0.045 0.303 0.012 0.451-0.030 0.141-0.108 0.274-0.101 0.418 0.010 0.228 0.224 0.388 0.426 0.494 0.515 0.278 1.128 0.441 1.778 0.441 0.044 0 0.088-0.001 0.131-0.002l-0.006 0c-0.049 0.198-0.11 0.393-0.159 0.59 0.33 0.354 0.87 0.378 1.34 0.49 0.359 0.085 0.696 0.232 1.048 0.336 0.379 0.116 0.815 0.183 1.266 0.183 0.016 0 0.032-0 0.048-0l-0.002 0c0.299-0.003 0.617-0.045 0.849-0.232 0.286-0.23 0.375-0.622 0.437-0.983 0.035-0.202 0.066-0.407 0.045-0.61-0.023-0.234-0.114-0.456-0.204-0.673l-0.615-1.493c-0.112-0.269-0.224-0.543-0.359-0.803-0.44-0.841-1.17-1.713-2.117-1.654z"/><path fill="#deaf62" d="M41.157 13.659c0.099-0.256 0.343-0.434 0.629-0.434 0.027 0 0.053 0.002 0.079 0.005l-0.003-0c0.18 0.025 0.34 0.123 0.494 0.22l0.857 0.535c0.156 0.093 0.289 0.186 0.416 0.287l-0.008-0.006c0.591 0.49 0.819 1.296 0.884 2.061s0 1.544 0.152 2.296c-0.362 0.3-0.763 0.553-1.125 0.853-0.189 0.157-0.381 0.314-0.525 0.516-0.114 0.158-0.195 0.34-0.314 0.494-0.191 0.237-0.467 0.398-0.781 0.437l-0.006 0.001c0.196 0.114 0.306 0.335 0.359 0.556s0.067 0.449 0.126 0.669c0.081 0.299 0.248 0.573 0.303 0.878 0.039 0.211 0.022 0.426 0.035 0.64 0.070 1.106 0.938 2.072 0.882 3.178-0.44-0.162-0.82-0.366-1.166-0.615l0.014 0.010c-0.16-0.114-0.314-0.238-0.465-0.362l-1.143-0.927c-0.556-0.449-1.118-0.908-1.56-1.471-0.277-0.354-0.504-0.745-0.782-1.098s-0.621-0.673-1.046-0.821c-0.062 0.094-0.173 0.159-0.236 0.253-0.010 0.014-0.019 0.030-0.026 0.047l-0 0.001c-0.002 0.011-0.003 0.024-0.003 0.038 0 0.031 0.007 0.061 0.019 0.087l-0.001-0.001c0.047 0.164 0.079 0.354 0.090 0.55l0 0.006 0.028 0.338c0.005 0.040 0.008 0.087 0.008 0.135s-0.003 0.094-0.008 0.14l0.001-0.006c-0.043 0.289-0.31 0.513-0.599 0.558-0.017 0.004-0.035 0.006-0.055 0.006-0.025 0-0.050-0.004-0.073-0.010l0.002 0c-0.080-0.027-0.125-0.112-0.149-0.193-0.114-0.383 0.061-0.788 0.075-1.187 0-0.016 0.001-0.036 0.001-0.055 0-0.087-0.004-0.174-0.012-0.26l0.001 0.011-0.027-0.398c-0.261-0.054-0.411-0.334-0.48-0.592-0.187-0.694-0.375-1.413-0.267-2.124 0.029-0.19 0.079-0.383 0.045-0.574-0.045-0.255-0.228-0.461-0.325-0.701-0.314-0.782 0.353-1.63 0.291-2.469-0.026-0.352-0.25-0.659-0.384-0.985-0.077-0.208-0.168-0.387-0.276-0.554l0.007 0.011c-0.137-0.196-0.323-0.353-0.503-0.511-0.564-0.496-1.079-1.004-1.565-1.54l-0.014-0.016c-0.265-0.028-0.5-0.142-0.681-0.312l0.001 0.001c-0.118-0.112-0.216-0.26-0.219-0.423s0.117-0.334 0.28-0.342c0.095-0.005 0.184 0.042 0.277 0.063 0.291 0.064 0.584-0.15 0.713-0.419s0.13-0.578 0.127-0.876c0.044-0.008 0.095-0.013 0.147-0.013 0.251 0 0.476 0.11 0.63 0.284l0.001 0.001c0.201 0.218 0.331 0.49 0.489 0.741 0.067 0.114 0.148 0.212 0.243 0.294l0.001 0.001c0.216 0.171 0.527 0.204 0.716 0.404 0.096 0.102 0.149 0.238 0.236 0.347 0.246 0.308 0.696 0.346 1.032 0.549s0.57 0.574 0.943 0.694c0.135 0.045 0.281 0.051 0.415 0.101 0.308 0.114 0.496 0.442 0.539 0.767s-0.030 0.654-0.104 0.975l-0.173 0.75c-0.038 0.166-0.067 0.366 0.055 0.484 0.055 0.046 0.122 0.081 0.195 0.099l0.003 0.001c0.314 0.102 0.664 0.203 0.96 0.058 0.14-0.069 0.249-0.186 0.349-0.305 0.438-0.516 0.729-1.192 0.952-1.827z"/><path fill="#be6f72" d="M44.7 28.923c-0.062 0.411-0.288 0.815-0.658 1.003-0.122 0.061-0.265 0.097-0.417 0.097-0.106 0-0.208-0.017-0.303-0.050l0.007 0.002c-0.166-0.053-0.303-0.157-0.395-0.294l-0.002-0.003c-0.046-0.072-0.083-0.155-0.105-0.243l-0.001-0.006c0-0.005-0.002-0.009-0.003-0.014-0.027-0.123-0.043-0.265-0.043-0.41 0-0.026 0.001-0.051 0.001-0.077l-0 0.004c0-0.001 0-0.002 0-0.003 0-0.265 0.016-0.526 0.048-0.782l-0.003 0.031c0.029-0.236 0.072-0.447 0.131-0.652l-0.007 0.029c0.084-0.291 0.204-0.572 0.314-0.853 0.057-0.148 0.113-0.297 0.158-0.449v0c0.027-0.090 0.051-0.182 0.070-0.276l0.007-0.034c0.004-0.019 0.007-0.038 0.010-0.057 0.045-0.256 0.058-0.521 0.173-0.752 0.269-0.543 0.794-0.404 0.874 0.096 0.006 0.035 0.009 0.075 0.010 0.116l0 0.001c0.012 0.633-0.239 1.252-0.124 1.888 0.039 0.186 0.081 0.34 0.131 0.49l-0.009-0.031c0.040 0.139 0.077 0.279 0.105 0.421 0.033 0.15 0.053 0.322 0.053 0.499 0 0.108-0.007 0.215-0.021 0.319l0.001-0.012z"/><path fill="#deaf62" d="M44.947 21.88c0.012 0.259 0 0.522 0.052 0.777 0.122 0.602 0.584 1.134 0.532 1.745-0.013 0.149-0.068 0.309-0.198 0.383s-0.346 0.068-0.388 0.216c-0.012 0.041-0.006 0.086-0.019 0.127-0.028 0.087-0.135 0.124-0.224 0.122s-0.18-0.032-0.272-0.024c-0.325 0.027-0.445 0.463-0.735 0.612-0.195 0.101-0.449 0.045-0.61-0.104s-0.232-0.38-0.219-0.6c0.009-0.166 0.062-0.325 0.090-0.489 0.051-0.291 0.024-0.59-0.002-0.884-0.039-0.431-0.079-0.868-0.221-1.277-0.067-0.193-0.156-0.378-0.214-0.573-0.083-0.277-0.101-0.568-0.11-0.857-0.017-0.607 0.024-1.257 0.387-1.745 0.272-0.366 0.663-0.664 0.971-1.003 0.193-0.212 0.249-0.279 0.462-0.099 0.175 0.148 0.359 0.351 0.379 0.552 0.054 0.513 0 1.018 0.096 1.54s0.219 1.045 0.244 1.581z"/><path fill="#be6f72" d="M42.581 9.704c0 1.264-1.025 2.289-2.289 2.289s-2.289-1.025-2.289-2.289c0-1.264 1.025-2.289 2.289-2.289s2.289 1.025 2.289 2.289z"/><path fill="#3f3d56" d="M42.388 14.084c0.050-0.070 0.11-0.146 0.195-0.161 0.008-0.001 0.017-0.001 0.026-0.001 0.059 0 0.114 0.015 0.162 0.041l-0.002-0.001 0.603 0.252c0.156-0.254 0.257-0.556 0.28-0.881l0-0.006c0.013-0.193-0.003-0.388 0.034-0.577 0.055-0.281 0.221-0.533 0.26-0.817 0.031-0.229-0.025-0.459-0.058-0.688-0.102-0.706 0.008-1.426-0.051-2.136s-0.344-1.472-0.978-1.798c-0.18-0.090-0.373-0.144-0.56-0.215-0.416-0.158-0.789-0.412-1.2-0.584s-0.894-0.25-1.293-0.053-0.631 0.751-0.372 1.113c0.085 0.119 0.21 0.203 0.329 0.289 0.243 0.174 0.491 0.388 0.547 0.682 0.101 0.528-0.449 0.943-0.604 1.459-0.030 0.101-0.047 0.218-0.047 0.338 0 0.1 0.012 0.196 0.034 0.289l-0.002-0.008c0.067 0.306 0.23 0.595 0.224 0.909-0.005 0.343-0.21 0.654-0.249 0.996-0.014 0.125-0.005 0.252-0.021 0.377-0.031 0.179-0.081 0.339-0.15 0.489l0.005-0.012c-0.359 0.898-0.723 1.805-1.257 2.612 0.017 0 0.038 0.001 0.059 0.001 0.579 0 1.125-0.142 1.605-0.394l-0.019 0.009c-0.079 0.367-0.222 0.691-0.418 0.976l0.006-0.009c0.483-0.057 0.919-0.217 1.299-0.456l-0.013 0.008c-0.105 0.369-0.244 0.691-0.419 0.99l0.011-0.020c0.015-0.026 0.298-0.090 0.35-0.119 0.107-0.062 0.192-0.152 0.245-0.26l0.002-0.004c0.153-0.273 0.248-0.602 0.389-0.886 0.336-0.672 0.684-1.243 1.073-1.783l-0.026 0.038z"/><path fill="#3f3d56" d="M25.026 0.346c-0.064 0.007-0.138 0.011-0.213 0.011-0.040 0-0.080-0.001-0.12-0.003l0.006 0c-0.002-0-0.005-0-0.008-0-0.036 0-0.066 0.027-0.071 0.062l-0 0-0.209 1.566c-0.017 0.119-0.065 0.225-0.136 0.311l0.001-0.001c-0.098 0.116-0.157 0.268-0.157 0.434 0 0.029 0.002 0.058 0.005 0.087l-0-0.003v2.66s-0.013 0.355 0.259 0.355c0.147 0.020 0.318 0.031 0.491 0.031s0.344-0.011 0.511-0.033l-0.020 0.002s0.218-0.041 0.218-0.369v-2.619c0.007-0.034 0.010-0.074 0.010-0.115 0-0.155-0.055-0.296-0.146-0.407l0.001 0.001c-0.067-0.086-0.113-0.19-0.13-0.305l-0-0.004-0.217-1.598c-0.005-0.035-0.035-0.062-0.071-0.062-0.002 0-0.004 0-0.005 0h0z"/><path fill="#deaf62" d="M24.696 2.855h0.331c0.274 0 0.496 0.222 0.496 0.496v1.245c0 0.274-0.222 0.496-0.496 0.496h-0.331c-0.274 0-0.496-0.222-0.496-0.496v-1.245c0-0.274 0.222-0.496 0.496-0.496z"/><path fill="#3f3d56" d="M28.123 2.635c-0.064 0.007-0.138 0.011-0.213 0.011-0.040 0-0.080-0.001-0.12-0.003l0.006 0c-0.002-0-0.005-0-0.008-0-0.036 0-0.066 0.027-0.071 0.062l-0 0-0.209 1.566c-0.017 0.119-0.065 0.225-0.136 0.311l0.001-0.001c-0.098 0.116-0.157 0.268-0.157 0.434 0 0.029 0.002 0.058 0.005 0.087l-0-0.003v2.66s-0.013 0.355 0.259 0.355c0.147 0.020 0.318 0.031 0.491 0.031s0.344-0.011 0.511-0.033l-0.020 0.002s0.218-0.041 0.218-0.369v-2.619c0.007-0.035 0.010-0.074 0.010-0.115 0-0.155-0.055-0.296-0.146-0.407l0.001 0.001c-0.067-0.086-0.113-0.19-0.13-0.305l-0-0.004-0.217-1.598c-0.005-0.035-0.035-0.062-0.071-0.062-0.002 0-0.004 0-0.005 0h0z"/><path fill="#deaf62" d="M27.794 5.145h0.331c0.274 0 0.496 0.222 0.496 0.496v1.245c0 0.274-0.222 0.496-0.496 0.496h-0.331c-0.274 0-0.496-0.222-0.496-0.496v-1.245c0-0.274 0.222-0.496 0.496-0.496z"/><path fill="#3f3d56" d="M24.641 29.457c-0.002 0.052-0.008 0.102-0.018 0.15l0.001-0.006q-0.469-0.075-0.943-0.135c0-0.013 0-0.026 0-0.039 0.003-0.141 0.044-0.272 0.114-0.384l-0.002 0.003c0.092-0.146 0.233-0.238 0.388-0.233s0.289 0.105 0.372 0.256c0.055 0.103 0.088 0.224 0.088 0.354 0 0.011-0 0.023-0.001 0.034l0-0.002z" opacity=".2"/><path fill="#3f3d56" d="M24.206 28.047c0.265 0.008 0.471 0.297 0.46 0.644s-0.235 0.622-0.5 0.613c-0.265-0.008-0.471-0.297-0.46-0.644s0.235-0.622 0.5-0.613z" opacity=".2"/><path fill="#3f3d56" d="M24.231 27.278c0.265 0.008 0.471 0.297 0.46 0.644s-0.235 0.622-0.5 0.613c-0.265-0.008-0.471-0.297-0.46-0.644s0.235-0.622 0.5-0.613z" opacity=".2"/><path fill="#3f3d56" d="M24.255 26.51c0.265 0.008 0.471 0.297 0.46 0.644s-0.235 0.622-0.5 0.613c-0.265-0.008-0.471-0.297-0.46-0.644s0.235-0.622 0.5-0.613z" opacity=".2"/><path fill="#3f3d56" d="M24.279 25.741c0.265 0.008 0.471 0.297 0.46 0.644s-0.235 0.622-0.5 0.613c-0.265-0.008-0.471-0.297-0.46-0.644s0.235-0.622 0.5-0.613z" opacity=".2"/><path fill="#deaf62" d="M22.626 21.052c-0.058-0.078-0.115-0.166-0.165-0.258l-0.006-0.012 1.269-0.167-1.366-0.033c-0.115-0.264-0.181-0.572-0.181-0.896 0-0.336 0.072-0.655 0.201-0.943l-0.006 0.015 1.801 1.008-1.65-1.295c0.413-0.659 1.135-1.091 1.958-1.091 1.271 0 2.302 1.031 2.302 2.302 0 0.566-0.205 1.085-0.544 1.486l0.003-0.003c0.092 0.124 0.176 0.264 0.243 0.413l0.006 0.014-1.665 0.799 1.765-0.531c0.063 0.2 0.099 0.43 0.099 0.668 0 0.566-0.204 1.084-0.543 1.486l0.003-0.003c0.28 0.377 0.449 0.852 0.449 1.366 0 1.271-1.031 2.302-2.302 2.302s-2.302-1.031-2.302-2.302c0-0.565 0.204-1.083 0.541-1.483l-0.003 0.003c-0.28-0.377-0.449-0.852-0.449-1.365 0-0.565 0.204-1.082 0.541-1.483l-0.003 0.003z" opacity=".2"/><path fill="#000" d="M26.69 22.604c-0.017 0.539-0.218 1.028-0.541 1.41l0.003-0.003c0.28 0.377 0.449 0.852 0.449 1.366 0 1.271-1.031 2.302-2.302 2.302s-2.302-1.031-2.302-2.302c0-0.565 0.204-1.083 0.541-1.483l-0.003 0.003c-0.295-0.401 4.163-1.551 4.155-1.293z" opacity=".02"/></svg>