<!-- Generated by IcoMoon.io -->
<svg version="1.1" xmlns="http://www.w3.org/2000/svg" width="47" height="32" viewBox="0 0 47 32">
<title>nature</title>
<path fill="#deaf62" opacity="0.1" d="M38.35 17.561c-1.275 1.621-0.779 3.988 0.031 5.884 0.271 0.635 0.578 1.307 0.464 1.987-0.14 0.833-0.883 1.441-1.663 1.764-1.422 0.588-3.124 0.448-4.431-0.365-1.129-0.703-1.938-1.845-3.087-2.515-1.922-1.122-4.369-0.698-6.456 0.075-1.477 0.547-3.091 1.258-4.558 0.687-1.032-0.402-1.746-1.381-2.135-2.418-0.188-0.501-0.324-1.043-0.682-1.44-0.213-0.236-0.491-0.404-0.776-0.545-2.602-1.29-5.888-0.599-8.415-2.030-1.707-0.966-2.799-2.789-3.283-4.69s-0.427-3.894-0.305-5.851c0.087-1.391 0.244-2.876 1.133-3.95 0.94-1.136 2.554-1.558 4.013-1.342s2.781 0.985 3.944 1.891c1.454 1.133 2.802 2.543 4.586 3.002 1.215 0.312 2.494 0.142 3.748 0.082 2.096-0.099 4.192 0.121 6.276 0.362 1.995 0.231 4.005 0.485 5.905 1.134 1.345 0.459 2.423 1.293 3.694 1.876 0.828 0.38 1.731 0.485 2.514 0.968 0.966 0.596 1.851 1.632 1.603 2.844-0.235 1.153-1.443 1.731-2.12 2.591z"></path>
<path fill="#deaf62" opacity="0.1" d="M0.95 21.546s7.33-1.923 16.824 2.964 19.868-3.845 19.668-5.167 6.89 0 6.89 0v11.817h-43.381z"></path>
<path fill="#ffdf9c" d="M8.045 1.992c0 1.1-0.892 1.992-1.992 1.992s-1.992-0.892-1.992-1.992c0-1.1 0.892-1.992 1.992-1.992s1.992 0.892 1.992 1.992z"></path>
<path fill="#ffcdd3" d="M20.027 10.18l-0.325 2.018s-0.406 1.332-0.365 1.978 0 1.534 0 1.534-0.973 1.776-0.162 2.503 1.055-2.301 1.055-2.301-0.122-1.292 0.162-1.978 0.325-2.18 0.325-2.18z"></path>
<path fill="#000" opacity="0.05" d="M20.027 10.18l-0.325 2.018s-0.406 1.332-0.365 1.978 0 1.534 0 1.534-0.973 1.776-0.162 2.503 1.055-2.301 1.055-2.301-0.122-1.292 0.162-1.978 0.325-2.18 0.325-2.18z"></path>
<path fill="#ffcdd3" d="M24.779 17.12l0.561 2.102 0.527 2.462s0.284 0.525 0 1.615l0.933 3.028s0.527 1.938 0.852 1.978-0.325 1.534-0.325 1.534l-0.892-0.525s-0.243-1.211-0.568-1.494-1.379-3.108-1.379-3.108l-0.325-1.978s-1.014-2.705-1.906-3.351-1.176-1.695-1.176-1.695z"></path>
<path fill="#000" opacity="0.05" d="M21.081 17.688s0.284 1.050 1.176 1.695 1.906 3.351 1.906 3.351l0.325 1.978s1.055 2.826 1.379 3.108c0.238 0.207 0.433 0.915 0.519 1.277 0.032 0.131 0.049 0.217 0.049 0.217l0.892 0.525s0.649-1.494 0.325-1.534c-0.050-0.006-0.105-0.058-0.163-0.141-0.312-0.453-0.689-1.837-0.689-1.837l-0.933-3.028c0.284-1.090 0-1.615 0-1.615l-0.527-2.462-0.561-2.102z"></path>
<path fill="#ffcdd3" d="M15.89 28.184l0.325 0.767 1.46-0.161c-0.043-0.188-0.070-0.406-0.075-0.63l-0-0.004c-0.013-0.458 0.058-1.077 0.44-1.546 0.69-0.848 1.744-2.947 1.744-2.947s1.055-1.13 1.298-1.574l2.030-3.39-0.063-0.304 0.548-0.505h-3.407l-0.811 3.149-0.649 1.292s-1.379 1.171-1.906 3.633c0 0-0.526 1.641-0.861 2.13-0.022 0.034-0.046 0.063-0.072 0.090l0-0z"></path>
<path fill="#000" opacity="0.1" d="M26.387 29.098c0.032 0.131 0.049 0.217 0.049 0.217l0.892 0.525s0.649-1.494 0.325-1.534c-0.050-0.006-0.105-0.058-0.163-0.141-0.067 0.040-0.111 0.113-0.111 0.195 0 0.020 0.003 0.039 0.007 0.058l-0-0.002c0.014 0.065 0.036 0.123 0.066 0.176l-0.002-0.003c0.122 0.202-0.406 0.525-0.406 0.525-0.178 0.227-0.466 0.107-0.657-0.015z"></path>
<path fill="#dce6f2" d="M27.426 28.496c-0.056-0.233 0.237-0.389 0.401-0.214 0.041 0.042 0.077 0.090 0.107 0.141l0.002 0.004c0.162 0.283 1.379 0.525 1.622 0.444s1.095-0.161 0.892 0.444-3.853 1.494-3.853 1.494-0.406-0.565-0.365-0.969c0.011-0.121 0.018-0.262 0.018-0.404s-0.006-0.283-0.019-0.422l0.001 0.018s0.568 0.525 0.852 0.161c0 0 0.527-0.323 0.406-0.525-0.028-0.050-0.050-0.107-0.063-0.168l-0.001-0.004z"></path>
<path fill="#000" opacity="0.1" d="M15.89 28.184l0.325 0.767 1.46-0.161c-0.043-0.188-0.070-0.406-0.075-0.63l-0-0.004c-0.034-0.066-0.101-0.11-0.179-0.11-0.058 0-0.11 0.025-0.147 0.064l-0 0c-0.075 0.081-0.152 0.166-0.208 0.236-0.162 0.202-0.69 0.081-0.69 0.081-0.137 0.045-0.299-0.151-0.415-0.332-0.022 0.034-0.046 0.063-0.072 0.090l0-0z"></path>
<path fill="#dce6f2" d="M17.233 28.19c0.037-0.040 0.089-0.064 0.147-0.064 0.092 0 0.169 0.062 0.192 0.147l0 0.001c0.074 0.287 0.236 0.658 0.588 0.798 0.608 0.242 1.46 0.646 1.176 1.009s-1.257 0.686-2.109 0.404-2.069-0.969-2.069-0.969l0.608-1.615s0.324 0.686 0.568 0.606c0 0 0.527 0.121 0.69-0.081 0.056-0.070 0.133-0.155 0.208-0.236z"></path>
<path fill="#ffcdd3" d="M22.744 5.497s-0.973 1.332-0.73 2.261-1.947-0.606-1.947-0.606 1.136-1.009 0.933-2.664z"></path>
<path fill="#ff8aa1" d="M19.54 18.132c1.622 0.969 3.569 0.565 3.569 0.565l-0.041-0.283c0.028 0.003 0.057 0.006 0.084 0.008 1.551 0.136 1.903-0.331 1.903-0.331-0.243-0.679-0.433-2.117-0.551-3.229-0.017-0.16-0.032-0.313-0.047-0.456-0.032-0.324-0.056-0.597-0.071-0.782-0.013-0.162-0.020-0.256-0.020-0.256l-0.162-1.211s-0.446-1.453-0.243-2.422c0.173-0.825-0.39-1.123-0.561-1.194-0.023-0.009-0.050-0.018-0.079-0.024l-0.004-0.001c-0.222-0.053-0.47-0.279-0.681-0.522-0.302-0.343-0.685-0.608-1.119-0.767l-0.019-0.006c-0.204-0.074-0.377-0.152-0.377-0.152-0.284-0.323-1.055-0.121-1.055-0.121-0.933 0.606-0.446 2.584-0.446 2.584l0.388 1.103c0.216 0.614 0.524 1.189 0.879 1.735 0.596 0.916-0.213 2.168-0.213 2.168-1.257 1.009-1.136 3.593-1.136 3.593z"></path>
<path fill="#000" opacity="0.05" d="M23.008 16.255l0.145 2.168c1.551 0.136 1.903-0.331 1.903-0.331-0.243-0.679-0.433-2.117-0.551-3.229-0.017-0.16-0.032-0.313-0.047-0.456z"></path>
<path fill="#000" opacity="0.1" d="M20.432 10.583s0.73 1.373 0.973 1.978 0.243 0.404 0.365 0.606 1.42 1.090 1.42 1.090l1.315 0.606c-0.056-0.522-0.096-0.972-0.118-1.238l-1.237-0.821s-0.852-0.525-0.892-1.211-0.568-1.938-0.568-1.938-1.055-1.13-1.501-0.606 0.243 1.534 0.243 1.534z"></path>
<path fill="#ffcdd3" d="M21.69 9.453s0.527 1.251 0.568 1.938 0.892 1.211 0.892 1.211l2.677 1.776s2.312 0.767 1.541 1.655-1.988-0.969-1.988-0.969l-2.19-1.009s-1.298-0.888-1.42-1.090-0.122 0-0.365-0.606-0.973-1.978-0.973-1.978-0.69-1.009-0.243-1.534 1.501 0.606 1.501 0.606z"></path>
<path fill="#000" opacity="0.1" d="M22.014 9.978s-0.811-0.606-0.973-0.807c-0.072-0.089-0.183-0.076-0.285-0.033-0.148 0.065-0.322 0.103-0.503 0.103-0.035 0-0.070-0.001-0.104-0.004l0.005 0c-0.177-0.015-0.35-0.005-0.33 0.096 0.041 0.202-0.122-1.050-0.122-1.050l0.69-0.242 0.892 0.484z"></path>
<path fill="#ff8aa1" d="M22.014 9.897s-0.811-0.606-0.973-0.807c-0.072-0.089-0.183-0.076-0.285-0.033-0.148 0.065-0.322 0.103-0.503 0.103-0.035 0-0.070-0.001-0.104-0.004l0.005 0c-0.177-0.015-0.35-0.005-0.33 0.096 0.041 0.202-0.122-1.050-0.122-1.050l0.69-0.242 0.892 0.484z"></path>
<path fill="#000" opacity="0.1" d="M23.924 9.978c-0.118 0.053-0.255 0.083-0.4 0.083-0.191 0-0.369-0.054-0.521-0.146l0.004 0.002z"></path>
<path fill="#000" opacity="0.1" d="M21.264 4.589c0.030-0.241-0.27 0.26-0.304-0.020l1.744 1.009s-0.1 0.136-0.227 0.352c-0.060 0.007-0.129 0.011-0.199 0.011h-0c-0.525 0-0.691-0.99-1.014-1.352z"></path>
<path fill="#ffcdd3" d="M24.083 4.104c0 0.97-0.79 1.756-1.764 1.756s-1.764-0.786-1.764-1.756c0-0.97 0.79-1.756 1.764-1.756s1.764 0.786 1.764 1.756z"></path>
<path fill="#000" opacity="0.1" d="M23.11 4.135c-0.013 0.11-0.011 0.227-0.063 0.325-0.074 0.137-0.233 0.199-0.366 0.281-0.539 0.33-0.699 1.074-0.527 1.68 0.061 0.215 0.157 0.432 0.117 0.652-0.068 0.377-0.5 0.572-0.883 0.606s-0.785-0.028-1.144 0.111c-0.602 0.234-0.868 0.937-1.38 1.33-0.596 0.457-1.416 0.429-2.166 0.482-0.277 0.020-0.559 0.053-0.831-0.002s-0.541-0.219-0.638-0.478c-0.136-0.366 0.112-0.764 0.399-1.029s0.638-0.49 0.801-0.846c0.219-0.478 0.042-1.081 0.317-1.529 0.051-0.091 0.128-0.162 0.221-0.203l0.003-0.001c0.121-0.045 0.256-0.014 0.385-0.010 0.501 0.017 0.928-0.381 1.161-0.822s0.332-0.942 0.544-1.394c0.241-0.511 0.642-0.962 1.164-1.184 0.306-0.13 0.639-0.178 0.958-0.27 0.363-0.105 0.709-0.269 1.080-0.337s0.792-0.023 1.064 0.238c0.256 0.246 0.33 0.632 0.575 0.889 0.092 0.097 0.211 0.179 0.255 0.305 0.105 0.299-0.406 0.324-0.576 0.444-0.25 0.175-0.423 0.445-0.468 0.757l-0.001 0.006z"></path>
<path fill="#deaf62" d="M23.029 4.095c-0.013 0.11-0.011 0.227-0.063 0.325-0.074 0.137-0.233 0.199-0.366 0.281-0.539 0.33-0.699 1.074-0.527 1.68 0.061 0.215 0.157 0.432 0.117 0.652-0.068 0.377-0.5 0.572-0.883 0.606s-0.785-0.028-1.144 0.111c-0.602 0.234-0.868 0.937-1.38 1.33-0.596 0.457-1.416 0.429-2.166 0.482-0.277 0.020-0.559 0.053-0.831-0.002s-0.541-0.219-0.638-0.478c-0.136-0.366 0.112-0.764 0.399-1.029s0.638-0.49 0.801-0.846c0.219-0.478 0.042-1.081 0.317-1.529 0.051-0.091 0.128-0.162 0.221-0.203l0.003-0.001c0.121-0.045 0.256-0.014 0.385-0.010 0.501 0.017 0.928-0.381 1.161-0.822s0.332-0.942 0.544-1.394c0.241-0.511 0.642-0.962 1.164-1.184 0.306-0.13 0.639-0.178 0.958-0.27 0.363-0.105 0.709-0.269 1.080-0.337s0.792-0.023 1.064 0.238c0.256 0.246 0.33 0.632 0.575 0.889 0.092 0.097 0.211 0.179 0.255 0.305 0.105 0.299-0.406 0.324-0.576 0.444-0.25 0.175-0.423 0.445-0.468 0.757l-0.001 0.006z"></path>
<path fill="#deaf62" d="M2.412 31.179s-1.322-2.363 0.32-4.246 3.565-0.841 3.565-0.841 2.403 1.122 1.843 3.805c0 0-0.32 1.362-1.282 1.282z"></path>
<path fill="#fff" opacity="0.2" d="M2.412 31.179s-1.322-2.363 0.32-4.246 3.565-0.841 3.565-0.841 2.403 1.122 1.843 3.805c0 0-0.32 1.362-1.282 1.282z"></path>
<path fill="#deaf62" d="M16.713 31.179s1.322-2.163-1.963-5.368-3.084-3.805-2.804-4.286c0 0-2.644 0.32-2.083 4.286s2.964 5.368 2.964 5.368z"></path>
<path fill="#deaf62" d="M38.352 5.559c-0.59 0.599-0.629 1.518-0.629 1.518s0.918-0.052 1.509-0.651 0.629-1.518 0.629-1.518-0.918 0.052-1.509 0.651z"></path>
<path fill="#fc6681" d="M3.222 14.692c-0.59 0.599-0.629 1.518-0.629 1.518s0.918-0.052 1.509-0.651 0.629-1.518 0.629-1.518-0.918 0.052-1.509 0.651z"></path>
<path fill="#deaf62" d="M36.109 16.654c-0.59 0.599-0.629 1.518-0.629 1.518s0.918-0.052 1.509-0.651 0.629-1.518 0.629-1.518-0.918 0.052-1.509 0.651z"></path>
<path fill="#deaf62" d="M7.182 15.996c-0.778-0.32-1.643-0.008-1.643-0.008s0.396 0.83 1.174 1.15 1.643 0.008 1.643 0.008-0.396-0.83-1.174-1.15z"></path>
<path fill="#ffd037" d="M16.962 14.795c-0.45-0.711-1.336-0.957-1.336-0.957s-0.157 0.906 0.292 1.617 1.336 0.957 1.336 0.957 0.157-0.906-0.292-1.617z"></path>
<path fill="#fc6681" d="M28.161 17.733c0 0.192-0.155 0.347-0.347 0.347s-0.347-0.155-0.347-0.347c0-0.192 0.155-0.347 0.347-0.347s0.347 0.155 0.347 0.347z"></path>
<path fill="#fc6681" d="M28.971 21.437c0 0.192-0.155 0.347-0.347 0.347s-0.347-0.155-0.347-0.347c0-0.192 0.155-0.347 0.347-0.347s0.347 0.155 0.347 0.347z"></path>
<path fill="#deaf62" d="M21.299 22.567s-1.322-1.482-1.803 0.36-0.761 2.083-1.722 1.602-1.963 1.803 0.401 3.445 1.041 3.265 1.041 3.265h8.452s1.122-3.265-1.322-4.386-2.363-1.963-2.283-3.084-2.764-1.202-2.764-1.202z"></path>
<path fill="#deaf62" d="M19.437 31.179s1.722-1.282-0.441-5.768c0 0-2.884-3.565 0-6.93 0 0-6.289 0.16-6.169 6.008s3.144 6.689 3.144 6.689z"></path>
<path fill="#000" opacity="0.1" d="M19.437 31.179s1.722-1.282-0.441-5.768c0 0-2.884-3.565 0-6.93 0 0-6.289 0.16-6.169 6.008s3.144 6.689 3.144 6.689z"></path>
<path fill="#deaf62" d="M34.876 31.144s-5.894-1.318 1.605-9.028c0 0 3.233 3.064 2.047 6.873-0.477 1.531-2.011 2.477-3.564 2.174q-0.044-0.009-0.088-0.018z"></path>
<path fill="#fff" opacity="0.4" d="M34.876 31.144c-0.129-0.029-5.767-1.448 1.605-9.028 0 0 3.233 3.064 2.047 6.873-0.477 1.531-2.011 2.477-3.564 2.174q-0.044-0.009-0.088-0.018z"></path>
<path fill="#deaf62" d="M10.481 31.144s-5.894-1.318 1.605-9.028c0 0 3.233 3.064 2.047 6.873-0.477 1.531-2.011 2.477-3.564 2.174q-0.044-0.009-0.088-0.018z"></path>
<path fill="#fff" opacity="0.4" d="M10.481 31.144c-0.129-0.029-5.767-1.448 1.605-9.028 0 0 3.233 3.064 2.047 6.873-0.477 1.531-2.011 2.477-3.564 2.174q-0.044-0.009-0.088-0.018z"></path>
<path fill="#deaf62" d="M23.66 31.144s-5.894-1.318 1.605-9.028c0 0 3.233 3.064 2.047 6.873-0.477 1.531-2.011 2.477-3.564 2.174q-0.044-0.009-0.088-0.018z"></path>
<path fill="#fff" opacity="0.4" d="M23.66 31.144c-0.129-0.029-5.767-1.448 1.605-9.028 0 0 3.233 3.064 2.047 6.873-0.477 1.531-2.011 2.477-3.564 2.174q-0.044-0.009-0.088-0.018z"></path>
<path fill="#deaf62" d="M41.766 31.144s-5.894-1.318 1.605-9.028c0 0 3.233 3.064 2.047 6.873-0.477 1.531-2.011 2.477-3.564 2.174q-0.044-0.009-0.088-0.018z"></path>
<path fill="#fff" opacity="0.4" d="M41.766 31.144c-0.129-0.029-5.767-1.448 1.605-9.028 0 0 3.233 3.064 2.047 6.873-0.477 1.531-2.011 2.477-3.564 2.174q-0.044-0.009-0.088-0.018z"></path>
<path fill="#deaf62" d="M30.79 31.144s-5.894-1.318 1.605-9.028c0 0 3.233 3.064 2.047 6.873-0.477 1.531-2.011 2.477-3.564 2.174q-0.044-0.009-0.088-0.018z"></path>
<path fill="#fff" opacity="0.4" d="M30.79 31.144c-0.129-0.029-5.767-1.448 1.605-9.028 0 0 3.233 3.064 2.047 6.873-0.477 1.531-2.011 2.477-3.564 2.174q-0.044-0.009-0.088-0.018z"></path>
<path fill="#deaf62" d="M10.284 30.683c0.174-0.132 0.337-0.288 0.387-0.477 0.008-0.030 0.013-0.065 0.013-0.101 0-0.18-0.118-0.332-0.281-0.384l-0.003-0.001c-0.249-0.078-0.514 0.063-0.716 0.205s-0.432 0.304-0.696 0.274c0.273-0.197 0.403-0.518 0.328-0.809-0.014-0.065-0.046-0.121-0.091-0.164l-0-0c-0.138-0.12-0.388-0.069-0.553 0.026-0.525 0.302-0.672 0.884-0.675 1.408-0.053-0.189-0.008-0.386-0.010-0.58s-0.066-0.409-0.267-0.513c-0.119-0.062-0.266-0.074-0.407-0.078-0.236-0.007-0.499 0.012-0.661 0.153-0.2 0.175-0.148 0.469 0.026 0.662s0.44 0.314 0.684 0.447c0.186 0.101 0.374 0.22 0.489 0.38 0.014 0.020 0.026 0.042 0.035 0.066l0.001 0.002h1.481c0.35-0.145 0.651-0.318 0.927-0.524l-0.011 0.008z"></path>
<path fill="#deaf62" d="M35.079 30.683c0.174-0.132 0.337-0.288 0.387-0.477 0.008-0.030 0.013-0.065 0.013-0.101 0-0.18-0.118-0.332-0.281-0.384l-0.003-0.001c-0.249-0.078-0.514 0.063-0.716 0.205s-0.432 0.304-0.696 0.274c0.273-0.197 0.403-0.518 0.328-0.809-0.014-0.065-0.046-0.121-0.091-0.164l-0-0c-0.138-0.12-0.388-0.069-0.553 0.026-0.525 0.302-0.672 0.884-0.675 1.408-0.053-0.189-0.008-0.386-0.010-0.58s-0.066-0.409-0.267-0.513c-0.119-0.062-0.266-0.074-0.407-0.078-0.236-0.007-0.499 0.012-0.661 0.153-0.2 0.175-0.148 0.469 0.026 0.662s0.44 0.314 0.684 0.447c0.186 0.101 0.374 0.22 0.489 0.38 0.014 0.020 0.026 0.042 0.035 0.066l0.001 0.002h1.481c0.35-0.145 0.651-0.318 0.927-0.524l-0.011 0.008z"></path>
<path fill="#3f3d56" d="M27.113 27.801c1.295 2.402 4.043 3.433 4.043 3.433s0.649-2.863-0.646-5.264-4.043-3.433-4.043-3.433-0.649 2.863 0.646 5.264z"></path>
<path fill="#deaf62" d="M28.003 27.011c2.338 1.407 3.238 4.2 3.238 4.2s-2.89 0.513-5.228-0.893-3.238-4.2-3.238-4.2 2.89-0.513 5.228 0.893z"></path>
<path fill="#3f3d56" d="M19.582 27.801c1.295 2.402 4.043 3.433 4.043 3.433s0.649-2.863-0.646-5.264-4.043-3.433-4.043-3.433-0.649 2.863 0.646 5.264z"></path>
<path fill="#deaf62" d="M20.472 27.011c2.338 1.407 3.238 4.2 3.238 4.2s-2.89 0.513-5.228-0.893-3.238-4.2-3.238-4.2 2.89-0.513 5.228 0.893z"></path>
<path fill="#3f3d56" d="M11.882 19.685c-2.24 3.354-1.684 7.657-1.684 7.657s4.188-1.134 6.428-4.488 1.684-7.657 1.684-7.657-4.188 1.134-6.428 4.488z"></path>
<path fill="#fc6681" d="M13.53 20.3c-0.219 4.027-3.244 7.137-3.244 7.137s-2.671-3.419-2.453-7.447 3.244-7.137 3.244-7.137 2.671 3.419 2.453 7.447z"></path>
<path fill="#deaf62" d="M43.774 24.87c0.084 4.567-2.601 6.212-5.95 6.274q-0.117 0.002-0.232 0.002-0.233-0.001-0.461-0.013c-3.026-0.158-5.406-1.791-5.484-6.039-0.081-4.396 5.434-10.046 5.848-10.464 0 0 0 0 0.001-0 0.016-0.016 0.024-0.024 0.024-0.024s6.171 5.698 6.256 10.265z"></path>
<path fill="#3f3d56" d="M37.59 30.449l2.161-3.14-2.16 3.48 0.001 0.356q-0.233-0.001-0.461-0.013l0.155-4.573-0.002-0.035 0.004-0.007 0.015-0.432-2.293-3.406 2.293 3.083 0.007 0.091 0.117-3.455-1.974-3.527 1.986 2.92 0.056-7.161 0-0.024 0 0.023 0.073 5.645 1.858-2.273-1.857 2.759 0.007 3.092 1.719-2.999-1.718 3.454 0.004 1.719 2.499-4.177-2.498 4.776z"></path>
<path fill="#deaf62" d="M34.361 24.87c0.084 4.567-2.601 6.212-5.95 6.274q-0.117 0.002-0.232 0.002-0.233-0.001-0.461-0.013c-3.026-0.158-5.406-1.791-5.484-6.039-0.081-4.396 5.434-10.046 5.848-10.464 0 0 0 0 0.001-0 0.016-0.016 0.024-0.024 0.024-0.024s6.171 5.698 6.256 10.265z"></path>
<path fill="#3f3d56" d="M28.177 30.449l2.161-3.14-2.16 3.48 0.001 0.356q-0.233-0.001-0.461-0.013l0.155-4.573-0.003-0.035 0.004-0.007 0.015-0.432-2.293-3.406 2.293 3.083 0.007 0.091 0.117-3.455-1.974-3.527 1.986 2.92 0.056-7.161 0-0.024 0 0.023 0.073 5.645 1.858-2.273-1.857 2.759 0.007 3.092 1.719-2.999-1.718 3.454 0.004 1.719 2.499-4.177-2.498 4.776z"></path>
<path fill="#3f3d56" d="M45.616 24.95c0.084 4.567-2.601 6.212-5.95 6.274q-0.117 0.002-0.232 0.002-0.233-0.001-0.461-0.013c-3.026-0.158-5.406-1.791-5.484-6.039-0.081-4.396 5.434-10.046 5.848-10.464 0 0 0 0 0.001-0 0.016-0.016 0.024-0.024 0.024-0.024s6.171 5.698 6.256 10.265z"></path>
<path fill="#fc6681" d="M39.433 30.529l2.161-3.14-2.16 3.48 0.001 0.356q-0.233-0.001-0.461-0.013l0.155-4.573-0.002-0.035 0.004-0.007 0.015-0.432-2.293-3.406 2.293 3.083 0.007 0.091 0.117-3.455-1.974-3.527 1.986 2.92 0.056-7.161 0-0.024 0 0.023 0.073 5.645 1.858-2.273-1.857 2.759 0.007 3.092 1.719-2.999-1.718 3.454 0.004 1.719 2.499-4.177-2.498 4.776z"></path>
<path fill="#deaf62" d="M12.129 24.87c0.084 4.567-2.601 6.212-5.95 6.274q-0.117 0.002-0.232 0.002-0.233-0.001-0.461-0.013c-3.026-0.158-5.406-1.791-5.484-6.039-0.081-4.396 5.434-10.046 5.848-10.464 0 0 0 0 0.001-0 0.016-0.016 0.024-0.024 0.024-0.024s6.171 5.698 6.256 10.265z"></path>
<path fill="#3f3d56" d="M5.945 30.449l2.161-3.14-2.16 3.48 0.001 0.356q-0.233-0.001-0.461-0.013l0.155-4.573-0.003-0.035 0.004-0.007 0.015-0.432-2.293-3.406 2.293 3.083 0.007 0.091 0.117-3.455-1.974-3.527 1.986 2.92 0.056-7.161 0-0.024 0 0.023 0.073 5.645 1.858-2.273-1.857 2.759 0.007 3.092 1.719-2.999-1.718 3.454 0.004 1.719 2.499-4.177-2.498 4.776z"></path>
<path fill="#3f3d56" d="M36.776 31.84q-2.162-0.366-4.158-0.629l0.526-1.020c-0.177-0.062-0.957 0.523-0.957 0.523l0.691-2.961c-0.892 0.108-1.346 3.131-1.346 3.131l-0.997-1.022 0.483 1.149c-4.074-0.48-7.592-0.658-10.551-0.664l0.45-0.873c-0.177-0.062-0.957 0.523-0.957 0.523l0.691-2.961c-0.892 0.108-1.346 3.131-1.346 3.131l-0.997-1.022 0.511 1.217c-2.481 0.050-4.504 0.219-6.065 0.412 0.456-1.36 2.003-2.654 2.003-2.654-1.182 0.351-1.802 0.94-2.126 1.489-0.001-0.073-0.001-0.159-0.001-0.246 0-2.866 0.506-5.615 1.433-8.16l-0.053 0.166s-2.443 5.315-2.131 8.883l0.037 0.634c-2.071 0.296-3.112 0.605-3.112 0.605z"></path>
<path fill="#3f3d56" d="M41.463 31.599q-2.162-0.366-4.158-0.629l0.526-1.020c-0.177-0.062-0.957 0.523-0.957 0.523l0.691-2.961c-0.892 0.108-1.346 3.131-1.346 3.131l-0.997-1.022 0.483 1.149c-4.074-0.48-7.592-0.658-10.551-0.664l0.45-0.873c-0.177-0.062-0.957 0.523-0.957 0.523l0.691-2.961c-0.892 0.108-1.346 3.131-1.346 3.131l-0.997-1.022 0.511 1.217c-2.481 0.050-4.504 0.219-6.065 0.412 0.456-1.36 2.003-2.654 2.003-2.654-1.182 0.351-1.802 0.94-2.125 1.489-0.001-0.073-0.001-0.159-0.001-0.246 0-2.866 0.506-5.615 1.433-8.16l-0.053 0.166s-2.443 5.315-2.131 8.883l0.037 0.634c-2.071 0.296-3.112 0.605-3.112 0.605z"></path>
<path fill="#3f3d56" d="M46.831 32q-2.162-0.366-4.158-0.629l0.526-1.020c-0.177-0.062-0.957 0.523-0.957 0.523l0.691-2.961c-0.892 0.108-1.346 3.131-1.346 3.131l-0.997-1.022 0.483 1.149c-4.074-0.48-7.592-0.658-10.551-0.664l0.45-0.873c-0.177-0.062-0.957 0.523-0.957 0.523l0.691-2.961c-0.892 0.108-1.346 3.131-1.346 3.131l-0.997-1.022 0.511 1.217c-2.481 0.050-4.504 0.219-6.065 0.412 0.456-1.36 2.003-2.654 2.003-2.654-1.182 0.351-1.802 0.94-2.125 1.489-0.001-0.073-0.001-0.159-0.001-0.246 0-2.866 0.506-5.615 1.433-8.16l-0.053 0.166s-2.443 5.315-2.131 8.883l0.037 0.634c-2.071 0.296-3.112 0.605-3.112 0.605z"></path>
<path fill="#3f3d56" d="M29.085 31.599q-2.162-0.366-4.158-0.629l0.526-1.020c-0.177-0.062-0.957 0.523-0.957 0.523l0.691-2.961c-0.892 0.108-1.346 3.131-1.346 3.131l-0.997-1.022 0.483 1.149c-4.074-0.48-7.592-0.658-10.551-0.664l0.45-0.873c-0.177-0.062-0.957 0.523-0.957 0.523l0.691-2.961c-0.892 0.108-1.346 3.131-1.346 3.131l-0.997-1.022 0.511 1.217c-2.481 0.050-4.504 0.219-6.065 0.412 0.455-1.36 2.003-2.654 2.003-2.654-1.182 0.351-1.802 0.94-2.126 1.489-0.001-0.073-0.001-0.159-0.001-0.246 0-2.866 0.506-5.615 1.433-8.16l-0.053 0.166s-2.443 5.315-2.131 8.883l0.037 0.634c-2.071 0.296-3.112 0.605-3.112 0.605z"></path>
</svg>
